<svg width="78" height="24" viewBox="0 0 78 24" fill="none" xmlns="http://www.w3.org/2000/svg">
<g clip-path="url(#clip0_19739_3865)">
<path d="M41.4876 6.03003C41.4876 6.89489 40.7909 7.59159 39.926 7.59159C39.0611 7.59159 38.3644 6.89489 38.3644 6.03003C38.3644 5.16516 39.0371 4.46847 39.926 4.46847C40.8149 4.49249 41.4876 5.18919 41.4876 6.03003ZM35.0491 9.17718C35.0491 9.32132 35.0491 9.56156 35.0491 9.56156C35.0491 9.56156 34.3044 8.6006 32.7188 8.6006C30.1002 8.6006 28.0581 10.5946 28.0581 13.3574C28.0581 16.0961 30.0761 18.1141 32.7188 18.1141C34.3284 18.1141 35.0491 17.1291 35.0491 17.1291V17.5375C35.0491 17.7297 35.1933 17.8739 35.3855 17.8739H37.3314V8.84084C37.3314 8.84084 35.5536 8.84084 35.3855 8.84084C35.1933 8.84084 35.0491 9.00901 35.0491 9.17718ZM35.0491 14.967C34.6888 15.4955 33.968 15.952 33.1032 15.952C31.5656 15.952 30.3885 14.991 30.3885 13.3574C30.3885 11.7237 31.5656 10.7628 33.1032 10.7628C33.944 10.7628 34.7128 11.2432 35.0491 11.7477V14.967ZM38.7728 8.84084H41.0792V17.8739H38.7728V8.84084ZM73.2233 8.6006C71.6377 8.6006 70.893 9.56156 70.893 9.56156V4.49249H68.5867V17.8739C68.5867 17.8739 70.3644 17.8739 70.5326 17.8739C70.7248 17.8739 70.8689 17.7057 70.8689 17.5375V17.1291C70.8689 17.1291 71.6137 18.1141 73.1993 18.1141C75.8179 18.1141 77.8599 16.0961 77.8599 13.3574C77.8599 10.6186 75.8179 8.6006 73.2233 8.6006ZM72.8389 15.9279C71.95 15.9279 71.2533 15.4715 70.893 14.9429V11.7237C71.2533 11.2432 72.0221 10.7387 72.8389 10.7387C74.3764 10.7387 75.5536 11.6997 75.5536 13.3333C75.5536 14.967 74.3764 15.9279 72.8389 15.9279ZM67.3855 12.5165V17.8979H65.0791V12.7808C65.0791 11.2913 64.5987 10.6907 63.3014 10.6907C62.6047 10.6907 61.884 11.0511 61.4275 11.5796V17.8739H59.1212V8.84084H60.947C61.1392 8.84084 61.2834 9.00901 61.2834 9.17718V9.56156C61.956 8.86486 62.8449 8.6006 63.7338 8.6006C64.7428 8.6006 65.5836 8.88889 66.2563 9.46547C67.0731 10.1381 67.3855 11.003 67.3855 12.5165ZM53.5236 8.6006C51.938 8.6006 51.1933 9.56156 51.1933 9.56156V4.49249H48.887V17.8739C48.887 17.8739 50.6647 17.8739 50.8329 17.8739C51.0251 17.8739 51.1692 17.7057 51.1692 17.5375V17.1291C51.1692 17.1291 51.914 18.1141 53.4996 18.1141C56.1182 18.1141 58.1602 16.0961 58.1602 13.3574C58.1843 10.6186 56.1422 8.6006 53.5236 8.6006ZM53.1392 15.9279C52.2503 15.9279 51.5536 15.4715 51.1933 14.9429V11.7237C51.5536 11.2432 52.3224 10.7387 53.1392 10.7387C54.6767 10.7387 55.8539 11.6997 55.8539 13.3333C55.8539 14.967 54.6767 15.9279 53.1392 15.9279ZM46.893 8.6006C47.5897 8.6006 47.95 8.72072 47.95 8.72072V10.8589C47.95 10.8589 46.0281 10.2102 44.8269 11.5796V17.8979H42.5206V8.84084C42.5206 8.84084 44.2984 8.84084 44.4665 8.84084C44.6587 8.84084 44.8029 9.00901 44.8029 9.17718V9.56156C45.2353 9.05706 46.1722 8.6006 46.893 8.6006ZM22.941 17.0571C22.8209 16.7688 22.7008 16.4565 22.5807 16.1922C22.3885 15.7598 22.1963 15.3514 22.0281 14.967L22.0041 14.9429C20.3464 11.3393 18.5686 7.68769 16.6948 4.08408L16.6227 3.93994C16.4305 3.57958 16.2383 3.19519 16.0461 2.81081C15.8059 2.37838 15.5656 1.92192 15.1813 1.48949C14.4125 0.528529 13.3074 0 12.1302 0C10.929 0 9.84792 0.528529 9.05513 1.44144C8.69477 1.87387 8.4305 2.33033 8.19026 2.76276C7.99807 3.14715 7.80588 3.53153 7.61369 3.89189L7.54162 4.03604C5.69177 7.63964 3.88996 11.2913 2.23231 14.8949L2.20828 14.9429C2.04011 15.3273 1.84792 15.7357 1.65573 16.1682C1.53561 16.4324 1.41549 16.7207 1.29537 17.033C0.983057 17.9219 0.886961 18.7628 1.00708 19.6276C1.27135 21.4294 2.47255 22.9429 4.1302 23.6156C4.75483 23.8799 5.40348 24 6.07615 24C6.26834 24 6.50858 23.976 6.70077 23.952C7.49357 23.8559 8.31039 23.5916 9.10318 23.1351C10.0882 22.5826 11.0251 21.7898 12.0822 20.6366C13.1392 21.7898 14.1002 22.5826 15.0611 23.1351C15.8539 23.5916 16.6707 23.8559 17.4635 23.952C17.6557 23.976 17.896 24 18.0882 24C18.7608 24 19.4335 23.8799 20.0341 23.6156C21.7158 22.9429 22.893 21.4054 23.1572 19.6276C23.3494 18.7868 23.2533 17.9459 22.941 17.0571ZM12.1062 18.3063C10.8089 16.6727 9.96804 15.1351 9.67975 13.8378C9.55963 13.2853 9.53561 12.8048 9.60768 12.3724C9.65573 11.988 9.79987 11.6517 9.99207 11.3634C10.4485 10.7147 11.2173 10.3063 12.1062 10.3063C12.9951 10.3063 13.7879 10.6907 14.2203 11.3634C14.4125 11.6517 14.5566 11.988 14.6047 12.3724C14.6768 12.8048 14.6527 13.3093 14.5326 13.8378C14.2443 15.1111 13.4035 16.6486 12.1062 18.3063ZM21.6918 19.4354C21.5236 20.6847 20.6828 21.7658 19.5056 22.2462C18.929 22.4865 18.3044 22.5586 17.6798 22.4865C17.0792 22.4144 16.4786 22.2222 15.8539 21.8619C14.9891 21.3814 14.1242 20.6366 13.1152 19.5315C14.7008 17.5856 15.6617 15.8078 16.0221 14.2222C16.1903 13.4775 16.2143 12.8048 16.1422 12.1802C16.0461 11.5796 15.8299 11.027 15.4936 10.5465C14.7488 9.46547 13.4996 8.84084 12.1062 8.84084C10.7128 8.84084 9.46354 9.48949 8.71879 10.5465C8.38246 11.027 8.16624 11.5796 8.07014 12.1802C7.97405 12.8048 7.99807 13.5015 8.19026 14.2222C8.55062 15.8078 9.53561 17.6096 11.0972 19.5556C10.1122 20.6607 9.2233 21.4054 8.35843 21.8859C7.73381 22.2462 7.13321 22.4384 6.53261 22.5105C5.88396 22.5826 5.25933 22.4865 4.70678 22.2703C3.5296 21.7898 2.68876 20.7087 2.52059 19.4595C2.44852 18.8589 2.49657 18.2583 2.73681 17.5856C2.80888 17.3453 2.929 17.1051 3.04912 16.8168C3.21729 16.4324 3.40948 16.024 3.60168 15.6156L3.6257 15.5676C5.28336 11.988 7.06114 8.33634 8.91098 4.78078L8.98306 4.63664C9.17525 4.27628 9.36744 3.89189 9.55963 3.53153C9.75183 3.14715 9.96804 2.78679 10.2323 2.47447C10.7368 1.8979 11.4095 1.58559 12.1542 1.58559C12.899 1.58559 13.5716 1.8979 14.0761 2.47447C14.3404 2.78679 14.5566 3.14715 14.7488 3.53153C14.941 3.89189 15.1332 4.27628 15.3254 4.63664L15.3975 4.78078C17.2233 8.36036 19.0011 12.012 20.6587 15.5916V15.6156C20.8509 16 21.0191 16.4324 21.2113 16.8168C21.3314 17.1051 21.4515 17.3453 21.5236 17.5856C21.7158 18.2102 21.7879 18.8108 21.6918 19.4354Z" fill="white"/>
</g>
<defs>
<clipPath id="clip0_19739_3865">
<rect width="76.9009" height="24" fill="white" transform="translate(0.964844)"/>
</clipPath>
</defs>
</svg>
