<svg width="268" height="220" viewBox="0 0 268 220" fill="none" xmlns="http://www.w3.org/2000/svg">
<g clip-path="url(#clip0_20023_51691)">
<rect width="268" height="220" rx="32" fill="#A16E00"/>
<path d="M176.44 176.858C180.563 179.238 180.589 183.11 176.493 185.491L142.35 205.332C138.255 207.712 131.569 207.709 127.447 205.329L93.0851 185.491C88.9628 183.11 88.9359 179.238 93.0318 176.858L127.175 157.016C131.271 154.636 137.956 154.639 142.079 157.019L176.44 176.858ZM141.807 205.019L175.95 185.177C179.747 182.971 179.732 179.378 175.905 177.169L141.544 157.33C137.717 155.121 131.51 155.121 127.713 157.327L93.5702 177.169C89.7734 179.375 89.7936 182.971 93.6202 185.18L127.982 205.018C131.808 207.228 138.01 207.225 141.807 205.019Z" fill="white"/>
<path d="M137.3 86.7138C139.027 87.7104 139.041 89.3316 137.32 90.3316C135.605 91.3283 132.801 91.3283 131.074 90.3316C129.348 89.3346 129.339 87.7108 131.054 86.7138C132.775 85.7137 135.573 85.7167 137.3 86.7138ZM131.61 90.0204C133.04 90.8466 135.361 90.8466 136.782 90.0204C138.203 89.1943 138.196 87.8503 136.765 87.0241C135.335 86.198 133.014 86.198 131.593 87.0241C130.171 87.8503 130.179 89.1943 131.61 90.0204Z" fill="white"/>
<path d="M229.013 84.344C233.135 86.7241 233.157 90.594 229.062 92.9741L194.919 112.816C190.823 115.196 184.142 115.196 180.019 112.816L145.653 92.9741C141.531 90.594 141.509 86.7241 145.604 84.344L179.747 64.5019C183.843 62.1218 190.524 62.1218 194.646 64.5019L229.013 84.344ZM194.38 112.505L228.523 92.6633C232.32 90.4566 232.299 86.8614 228.478 84.6548L194.111 64.8131C190.285 62.6039 184.083 62.6069 180.285 64.8131L146.142 84.6548C142.345 86.8614 142.361 90.4537 146.187 92.6633L180.554 112.505C184.376 114.712 190.583 114.712 194.38 112.505Z" fill="white"/>
<path d="M122.494 84.2796C126.617 86.6597 126.639 90.5296 122.543 92.9093L88.4001 112.751C84.3047 115.132 77.6238 115.132 73.5015 112.751L39.14 92.9127C35.0173 90.5325 34.9908 86.6601 39.0862 84.28L73.2297 64.4379C77.3252 62.0578 84.0111 62.0607 88.1334 64.4409L122.494 84.2796ZM87.8617 112.441L122.005 92.5985C125.802 90.3918 125.786 86.7996 121.96 84.5904L87.5984 64.7517C83.7717 62.5425 77.5645 62.5425 73.7677 64.7487L39.6247 84.5908C35.8279 86.7971 35.848 90.3927 39.6747 92.6019L74.0361 112.441C77.8627 114.65 84.0649 114.647 87.8617 112.441Z" fill="white"/>
<path d="M190.956 117.698C192.683 118.695 192.697 120.316 190.977 121.316C189.261 122.312 186.457 122.313 184.731 121.316C183.004 120.319 182.995 118.695 184.71 117.698C186.431 116.698 189.23 116.701 190.956 117.698ZM185.266 121.005C186.696 121.831 189.017 121.831 190.438 121.005C191.859 120.179 191.852 118.835 190.421 118.009C188.991 117.183 186.67 117.183 185.249 118.009C183.828 118.835 183.835 120.179 185.266 121.005Z" fill="white"/>
<path d="M83.5618 117.943C85.2884 118.939 85.2972 120.564 83.582 121.561C81.8667 122.558 79.0628 122.557 77.3361 121.561C75.6095 120.564 75.6003 118.94 77.316 117.943C79.0312 116.946 81.8352 116.946 83.5618 117.943ZM77.8712 121.25C79.3021 122.076 81.6222 122.076 83.0435 121.25C84.4648 120.424 84.4572 119.08 83.0267 118.254C81.5962 117.427 79.2757 117.427 77.8544 118.254C76.4331 119.08 76.4403 120.424 77.8712 121.25Z" fill="white"/>
<path d="M282.495 115.225C286.617 117.605 286.644 121.478 282.548 123.858L248.405 143.699C244.309 146.08 237.624 146.077 233.501 143.696L199.14 123.858C195.017 121.478 194.991 117.605 199.087 115.225L233.23 95.3835C237.325 93.0033 244.011 93.0058 248.133 95.386L282.495 115.225ZM247.862 143.386L282.005 123.544C285.802 121.337 285.787 117.745 281.96 115.535L247.599 95.6968C243.772 93.4876 237.565 93.4876 233.768 95.6938L199.625 115.535C195.828 117.742 195.848 121.337 199.675 123.547L234.036 143.385C237.863 145.595 244.065 145.592 247.862 143.386Z" fill="white"/>
<path d="M175.982 115.16C180.104 117.541 180.126 121.41 176.03 123.791L141.887 143.632C137.791 146.012 131.11 146.012 126.988 143.632L92.6217 123.791C88.4994 121.41 88.4775 117.541 92.573 115.16L126.716 95.3183C130.811 92.9382 137.492 92.9382 141.615 95.3183L175.982 115.16ZM141.349 143.321L175.492 123.479C179.289 121.273 179.269 117.677 175.447 115.471L141.08 95.6291C137.253 93.4199 131.051 93.4224 127.254 95.6291L93.1114 115.471C89.3146 117.677 89.3302 121.27 93.1568 123.479L127.523 143.321C131.345 145.528 137.552 145.528 141.349 143.321Z" fill="white"/>
<path d="M69.4635 115.096C73.5858 117.476 73.6076 121.345 69.5118 123.726L35.3687 143.568C31.2733 145.948 24.5924 145.948 20.4701 143.568L-13.8914 123.729C-18.0137 121.349 -18.0406 117.476 -13.9452 115.096L20.1979 95.2545C24.2937 92.8744 30.9793 92.8769 35.102 95.2574L69.4635 115.096ZM34.8307 143.257L68.9738 123.415C72.7706 121.208 72.7554 117.616 68.9288 115.407L34.5674 95.5678C30.7407 93.3586 24.5336 93.3586 20.7368 95.5649L-13.4063 115.407C-17.2031 117.614 -17.1829 121.209 -13.3563 123.418L21.0051 143.257C24.8318 145.466 31.0339 145.463 34.8307 143.257Z" fill="white"/>
<path d="M137.226 148.924C138.952 149.921 138.961 151.544 137.246 152.541C135.531 153.539 132.727 153.539 131 152.541C129.274 151.545 129.264 149.921 130.98 148.924C132.695 147.927 135.5 147.927 137.226 148.924ZM131.535 152.23C132.966 153.056 135.286 153.056 136.708 152.23C138.129 151.404 138.121 150.06 136.691 149.234C135.26 148.408 132.94 148.408 131.518 149.234C130.097 150.06 130.105 151.405 131.535 152.23Z" fill="white"/>
<path d="M229.471 146.041C233.594 148.421 233.62 152.294 229.525 154.674L195.382 174.516C191.286 176.896 184.6 176.893 180.478 174.513L146.116 154.674C141.994 152.294 141.967 148.422 146.063 146.042L180.206 126.2C184.301 123.82 190.987 123.822 195.11 126.203L229.471 146.041ZM194.838 174.202L228.982 154.361C232.778 152.154 232.763 148.562 228.936 146.352L194.575 126.513C190.748 124.304 184.541 124.304 180.744 126.51L146.601 146.353C142.804 148.559 142.824 152.154 146.651 154.364L181.012 174.202C184.839 176.412 191.042 176.409 194.838 174.202Z" fill="white"/>
<path d="M122.958 145.976C127.081 148.356 127.102 152.226 123.007 154.607L88.864 174.448C84.7686 176.828 78.0876 176.828 73.9649 174.448L39.5984 154.607C35.4757 152.226 35.4543 148.356 39.5497 145.976L73.6927 126.135C77.7886 123.755 84.4691 123.755 88.5918 126.135L122.958 145.976ZM88.3255 174.137L122.469 154.296C126.265 152.089 126.245 148.494 122.424 146.287L88.0572 126.446C84.2305 124.236 78.0284 124.239 74.2312 126.446L40.0881 146.287C36.2913 148.494 36.3069 152.086 40.1335 154.296L74.5 174.137C78.3216 176.344 84.5287 176.344 88.3255 174.137Z" fill="white"/>
<path d="M175.523 53.4632C179.645 55.8433 179.667 59.7132 175.571 62.0933L141.428 81.935C137.332 84.3151 130.651 84.3151 126.529 81.935L92.1673 62.0963C88.0446 59.7161 88.0181 55.8437 92.114 53.4636L126.257 33.6215C130.352 31.2414 137.038 31.2443 141.161 33.6245L175.523 53.4632ZM140.89 81.6242L175.033 61.7825C178.83 59.5758 178.815 55.9836 174.988 53.774L140.626 33.9353C136.8 31.7261 130.593 31.7261 126.796 33.9323L92.6528 53.774C88.856 55.9806 88.8762 59.5758 92.7028 61.785L127.064 81.6237C130.89 83.8334 137.093 83.8308 140.89 81.6242Z" fill="white"/>
<g opacity="0.56">
<path d="M176.44 182.67C180.563 185.05 180.589 188.923 176.493 191.303L142.35 211.145C138.255 213.525 131.569 213.522 127.447 211.142L93.0851 191.303C88.9628 188.923 88.9359 185.051 93.0318 182.67L127.175 162.829C131.271 160.449 137.956 160.451 142.079 162.831L176.44 182.67ZM141.807 210.831L175.95 190.989C179.747 188.783 179.732 185.19 175.905 182.981L141.544 163.142C137.717 160.933 131.51 160.933 127.713 163.139L93.5702 182.981C89.7734 185.187 89.7936 188.783 93.6202 190.992L127.982 210.831C131.808 213.04 138.01 213.037 141.807 210.831Z" fill="white"/>
<path d="M137.3 92.5298C139.027 93.5265 139.041 95.1477 137.32 96.1477C135.605 97.1444 132.801 97.1444 131.074 96.1477C129.348 95.1506 129.339 93.5269 131.054 92.5298C132.775 91.5302 135.573 91.5332 137.3 92.5298ZM131.61 95.8369C133.04 96.6631 135.361 96.6631 136.782 95.8369C138.203 95.0108 138.196 93.6668 136.765 92.8406C135.335 92.0145 133.014 92.0145 131.593 92.8406C130.171 93.6668 130.179 95.0108 131.61 95.8369Z" fill="white"/>
<path d="M229.009 90.16C233.132 92.5401 233.153 96.41 229.058 98.7901L194.915 118.632C190.819 121.012 184.138 121.012 180.016 118.632L145.649 98.7901C141.527 96.41 141.505 92.5401 145.6 90.16L179.743 70.3183C183.839 67.9382 190.52 67.9382 194.642 70.3183L229.009 90.16ZM194.376 118.321L228.519 98.4793C232.316 96.2726 232.296 92.6774 228.474 90.4708L194.108 70.6291C190.281 68.4199 184.079 68.4229 180.282 70.6291L146.139 90.4708C142.342 92.6774 142.357 96.2697 146.184 98.4793L180.55 118.321C184.372 120.528 190.579 120.528 194.376 118.321Z" fill="white"/>
<path d="M122.494 90.094C126.617 92.4742 126.639 96.3436 122.543 98.7238L88.4001 118.566C84.3047 120.946 77.6238 120.946 73.5015 118.566L39.14 98.7271C35.0173 96.347 34.9908 92.4746 39.0862 90.0944L73.2297 70.2524C77.3252 67.8722 84.0111 67.8752 88.1334 70.2553L122.494 90.094ZM87.8617 118.255L122.005 98.413C125.802 96.2063 125.786 92.614 121.96 90.4044L87.5984 70.5657C83.7717 68.3565 77.5645 68.3565 73.7677 70.5628L39.6247 90.4048C35.8279 92.6111 35.848 96.2067 39.6747 98.4159L74.0361 118.255C77.8627 120.465 84.0649 120.462 87.8617 118.255Z" fill="white"/>
<path d="M190.956 123.51C192.683 124.507 192.697 126.128 190.977 127.128C189.261 128.125 186.457 128.125 184.731 127.128C183.004 126.132 182.995 124.507 184.71 123.51C186.431 122.511 189.23 122.514 190.956 123.51ZM185.266 126.817C186.696 127.644 189.017 127.644 190.438 126.817C191.859 125.991 191.852 124.647 190.421 123.821C188.991 122.995 186.67 122.995 185.249 123.821C183.828 124.647 183.835 125.991 185.266 126.817Z" fill="white"/>
<path d="M83.5618 123.755C85.2884 124.752 85.2972 126.376 83.582 127.373C81.8667 128.37 79.0628 128.37 77.3361 127.373C75.6095 126.376 75.6003 124.753 77.316 123.755C79.0312 122.759 81.8352 122.758 83.5618 123.755ZM77.8712 127.063C79.3021 127.889 81.6222 127.889 83.0435 127.063C84.4648 126.236 84.4572 124.892 83.0267 124.066C81.5962 123.24 79.2757 123.24 77.8544 124.066C76.4331 124.892 76.4403 126.236 77.8712 127.063Z" fill="white"/>
<path d="M282.495 121.037C286.617 123.417 286.644 127.29 282.548 129.67L248.405 149.512C244.309 151.892 237.624 151.889 233.501 149.509L199.14 129.67C195.017 127.29 194.991 123.418 199.087 121.038L233.23 101.196C237.325 98.8158 244.011 98.8183 248.133 101.198L282.495 121.037ZM247.862 149.198L282.005 129.357C285.802 127.15 285.787 123.558 281.96 121.348L247.599 101.509C243.772 99.3001 237.565 99.3001 233.768 101.506L199.625 121.348C195.828 123.555 195.848 127.15 199.675 129.359L234.036 149.198C237.863 151.407 244.065 151.404 247.862 149.198Z" fill="white"/>
<path d="M175.981 120.976C180.103 123.356 180.125 127.226 176.03 129.607L141.887 149.449C137.791 151.829 131.11 151.829 126.988 149.449L92.6217 129.607C88.4994 127.227 88.4775 123.357 92.573 120.977L126.716 101.135C130.811 98.7546 137.492 98.7546 141.615 101.135L175.981 120.976ZM141.348 149.137L175.491 129.295C179.288 127.089 179.268 123.493 175.446 121.287L141.08 101.445C137.253 99.2359 131.051 99.2384 127.254 101.445L93.111 121.287C89.3142 123.493 89.3297 127.086 93.1564 129.295L127.523 149.137C131.344 151.344 137.552 151.344 141.348 149.137Z" fill="white"/>
<path d="M69.4635 120.91C73.5858 123.29 73.6076 127.16 69.5118 129.54L35.3687 149.382C31.2733 151.762 24.5924 151.762 20.4701 149.382L-13.8914 129.543C-18.0137 127.163 -18.0406 123.291 -13.9452 120.91L20.1979 101.069C24.2937 98.6886 30.9793 98.6916 35.102 101.072L69.4635 120.91ZM34.8307 149.071L68.9738 129.229C72.7706 127.022 72.7554 123.43 68.9288 121.22L34.5674 101.382C30.7407 99.1725 24.5336 99.1725 20.7368 101.379L-13.4063 121.22C-17.2031 123.427 -17.1829 127.022 -13.3563 129.231L21.0051 149.07C24.8318 151.28 31.0339 151.278 34.8307 149.071Z" fill="white"/>
<path d="M137.226 154.736C138.952 155.733 138.961 157.357 137.246 158.354C135.531 159.351 132.727 159.351 131 158.354C129.274 157.357 129.264 155.733 130.98 154.736C132.695 153.739 135.5 153.739 137.226 154.736ZM131.535 158.043C132.966 158.869 135.286 158.869 136.708 158.043C138.129 157.217 138.121 155.873 136.691 155.047C135.26 154.221 132.94 154.221 131.518 155.047C130.097 155.873 130.105 157.217 131.535 158.043Z" fill="white"/>
<path d="M229.471 151.854C233.594 154.234 233.62 158.106 229.525 160.486L195.382 180.329C191.286 182.709 184.6 182.706 180.478 180.326L146.116 160.487C141.994 158.107 141.967 154.234 146.063 151.854L180.206 132.012C184.301 129.632 190.987 129.635 195.11 132.015L229.471 151.854ZM194.838 180.015L228.982 160.173C232.778 157.966 232.763 154.374 228.936 152.164L194.575 132.325C190.748 130.116 184.541 130.116 180.744 132.323L146.601 152.165C142.804 154.371 142.824 157.966 146.651 160.176L181.012 180.014C184.839 182.224 191.042 182.221 194.838 180.015Z" fill="white"/>
<path d="M122.958 151.79C127.08 154.171 127.102 158.04 123.007 160.421L88.8636 180.262C84.7681 182.642 78.0872 182.642 73.9645 180.262L39.5984 160.421C35.4757 158.041 35.4543 154.171 39.5497 151.791L73.6927 131.949C77.7886 129.569 84.4691 129.569 88.5918 131.949L122.958 151.79ZM88.3251 179.951L122.468 160.11C126.265 157.903 126.245 154.308 122.423 152.101L88.0567 132.26C84.2301 130.05 78.028 130.053 74.2308 132.26L40.0877 152.101C36.2909 154.308 36.3064 157.9 40.1331 160.11L74.4996 179.951C78.3211 182.158 84.5283 182.158 88.3251 179.951Z" fill="white"/>
<path d="M175.523 59.2772C179.645 61.6573 179.667 65.5272 175.571 67.9074L141.428 87.7494C137.332 90.1296 130.651 90.1296 126.529 87.7494L92.1673 67.9107C88.0446 65.5306 88.0181 61.6582 92.114 59.2776L126.257 39.436C130.352 37.0558 137.038 37.0588 141.161 39.4389L175.523 59.2772ZM140.89 87.4382L175.033 67.5966C178.83 65.3899 178.815 61.7972 174.988 59.588L140.626 39.7493C136.8 37.5401 130.593 37.5401 126.796 39.7464L92.6528 59.588C88.856 61.7947 88.8762 65.3899 92.7028 67.5991L127.064 87.4378C130.89 89.6474 137.093 89.6449 140.89 87.4382Z" fill="white"/>
</g>
<path d="M126.91 8.44522L129.448 7L140.551 13.4134L138.013 14.8586L126.91 8.44522Z" fill="#4A5077"/>
<path d="M138.019 14.8573L140.556 13.4121L140.37 74.9446L137.832 76.3899L138.019 14.8573Z" fill="#353A56"/>
<path d="M126.913 8.44336L138.016 14.8568L137.83 76.3893L126.727 69.9759L126.913 8.44336Z" fill="#1E233A"/>
<path d="M130.936 16.3228C130.94 15.5059 131.513 15.175 132.216 15.5828C132.918 15.9902 133.485 16.9831 133.481 17.7995L133.241 65.9576C133.237 66.7745 132.663 67.105 131.961 66.6976C131.258 66.2898 130.692 65.2978 130.695 64.4809L130.936 16.3228Z" fill="url(#paint0_linear_20023_51691)"/>
<path d="M130.179 22.3752C131.68 23.2459 132.89 25.3643 132.881 27.1086L132.865 30.3854C132.86 31.2632 132.548 31.8785 132.048 32.162L133.953 31.0818C134.453 30.7983 134.765 30.183 134.77 29.3052L134.786 26.0284C134.795 24.2841 133.585 22.1656 132.085 21.295C131.339 20.8619 130.661 20.8187 130.167 21.0988L128.262 22.1791C128.756 21.8989 129.434 21.9422 130.179 22.3752Z" fill="url(#paint1_linear_20023_51691)"/>
<path d="M127.446 23.9585C127.455 22.2142 128.679 21.5078 130.18 22.3789C131.68 23.2495 132.89 25.368 132.881 27.1123L132.865 30.3891C132.856 32.1334 131.632 32.8411 130.132 31.9704C128.631 31.0993 127.421 28.9796 127.43 27.2353L127.446 23.9585Z" fill="white"/>
<path d="M140.496 16.3011L143.034 14.8555L154.137 21.2689L151.6 22.7141L140.496 16.3011Z" fill="#4A5077"/>
<path d="M151.597 22.7128L154.134 21.2676L153.948 82.8001L151.41 84.2453L151.597 22.7128Z" fill="#353A56"/>
<path d="M140.491 16.3008L151.595 22.7138L151.408 84.2463L140.305 77.8333L140.491 16.3008Z" fill="#1E233A"/>
<path d="M144.514 24.1783C144.518 23.3614 145.091 23.0304 145.794 23.4382C146.496 23.8456 147.063 24.8385 147.059 25.6554L146.819 73.8135C146.815 74.6304 146.241 74.9609 145.539 74.5535C144.836 74.1457 144.27 73.1536 144.273 72.3367L144.514 24.1783Z" fill="url(#paint2_linear_20023_51691)"/>
<path d="M143.765 39.8674C145.265 40.738 146.475 42.8565 146.466 44.6008L146.45 47.8776C146.446 48.7554 146.133 49.3707 145.633 49.6542L147.538 48.574C148.038 48.2905 148.351 47.6752 148.355 46.7974L148.372 43.5205C148.38 41.7763 147.17 39.6578 145.67 38.7871C144.924 38.3541 144.247 38.3109 143.753 38.591L141.848 39.6712C142.342 39.3911 143.019 39.4348 143.765 39.8674Z" fill="url(#paint3_linear_20023_51691)"/>
<path d="M141.032 41.4468C141.041 39.7025 142.265 38.9961 143.766 39.8671C145.266 40.7378 146.476 42.8563 146.467 44.6005L146.451 47.8774C146.442 49.6216 145.218 50.3293 143.718 49.4587C142.217 48.5876 141.007 46.4679 141.016 44.7236L141.032 41.4468Z" fill="white"/>
<path d="M154.031 24.1483L156.569 22.7031L167.672 29.1165L165.135 30.5617L154.031 24.1483Z" fill="#4A5077"/>
<path d="M165.132 30.5624L167.67 29.1172L167.483 90.6497L164.945 92.0949L165.132 30.5624Z" fill="#353A56"/>
<path d="M154.03 24.1484L165.134 30.5618L164.947 92.0944L153.844 85.681L154.03 24.1484Z" fill="#1E233A"/>
<path d="M158.048 32.0259C158.053 31.209 158.626 30.8781 159.329 31.2859C160.031 31.6933 160.598 32.6858 160.594 33.5027L160.354 81.6607C160.35 82.4776 159.776 82.8081 159.074 82.4007C158.371 81.9929 157.804 81.0009 157.809 80.184L158.048 32.0259Z" fill="url(#paint4_linear_20023_51691)"/>
<path d="M157.3 35.2385C158.8 36.1091 160.01 38.2276 160.002 39.9719L159.985 43.2487C159.981 44.1265 159.668 44.7418 159.168 45.0253L161.073 43.9451C161.574 43.6616 161.886 43.0463 161.89 42.1685L161.907 38.8916C161.916 37.1474 160.705 35.0289 159.205 34.1582C158.459 33.7252 157.782 33.682 157.288 33.9621L155.383 35.0423C155.876 34.7622 156.554 34.8055 157.3 35.2385Z" fill="url(#paint5_linear_20023_51691)"/>
<path d="M154.567 36.8198C154.576 35.0755 155.8 34.3691 157.301 35.2402C158.801 36.1108 160.011 38.2293 160.002 39.9736L159.986 43.2504C159.977 44.9947 158.753 45.7024 157.253 44.8317C155.752 43.9606 154.542 41.8409 154.551 40.0966L154.567 36.8198Z" fill="white"/>
<path d="M167.582 32.0058L170.12 30.5605L181.223 36.9739L178.685 38.4192L167.582 32.0058Z" fill="#4A5077"/>
<path d="M178.686 38.4179L181.224 36.9727L181.038 98.5052L178.5 99.9504L178.686 38.4179Z" fill="#353A56"/>
<path d="M167.585 32.0059L178.688 38.4193L178.502 99.9518L167.398 93.5384L167.585 32.0059Z" fill="#1E233A"/>
<path d="M171.608 39.8834C171.612 39.0665 172.185 38.7355 172.888 39.1433C173.59 39.5507 174.157 40.5436 174.153 41.3601L173.913 89.5181C173.909 90.335 173.335 90.6656 172.633 90.2582C171.93 89.8503 171.363 88.8583 171.367 88.0414L171.608 39.8834Z" fill="url(#paint6_linear_20023_51691)"/>
<path d="M170.855 68.2131C172.355 69.0837 173.565 71.2022 173.556 72.9465L173.54 76.2233C173.536 77.1011 173.223 77.7164 172.723 77.9999L174.628 76.9197C175.128 76.6362 175.441 76.0209 175.445 75.1431L175.461 71.8662C175.47 70.122 174.26 68.0035 172.76 67.1328C172.014 66.6998 171.336 66.6566 170.843 66.9367L168.938 68.0169C169.431 67.7368 170.109 67.7801 170.855 68.2131Z" fill="url(#paint7_linear_20023_51691)"/>
<path d="M168.118 69.7925C168.127 68.0482 169.351 67.3418 170.852 68.2128C172.352 69.0835 173.562 71.202 173.553 72.9462L173.537 76.2231C173.528 77.9673 172.304 78.675 170.804 77.8044C169.303 76.9333 168.093 74.8136 168.102 73.0693L168.118 69.7925Z" fill="white"/>
<path d="M181.113 39.7714L183.651 38.3262L194.754 44.7396L192.216 46.1848L181.113 39.7714Z" fill="#4A5077"/>
<path d="M192.214 46.1874L194.751 44.7422L194.565 106.275L192.027 107.72L192.214 46.1874Z" fill="#353A56"/>
<path d="M181.109 39.7734L192.212 46.1868L192.025 107.719L180.922 101.306L181.109 39.7734Z" fill="#1E233A"/>
<path d="M185.131 47.6531C185.136 46.8362 185.708 46.5048 186.411 46.913C187.114 47.3204 187.681 48.3129 187.677 49.1298L187.436 97.2878C187.432 98.1047 186.858 98.4353 186.156 98.0279C185.453 97.6201 184.887 96.628 184.891 95.8111L185.131 47.6531Z" fill="url(#paint8_linear_20023_51691)"/>
<path d="M184.383 52.5881C185.883 53.4587 187.093 55.5772 187.084 57.3215L187.068 60.5983C187.063 61.4761 186.751 62.0914 186.251 62.3749L188.156 61.2947C188.656 61.0112 188.969 60.3959 188.973 59.5181L188.989 56.2412C188.998 54.497 187.788 52.3785 186.288 51.5078C185.542 51.0748 184.864 51.0316 184.37 51.3117L182.465 52.3919C182.959 52.1118 183.637 52.1555 184.383 52.5881Z" fill="url(#paint9_linear_20023_51691)"/>
<path d="M181.649 54.1675C181.658 52.4232 182.882 51.7168 184.383 52.5878C185.883 53.4585 187.093 55.577 187.084 57.3212L187.068 60.5981C187.059 62.3423 185.835 63.05 184.335 62.1794C182.834 61.3083 181.624 59.1886 181.633 57.4443L181.649 54.1675Z" fill="white"/>
<g opacity="0.2">
<path d="M206.066 136.06C209.493 138.039 209.511 141.25 206.106 143.229L158.34 170.988C154.934 172.967 149.391 172.967 145.963 170.988L59.4185 121.021C55.9909 119.042 55.9728 115.831 59.3782 113.852L107.144 86.0937C110.55 84.1146 116.093 84.1146 119.521 86.0937L206.066 136.06ZM152.095 161.576L189.837 139.643L113.389 95.5054L75.6473 117.439L152.095 161.576Z" fill="#1E1E47"/>
</g>
<path d="M113.409 69.2344L113.363 85.0873L75.625 107.019L75.6699 91.1655L113.409 69.2344Z" fill="url(#paint10_linear_20023_51691)"/>
<path d="M189.856 113.373L189.811 129.226L113.359 85.0873L113.405 69.2344L189.856 113.373Z" fill="url(#paint11_linear_20023_51691)"/>
<path d="M206.125 116.956L158.359 144.715C154.95 146.695 149.41 146.694 145.982 144.715L59.4374 94.7481C57.712 93.7519 56.8498 92.4445 56.8535 91.1387L56.8086 106.992C56.8048 108.297 57.6671 109.605 59.3924 110.601L145.937 160.568C149.365 162.547 154.905 162.549 158.314 160.568L206.08 132.809C207.772 131.826 208.618 130.539 208.622 129.25L208.667 113.397C208.663 114.686 207.817 115.973 206.125 116.956Z" fill="url(#paint12_linear_20023_51691)"/>
<path d="M206.087 109.789C209.514 111.768 209.532 114.979 206.127 116.958L158.361 144.716C154.952 146.697 149.412 146.695 145.984 144.716L59.4393 94.7498C56.0117 92.7707 55.9903 89.5619 59.399 87.5808L107.165 59.8222C110.571 57.8431 116.114 57.8431 119.542 59.8222L206.087 109.789ZM152.119 135.306L189.858 113.375L113.407 69.2361L75.6681 91.1672L152.119 135.306Z" fill="white"/>
<path d="M113.392 62.4707L113.382 65.808L75.6406 87.7413L75.6503 84.4039L113.392 62.4707Z" fill="#353A56"/>
<path d="M56.8281 87.7143L56.8374 84.377C56.8336 85.6827 57.695 86.9906 59.42 87.9864L59.4107 91.3238C57.6858 90.3279 56.8244 89.0205 56.8281 87.7143Z" fill="#1E233A"/>
<path d="M189.84 106.608L189.831 109.945L113.383 65.808L113.392 62.4707L189.84 106.608Z" fill="#1E233A"/>
<path d="M208.65 106.635L208.64 109.972C208.636 111.261 207.789 112.548 206.098 113.532L206.107 110.194C207.799 109.211 208.646 107.924 208.65 106.635Z" fill="#353A56"/>
<path d="M206.104 110.195L206.094 113.533L158.328 141.292L158.337 137.954L206.104 110.195Z" fill="#353A56"/>
<path d="M145.964 137.953L145.955 141.29L59.4102 91.3236L59.4198 87.9863L145.964 137.953Z" fill="#1E233A"/>
<path d="M158.339 137.951L158.33 141.288C154.924 143.268 149.381 143.268 145.953 141.288L145.962 137.951C149.39 139.93 154.934 139.93 158.339 137.951Z" fill="#353A56"/>
<path d="M206.07 103.025C209.497 105.004 209.515 108.215 206.11 110.194L158.344 137.953C154.938 139.932 149.395 139.932 145.967 137.953L59.4224 87.9861C55.9948 86.0071 55.9767 82.7962 59.3821 80.8171L107.148 53.0585C110.554 51.0795 116.097 51.0795 119.525 53.0585L206.07 103.025ZM152.099 128.54L189.841 106.607L113.393 62.4703L75.6512 84.4035L152.099 128.54Z" fill="#4A5077"/>
<path d="M81.3413 89.0484L72.8913 93.9595L72.3398 93.6411L80.7898 88.7305L81.3413 89.0484Z" fill="#1E233A"/>
<path d="M91.4209 94.8681L90.688 95.294L89.9492 94.8673L90.6821 94.4414L91.4209 94.8681Z" fill="#1E233A"/>
<path d="M83.7034 99.3521L82.9692 99.7788L82.2305 99.3525L82.9646 98.9258L83.7034 99.3521Z" fill="#1E233A"/>
<path d="M92.6811 95.5977L84.2312 100.508L83.6797 100.19L92.1297 95.2793L92.6811 95.5977Z" fill="#1E233A"/>
<path d="M100.117 106.126L99.3833 106.552L98.6445 106.126L99.3787 105.699L100.117 106.126Z" fill="#3BEDFF"/>
<path d="M104.025 102.143L95.5745 107.053L95.0234 106.735L103.473 101.824L104.025 102.143Z" fill="#1E233A"/>
<path d="M97.785 107.479L97.0513 107.906L96.3125 107.479L97.0462 107.053L97.785 107.479Z" fill="#1E233A"/>
<path d="M72.2464 92.7349L71.5122 93.1616L70.7734 92.7349L71.5076 92.3086L72.2464 92.7349Z" fill="#3BEDFF"/>
<path d="M73.8514 91.8056L73.1177 92.2319L72.3789 91.8056L73.1127 91.3789L73.8514 91.8056Z" fill="#1E233A"/>
<path d="M164.919 80.3125L156.469 85.2231L155.918 84.9048L164.368 79.9941L164.919 80.3125Z" fill="#1E233A"/>
<path d="M175.003 86.1314L174.27 86.5573L173.531 86.1305L174.264 85.7051L175.003 86.1314Z" fill="#1E233A"/>
<path d="M167.289 90.6162L166.555 91.0425L165.816 90.6162L166.55 90.1895L167.289 90.6162Z" fill="#3BEDFF"/>
<path d="M176.263 86.8613L167.813 91.772L167.262 91.4536L175.712 86.543L176.263 86.8613Z" fill="#1E233A"/>
<path d="M183.696 97.3892L182.961 97.8159L182.223 97.3892L182.957 96.9629L183.696 97.3892Z" fill="#3BEDFF"/>
<path d="M187.603 93.4102L179.153 98.3208L178.602 98.0024L187.052 93.0918L187.603 93.4102Z" fill="#1E233A"/>
<path d="M181.367 98.7451L180.633 99.1714L179.895 98.7451L180.629 98.3184L181.367 98.7451Z" fill="#3BEDFF"/>
<path d="M155.828 84.0029L155.094 84.4292L154.355 84.0029L155.09 83.5762L155.828 84.0029Z" fill="#1E233A"/>
<path d="M157.43 83.0689L156.696 83.4956L155.957 83.0689L156.691 82.6426L157.43 83.0689Z" fill="#3BEDFF"/>
<path d="M202.381 106.633L200.953 107.463L199.516 106.633L200.944 105.803L202.381 106.633Z" fill="#3BEDFF"/>
<path d="M200.938 104.967L203.828 106.635L200.956 108.304L198.066 106.635L200.938 104.967ZM200.955 107.959L203.233 106.635L200.94 105.312L198.662 106.635L200.955 107.959Z" fill="#3BEDFF"/>
<path d="M153.655 133.687L152.226 134.517L150.789 133.687L152.217 132.857L153.655 133.687Z" fill="#3BEDFF"/>
<path d="M152.211 132.02L155.101 133.688L152.23 135.357L149.34 133.688L152.211 132.02ZM152.229 135.012L154.507 133.688L152.214 132.364L149.935 133.688L152.229 135.012Z" fill="#3BEDFF"/>
<path d="M115.456 56.5287L114.027 57.3586L112.59 56.5291L114.018 55.6992L115.456 56.5287Z" fill="#3BEDFF"/>
<path d="M114.012 54.8594L116.902 56.528L114.031 58.1967L111.141 56.528L114.012 54.8594ZM114.029 57.8519L116.307 56.528L114.014 55.2042L111.736 56.528L114.029 57.8519Z" fill="#3BEDFF"/>
<path d="M66.7289 83.5819L65.3005 84.4122L63.8633 83.5823L65.2917 82.752L66.7289 83.5819Z" fill="#3BEDFF"/>
<path d="M65.2856 81.9121L68.1756 83.5808L65.3041 85.2494L62.4141 83.5808L65.2856 81.9121ZM65.3028 84.9046L67.5805 83.5808L65.2873 82.2569L63.0092 83.5808L65.3028 84.9046Z" fill="#3BEDFF"/>
<g opacity="0.5">
<path d="M74.5501 115.791C74.3427 115.791 74.1175 115.724 73.8882 115.591L61.2353 108.286C60.4831 107.852 59.8959 106.833 59.8984 105.966L59.9152 100.038C59.9165 99.5815 60.0828 99.2345 60.3831 99.0619C60.6851 98.8885 61.0715 98.9195 61.4701 99.1497L74.123 106.455C74.8773 106.89 75.4662 107.909 75.4636 108.773L75.4468 114.701C75.4456 115.159 75.2788 115.506 74.9773 115.68C74.8488 115.754 74.7043 115.791 74.5501 115.791ZM60.8115 99.371C60.7301 99.371 60.6561 99.3891 60.5927 99.4256C60.4276 99.521 60.3361 99.7385 60.3352 100.039L60.3184 105.967C60.3163 106.673 60.8325 107.569 61.4453 107.923L74.0982 115.228C74.3632 115.381 74.601 115.412 74.7681 115.315C74.934 115.22 75.026 115.001 75.0268 114.7L75.0436 108.772C75.0457 108.056 74.5384 107.18 73.913 106.818L61.2601 99.5134C61.0971 99.4189 60.9438 99.371 60.8115 99.371Z" fill="white"/>
</g>
<g opacity="0.5">
<path d="M91.0384 125.097C90.831 125.097 90.6062 125.031 90.3765 124.898L77.7236 117.593C76.9714 117.159 76.3842 116.14 76.3867 115.273L76.4035 109.344C76.4048 108.888 76.5711 108.541 76.8714 108.369C77.1734 108.195 77.5598 108.226 77.9584 108.457L90.6113 115.762C91.3656 116.198 91.9544 117.216 91.9519 118.08L91.9351 124.009C91.9339 124.466 91.7671 124.813 91.466 124.987C91.3371 125.06 91.1926 125.097 91.0384 125.097ZM77.2994 108.677C77.2179 108.677 77.144 108.695 77.0806 108.732C76.9155 108.827 76.8239 109.045 76.8231 109.345L76.8063 115.274C76.8042 115.98 77.3204 116.875 77.9332 117.229L90.5861 124.534C90.8511 124.687 91.0888 124.718 91.256 124.622C91.4223 124.526 91.5139 124.308 91.5147 124.007L91.5315 118.078C91.5336 117.362 91.0262 116.486 90.4009 116.125L77.7479 108.819C77.585 108.725 77.4321 108.677 77.2994 108.677Z" fill="white"/>
</g>
<g opacity="0.5">
<path d="M107.519 134.627C107.311 134.627 107.086 134.56 106.857 134.428L94.2041 127.123C93.4518 126.689 92.8647 125.669 92.8672 124.802L92.884 118.874C92.8853 118.418 93.0512 118.071 93.3519 117.898C93.6534 117.724 94.0398 117.756 94.4393 117.986L107.092 125.291C107.847 125.726 108.435 126.745 108.433 127.61L108.416 133.538C108.415 133.995 108.248 134.343 107.946 134.516C107.818 134.59 107.673 134.627 107.519 134.627ZM93.7803 118.207C93.6988 118.207 93.6249 118.226 93.5615 118.262C93.3964 118.357 93.3048 118.575 93.304 118.874L93.2872 124.803C93.2851 125.509 93.8013 126.405 94.4141 126.758L107.067 134.064C107.332 134.217 107.57 134.248 107.737 134.152C107.903 134.056 107.995 133.837 107.996 133.536L108.012 127.608C108.014 126.892 107.507 126.015 106.882 125.655L94.2288 118.349C94.0659 118.255 93.9126 118.207 93.7803 118.207Z" fill="white"/>
</g>
<g opacity="0.5">
<path d="M124.007 144.135C123.8 144.135 123.575 144.068 123.345 143.935L110.692 136.63C109.94 136.196 109.353 135.177 109.355 134.31L109.372 128.381C109.374 127.925 109.54 127.578 109.84 127.406C110.142 127.232 110.528 127.263 110.928 127.494L123.58 134.799C124.335 135.235 124.924 136.253 124.921 137.117L124.904 143.046C124.903 143.503 124.736 143.85 124.435 144.024C124.306 144.098 124.161 144.135 124.007 144.135ZM110.268 127.715C110.187 127.715 110.113 127.733 110.049 127.77C109.884 127.864 109.793 128.082 109.792 128.383L109.775 134.311C109.773 135.017 110.289 135.913 110.902 136.267L123.555 143.572C123.819 143.725 124.058 143.756 124.225 143.659C124.391 143.564 124.483 143.346 124.483 143.044L124.5 137.116C124.502 136.4 123.995 135.524 123.37 135.162L110.717 127.857C110.554 127.763 110.401 127.715 110.268 127.715Z" fill="white"/>
</g>
<g opacity="0.5">
<path d="M140.495 153.553C140.288 153.553 140.063 153.486 139.834 153.354L127.181 146.048C126.428 145.614 125.841 144.595 125.844 143.728L125.861 137.8C125.862 137.343 126.028 136.997 126.328 136.824C126.63 136.65 127.016 136.681 127.416 136.912L140.069 144.217C140.823 144.653 141.412 145.671 141.409 146.536L141.393 152.464C141.391 152.921 141.225 153.269 140.923 153.442C140.794 153.516 140.65 153.553 140.495 153.553ZM126.757 137.133C126.675 137.133 126.601 137.152 126.538 137.188C126.373 137.283 126.281 137.501 126.281 137.801L126.264 143.729C126.262 144.436 126.778 145.331 127.391 145.685L140.044 152.99C140.308 153.143 140.546 153.175 140.713 153.078C140.88 152.982 140.971 152.764 140.972 152.463L140.989 146.534C140.991 145.818 140.484 144.942 139.858 144.581L127.205 137.275C127.042 137.181 126.889 137.133 126.757 137.133Z" fill="white"/>
</g>
<g opacity="0.5">
<path d="M136.347 94.4627C136.14 94.4627 135.914 94.3959 135.685 94.2636L123.032 86.9586C122.28 86.5243 121.693 85.5049 121.695 84.6381L121.712 78.7098C121.713 78.2536 121.88 77.9071 122.18 77.7341C122.482 77.5602 122.868 77.5913 123.267 77.8219L135.92 85.1274C136.674 85.5629 137.263 86.5814 137.261 87.4458L137.244 93.3741C137.242 93.8314 137.076 94.1788 136.775 94.3522C136.646 94.4257 136.501 94.4627 136.347 94.4627ZM122.608 78.0428C122.527 78.0428 122.453 78.0609 122.389 78.0974C122.224 78.1923 122.133 78.4099 122.132 78.7102L122.115 84.6385C122.113 85.3445 122.629 86.2404 123.242 86.594L135.895 93.8991C136.16 94.0519 136.397 94.0834 136.565 93.9868C136.73 93.8915 136.822 93.6727 136.823 93.3715L136.84 87.4432C136.842 86.7271 136.335 85.8506 135.709 85.4898L123.057 78.1843C122.894 78.0907 122.741 78.0428 122.608 78.0428Z" fill="white"/>
</g>
<g opacity="0.5">
<path d="M152.836 103.971C152.628 103.971 152.403 103.904 152.174 103.772L139.52 96.4666C138.768 96.0323 138.181 95.013 138.184 94.1461L138.2 88.2178C138.202 87.7617 138.368 87.4152 138.668 87.2421C138.97 87.0678 139.356 87.0993 139.755 87.3295L152.408 94.6345C153.163 95.0701 153.751 96.0886 153.749 96.9534L153.732 102.882C153.731 103.339 153.564 103.686 153.263 103.86C153.134 103.934 152.99 103.971 152.836 103.971ZM139.097 87.5512C139.016 87.5512 138.942 87.5693 138.878 87.6058C138.713 87.7008 138.622 87.9183 138.621 88.2186L138.604 94.1469C138.602 94.8529 139.118 95.7484 139.731 96.1024L152.384 103.408C152.649 103.561 152.887 103.592 153.054 103.496C153.22 103.4 153.312 103.182 153.313 102.88L153.33 96.9521C153.332 96.236 152.824 95.3595 152.199 94.9987L139.546 87.6932C139.383 87.5991 139.229 87.5512 139.097 87.5512Z" fill="white"/>
</g>
<g opacity="0.5">
<path d="M169.324 113.391C169.116 113.391 168.891 113.324 168.662 113.191L156.009 105.886C155.257 105.452 154.669 104.432 154.672 103.565L154.689 97.6372C154.69 97.1811 154.856 96.8341 155.157 96.6615C155.459 96.4881 155.845 96.5191 156.244 96.7493L168.897 104.054C169.651 104.49 170.24 105.508 170.238 106.373L170.221 112.301C170.219 112.758 170.053 113.105 169.752 113.279C169.622 113.354 169.478 113.391 169.324 113.391ZM155.585 96.9707C155.503 96.9707 155.43 96.9887 155.366 97.0252C155.201 97.1202 155.109 97.3381 155.108 97.638L155.091 103.566C155.089 104.273 155.606 105.168 156.218 105.522L168.871 112.827C169.136 112.981 169.374 113.012 169.541 112.915C169.707 112.82 169.799 112.601 169.8 112.3L169.817 106.372C169.819 105.655 169.311 104.779 168.686 104.418L156.033 97.1126C155.87 97.0185 155.717 96.9707 155.585 96.9707Z" fill="white"/>
</g>
<path d="M189.457 131.698L189.463 133.758L197.414 129.168L197.408 127.107L189.457 131.698Z" fill="white"/>
<path d="M180.074 140.165L180.08 142.224L188.032 137.634L188.026 135.574L180.074 140.165Z" fill="white"/>
<path d="M180.066 137.12L180.072 139.18L188.023 134.589L188.018 132.529L180.066 137.12Z" fill="white"/>
<path d="M170.672 142.544L170.678 144.603L178.629 140.013L178.624 137.953L170.672 142.544Z" fill="white"/>
<path d="M189.469 134.743L189.475 136.803L197.426 132.212L197.42 130.152L189.469 134.743Z" fill="white"/>
<path d="M170.68 145.589L170.686 147.649L178.637 143.058L178.631 140.998L170.68 145.589Z" fill="white"/>
<g opacity="0.2">
<path d="M59.8783 123.912C60.9472 124.529 60.9526 125.528 59.8909 126.145L41.1824 137.017C40.1227 137.632 38.3986 137.632 37.3297 137.015L18.499 126.143C17.4322 125.528 17.4268 124.529 18.4864 123.913L37.1949 113.041C38.2567 112.424 39.9808 112.424 41.0476 113.04L59.8783 123.912Z" fill="#080C19"/>
</g>
<path d="M59.8952 121.946L41.1868 132.818C40.1271 133.434 38.403 133.434 37.3341 132.817L18.503 121.945C17.9662 121.635 17.6983 121.228 17.6991 120.822L17.6953 122.179C17.6941 122.585 17.962 122.992 18.4988 123.302L37.3295 134.174C38.3984 134.791 40.1225 134.791 41.1821 134.175L59.8906 123.303C60.4181 122.997 60.6823 122.596 60.6836 122.194L60.6874 120.838C60.6869 121.239 60.4228 121.64 59.8952 121.946Z" fill="url(#paint13_linear_20023_51691)"/>
<path d="M59.8787 119.712C60.9476 120.329 60.9531 121.328 59.8913 121.945L41.1828 132.817C40.1232 133.433 38.3991 133.433 37.3302 132.816L18.499 121.944C17.4322 121.328 17.4268 120.33 18.4864 119.714L37.1949 108.842C38.2567 108.225 39.9808 108.225 41.0476 108.841L59.8787 119.712Z" fill="white"/>
<g opacity="0.2">
<path d="M59.8783 116.662C60.9472 117.279 60.9526 118.278 59.8909 118.895L41.1824 129.767C40.1227 130.382 38.3986 130.382 37.3297 129.765L18.499 118.893C17.4322 118.278 17.4268 117.279 18.4864 116.663L37.1949 105.791C38.2567 105.174 39.9808 105.174 41.0476 105.79L59.8783 116.662Z" fill="#080C19"/>
</g>
<path d="M59.8948 114.697L41.1863 125.569C40.1267 126.184 38.4026 126.184 37.3337 125.567L18.503 114.695C17.9662 114.385 17.6983 113.979 17.6991 113.572L17.6953 114.929C17.6941 115.335 17.962 115.742 18.4988 116.052L37.3295 126.924C38.3984 127.541 40.1225 127.541 41.1821 126.925L59.8906 116.053C60.4181 115.747 60.6823 115.346 60.6836 114.944L60.6874 113.588C60.6865 113.989 60.4223 114.39 59.8948 114.697Z" fill="url(#paint14_linear_20023_51691)"/>
<path d="M59.8783 112.461C60.9472 113.078 60.9526 114.076 59.8909 114.693L41.1824 125.566C40.1227 126.181 38.3986 126.181 37.3297 125.564L18.499 114.692C17.4322 114.076 17.4268 113.078 18.4864 112.462L37.1949 101.59C38.2567 100.973 39.9808 100.973 41.0476 101.589L59.8783 112.461Z" fill="white"/>
<g opacity="0.2">
<path d="M59.8783 108.605C60.9472 109.222 60.9526 110.221 59.8909 110.838L41.1824 121.71C40.1227 122.326 38.3986 122.326 37.3297 121.709L18.499 110.837C17.4322 110.221 17.4268 109.222 18.4864 108.607L37.1949 97.7344C38.2567 97.1174 39.9808 97.1174 41.0476 97.7331L59.8783 108.605Z" fill="#080C19"/>
</g>
<path d="M59.8948 106.64L41.1863 117.512C40.1267 118.128 38.4026 118.128 37.3337 117.511L18.503 106.639C17.9662 106.329 17.6983 105.922 17.6991 105.516L17.6953 106.872C17.6941 107.278 17.962 107.685 18.4988 107.995L37.3295 118.867C38.3984 119.484 40.1225 119.484 41.1821 118.869L59.8906 107.997C60.4181 107.69 60.6823 107.289 60.6836 106.888L60.6874 105.531C60.6865 105.933 60.4223 106.334 59.8948 106.64Z" fill="url(#paint15_linear_20023_51691)"/>
<path d="M59.8783 104.408C60.9472 105.025 60.9526 106.024 59.8909 106.641L41.1824 117.513C40.1227 118.129 38.3986 118.129 37.3297 117.512L18.499 106.639C17.4322 106.024 17.4268 105.025 18.4864 104.409L37.1949 93.5371C38.2567 92.9201 39.9808 92.9201 41.0476 93.5359L59.8783 104.408Z" fill="white"/>
<path d="M52.24 134.419C51.9434 134.419 51.7032 134.179 51.7032 133.883V113.99C51.7032 113.456 51.4151 112.962 50.9514 112.699L45.5691 109.649C45.3599 109.531 45.1768 109.612 45.1079 109.652C45.0386 109.693 44.8782 109.812 44.8782 110.053V111.351C44.8782 111.648 44.638 111.888 44.3414 111.888C44.0453 111.888 43.8047 111.648 43.8047 111.351V110.053C43.8047 109.499 44.0899 109.003 44.5678 108.725C45.0449 108.446 45.6174 108.443 46.0983 108.716L51.4806 111.766C52.2799 112.219 52.7767 113.071 52.7767 113.99V133.883C52.7767 134.179 52.5365 134.419 52.24 134.419Z" fill="#080C19"/>
<path d="M53.4501 133.342C54.1196 133.728 54.1229 134.356 53.4556 134.743C52.7907 135.13 51.7067 135.13 51.0376 134.743C50.366 134.356 50.3623 133.728 51.0275 133.342L51.1531 133.414L51.2808 133.488C51.0175 133.641 50.8868 133.842 50.8877 134.042C50.8889 134.242 51.0221 134.443 51.2892 134.597C51.8192 134.904 52.6752 134.904 53.2019 134.597C53.4673 134.443 53.5984 134.242 53.5971 134.042C53.5958 133.842 53.4627 133.641 53.1977 133.488C52.9306 133.334 52.5837 133.258 52.238 133.258C51.8919 133.258 51.5462 133.334 51.2808 133.488L51.1531 133.414L51.0275 133.342C51.6945 132.954 52.7785 132.954 53.4501 133.342Z" fill="#080C19"/>
<path d="M45.5515 110.781C46.221 111.167 46.2243 111.795 45.557 112.183C44.8921 112.569 43.8081 112.569 43.139 112.183C42.4675 111.795 42.4641 111.167 43.1289 110.781L43.2545 110.854L43.3826 110.928C43.1193 111.08 42.9882 111.281 42.9895 111.482C42.9908 111.682 43.1239 111.883 43.391 112.037C43.9211 112.343 44.777 112.343 45.3037 112.037C45.5692 111.883 45.7002 111.682 45.6989 111.482C45.6977 111.281 45.5645 111.08 45.2995 110.928C45.0324 110.773 44.6859 110.697 44.3398 110.697C43.9937 110.697 43.6481 110.773 43.3826 110.928L43.2545 110.854L43.1289 110.781C43.7963 110.393 44.8799 110.393 45.5515 110.781Z" fill="#080C19"/>
<path d="M48.6413 109.518C49.3108 109.904 49.3142 110.532 48.6468 110.92C47.9819 111.306 46.8979 111.306 46.2289 110.92C45.5573 110.532 45.5539 109.904 46.2188 109.518L46.3444 109.59L46.4725 109.664C46.2091 109.817 46.0781 110.018 46.0794 110.218C46.0806 110.419 46.2138 110.619 46.4809 110.773C47.0109 111.08 47.8669 111.08 48.3935 110.773C48.659 110.619 48.79 110.419 48.7888 110.218C48.7875 110.018 48.6544 109.817 48.3894 109.664C48.1222 109.51 47.7757 109.434 47.4297 109.434C47.0836 109.434 46.7379 109.51 46.4725 109.664L46.3444 109.59L46.2188 109.518C46.8862 109.13 47.9698 109.13 48.6413 109.518Z" fill="#080C19"/>
<path d="M51.5634 107.929C52.2329 108.316 52.2362 108.944 51.5689 109.331C50.904 109.718 49.82 109.718 49.1509 109.331C48.4793 108.944 48.4755 108.316 49.1408 107.929L49.2664 108.002L49.3945 108.076C49.1312 108.229 49.0001 108.43 49.0014 108.63C49.0026 108.83 49.1358 109.031 49.4029 109.185C49.9329 109.491 50.7889 109.491 51.3156 109.185C51.581 109.031 51.7121 108.83 51.7108 108.63C51.7095 108.43 51.5764 108.229 51.3114 108.076C51.0443 107.922 50.6978 107.845 50.3517 107.845C50.0056 107.845 49.66 107.922 49.3945 108.076L49.2664 108.002L49.1408 107.929C49.8082 107.542 50.8918 107.542 51.5634 107.929Z" fill="#080C19"/>
<path d="M55.3337 132.827C55.0376 132.827 54.797 132.587 54.797 132.29V112.397C54.797 111.864 54.5088 111.37 54.0447 111.107L48.6629 108.057C48.4537 107.94 48.2706 108.02 48.2017 108.06C48.1324 108.1 47.972 108.22 47.972 108.46V109.759C47.972 110.056 47.7317 110.296 47.4352 110.296C47.1387 110.296 46.8984 110.056 46.8984 109.759V108.46C46.8984 107.908 47.1836 107.411 47.6611 107.133C48.1391 106.855 48.7112 106.851 49.1921 107.124L54.5744 110.174C55.374 110.627 55.8705 111.479 55.8705 112.398V132.291C55.8705 132.587 55.6298 132.827 55.3337 132.827Z" fill="#080C19"/>
<path d="M56.5437 131.75C57.2132 132.136 57.2165 132.764 56.5491 133.152C55.8843 133.538 54.8003 133.538 54.1312 133.152C53.4596 132.764 53.4563 132.136 54.1211 131.75L54.2467 131.822L54.3748 131.896C54.1115 132.049 53.9804 132.25 53.9817 132.45C53.983 132.651 54.1161 132.851 54.3832 133.006C54.9133 133.312 55.7692 133.312 56.2959 133.006C56.5613 132.851 56.6924 132.651 56.6911 132.45C56.6899 132.25 56.5567 132.049 56.2917 131.896C56.0246 131.742 55.6781 131.666 55.332 131.666C54.9859 131.666 54.6402 131.742 54.3748 131.896L54.2467 131.822L54.1211 131.75C54.7885 131.362 55.8721 131.362 56.5437 131.75Z" fill="#080C19"/>
<path d="M58.2048 131.077C57.9083 131.077 57.6681 130.837 57.6681 130.54V110.647C57.6681 110.114 57.3799 109.62 56.9162 109.357L51.5344 106.307C51.3239 106.188 51.1413 106.27 51.0728 106.31C51.0035 106.35 50.8431 106.47 50.8431 106.71V108.009C50.8431 108.305 50.6028 108.546 50.3063 108.546C50.0102 108.546 49.7695 108.306 49.7695 108.009V106.71C49.7695 106.158 50.0547 105.662 50.5327 105.383C51.0098 105.105 51.5827 105.101 52.0636 105.374L57.4455 108.424C58.2451 108.877 58.7416 109.729 58.7416 110.648V130.541C58.7412 130.837 58.5009 131.077 58.2048 131.077Z" fill="#080C19"/>
<path d="M59.411 130C60.0805 130.386 60.0839 131.014 59.4165 131.402C58.7516 131.788 57.6676 131.788 56.9986 131.402C56.327 131.014 56.3232 130.386 56.9885 130L57.1141 130.073L57.2422 130.147C56.9788 130.3 56.8478 130.5 56.849 130.701C56.8503 130.901 56.9834 131.102 57.2506 131.256C57.7806 131.562 58.6366 131.562 59.1632 131.256C59.4287 131.102 59.5597 130.901 59.5585 130.701C59.5572 130.5 59.4241 130.3 59.159 130.147C58.8919 129.992 58.5454 129.916 58.1994 129.916C57.8533 129.916 57.5076 129.992 57.2422 130.147L57.1141 130.073L56.9885 130C57.6554 129.612 58.7395 129.612 59.411 130Z" fill="#080C19"/>
<path d="M52.2452 131.563C52.1292 131.563 52.0352 131.469 52.0352 131.353V128.776C52.0352 128.66 52.1292 128.566 52.2452 128.566C52.3611 128.566 52.4552 128.66 52.4552 128.776V131.353C52.4552 131.469 52.3611 131.563 52.2452 131.563Z" fill="#4D9EFF"/>
<path d="M58.1983 125.416C58.0824 125.416 57.9883 125.322 57.9883 125.206V122.63C57.9883 122.514 58.0824 122.42 58.1983 122.42C58.3142 122.42 58.4083 122.514 58.4083 122.63V125.206C58.4083 125.322 58.3142 125.416 58.1983 125.416Z" fill="#4D9EFF"/>
<path d="M55.335 117.357C55.2191 117.357 55.125 117.263 55.125 117.147V114.571C55.125 114.455 55.2191 114.361 55.335 114.361C55.4509 114.361 55.545 114.455 55.545 114.571V117.147C55.545 117.263 55.4513 117.357 55.335 117.357Z" fill="#4D9EFF"/>
<path d="M25.9704 134.419C26.2665 134.419 26.5071 134.179 26.5071 133.883V113.99C26.5071 113.456 26.7952 112.962 27.2589 112.699L32.6412 109.649C32.8504 109.531 33.0331 109.612 33.1024 109.652C33.1717 109.693 33.3321 109.812 33.3321 110.053V111.351C33.3321 111.648 33.5724 111.888 33.8689 111.888C34.165 111.888 34.4056 111.648 34.4056 111.351V110.053C34.4056 109.499 34.1205 109.003 33.6425 108.725C33.1654 108.446 32.5929 108.443 32.112 108.716L26.7297 111.766C25.9305 112.219 25.4336 113.071 25.4336 113.99V133.883C25.4336 134.179 25.6743 134.419 25.9704 134.419Z" fill="#080C19"/>
<path d="M24.7619 133.342C24.0924 133.728 24.089 134.356 24.7564 134.743C25.4213 135.13 26.5053 135.13 27.1744 134.743C27.8459 134.356 27.8493 133.728 27.1844 133.342L27.0588 133.414L26.9308 133.488C27.1941 133.641 27.3251 133.842 27.3239 134.042C27.3226 134.242 27.1895 134.443 26.9223 134.597C26.3923 134.904 25.5363 134.904 25.0097 134.597C24.7442 134.443 24.6132 134.242 24.6145 134.042C24.6157 133.842 24.7489 133.641 25.0139 133.488C25.281 133.334 25.6275 133.258 25.9736 133.258C26.3196 133.258 26.6653 133.334 26.9308 133.488L27.0588 133.414L27.1844 133.342C26.5171 132.954 25.4335 132.954 24.7619 133.342Z" fill="#080C19"/>
<path d="M32.6642 110.781C31.9947 111.167 31.9914 111.795 32.6588 112.183C33.3236 112.569 34.4076 112.569 35.0767 112.183C35.7483 111.795 35.7516 111.167 35.0868 110.781L34.9612 110.854L34.8331 110.928C35.0964 111.08 35.2275 111.281 35.2262 111.482C35.225 111.682 35.0918 111.883 34.8247 112.037C34.2947 112.343 33.4387 112.343 32.912 112.037C32.6466 111.883 32.5155 111.682 32.5168 111.482C32.5181 111.281 32.6512 111.08 32.9162 110.928C33.1833 110.773 33.5298 110.697 33.8759 110.697C34.222 110.697 34.5677 110.773 34.8331 110.928L34.9612 110.854L35.0868 110.781C34.4194 110.393 33.3358 110.393 32.6642 110.781Z" fill="#080C19"/>
<path d="M29.5705 109.518C28.901 109.904 28.8976 110.532 29.565 110.92C30.2299 111.306 31.3139 111.306 31.9829 110.92C32.6545 110.532 32.6579 109.904 31.993 109.518L31.8674 109.59L31.7393 109.664C32.0027 109.817 32.1333 110.018 32.1325 110.218C32.1312 110.419 31.9981 110.619 31.7309 110.773C31.2009 111.08 30.3449 111.08 29.8183 110.773C29.5528 110.619 29.4218 110.419 29.423 110.218C29.4243 110.018 29.5574 109.817 29.8225 109.664C30.0896 109.51 30.4361 109.434 30.7822 109.434C31.1282 109.434 31.4739 109.51 31.7393 109.664L31.8674 109.59L31.993 109.518C31.3261 109.13 30.242 109.13 29.5705 109.518Z" fill="#080C19"/>
<path d="M26.6486 107.929C25.9791 108.316 25.9757 108.944 26.6431 109.331C27.308 109.718 28.392 109.718 29.0611 109.331C29.7327 108.944 29.736 108.316 29.0712 107.929L28.9456 108.002L28.8175 108.076C29.0808 108.229 29.2118 108.43 29.2106 108.63C29.2093 108.83 29.0762 109.031 28.8091 109.185C28.279 109.491 27.4231 109.491 26.8964 109.185C26.6309 109.031 26.4999 108.83 26.5012 108.63C26.5024 108.43 26.6356 108.229 26.9006 108.076C27.1677 107.922 27.5142 107.845 27.8603 107.845C28.2064 107.845 28.552 107.922 28.8175 108.076L28.9456 108.002L29.0712 107.929C28.4042 107.542 27.3202 107.542 26.6486 107.929Z" fill="#080C19"/>
<path d="M22.8766 132.827C23.1731 132.827 23.4134 132.587 23.4134 132.29V112.397C23.4134 111.864 23.7015 111.37 24.1656 111.107L29.5475 108.057C29.7566 107.94 29.9397 108.02 30.0086 108.06C30.0779 108.1 30.2384 108.22 30.2384 108.46V109.759C30.2384 110.056 30.4786 110.296 30.7751 110.296C31.0712 110.296 31.3119 110.056 31.3119 109.759V108.46C31.3119 107.908 31.0267 107.411 30.5492 107.133C30.0712 106.855 29.4992 106.851 29.0183 107.124L23.636 110.174C22.8363 110.627 22.3398 111.479 22.3398 112.398V132.291C22.3403 132.587 22.5805 132.827 22.8766 132.827Z" fill="#080C19"/>
<path d="M21.672 131.75C21.0025 132.136 20.9992 132.764 21.6666 133.152C22.3314 133.538 23.4154 133.538 24.0845 133.152C24.7561 132.764 24.7594 132.136 24.0946 131.75L23.969 131.822L23.8409 131.896C24.1042 132.049 24.2353 132.25 24.234 132.45C24.2328 132.651 24.0996 132.851 23.8325 133.006C23.3025 133.312 22.4465 133.312 21.9198 133.006C21.6544 132.851 21.5233 132.651 21.5246 132.45C21.5259 132.25 21.659 132.049 21.924 131.896C22.1911 131.742 22.5381 131.666 22.8841 131.666C23.2302 131.666 23.5755 131.742 23.8409 131.896L23.9694 131.822L24.095 131.75C23.4276 131.362 22.3436 131.362 21.672 131.75Z" fill="#080C19"/>
<path d="M20.0094 131.077C20.3055 131.077 20.5462 130.837 20.5462 130.54V110.647C20.5462 110.114 20.8343 109.62 21.298 109.357L26.6799 106.307C26.8903 106.188 27.073 106.27 27.1414 106.31C27.2107 106.35 27.3712 106.47 27.3712 106.71V108.009C27.3712 108.305 27.6114 108.546 27.9079 108.546C28.204 108.546 28.4447 108.306 28.4447 108.009V106.71C28.4447 106.158 28.1595 105.662 27.6816 105.383C27.2044 105.105 26.6316 105.101 26.1507 105.374L20.7688 108.424C19.9691 108.877 19.4727 109.729 19.4727 110.648V130.541C19.4727 130.837 19.7129 131.077 20.0094 131.077Z" fill="#080C19"/>
<path d="M18.8009 130C18.1315 130.386 18.1281 131.014 18.7955 131.402C19.4603 131.788 20.5444 131.788 21.2134 131.402C21.885 131.014 21.8884 130.386 21.2235 130L21.0979 130.073L20.9702 130.147C21.2336 130.3 21.3642 130.5 21.3634 130.701C21.3621 130.901 21.229 131.102 20.9618 131.256C20.4318 131.562 19.5758 131.562 19.0492 131.256C18.7837 131.102 18.6527 130.901 18.6539 130.701C18.6552 130.5 18.7883 130.3 19.0534 130.147C19.3205 129.992 19.667 129.916 20.0131 129.916C20.3591 129.916 20.7048 129.992 20.9702 130.147L21.0979 130.073L21.2235 130C20.5561 129.612 19.4725 129.612 18.8009 130Z" fill="#080C19"/>
<path d="M25.9717 131.563C25.8558 131.563 25.7617 131.469 25.7617 131.353V128.776C25.7617 128.66 25.8558 128.566 25.9717 128.566C26.0876 128.566 26.1817 128.66 26.1817 128.776V131.353C26.1817 131.469 26.0881 131.563 25.9717 131.563Z" fill="#4D9EFF"/>
<path d="M20.0108 125.416C19.8949 125.416 19.8008 125.322 19.8008 125.206V122.63C19.8008 122.514 19.8949 122.42 20.0108 122.42C20.1267 122.42 20.2208 122.514 20.2208 122.63V125.206C20.2208 125.322 20.1271 125.416 20.0108 125.416Z" fill="#4D9EFF"/>
<path d="M22.878 117.357C22.762 117.357 22.668 117.263 22.668 117.147V114.571C22.668 114.455 22.762 114.361 22.878 114.361C22.9939 114.361 23.088 114.455 23.088 114.571V117.147C23.088 117.263 22.9939 117.357 22.878 117.357Z" fill="#4D9EFF"/>
<g opacity="0.2">
<path d="M156.222 179.697C157.291 180.314 157.297 181.313 156.235 181.93L137.527 192.802C136.467 193.418 134.743 193.418 133.674 192.801L114.843 181.928C113.776 181.313 113.771 180.314 114.83 179.698L133.539 168.826C134.6 168.209 136.325 168.209 137.391 168.825L156.222 179.697Z" fill="#080C19"/>
</g>
<path d="M156.239 177.728L137.531 188.6C136.471 189.216 134.747 189.216 133.678 188.599L114.847 177.727C114.31 177.417 114.042 177.01 114.043 176.604L114.039 177.96C114.038 178.366 114.306 178.773 114.843 179.083L133.674 189.955C134.743 190.572 136.467 190.572 137.526 189.957L156.235 179.084C156.762 178.778 157.026 178.377 157.027 177.976L157.031 176.619C157.031 177.021 156.767 177.422 156.239 177.728Z" fill="url(#paint16_linear_20023_51691)"/>
<path d="M156.222 175.496C157.291 176.113 157.297 177.112 156.235 177.729L137.527 188.601C136.467 189.216 134.743 189.216 133.674 188.599L114.843 177.727C113.776 177.112 113.771 176.113 114.83 175.497L133.539 164.625C134.6 164.008 136.325 164.008 137.391 164.624L156.222 175.496Z" fill="white"/>
<g opacity="0.2">
<path d="M156.222 172.445C157.291 173.062 157.297 174.061 156.235 174.678L137.527 185.55C136.467 186.166 134.743 186.166 133.674 185.549L114.843 174.677C113.776 174.061 113.771 173.062 114.83 172.446L133.539 161.574C134.6 160.957 136.325 160.957 137.391 161.573L156.222 172.445Z" fill="#080C19"/>
</g>
<path d="M156.239 170.48L137.531 181.352C136.471 181.968 134.747 181.968 133.678 181.351L114.847 170.479C114.31 170.169 114.042 169.762 114.043 169.355L114.039 170.712C114.038 171.118 114.306 171.525 114.843 171.835L133.674 182.707C134.743 183.324 136.467 183.324 137.526 182.709L156.235 171.836C156.762 171.53 157.026 171.129 157.027 170.728L157.031 169.371C157.031 169.773 156.767 170.173 156.239 170.48Z" fill="url(#paint17_linear_20023_51691)"/>
<path d="M156.222 168.246C157.291 168.863 157.297 169.862 156.235 170.479L137.527 181.351C136.467 181.966 134.743 181.966 133.674 181.349L114.843 170.477C113.776 169.862 113.771 168.863 114.83 168.247L133.539 157.375C134.6 156.758 136.325 156.758 137.391 157.374L156.222 168.246Z" fill="white"/>
<g opacity="0.2">
<path d="M156.222 164.39C157.291 165.007 157.297 166.006 156.235 166.623L137.527 177.495C136.467 178.111 134.743 178.111 133.674 177.494L114.843 166.622C113.776 166.006 113.771 165.007 114.83 164.392L133.539 153.52C134.6 152.903 136.325 152.903 137.391 153.518L156.222 164.39Z" fill="#080C19"/>
</g>
<path d="M156.239 162.425L137.531 173.297C136.471 173.913 134.747 173.913 133.678 173.296L114.847 162.424C114.31 162.114 114.042 161.707 114.043 161.301L114.039 162.657C114.038 163.064 114.306 163.47 114.843 163.78L133.674 174.653C134.743 175.27 136.467 175.27 137.526 174.654L156.235 163.782C156.762 163.475 157.026 163.074 157.027 162.673L157.031 161.316C157.031 161.718 156.767 162.119 156.239 162.425Z" fill="url(#paint18_linear_20023_51691)"/>
<path d="M156.222 160.193C157.291 160.81 157.297 161.809 156.235 162.426L137.527 173.298C136.467 173.914 134.743 173.914 133.674 173.297L114.843 162.425C113.776 161.809 113.771 160.81 114.83 160.194L133.539 149.322C134.6 148.705 136.325 148.705 137.391 149.321L156.222 160.193Z" fill="white"/>
<path d="M148.588 190.203C148.292 190.203 148.051 189.962 148.051 189.666V169.773C148.051 169.239 147.763 168.745 147.299 168.483L141.917 165.433C141.708 165.315 141.525 165.396 141.456 165.436C141.386 165.476 141.226 165.596 141.226 165.836V167.134C141.226 167.431 140.986 167.671 140.689 167.671C140.393 167.671 140.152 167.431 140.152 167.134V165.836C140.152 165.283 140.438 164.786 140.915 164.508C141.393 164.23 141.965 164.226 142.446 164.499L147.828 167.549C148.628 168.002 149.124 168.854 149.124 169.773V189.666C149.124 189.962 148.884 190.203 148.588 190.203Z" fill="#080C19"/>
<path d="M149.79 189.127C150.459 189.513 150.463 190.141 149.795 190.529C149.13 190.915 148.046 190.915 147.377 190.529C146.706 190.141 146.702 189.513 147.367 189.127L147.493 189.199L147.621 189.273C147.358 189.426 147.227 189.627 147.228 189.827C147.229 190.028 147.362 190.228 147.629 190.382C148.159 190.689 149.015 190.688 149.542 190.382C149.807 190.228 149.938 190.028 149.937 189.827C149.936 189.627 149.803 189.426 149.538 189.273C149.271 189.119 148.924 189.043 148.578 189.043C148.232 189.043 147.886 189.119 147.621 189.273L147.493 189.199L147.367 189.127C148.034 188.739 149.118 188.739 149.79 189.127Z" fill="#080C19"/>
<path d="M141.895 166.564C142.565 166.951 142.568 167.579 141.901 167.966C141.236 168.353 140.152 168.353 139.483 167.966C138.811 167.579 138.808 166.951 139.473 166.564L139.598 166.637L139.727 166.711C139.463 166.864 139.332 167.065 139.333 167.265C139.335 167.465 139.468 167.666 139.735 167.82C140.265 168.126 141.121 168.126 141.648 167.82C141.913 167.666 142.044 167.465 142.043 167.265C142.042 167.065 141.908 166.864 141.643 166.711C141.376 166.557 141.03 166.48 140.684 166.48C140.338 166.48 139.992 166.557 139.727 166.711L139.598 166.637L139.473 166.564C140.14 166.177 141.224 166.176 141.895 166.564Z" fill="#080C19"/>
<path d="M144.989 165.301C145.658 165.687 145.662 166.315 144.994 166.702C144.33 167.089 143.246 167.089 142.577 166.702C141.905 166.315 141.902 165.687 142.566 165.301L142.692 165.373L142.82 165.447C142.557 165.6 142.426 165.801 142.427 166.001C142.428 166.201 142.561 166.402 142.829 166.556C143.359 166.862 144.215 166.862 144.741 166.556C145.007 166.402 145.138 166.201 145.136 166.001C145.135 165.801 145.002 165.6 144.737 165.447C144.47 165.293 144.123 165.217 143.777 165.217C143.431 165.217 143.086 165.293 142.82 165.447L142.692 165.373L142.566 165.301C143.234 164.913 144.317 164.913 144.989 165.301Z" fill="#080C19"/>
<path d="M147.911 163.713C148.58 164.099 148.584 164.727 147.916 165.115C147.251 165.501 146.167 165.501 145.498 165.115C144.827 164.727 144.823 164.099 145.488 163.713L145.614 163.785L145.742 163.859C145.479 164.012 145.348 164.213 145.349 164.413C145.35 164.614 145.483 164.814 145.75 164.968C146.28 165.274 147.136 165.274 147.663 164.968C147.929 164.814 148.06 164.614 148.058 164.413C148.057 164.213 147.924 164.012 147.659 163.859C147.392 163.705 147.045 163.629 146.699 163.629C146.353 163.629 146.007 163.705 145.742 163.859L145.613 163.785L145.488 163.713C146.156 163.325 147.239 163.325 147.911 163.713Z" fill="#080C19"/>
<path d="M151.677 188.609C151.381 188.609 151.141 188.369 151.141 188.072V168.179C151.141 167.646 150.853 167.151 150.388 166.888L145.007 163.839C144.797 163.721 144.614 163.801 144.545 163.842C144.476 163.882 144.316 164.002 144.316 164.242V165.54C144.316 165.836 144.075 166.077 143.779 166.077C143.483 166.077 143.242 165.837 143.242 165.54V164.242C143.242 163.689 143.527 163.192 144.005 162.914C144.483 162.636 145.055 162.633 145.536 162.905L150.918 165.955C151.718 166.408 152.214 167.261 152.214 168.179V188.072C152.214 188.369 151.974 188.609 151.677 188.609Z" fill="#080C19"/>
<path d="M152.887 187.531C153.557 187.917 153.56 188.545 152.893 188.933C152.228 189.319 151.144 189.319 150.475 188.933C149.803 188.545 149.8 187.917 150.465 187.531L150.59 187.604L150.719 187.678C150.455 187.83 150.325 188.031 150.325 188.232C150.327 188.432 150.46 188.633 150.727 188.787C151.257 189.093 152.113 189.093 152.64 188.787C152.905 188.633 153.036 188.432 153.035 188.232C153.034 188.031 152.9 187.83 152.635 187.678C152.368 187.523 152.022 187.447 151.676 187.447C151.33 187.447 150.984 187.523 150.719 187.678L150.59 187.604L150.465 187.531C151.132 187.143 152.216 187.143 152.887 187.531Z" fill="#080C19"/>
<path d="M154.541 186.86C154.245 186.86 154.004 186.62 154.004 186.324V166.431C154.004 165.897 153.716 165.403 153.252 165.14L147.87 162.09C147.66 161.971 147.477 162.053 147.409 162.093C147.339 162.134 147.179 162.253 147.179 162.494V163.792C147.179 164.088 146.939 164.329 146.642 164.329C146.346 164.329 146.105 164.089 146.105 163.792V162.494C146.105 161.941 146.391 161.445 146.869 161.166C147.346 160.888 147.919 160.885 148.399 161.157L153.781 164.207C154.581 164.66 155.078 165.512 155.078 166.431V186.324C155.078 186.62 154.837 186.86 154.541 186.86Z" fill="#080C19"/>
<path d="M155.751 185.785C156.42 186.171 156.424 186.799 155.756 187.187C155.091 187.573 154.007 187.573 153.338 187.187C152.667 186.799 152.663 186.171 153.328 185.785L153.454 185.858L153.582 185.931C153.319 186.084 153.188 186.285 153.189 186.485C153.19 186.686 153.323 186.887 153.59 187.041C154.12 187.347 154.976 187.347 155.503 187.041C155.768 186.887 155.899 186.686 155.898 186.485C155.897 186.285 155.764 186.084 155.499 185.931C155.232 185.777 154.885 185.701 154.539 185.701C154.193 185.701 153.847 185.777 153.582 185.931L153.454 185.858L153.328 185.785C153.995 185.397 155.079 185.397 155.751 185.785Z" fill="#080C19"/>
<path d="M148.581 187.348C148.465 187.348 148.371 187.254 148.371 187.138V184.562C148.371 184.446 148.465 184.352 148.581 184.352C148.697 184.352 148.791 184.446 148.791 184.562V187.138C148.791 187.254 148.697 187.348 148.581 187.348Z" fill="#4D9EFF"/>
<path d="M154.546 181.203C154.43 181.203 154.336 181.109 154.336 180.993V178.417C154.336 178.301 154.43 178.207 154.546 178.207C154.662 178.207 154.756 178.301 154.756 178.417V180.993C154.756 181.109 154.662 181.203 154.546 181.203Z" fill="#4D9EFF"/>
<path d="M151.675 173.142C151.559 173.142 151.465 173.048 151.465 172.932V170.356C151.465 170.241 151.559 170.146 151.675 170.146C151.791 170.146 151.885 170.241 151.885 170.356V172.932C151.885 173.049 151.791 173.142 151.675 173.142Z" fill="#4D9EFF"/>
<path d="M122.314 190.203C122.611 190.203 122.851 189.962 122.851 189.666V169.773C122.851 169.239 123.139 168.745 123.603 168.483L128.985 165.433C129.194 165.315 129.377 165.396 129.446 165.436C129.515 165.476 129.676 165.596 129.676 165.836V167.134C129.676 167.431 129.916 167.671 130.213 167.671C130.509 167.671 130.749 167.431 130.749 167.134V165.836C130.749 165.283 130.464 164.786 129.986 164.508C129.509 164.23 128.937 164.226 128.456 164.499L123.073 167.549C122.274 168.002 121.777 168.854 121.777 169.773V189.666C121.778 189.962 122.018 190.203 122.314 190.203Z" fill="#080C19"/>
<path d="M121.106 189.127C120.436 189.513 120.433 190.141 121.1 190.529C121.765 190.915 122.849 190.915 123.518 190.529C124.19 190.141 124.193 189.513 123.528 189.127L123.403 189.199L123.275 189.273C123.538 189.426 123.669 189.627 123.668 189.827C123.666 190.028 123.533 190.228 123.266 190.382C122.736 190.689 121.88 190.688 121.353 190.382C121.088 190.228 120.957 190.028 120.958 189.827C120.959 189.627 121.093 189.426 121.358 189.273C121.625 189.119 121.971 189.043 122.317 189.043C122.663 189.043 123.009 189.119 123.275 189.273L123.403 189.199L123.528 189.127C122.861 188.739 121.777 188.739 121.106 189.127Z" fill="#080C19"/>
<path d="M129.008 166.564C128.338 166.951 128.335 167.579 129.003 167.966C129.667 168.353 130.751 168.353 131.42 167.966C132.092 167.579 132.096 166.951 131.431 166.564L131.305 166.637L131.177 166.711C131.44 166.864 131.571 167.065 131.57 167.265C131.569 167.465 131.436 167.666 131.168 167.82C130.638 168.126 129.782 168.126 129.256 167.82C128.99 167.666 128.859 167.465 128.861 167.265C128.862 167.065 128.995 166.864 129.26 166.711C129.527 166.557 129.874 166.48 130.22 166.48C130.566 166.48 130.911 166.557 131.177 166.711L131.305 166.637L131.431 166.564C130.763 166.177 129.68 166.176 129.008 166.564Z" fill="#080C19"/>
<path d="M125.91 165.301C125.241 165.687 125.237 166.315 125.905 166.702C126.57 167.089 127.654 167.089 128.323 166.702C128.994 166.315 128.998 165.687 128.333 165.301L128.207 165.373L128.079 165.447C128.343 165.6 128.474 165.801 128.472 166.001C128.471 166.201 128.338 166.402 128.071 166.556C127.541 166.862 126.685 166.862 126.158 166.556C125.893 166.402 125.762 166.201 125.763 166.001C125.764 165.801 125.897 165.6 126.162 165.447C126.429 165.293 126.776 165.217 127.122 165.217C127.468 165.217 127.814 165.293 128.079 165.447L128.207 165.373L128.333 165.301C127.666 164.913 126.582 164.913 125.91 165.301Z" fill="#080C19"/>
<path d="M122.992 163.713C122.323 164.099 122.319 164.727 122.987 165.115C123.652 165.501 124.736 165.501 125.405 165.115C126.076 164.727 126.08 164.099 125.415 163.713L125.289 163.785L125.161 163.859C125.425 164.012 125.556 164.213 125.554 164.413C125.553 164.614 125.42 164.814 125.153 164.968C124.623 165.274 123.767 165.274 123.24 164.968C122.975 164.814 122.844 164.614 122.845 164.413C122.846 164.213 122.979 164.012 123.244 163.859C123.511 163.705 123.858 163.629 124.204 163.629C124.55 163.629 124.896 163.705 125.161 163.859L125.289 163.785L125.415 163.713C124.748 163.325 123.664 163.325 122.992 163.713Z" fill="#080C19"/>
<path d="M119.224 188.609C119.52 188.609 119.761 188.369 119.761 188.072V168.179C119.761 167.646 120.049 167.151 120.513 166.888L125.895 163.839C126.104 163.721 126.287 163.801 126.356 163.842C126.426 163.882 126.586 164.002 126.586 164.242V165.54C126.586 165.836 126.826 166.077 127.123 166.077C127.419 166.077 127.66 165.837 127.66 165.54V164.242C127.66 163.689 127.374 163.192 126.897 162.914C126.419 162.636 125.847 162.633 125.366 162.905L119.984 165.955C119.184 166.408 118.688 167.261 118.688 168.179V188.072C118.687 188.369 118.928 188.609 119.224 188.609Z" fill="#080C19"/>
<path d="M118.016 187.531C117.346 187.917 117.343 188.545 118.01 188.933C118.675 189.319 119.759 189.319 120.428 188.933C121.1 188.545 121.103 187.917 120.438 187.531L120.313 187.604L120.185 187.678C120.448 187.83 120.579 188.031 120.578 188.232C120.577 188.432 120.444 188.633 120.177 188.787C119.647 189.093 118.791 189.093 118.264 188.787C117.999 188.633 117.868 188.432 117.869 188.232C117.87 188.031 118.003 187.83 118.268 187.678C118.535 187.523 118.882 187.447 119.228 187.447C119.574 187.447 119.92 187.523 120.185 187.678L120.313 187.604L120.438 187.531C119.771 187.143 118.687 187.143 118.016 187.531Z" fill="#080C19"/>
<path d="M116.353 186.86C116.65 186.86 116.89 186.62 116.89 186.324V166.431C116.89 165.897 117.178 165.403 117.642 165.14L123.024 162.09C123.234 161.971 123.417 162.053 123.485 162.093C123.554 162.134 123.715 162.253 123.715 162.494V163.792C123.715 164.088 123.955 164.329 124.252 164.329C124.548 164.329 124.788 164.089 124.788 163.792V162.494C124.788 161.941 124.503 161.445 124.025 161.166C123.548 160.888 122.975 160.885 122.494 161.157L117.113 164.207C116.313 164.66 115.816 165.512 115.816 166.431V186.324C115.816 186.62 116.057 186.86 116.353 186.86Z" fill="#080C19"/>
<path d="M115.145 185.785C114.475 186.171 114.472 186.799 115.139 187.187C115.804 187.573 116.888 187.573 117.557 187.187C118.229 186.799 118.232 186.171 117.567 185.785L117.442 185.858L117.314 185.931C117.577 186.084 117.708 186.285 117.707 186.485C117.705 186.686 117.572 186.887 117.305 187.041C116.775 187.347 115.919 187.347 115.392 187.041C115.127 186.887 114.996 186.686 114.997 186.485C114.999 186.285 115.132 186.084 115.397 185.931C115.664 185.777 116.01 185.701 116.356 185.701C116.702 185.701 117.048 185.777 117.314 185.931L117.442 185.858L117.567 185.785C116.9 185.397 115.816 185.397 115.145 185.785Z" fill="#080C19"/>
<path d="M122.315 187.348C122.2 187.348 122.105 187.254 122.105 187.138V184.562C122.105 184.446 122.2 184.352 122.315 184.352C122.431 184.352 122.525 184.446 122.525 184.562V187.138C122.525 187.254 122.431 187.348 122.315 187.348Z" fill="#4D9EFF"/>
<path d="M116.355 181.203C116.239 181.203 116.145 181.109 116.145 180.993V178.417C116.145 178.301 116.239 178.207 116.355 178.207C116.47 178.207 116.565 178.301 116.565 178.417V180.993C116.565 181.109 116.47 181.203 116.355 181.203Z" fill="#4D9EFF"/>
<path d="M119.218 173.142C119.102 173.142 119.008 173.048 119.008 172.932V170.356C119.008 170.241 119.102 170.146 119.218 170.146C119.334 170.146 119.428 170.241 119.428 170.356V172.932C119.428 173.049 119.334 173.142 119.218 173.142Z" fill="#4D9EFF"/>
<path d="M221.207 97.3522C221.819 97.7054 222.314 98.5626 222.312 99.2665L222.301 103.028C222.299 103.732 221.8 104.015 221.189 103.661L210.785 97.655C210.172 97.3013 209.678 96.4446 209.68 95.7406L209.69 91.9795C209.692 91.2756 210.19 90.9917 210.803 91.3458L221.207 97.3522ZM211.562 93.3034L211.559 94.2761L214.826 96.1619L214.828 95.1892L211.562 93.3034ZM216.844 99.3573L216.847 98.3845L214.321 96.9259L214.318 97.8986L216.844 99.3573ZM220.617 99.5059L220.62 98.5332L218.944 97.5651L218.941 98.5378L220.617 99.5059ZM215.764 95.7293L215.761 96.702L216.61 97.1922L216.613 96.2194L215.764 95.7293ZM218.325 100.212L218.328 99.2392L217.653 98.8495L217.65 99.8222L218.325 100.212Z" fill="#101111"/>
<path d="M214.827 95.1905L214.825 96.1632L211.559 94.2774L211.562 93.3047L214.827 95.1905Z" fill="white"/>
<path d="M216.85 98.3821L216.847 99.3552L214.32 97.8966L214.323 96.9238L216.85 98.3821Z" fill="white"/>
<path d="M216.613 96.2206L216.611 97.1933L215.762 96.7032L215.765 95.7305L216.613 96.2206Z" fill="white"/>
<path d="M220.621 98.5321L220.618 99.5053L218.941 98.5372L218.944 97.5645L220.621 98.5321Z" fill="white"/>
<path d="M218.326 99.2394L218.324 100.212L217.648 99.8223L217.651 98.8496L218.326 99.2394Z" fill="white"/>
<path d="M209.697 89.5041L209.694 90.6549L208.691 90.0762L208.695 88.9258L209.697 89.5041Z" fill="#101111"/>
<path d="M223.317 97.3694L223.314 98.5197L222.312 97.9418L222.316 96.791L223.317 97.3694Z" fill="#101111"/>
<path d="M209.673 96.8385L209.67 97.9889L208.668 97.4106L208.671 96.2598L209.673 96.8385Z" fill="#101111"/>
<path d="M223.298 104.705L223.295 105.856L222.293 105.278L222.296 104.127L223.298 104.705Z" fill="#101111"/>
<path d="M198.229 34.4221L198.226 35.3952L196.527 34.4145L196.53 33.4414L198.229 34.4221Z" fill="white"/>
<path d="M200.019 35.4533L200.016 36.4261L199.363 36.0489L199.366 35.0762L200.019 35.4533Z" fill="white"/>
<path d="M203.822 40.031L203.819 41.0041L202.578 40.2872L202.581 39.3145L203.822 40.031Z" fill="white"/>
<path d="M205.808 38.7968L205.805 39.77L203.562 38.4751L203.565 37.502L205.808 38.7968Z" fill="white"/>
<path d="M205.804 41.173L205.801 42.1457L204.777 41.5548L204.78 40.582L205.804 41.173Z" fill="white"/>
<path d="M194.627 36.6041L194.623 37.7549L193.621 37.1762L193.624 36.0254L194.627 36.6041Z" fill="#101111"/>
<path d="M208.247 44.4685L208.244 45.6193L207.242 45.041L207.246 43.8906L208.247 44.4685Z" fill="#101111"/>
<path d="M206.152 37.4536C206.764 37.8068 207.259 38.6649 207.257 39.3679L207.246 43.1299C207.244 43.833 206.746 44.1169 206.134 43.7637L195.73 37.7572C195.117 37.4036 194.623 36.546 194.625 35.8429L194.635 32.0809C194.638 31.3779 195.135 31.0931 195.748 31.4472L206.152 37.4536ZM205.802 39.7707L205.805 38.798L203.562 37.5031L203.56 38.4759L205.802 39.7707ZM198.225 35.396L198.228 34.4233L196.529 33.4426L196.526 34.4153L198.225 35.396ZM203.814 41.0043L203.817 40.0315L202.575 39.3146L202.573 40.2873L203.814 41.0043ZM205.795 42.1479L205.798 41.1752L204.775 40.5843L204.772 41.557L205.795 42.1479ZM200.01 36.4267L200.013 35.454L199.36 35.0768L199.358 36.0495L200.01 36.4267Z" fill="#101111"/>
<path d="M194.646 29.2663L194.643 30.4166L193.641 29.8383L193.644 28.6875L194.646 29.2663Z" fill="#101111"/>
<path d="M208.27 37.133L208.267 38.2834L207.266 37.7055L207.269 36.5547L208.27 37.133Z" fill="#101111"/>
<path d="M172.617 170.595L172.614 171.567L168.238 169.041L168.241 168.068L172.617 170.595Z" fill="white"/>
<path d="M176.707 174.809L176.704 175.782L173.852 174.135L173.855 173.162L176.707 174.809Z" fill="white"/>
<path d="M165.88 171.088L165.877 172.238L164.875 171.661L164.878 170.51L165.88 171.088Z" fill="#101111"/>
<path d="M179.505 178.955L179.502 180.106L178.5 179.527L178.503 178.377L179.505 178.955Z" fill="#101111"/>
<path d="M173.243 172.809L173.24 173.782L171.781 172.94L171.784 171.967L173.243 172.809Z" fill="white"/>
<path d="M177.41 171.487C178.022 171.84 178.517 172.698 178.515 173.402L178.504 177.163C178.502 177.866 178.004 178.15 177.392 177.797L166.988 171.79C166.375 171.437 165.881 170.579 165.883 169.876L165.893 166.115C165.895 165.411 166.393 165.126 167.006 165.48L177.41 171.487ZM168.244 168.066L168.241 169.039L172.616 171.565L172.619 170.592L168.244 168.066ZM176.705 175.78L176.708 174.807L173.856 173.16L173.853 174.133L176.705 175.78ZM173.243 173.781L173.246 172.808L171.788 171.966L171.785 172.939L173.243 173.781ZM173.686 171.208L173.683 172.181L174.773 172.809L174.775 171.837L173.686 171.208Z" fill="#101111"/>
<path d="M174.779 171.84L174.777 172.813L173.688 172.184L173.69 171.211L174.779 171.84Z" fill="white"/>
<path d="M165.903 163.754L165.9 164.905L164.898 164.326L164.902 163.176L165.903 163.754Z" fill="#101111"/>
<path d="M179.524 171.619L179.521 172.77L178.52 172.192L178.523 171.041L179.524 171.619Z" fill="#101111"/>
<path d="M5.99609 112.982L5.99861 113.955L7.28297 113.213L7.28004 112.24L5.99609 112.982Z" fill="white"/>
<path d="M5.88672 111.568L5.88966 112.54L6.6297 112.113L6.62676 111.141L5.88672 111.568Z" fill="white"/>
<path d="M0.0820312 118.029L0.0845499 119.002L0.67297 118.662L0.670452 117.689L0.0820312 118.029Z" fill="white"/>
<path d="M9.91077 108.051C10.5236 107.697 11.0221 107.98 11.0238 108.684L11.0343 112.445C11.0364 113.149 10.5412 114.006 9.92841 114.36L-0.474571 120.366C-1.08735 120.72 -1.58505 120.436 -1.58715 119.732L-1.59765 115.971C-1.59975 115.267 -1.10499 114.411 -0.492631 114.057L9.91077 108.051ZM0.0781527 117.374L4.47681 114.835L4.47387 113.862L0.0752112 116.402L0.0781527 117.374ZM0.0739486 115.898L2.86065 114.289L2.85771 113.316L0.071007 114.925L0.0739486 115.898ZM7.47687 111.624L9.28455 110.58L9.28161 109.608L7.47393 110.651L7.47687 111.624ZM6.00099 113.955L7.28493 113.214L7.28199 112.241L5.99805 112.982L6.00099 113.955ZM5.88801 112.541L6.62805 112.114L6.62511 111.142L5.88507 111.569L5.88801 112.541ZM0.0827669 119.001L0.671187 118.661L0.668252 117.688L0.0798318 118.028L0.0827669 119.001Z" fill="#101111"/>
<path d="M0.0742188 116.401L0.0767438 117.373L4.4754 114.834L4.47288 113.861L0.0742188 116.401Z" fill="white"/>
<path d="M0.0742188 114.925L0.0767374 115.898L2.86386 114.289L2.86092 113.316L0.0742188 114.925Z" fill="white"/>
<path d="M7.47266 110.651L7.4756 111.624L9.28328 110.58L9.28034 109.607L7.47266 110.651Z" fill="white"/>
<path d="M11.0195 106.209L11.0229 107.36L12.0242 106.782L12.0208 105.631L11.0195 106.209Z" fill="#101111"/>
<path d="M11.0391 113.545L11.0424 114.696L12.0437 114.118L12.0408 112.967L11.0391 113.545Z" fill="#101111"/>
<path d="M113.621 20.0812L113.624 21.0539L114.299 20.6641L114.296 19.6914L113.621 20.0812Z" fill="white"/>
<path d="M120.316 12.4533L120.32 13.605L121.321 13.0266L121.318 11.875L120.316 12.4533Z" fill="#101111"/>
<path d="M106.695 20.3201L106.699 21.4717L107.7 20.8934L107.697 19.7422L106.695 20.3201Z" fill="#101111"/>
<path d="M106.715 27.6526L106.718 28.8038L107.719 28.2259L107.717 27.0742L106.715 27.6526Z" fill="#101111"/>
<path d="M119.208 14.1831C119.82 13.8299 120.319 14.1138 120.321 14.8181L120.331 18.5792C120.333 19.2823 119.838 20.1404 119.226 20.4936L108.822 26.5C108.21 26.8537 107.712 26.5693 107.71 25.8662L107.699 22.1051C107.697 21.4012 108.192 20.5436 108.804 20.1899L119.208 14.1831ZM110.05 23.1182L112.685 21.5974L112.682 20.6246L110.047 22.1455L110.05 23.1182ZM115.167 20.1639L117.714 18.6935L117.711 17.7208L115.164 19.1912L115.167 20.1639ZM113.621 21.0564L114.297 20.6666L114.294 19.6939L113.618 20.0837L113.621 21.0564Z" fill="#101111"/>
<path d="M115.164 19.1911L115.167 20.1643L117.713 18.6938L117.711 17.7207L115.164 19.1911Z" fill="white"/>
<path d="M110.051 22.1462L110.053 23.119L112.688 21.5981L112.685 20.625L110.051 22.1462Z" fill="white"/>
<path d="M120.34 19.7889L120.343 20.9405L121.344 20.3626L121.342 19.2109L120.34 19.7889Z" fill="#101111"/>
<path d="M58.6523 65.3734L58.6553 66.3461L59.8531 65.6548L59.8506 64.6816L58.6523 65.3734Z" fill="white"/>
<path d="M56.0625 69.2407L56.0654 70.2134L57.5174 69.3751L57.5144 68.4023L56.0625 69.2407Z" fill="white"/>
<path d="M66.9844 57.8025L66.9877 58.9542L67.989 58.3758L67.9857 57.2246L66.9844 57.8025Z" fill="#101111"/>
<path d="M67.0078 65.1389L67.0112 66.2901L68.0125 65.7122L68.0091 64.5605L67.0078 65.1389Z" fill="#101111"/>
<path d="M53.3828 73.0022L53.3862 74.1538L54.3875 73.5755L54.3841 72.4238L53.3828 73.0022Z" fill="#101111"/>
<path d="M63.5469 64.9219L63.5498 65.8946L64.6523 65.2579L64.6494 64.2852L63.5469 64.9219Z" fill="white"/>
<path d="M65.876 59.531C66.4888 59.1773 66.9865 59.4617 66.9886 60.1647L66.9991 63.9267C67.0012 64.6298 66.5064 65.4874 65.8941 65.841L55.4903 71.8475C54.8783 72.2007 54.3798 71.9168 54.3777 71.2137L54.3672 67.4517C54.3651 66.7487 54.8603 65.8906 55.4722 65.5374L65.876 59.531ZM61.0914 64.9376L64.6404 62.8884L64.6374 61.9157L61.0884 63.9645L61.0914 64.9376ZM56.064 70.2128L57.5159 69.3745L57.513 68.4018L56.061 69.2401L56.064 70.2128ZM58.6529 66.3455L59.8507 65.6537L59.8478 64.681L58.6499 65.3727L58.6529 66.3455ZM63.5446 65.894L64.6471 65.2572L64.6442 64.2845L63.5417 64.9212L63.5446 65.894ZM61.9478 66.8159L62.7021 66.3803L62.6991 65.4076L61.9448 65.8431L61.9478 66.8159Z" fill="#101111"/>
<path d="M53.3633 65.6658L53.3666 66.8174L54.3679 66.2395L54.3645 65.0879L53.3633 65.6658Z" fill="#101111"/>
<path d="M61.0898 63.9652L61.0924 64.9379L64.6414 62.8891L64.6384 61.916L61.0898 63.9652Z" fill="white"/>
<path d="M61.9492 65.8437L61.9517 66.8169L62.7065 66.3813L62.7035 65.4082L61.9492 65.8437Z" fill="white"/>
<path d="M105.472 64.1265L95.7734 69.7629C96.7562 69.1917 98.0242 69.1119 99.4426 69.5999L109.142 63.9635C107.723 63.4755 106.455 63.5553 105.472 64.1265Z" fill="url(#paint19_linear_20023_51691)"/>
<path d="M114.035 47.1516L104.336 52.788C107.671 50.8497 112.289 51.1231 117.387 54.0665L127.086 48.4301C121.989 45.4872 117.37 45.2137 114.035 47.1516Z" fill="url(#paint20_linear_20023_51691)"/>
<path d="M141.976 106.948L151.675 101.311C153.536 100.23 154.69 97.9309 154.699 94.6628C154.716 88.4195 150.549 80.8852 145.23 77.3105L135.531 82.9469C140.85 86.5216 145.017 94.0559 145 100.299C144.99 103.567 143.837 105.867 141.976 106.948Z" fill="url(#paint21_linear_20023_51691)"/>
<path d="M135.53 82.9461L145.229 77.3097C144.105 66.2788 136.423 53.8183 127.09 48.4297L117.391 54.0661C126.724 59.4547 134.407 71.9152 135.53 82.9461Z" fill="url(#paint22_linear_20023_51691)"/>
<path d="M117.387 54.067C107.256 48.2177 99.018 52.9137 98.9849 64.554C98.9802 66.1954 99.1386 67.8871 99.4431 69.5978C96.1688 68.4705 93.695 70.3714 93.6836 74.3564C93.6706 78.9046 96.8689 84.444 100.828 86.7296L134.596 106.226C140.322 109.531 144.977 106.877 144.995 100.299C145.013 94.0561 140.845 86.5217 135.527 82.9471C134.403 71.9162 126.72 59.4556 117.387 54.067Z" fill="url(#paint23_linear_20023_51691)"/>
<path d="M139.249 106.668C137.989 106.668 136.55 106.222 135.087 105.377L101.319 85.8815C97.7003 83.7916 94.6523 78.5151 94.6641 74.3584C94.6712 71.7892 95.7914 70.255 97.6604 70.255C98.1165 70.255 98.6096 70.3449 99.1262 70.5225L100.701 71.0647L100.409 69.4255C100.11 67.748 99.9611 66.1096 99.9653 64.556C99.9863 57.1375 103.509 52.5293 109.158 52.5293C111.52 52.5293 114.197 53.3542 116.899 54.9145C125.857 60.0864 133.447 72.1803 134.554 83.0461L134.601 83.503L134.982 83.7588C140.066 87.1755 144.035 94.4394 144.018 100.296C144.006 104.227 142.179 106.668 139.249 106.668ZM97.66 71.4049C96.0606 71.4049 95.8166 73.2576 95.8136 74.3617C95.8031 78.1573 98.5873 82.9764 101.894 84.8857L135.662 104.382C136.95 105.125 138.19 105.518 139.249 105.518C141.54 105.518 142.859 103.613 142.868 100.293C142.884 94.7809 139.139 87.9378 134.341 84.7135L133.512 84.1566L133.411 83.1628C132.338 72.6305 124.992 60.9146 116.324 55.9103C113.796 54.4508 111.318 53.6793 109.158 53.6793C104.216 53.6793 101.134 57.8482 101.115 64.5598C101.111 66.0449 101.254 67.6144 101.54 69.2243L102.175 72.7884L98.752 71.6103C98.3559 71.4738 97.9884 71.4049 97.66 71.4049Z" fill="white"/>
<path d="M107.213 71.1906L101.738 74.3726C102.547 73.903 103.666 73.9689 104.901 74.6817L110.376 71.4998C109.141 70.787 108.021 70.7211 107.213 71.1906Z" fill="url(#paint24_linear_20023_51691)"/>
<path d="M123.54 85.4444L129.015 82.2625L110.374 71.5L104.898 74.6819L123.54 85.4444Z" fill="url(#paint25_linear_20023_51691)"/>
<path d="M126.68 95.9742L132.155 92.7922C132.953 92.3285 133.447 91.3428 133.451 89.9413C133.459 87.1193 131.475 83.6816 129.019 82.2637L123.543 85.4456C125.999 86.8635 127.984 90.3012 127.976 93.1232C127.972 94.5247 127.478 95.5105 126.68 95.9742Z" fill="url(#paint26_linear_20023_51691)"/>
<path d="M104.898 74.6837C102.443 73.2666 100.446 74.4048 100.438 77.2268C100.43 80.0487 102.414 83.4848 104.869 84.9018L123.51 95.6643C125.966 97.0823 127.963 95.9453 127.971 93.1233C127.979 90.3014 125.995 86.8637 123.539 85.4457L104.898 74.6837Z" fill="url(#paint27_linear_20023_51691)"/>
<path d="M123.536 87.4361C125.033 88.3 126.246 90.4033 126.241 92.1228C126.236 93.8423 125.015 94.5382 123.518 93.6743L104.877 82.9118C103.381 82.0479 102.167 79.9462 102.172 78.2267C102.177 76.5072 103.398 75.8096 104.895 76.6736L123.536 87.4361ZM106.114 81.2612L115.16 86.4839C115.524 86.6943 115.821 86.5263 115.822 86.108C115.824 85.6897 115.528 85.1781 115.164 84.9677L106.118 79.745C105.754 79.5346 105.457 79.7043 105.455 80.1226C105.455 80.5409 105.75 81.0508 106.114 81.2612ZM123.362 91.9792C124.092 92.4005 124.684 92.0628 124.687 91.2257C124.689 90.387 124.1 89.3668 123.371 88.9455C122.642 88.5251 122.049 88.8628 122.047 89.7015C122.044 90.5382 122.633 91.5584 123.362 91.9792ZM119.772 89.9065C120.5 90.3269 121.093 89.9892 121.096 89.1522C121.098 88.3134 120.509 87.2933 119.781 86.8728C119.053 86.4524 118.459 86.7901 118.457 87.6288C118.454 88.4659 119.044 89.4861 119.772 89.9065Z" fill="#1F2540"/>
<path d="M123.367 88.9425C122.639 88.5221 122.045 88.8598 122.043 89.6985C122.04 90.5356 122.63 91.5557 123.358 91.9761C124.088 92.3974 124.681 92.0597 124.683 91.2227C124.686 90.3844 124.097 89.3642 123.367 88.9425Z" fill="#DF66DC"/>
<path d="M106.116 79.7447C105.752 79.5343 105.454 79.7039 105.453 80.1223C105.452 80.5406 105.747 81.0505 106.111 81.2609L115.157 86.4836C115.521 86.694 115.819 86.526 115.82 86.1077C115.82 85.6893 115.526 85.1778 115.161 84.9674L106.116 79.7447Z" fill="white"/>
<path d="M119.781 86.8702C119.053 86.4498 118.46 86.7875 118.457 87.6262C118.455 88.4633 119.044 89.4835 119.772 89.9039C120.5 90.3243 121.093 89.9866 121.096 89.1496C121.098 88.3108 120.51 87.2906 119.781 86.8702Z" fill="#72C5C7"/>
<path d="M108.962 133.427L85.8313 119.985L85.8086 112.004L108.94 125.446L108.962 133.427Z" fill="#182347"/>
<path d="M108.94 125.446L85.8086 112.004L94.0629 107.238L117.194 120.68L108.94 125.446Z" fill="#505477"/>
<path d="M108.94 123.628L108.888 123.597L88.9492 112.01L94.0585 109.061L94.111 109.091L114.05 120.678L108.94 123.628ZM89.3684 112.011L108.941 123.385L113.631 120.678L94.0581 109.303L89.3684 112.011Z" fill="white"/>
<path d="M100.409 146.758L77.2778 133.316L77.2539 124.938L100.385 138.38L100.409 146.758Z" fill="#182347"/>
<path d="M100.385 138.379L77.2539 124.937L85.8282 119.986L108.959 133.428L100.385 138.379Z" fill="#505477"/>
<path d="M100.39 136.557L100.337 136.527L80.3984 124.94L85.8282 121.805L85.8807 121.835L105.819 133.422L100.39 136.557ZM80.8172 124.94L100.39 136.314L105.4 133.422L85.8278 122.047L80.8172 124.94Z" fill="white"/>
<path d="M92.1619 151.521L69.0312 138.079L77.2826 133.314L100.414 146.757L92.1619 151.521Z" fill="#505477"/>
<path d="M92.1591 149.701L92.1066 149.67L72.168 138.083L77.2743 135.135L77.3268 135.165L97.2655 146.752L92.1591 149.701ZM72.5871 138.084L92.16 149.458L96.8472 146.752L77.2743 135.378L72.5871 138.084Z" fill="white"/>
<path d="M92.1913 161.895L69.0607 148.453L69.0312 138.08L92.1619 151.522L92.1913 161.895Z" fill="#182347"/>
<path d="M125.208 100.785L125.216 103.678L119.68 106.874L119.723 122.121L111.469 126.887L111.492 134.868L102.917 139.819L102.941 148.197L94.6899 152.961L94.7109 160.441L92.1935 161.895L92.1641 151.522L100.416 146.758L100.392 138.379L108.966 133.429L108.943 125.448L117.198 120.682L117.154 105.435L125.208 100.785Z" fill="#2E3F72"/>
<path d="M117.19 120.682L94.0589 107.239L94.0156 91.9922L117.147 105.435L117.19 120.682Z" fill="#182347"/>
<path d="M117.147 105.436L94.0156 91.9931L102.069 87.3438L125.2 100.786L117.147 105.436Z" fill="#505477"/>
<path d="M117.151 103.614L117.099 103.583L97.1602 91.9963L102.068 89.1621L102.121 89.1928L122.059 100.78L117.151 103.614ZM97.5793 91.9967L117.152 103.371L121.642 100.78L102.069 89.4053L97.5793 91.9967Z" fill="white"/>
<path d="M79.0829 148.233C78.8133 148.077 78.5945 148.203 78.5936 148.513L78.5898 149.784C78.589 150.094 78.8066 150.47 79.0762 150.626L80.1816 151.264C80.4513 151.42 80.6714 151.296 80.6722 150.986L80.676 149.716C80.6768 149.406 80.458 149.027 80.1884 148.872L79.0829 148.233Z" fill="#FCFCFC"/>
<path d="M76.3389 147.371L76.3359 148.33L77.1705 148.812L77.1734 147.853L76.3389 147.371Z" fill="#FCFCFC"/>
<path d="M77.2889 147.112C77.5787 147.279 77.8151 147.687 77.8143 148.021L77.8105 149.376C77.8097 149.709 77.5715 149.844 77.2817 149.677L73.4841 147.484C72.8688 147.129 72.3694 146.264 72.3711 145.557C72.3732 144.848 72.8759 144.563 73.4912 144.918L77.2889 147.112ZM73.4841 147.312L77.2817 149.505C77.4888 149.624 77.6589 149.527 77.6597 149.289L77.6635 147.935C77.6644 147.697 77.4955 147.404 77.288 147.285L73.4904 145.092C72.9578 144.784 72.5231 145.032 72.5215 145.644C72.5198 146.256 72.952 147.004 73.4841 147.312Z" fill="#FCFCFC"/>
<path d="M85.7794 152.016C86.3947 152.372 86.8941 153.236 86.8924 153.944C86.8903 154.651 86.3876 154.937 85.7723 154.582L81.9746 152.39C81.6832 152.221 81.4484 151.813 81.4492 151.48L81.453 150.126C81.4538 149.791 81.6903 149.656 81.9818 149.824L85.7794 152.016ZM81.5996 151.566C81.5987 151.804 81.7676 152.097 81.9751 152.216L85.7727 154.409C86.3053 154.717 86.74 154.469 86.7421 153.857C86.7438 153.245 86.3116 152.497 85.779 152.189L81.9814 149.997C81.7739 149.877 81.6042 149.974 81.6034 150.212L81.5996 151.566Z" fill="#FCFCFC"/>
<path d="M82.0924 150.693L82.0898 151.652L82.9244 152.134L82.9269 151.175L82.0924 150.693Z" fill="#FCFCFC"/>
<path d="M88.2861 134.332C88.0164 134.177 87.7976 134.303 87.7968 134.613L87.793 135.883C87.7921 136.193 88.0097 136.57 88.2793 136.726L89.3848 137.364C89.6544 137.52 89.8745 137.396 89.8753 137.086L89.8791 135.815C89.88 135.505 89.6611 135.127 89.3915 134.971L88.2861 134.332Z" fill="#FCFCFC"/>
<path d="M85.5416 133.467L85.5391 134.426L86.3736 134.908L86.3761 133.949L85.5416 133.467Z" fill="#FCFCFC"/>
<path d="M86.4877 133.209C86.7775 133.376 87.0139 133.784 87.0131 134.119L87.0093 135.473C87.0085 135.806 86.7703 135.942 86.4805 135.775L82.6829 133.582C82.0676 133.227 81.5682 132.361 81.5703 131.654C81.5724 130.946 82.0752 130.661 82.6905 131.016L86.4877 133.209ZM82.6833 133.409L86.481 135.602C86.688 135.722 86.8581 135.625 86.859 135.386L86.8627 134.032C86.8636 133.794 86.6947 133.501 86.4873 133.382L82.6896 131.189C82.157 130.882 81.7224 131.129 81.7203 131.741C81.7186 132.353 82.1508 133.102 82.6833 133.409Z" fill="#FCFCFC"/>
<path d="M94.9825 138.112C95.5978 138.467 96.0972 139.331 96.0955 140.04C96.0934 140.746 95.5907 141.033 94.9754 140.678L91.1778 138.486C90.8863 138.318 90.6515 137.909 90.6523 137.576L90.6561 136.221C90.657 135.887 90.8934 135.752 91.1849 135.92L94.9825 138.112ZM90.8027 137.662C90.8019 137.9 90.9707 138.193 91.1782 138.313L94.9758 140.505C95.5084 140.813 95.9435 140.565 95.9452 139.953C95.9469 139.341 95.5147 138.593 94.9821 138.285L91.1845 136.093C90.977 135.973 90.8073 136.07 90.8065 136.308L90.8027 137.662Z" fill="#FCFCFC"/>
<path d="M91.2959 136.787L91.293 137.746L92.1275 138.228L92.1304 137.269L91.2959 136.787Z" fill="#FCFCFC"/>
<path d="M96.8329 121.2C96.5633 121.044 96.3445 121.17 96.3436 121.48L96.3398 122.751C96.339 123.061 96.5566 123.437 96.8262 123.593L97.9316 124.231C98.2013 124.387 98.4214 124.263 98.4222 123.953L98.426 122.683C98.4268 122.373 98.208 121.994 97.9384 121.838L96.8329 121.2Z" fill="#FCFCFC"/>
<path d="M94.0924 120.336L94.0898 121.295L94.9244 121.777L94.9273 120.818L94.0924 120.336Z" fill="#FCFCFC"/>
<path d="M95.0428 120.077C95.3326 120.245 95.5691 120.653 95.5682 120.988L95.5644 122.342C95.5636 122.675 95.3255 122.811 95.0357 122.643L91.238 120.451C90.6227 120.096 90.1233 119.23 90.125 118.523C90.1271 117.815 90.6299 117.53 91.2452 117.885L95.0428 120.077ZM91.238 120.278L95.0357 122.471C95.2427 122.59 95.4128 122.493 95.4136 122.255L95.4174 120.901C95.4183 120.663 95.2494 120.37 95.0419 120.251L91.2443 118.058C90.7117 117.75 90.277 117.998 90.2754 118.61C90.2737 119.222 90.7055 119.97 91.238 120.278Z" fill="#FCFCFC"/>
<path d="M103.537 124.983C104.153 125.339 104.652 126.202 104.65 126.911C104.648 127.618 104.145 127.904 103.53 127.549L99.7325 125.357C99.441 125.188 99.2062 124.78 99.207 124.447L99.2108 123.092C99.2117 122.758 99.4481 122.623 99.7396 122.791L103.537 124.983ZM99.3574 124.533C99.3566 124.772 99.5254 125.064 99.7329 125.184L103.531 127.376C104.063 127.683 104.498 127.436 104.5 126.824C104.502 126.212 104.069 125.463 103.537 125.156L99.7392 122.963C99.5317 122.844 99.362 122.94 99.3612 123.179L99.3574 124.533Z" fill="#FCFCFC"/>
<path d="M99.8428 123.658L99.8398 124.617L100.675 125.099L100.677 124.14L99.8428 123.658Z" fill="#FCFCFC"/>
<path d="M104.774 105.19C104.504 105.034 104.285 105.16 104.285 105.47L104.281 106.741C104.28 107.051 104.498 107.427 104.768 107.583L105.873 108.221C106.143 108.377 106.363 108.253 106.364 107.943L106.367 106.673C106.368 106.363 106.149 105.984 105.88 105.829L104.774 105.19Z" fill="#FCFCFC"/>
<path d="M102.03 104.326L102.027 105.285L102.862 105.767L102.864 104.808L102.03 104.326Z" fill="#FCFCFC"/>
<path d="M102.98 104.068C103.27 104.235 103.506 104.643 103.505 104.978L103.501 106.332C103.501 106.665 103.263 106.801 102.973 106.633L99.1751 104.441C98.5598 104.086 98.0604 103.221 98.0625 102.514C98.0646 101.805 98.5673 101.52 99.1826 101.875L102.98 104.068ZM99.1755 104.268L102.973 106.46C103.18 106.58 103.35 106.484 103.351 106.245L103.355 104.89C103.356 104.652 103.187 104.36 102.979 104.24L99.1818 102.047C98.6492 101.74 98.2145 101.988 98.2129 102.6C98.2108 103.212 98.6429 103.961 99.1755 104.268Z" fill="#FCFCFC"/>
<path d="M111.471 108.974C112.086 109.329 112.586 110.192 112.584 110.901C112.582 111.608 112.079 111.894 111.464 111.539L107.666 109.347C107.375 109.179 107.14 108.77 107.141 108.437L107.144 107.083C107.145 106.748 107.382 106.613 107.673 106.782L111.471 108.974ZM107.291 108.524C107.29 108.762 107.459 109.054 107.666 109.174L111.464 111.366C111.997 111.674 112.432 111.426 112.433 110.814C112.435 110.202 112.003 109.454 111.47 109.146L107.673 106.954C107.465 106.834 107.296 106.931 107.295 107.169L107.291 108.524Z" fill="#FCFCFC"/>
<path d="M107.784 107.646L107.781 108.605L108.616 109.088L108.619 108.128L107.784 107.646Z" fill="#FCFCFC"/>
<g opacity="0.3">
<path d="M149.797 155.354C150.725 155.89 150.73 156.759 149.808 157.295L137.26 164.587C136.336 165.123 134.836 165.123 133.908 164.588L121.278 157.296C120.349 156.76 120.344 155.891 121.267 155.354L133.816 148.062C134.737 147.526 136.238 147.526 137.167 148.063L149.797 155.354Z" fill="#38B9F9"/>
</g>
<g opacity="0.3">
<path d="M149.797 152.443C150.725 152.978 150.73 153.848 149.808 154.383L137.26 161.675C136.336 162.212 134.836 162.212 133.908 161.676L121.278 154.384C120.349 153.848 120.344 152.979 121.267 152.442L133.816 145.15C134.737 144.614 136.238 144.614 137.167 145.15L149.797 152.443Z" fill="#38B9F9"/>
</g>
<g opacity="0.3">
<path d="M149.797 149.283C150.725 149.818 150.73 150.688 149.808 151.223L137.26 158.515C136.336 159.051 134.836 159.051 133.908 158.516L121.278 151.224C120.349 150.688 120.344 149.819 121.267 149.282L133.816 141.989C134.737 141.454 136.238 141.454 137.167 141.99L149.797 149.283Z" fill="#38B9F9"/>
</g>
<g opacity="0.3">
<path d="M53.4494 98.8257C54.3771 99.3616 54.3822 100.231 53.4603 100.766L40.9119 108.058C39.9888 108.594 38.4885 108.594 37.5608 108.059L24.9305 100.767C24.0015 100.231 23.9964 99.3616 24.9196 98.8248L37.4679 91.5324C38.3898 90.9969 39.8901 90.9969 40.8191 91.5332L53.4494 98.8257Z" fill="#38B9F9"/>
</g>
<g opacity="0.3">
<path d="M53.4494 95.9151C54.3771 96.4506 54.3822 97.32 53.4603 97.8555L40.9119 105.148C39.9888 105.684 38.4885 105.684 37.5608 105.148L24.9305 97.8563C24.0015 97.32 23.9964 96.451 24.9196 95.9147L37.4679 88.6222C38.3898 88.0867 39.8901 88.0867 40.8191 88.6231L53.4494 95.9151Z" fill="#38B9F9"/>
</g>
<g opacity="0.3">
<path d="M53.4494 92.7549C54.3771 93.2904 54.3822 94.1598 53.4603 94.6953L40.9119 101.988C39.9888 102.524 38.4885 102.524 37.5608 101.989L24.9305 94.6966C24.0015 94.1603 23.9964 93.2913 24.9196 92.7545L37.4679 85.4621C38.3898 84.9266 39.8901 84.9266 40.8191 85.4629L53.4494 92.7549Z" fill="#38B9F9"/>
</g>
</g>
<defs>
<linearGradient id="paint0_linear_20023_51691" x1="143.319" y1="60.8185" x2="120.856" y2="21.4619" gradientUnits="userSpaceOnUse">
<stop stop-color="#FF5AA9"/>
<stop offset="0.5" stop-color="#5299FF"/>
<stop offset="1" stop-color="#7648B7"/>
</linearGradient>
<linearGradient id="paint1_linear_20023_51691" x1="132.736" y1="33.3924" x2="131.292" y2="22.1579" gradientUnits="userSpaceOnUse">
<stop stop-color="#768AAD"/>
<stop offset="1" stop-color="#C6D6E5"/>
</linearGradient>
<linearGradient id="paint2_linear_20023_51691" x1="156.897" y1="68.674" x2="134.435" y2="29.3174" gradientUnits="userSpaceOnUse">
<stop stop-color="#FF5AA9"/>
<stop offset="0.5" stop-color="#5299FF"/>
<stop offset="1" stop-color="#7648B7"/>
</linearGradient>
<linearGradient id="paint3_linear_20023_51691" x1="146.321" y1="50.8846" x2="144.877" y2="39.6501" gradientUnits="userSpaceOnUse">
<stop stop-color="#768AAD"/>
<stop offset="1" stop-color="#C6D6E5"/>
</linearGradient>
<linearGradient id="paint4_linear_20023_51691" x1="170.432" y1="76.5216" x2="147.97" y2="37.1649" gradientUnits="userSpaceOnUse">
<stop stop-color="#FF5AA9"/>
<stop offset="0.5" stop-color="#5299FF"/>
<stop offset="1" stop-color="#7648B7"/>
</linearGradient>
<linearGradient id="paint5_linear_20023_51691" x1="159.856" y1="46.2555" x2="158.412" y2="35.021" gradientUnits="userSpaceOnUse">
<stop stop-color="#768AAD"/>
<stop offset="1" stop-color="#C6D6E5"/>
</linearGradient>
<linearGradient id="paint6_linear_20023_51691" x1="183.992" y1="84.3789" x2="161.529" y2="45.0223" gradientUnits="userSpaceOnUse">
<stop stop-color="#FF5AA9"/>
<stop offset="0.5" stop-color="#5299FF"/>
<stop offset="1" stop-color="#7648B7"/>
</linearGradient>
<linearGradient id="paint7_linear_20023_51691" x1="173.411" y1="79.2302" x2="171.967" y2="67.9958" gradientUnits="userSpaceOnUse">
<stop stop-color="#768AAD"/>
<stop offset="1" stop-color="#C6D6E5"/>
</linearGradient>
<linearGradient id="paint8_linear_20023_51691" x1="197.515" y1="92.1486" x2="175.052" y2="52.792" gradientUnits="userSpaceOnUse">
<stop stop-color="#FF5AA9"/>
<stop offset="0.5" stop-color="#5299FF"/>
<stop offset="1" stop-color="#7648B7"/>
</linearGradient>
<linearGradient id="paint9_linear_20023_51691" x1="186.939" y1="63.6054" x2="185.495" y2="52.3708" gradientUnits="userSpaceOnUse">
<stop stop-color="#768AAD"/>
<stop offset="1" stop-color="#C6D6E5"/>
</linearGradient>
<linearGradient id="paint10_linear_20023_51691" x1="75.625" y1="88.1265" x2="113.408" y2="88.1265" gradientUnits="userSpaceOnUse">
<stop stop-color="#768AAD"/>
<stop offset="1" stop-color="#C6D6E5"/>
</linearGradient>
<linearGradient id="paint11_linear_20023_51691" x1="113.36" y1="99.2304" x2="189.856" y2="99.2304" gradientUnits="userSpaceOnUse">
<stop stop-color="#768AAD"/>
<stop offset="1" stop-color="#C6D6E5"/>
</linearGradient>
<linearGradient id="paint12_linear_20023_51691" x1="80.4879" y1="125.564" x2="165.59" y2="129.248" gradientUnits="userSpaceOnUse">
<stop stop-color="#768AAD"/>
<stop offset="1" stop-color="#C6D6E5"/>
</linearGradient>
<linearGradient id="paint13_linear_20023_51691" x1="17.6956" y1="127.729" x2="60.6879" y2="127.729" gradientUnits="userSpaceOnUse">
<stop stop-color="#768AAD"/>
<stop offset="1" stop-color="#C6D6E5"/>
</linearGradient>
<linearGradient id="paint14_linear_20023_51691" x1="17.6952" y1="120.48" x2="60.6875" y2="120.48" gradientUnits="userSpaceOnUse">
<stop stop-color="#768AAD"/>
<stop offset="1" stop-color="#C6D6E5"/>
</linearGradient>
<linearGradient id="paint15_linear_20023_51691" x1="17.6952" y1="112.423" x2="60.6875" y2="112.423" gradientUnits="userSpaceOnUse">
<stop stop-color="#768AAD"/>
<stop offset="1" stop-color="#C6D6E5"/>
</linearGradient>
<linearGradient id="paint16_linear_20023_51691" x1="114.039" y1="183.511" x2="157.032" y2="183.511" gradientUnits="userSpaceOnUse">
<stop stop-color="#768AAD"/>
<stop offset="1" stop-color="#C6D6E5"/>
</linearGradient>
<linearGradient id="paint17_linear_20023_51691" x1="114.039" y1="176.263" x2="157.032" y2="176.263" gradientUnits="userSpaceOnUse">
<stop stop-color="#768AAD"/>
<stop offset="1" stop-color="#C6D6E5"/>
</linearGradient>
<linearGradient id="paint18_linear_20023_51691" x1="114.039" y1="168.208" x2="157.032" y2="168.208" gradientUnits="userSpaceOnUse">
<stop stop-color="#768AAD"/>
<stop offset="1" stop-color="#C6D6E5"/>
</linearGradient>
<linearGradient id="paint19_linear_20023_51691" x1="118.154" y1="117.201" x2="104.912" y2="74.7358" gradientUnits="userSpaceOnUse">
<stop offset="0.0196" stop-color="#362F7B"/>
<stop offset="0.5419" stop-color="#689DEE"/>
<stop offset="1" stop-color="#8091F4"/>
</linearGradient>
<linearGradient id="paint20_linear_20023_51691" x1="134.852" y1="111.992" x2="121.61" y2="69.5269" gradientUnits="userSpaceOnUse">
<stop offset="0.0196" stop-color="#362F7B"/>
<stop offset="0.5419" stop-color="#689DEE"/>
<stop offset="1" stop-color="#8091F4"/>
</linearGradient>
<linearGradient id="paint21_linear_20023_51691" x1="150.683" y1="107.057" x2="137.441" y2="64.5918" gradientUnits="userSpaceOnUse">
<stop offset="0.0196" stop-color="#362F7B"/>
<stop offset="0.5419" stop-color="#689DEE"/>
<stop offset="1" stop-color="#8091F4"/>
</linearGradient>
<linearGradient id="paint22_linear_20023_51691" x1="145.09" y1="108.799" x2="131.849" y2="66.3341" gradientUnits="userSpaceOnUse">
<stop offset="0.0196" stop-color="#362F7B"/>
<stop offset="0.5419" stop-color="#689DEE"/>
<stop offset="1" stop-color="#8091F4"/>
</linearGradient>
<linearGradient id="paint23_linear_20023_51691" x1="163.597" y1="97.4203" x2="117.936" y2="76.4163" gradientUnits="userSpaceOnUse">
<stop stop-color="#4B5BB4"/>
<stop offset="1" stop-color="#689DEE"/>
</linearGradient>
<linearGradient id="paint24_linear_20023_51691" x1="118.765" y1="99.3689" x2="115.911" y2="93.433" gradientUnits="userSpaceOnUse">
<stop offset="0.0196" stop-color="#4B5BB4"/>
<stop offset="1" stop-color="white"/>
</linearGradient>
<linearGradient id="paint25_linear_20023_51691" x1="126.287" y1="93.7593" x2="119.97" y2="83.4095" gradientUnits="userSpaceOnUse">
<stop offset="0.0196" stop-color="#9DC3F4"/>
<stop offset="1" stop-color="white"/>
</linearGradient>
<linearGradient id="paint26_linear_20023_51691" x1="129.899" y1="91.5581" x2="123.583" y2="81.2082" gradientUnits="userSpaceOnUse">
<stop offset="0.0196" stop-color="#9DC3F4"/>
<stop offset="1" stop-color="white"/>
</linearGradient>
<linearGradient id="paint27_linear_20023_51691" x1="114.854" y1="73.2539" x2="112.495" y2="116.556" gradientUnits="userSpaceOnUse">
<stop offset="0.0196" stop-color="#BBD6F7"/>
<stop offset="1" stop-color="white"/>
</linearGradient>
<clipPath id="clip0_20023_51691">
<rect width="268" height="220" rx="32" fill="white"/>
</clipPath>
</defs>
</svg>
