<svg width="496" height="348" viewBox="0 0 496 348" fill="none" xmlns="http://www.w3.org/2000/svg">
<path opacity="0.5" d="M317.813 184.642C323.669 178.786 323.669 169.291 317.813 163.435C323.669 169.292 333.164 169.292 339.02 163.435C333.164 169.292 333.164 178.786 339.02 184.642C333.164 178.786 323.669 178.786 317.813 184.642ZM315.296 207.855C309.508 202.068 309.508 192.684 315.296 186.896C309.508 192.684 300.125 192.684 294.337 186.896C300.125 192.684 300.125 202.068 294.337 207.855C300.125 202.067 309.508 202.067 315.296 207.855ZM315.743 161.021C309.918 155.196 309.918 145.751 315.743 139.927C309.918 145.751 300.473 145.751 294.648 139.927C300.473 145.751 300.473 155.196 294.648 161.021C300.473 155.196 309.917 155.196 315.743 161.021ZM361.523 207.392C356.025 201.894 356.025 192.98 361.523 187.482C356.025 192.98 347.11 192.98 341.613 187.482C347.11 192.98 347.11 201.894 341.613 207.392C347.11 201.894 356.025 201.894 361.523 207.392ZM337.847 137.201C332.389 131.742 332.389 122.893 337.847 117.434C332.389 122.893 323.539 122.893 318.081 117.434C323.539 122.893 323.539 131.742 318.081 137.201C323.539 131.742 332.389 131.742 337.847 137.201ZM338.13 230.365C332.682 224.917 332.682 216.084 338.13 210.636C332.682 216.084 323.849 216.084 318.4 210.636C323.849 216.084 323.849 224.917 318.4 230.365C323.849 224.917 332.682 224.917 338.13 230.365ZM291.308 230.201C285.966 224.858 285.966 216.196 291.308 210.854C285.966 216.196 277.304 216.196 271.961 210.854C277.304 216.196 277.304 224.858 271.961 230.201C277.304 224.858 285.966 224.858 291.308 230.201ZM291.549 136.997C286.178 131.626 286.178 122.919 291.549 117.55C286.178 122.92 277.471 122.92 272.102 117.55C277.472 122.92 277.472 131.627 272.102 136.997C277.471 131.626 286.178 131.626 291.549 136.997ZM268.153 207.028C262.745 201.62 262.745 192.852 268.153 187.443C262.745 192.851 253.977 192.851 248.568 187.443C253.976 192.851 253.976 201.619 248.568 207.028C253.977 201.62 262.745 201.62 268.153 207.028ZM267.73 160.146C262.379 154.794 262.379 146.116 267.73 140.765C262.378 146.117 253.701 146.117 248.349 140.765C253.701 146.117 253.701 154.795 248.349 160.146C253.701 154.794 262.379 154.794 267.73 160.146ZM384.232 183.628C378.917 178.313 378.917 169.698 384.232 164.383C378.917 169.698 370.302 169.698 364.987 164.383C370.302 169.698 370.302 178.313 364.987 183.628C370.302 178.313 378.917 178.313 384.232 183.628ZM314.7 253.515C309.416 248.231 309.416 239.665 314.7 234.381C309.416 239.665 300.85 239.665 295.566 234.381C300.85 239.665 300.85 248.232 295.566 253.515C300.85 248.231 309.416 248.231 314.7 253.515ZM314.682 113.652C309.39 108.36 309.39 99.7793 314.682 94.4873C309.39 99.7793 300.81 99.7793 295.518 94.4873C300.81 99.7793 300.81 108.36 295.518 113.652C300.81 108.36 309.39 108.36 314.682 113.652ZM383.894 229.792C378.843 224.741 378.843 216.552 383.894 211.501C378.843 216.552 370.654 216.552 365.603 211.501C370.654 216.552 370.654 224.741 365.603 229.792C370.654 224.74 378.843 224.74 383.894 229.792ZM383.893 136.553C378.848 131.508 378.848 123.329 383.893 118.285C378.848 123.33 370.669 123.33 365.625 118.285C370.67 123.33 370.67 131.509 365.625 136.553C370.67 131.508 378.849 131.508 383.893 136.553ZM244.045 182.958C238.929 177.842 238.929 169.549 244.045 164.433C238.929 169.549 230.635 169.549 225.52 164.433C230.635 169.549 230.635 177.842 225.52 182.958C230.635 177.842 238.929 177.842 244.045 182.958ZM360.619 253.23C355.506 248.117 355.506 239.828 360.619 234.715C355.506 239.828 347.217 239.828 342.104 234.715C347.217 239.828 347.217 248.117 342.104 253.23C347.217 248.117 355.506 248.117 360.619 253.23ZM360.749 113.454C355.632 108.337 355.632 100.039 360.749 94.9222C355.632 100.039 347.335 100.039 342.218 94.9222C347.335 100.039 347.335 108.337 342.218 113.454C347.335 108.337 355.632 108.337 360.749 113.454ZM407.23 206.155C402.257 201.182 402.257 193.119 407.23 188.146C402.257 193.119 394.193 193.119 389.22 188.146C394.193 193.119 394.193 201.182 389.22 206.155C394.193 201.181 402.257 201.181 407.23 206.155ZM407.233 159.903C402.283 154.952 402.283 146.926 407.233 141.976C402.283 146.926 394.257 146.926 389.306 141.976C394.257 146.926 394.257 154.952 389.306 159.903C394.257 154.952 402.283 154.952 407.233 159.903ZM267.252 112.603C262.322 107.673 262.322 99.6785 267.252 94.7472C262.322 99.6778 254.328 99.6778 249.396 94.7472C254.327 99.6778 254.327 107.672 249.396 112.603C254.328 107.673 262.322 107.673 267.252 112.603ZM266.916 252.869C262.029 247.982 262.029 240.058 266.916 235.171C262.029 240.058 254.105 240.058 249.218 235.171C254.105 240.058 254.105 247.982 249.218 252.869C254.106 247.982 262.029 247.982 266.916 252.869ZM337.091 89.3285C332.206 84.4433 332.206 76.5233 337.091 71.6381C332.206 76.5233 324.286 76.5233 319.401 71.6381C324.286 76.5233 324.286 84.4433 319.401 89.3285C324.286 84.4433 332.206 84.4433 337.091 89.3285ZM337.216 276.362C332.348 271.494 332.348 263.602 337.216 258.735C332.348 263.603 324.456 263.603 319.589 258.735C324.457 263.603 324.457 271.495 319.589 276.362C324.456 271.495 332.348 271.495 337.216 276.362ZM290.207 276.12C285.411 271.324 285.411 263.547 290.207 258.751C285.411 263.547 277.634 263.547 272.838 258.751C277.634 263.547 277.634 271.324 272.838 276.12C277.634 271.324 285.41 271.324 290.207 276.12ZM290.219 89.2018C285.424 84.4066 285.424 76.632 290.219 71.8368C285.424 76.632 277.649 76.632 272.854 71.8368C277.649 76.632 277.649 84.4066 272.854 89.2018C277.649 84.4066 285.424 84.4066 290.219 89.2018ZM220.288 205.862C215.539 201.113 215.539 193.414 220.288 188.665C215.539 193.414 207.84 193.414 203.091 188.665C207.84 193.414 207.84 201.113 203.091 205.862C207.839 201.113 215.539 201.113 220.288 205.862ZM220.157 159.417C215.422 154.681 215.422 147.004 220.157 142.269C215.422 147.004 207.744 147.004 203.01 142.269C207.745 147.004 207.745 154.681 203.01 159.416C207.744 154.682 215.422 154.682 220.157 159.417ZM429.95 182.607C425.274 177.932 425.274 170.351 429.95 165.675C425.274 170.351 417.693 170.351 413.018 165.675C417.693 170.351 417.693 177.932 413.018 182.607C417.693 177.932 425.274 177.932 429.95 182.607ZM406.787 112.215C402.154 107.583 402.154 100.072 406.787 95.4399C402.154 100.072 394.644 100.072 390.012 95.4399C394.644 100.072 394.644 107.583 390.012 112.215C394.644 107.583 402.155 107.583 406.787 112.215ZM406.428 252.241C401.802 247.615 401.802 240.115 406.428 235.489C401.802 240.115 394.302 240.115 389.676 235.489C394.302 240.115 394.302 247.615 389.676 252.241C394.302 247.616 401.802 247.616 406.428 252.241ZM382.925 88.9505C378.328 84.354 378.328 76.9013 382.925 72.3041C378.328 76.9006 370.876 76.9006 366.278 72.3041C370.875 76.9006 370.875 84.3533 366.278 88.9505C370.876 84.354 378.328 84.354 382.925 88.9505ZM385.99 84.3252C385.973 84.3087 385.973 84.2828 385.99 84.2662C385.973 84.2828 385.947 84.2828 385.931 84.2662C385.947 84.2828 385.947 84.3087 385.931 84.3252C385.947 84.3087 385.973 84.3087 385.99 84.3252ZM383.208 275.474C378.641 270.907 378.641 263.502 383.208 258.935C378.641 263.502 371.236 263.502 366.669 258.935C371.236 263.502 371.236 270.907 366.669 275.474C371.236 270.907 378.641 270.907 383.208 275.474ZM312.933 298.877C308.425 294.368 308.425 287.058 312.933 282.548C308.424 287.058 301.114 287.058 296.605 282.548C301.114 287.058 301.114 294.368 296.605 298.877C301.114 294.369 308.425 294.369 312.933 298.877ZM312.878 65.5433C308.385 61.0505 308.385 53.767 312.878 49.2742C308.385 53.767 301.102 53.767 296.609 49.2742C301.102 53.767 301.102 61.0505 296.609 65.5433C301.102 61.0505 308.385 61.0505 312.878 65.5433ZM429.644 228.603C425.114 224.073 425.114 216.727 429.644 212.197C425.114 216.727 417.768 216.727 413.238 212.197C417.768 216.727 417.768 224.073 413.238 228.603C417.768 224.073 425.114 224.073 429.644 228.603ZM429.868 135.599C425.335 131.066 425.335 123.716 429.868 119.183C425.335 123.716 417.985 123.716 413.452 119.183C417.985 123.716 417.985 131.066 413.452 135.599C417.985 131.066 425.335 131.066 429.868 135.599ZM242.813 88.5776C238.385 84.1503 238.385 76.9719 242.813 72.5446C238.385 76.9719 231.207 76.9719 226.78 72.5446C231.207 76.9719 231.207 84.1503 226.78 88.5776C231.207 84.1503 238.385 84.1503 242.813 88.5776ZM242.826 275.505C238.393 271.072 238.393 263.884 242.826 259.451C238.393 263.884 231.206 263.884 226.773 259.451C231.206 263.884 231.206 271.072 226.773 275.505C231.206 271.072 238.393 271.072 242.826 275.505ZM359.488 65.462C355.045 61.0189 355.045 53.816 359.488 49.3728C355.045 53.816 347.842 53.816 343.399 49.3728C347.842 53.816 347.842 61.0189 343.399 65.462C347.842 61.0196 355.045 61.0196 359.488 65.462ZM219.359 252.051C214.916 247.608 214.916 240.404 219.359 235.962C214.916 240.405 207.712 240.405 203.27 235.962C207.713 240.405 207.713 247.608 203.27 252.051C207.712 247.608 214.916 247.608 219.359 252.051ZM359.551 298.81C355.099 294.359 355.099 287.141 359.551 282.69C355.099 287.141 347.882 287.141 343.43 282.69C347.882 287.141 347.882 294.359 343.43 298.81C347.881 294.359 355.099 294.359 359.551 298.81ZM219.645 111.8C215.209 107.364 215.209 100.171 219.645 95.7351C215.209 100.172 208.016 100.172 203.58 95.7351C208.017 100.172 208.017 107.365 203.58 111.8C208.017 107.364 215.209 107.364 219.645 111.8ZM196.453 182.112C191.968 177.627 191.968 170.357 196.453 165.872C191.968 170.357 184.698 170.357 180.213 165.872C184.698 170.357 184.698 177.627 180.213 182.112C184.698 177.627 191.968 177.627 196.453 182.112ZM266.385 298.65C261.985 294.249 261.985 287.113 266.385 282.713C261.985 287.113 254.849 287.113 250.448 282.713C254.849 287.113 254.849 294.249 250.448 298.65C254.85 294.248 261.985 294.248 266.385 298.65ZM266.328 65.282C261.95 60.9044 261.95 53.8073 266.328 49.4297C261.95 53.8073 254.853 53.8073 250.476 49.4297C254.853 53.8073 254.853 60.9044 250.476 65.282C254.853 60.9044 261.95 60.9044 266.328 65.282ZM195.831 135.126C191.521 130.816 191.521 123.827 195.831 119.516C191.521 123.827 184.532 123.827 180.221 119.516C184.532 123.827 184.532 130.816 180.221 135.126C184.532 130.816 191.521 130.816 195.831 135.126ZM196.16 228.221C191.878 223.938 191.878 216.995 196.16 212.713C191.878 216.996 184.935 216.996 180.653 212.713C184.935 216.996 184.935 223.939 180.653 228.221C184.935 223.938 191.878 223.938 196.16 228.221ZM452.856 204.997C448.535 200.675 448.535 193.669 452.856 189.347C448.535 193.669 441.528 193.669 437.207 189.347C441.528 193.669 441.528 200.675 437.207 204.997C441.528 200.675 448.535 200.675 452.856 204.997ZM452.768 158.667C448.475 154.375 448.475 147.416 452.768 143.123C448.475 147.416 441.516 147.416 437.223 143.123C441.516 147.416 441.516 154.375 437.223 158.667C441.516 154.375 448.476 154.375 452.768 158.667ZM335.763 41.6127C331.62 37.4705 331.62 30.7551 335.763 26.6129C331.62 30.7551 324.905 30.7551 320.763 26.6129C324.905 30.7551 324.905 37.4705 320.763 41.6127C324.904 37.4705 331.62 37.4705 335.763 41.6127ZM335.747 321.38C331.62 317.253 331.62 310.562 335.747 306.434C331.62 310.562 324.929 310.562 320.802 306.434C324.929 310.562 324.929 317.253 320.802 321.38C324.929 317.253 331.62 317.253 335.747 321.38ZM405.764 297.812C401.606 293.654 401.606 286.912 405.764 282.754C401.606 286.912 394.864 286.912 390.706 282.754C394.864 286.912 394.864 293.654 390.706 297.812C394.865 293.654 401.606 293.654 405.764 297.812ZM289.096 41.2383C284.928 37.0702 284.928 30.3123 289.096 26.1435C284.928 30.3116 278.17 30.3116 274.002 26.1435C278.17 30.3116 278.17 37.0695 274.002 41.2383C278.17 37.0695 284.928 37.0695 289.096 41.2383ZM429.024 274.621C424.861 270.458 424.861 263.71 429.024 259.547C424.861 263.71 418.113 263.71 413.949 259.547C418.113 263.71 418.113 270.458 413.949 274.621C418.113 270.459 424.861 270.459 429.024 274.621ZM429.332 88.2003C425.139 84.007 425.139 77.2088 429.332 73.0162C425.139 77.2095 418.341 77.2095 414.148 73.0162C418.341 77.2095 418.341 84.0077 414.148 88.2003C418.341 84.007 425.14 84.007 429.332 88.2003ZM288.726 321.429C284.581 317.285 284.581 310.565 288.726 306.421C284.581 310.565 277.862 310.565 273.717 306.421C277.862 310.565 277.862 317.285 273.717 321.429C277.862 317.285 284.581 317.285 288.726 321.429ZM405.542 64.8363C401.46 60.7539 401.46 54.1356 405.542 50.054C401.46 54.1364 394.841 54.1364 390.76 50.054C394.842 54.1364 394.842 60.7546 390.76 64.8363C394.841 60.7539 401.46 60.7539 405.542 64.8363ZM452.458 251.352C448.358 247.253 448.358 240.605 452.458 236.505C448.358 240.605 441.711 240.605 437.611 236.505C441.711 240.605 441.711 247.253 437.611 251.352C441.711 247.252 448.358 247.252 452.458 251.352ZM452.142 111.029C448.17 107.057 448.17 100.617 452.142 96.6452C448.17 100.617 441.731 100.617 437.758 96.6452C441.73 100.617 441.73 107.056 437.758 111.029C441.731 107.057 448.17 107.057 452.142 111.029ZM172.046 157.644C168.074 153.671 168.074 147.231 172.046 143.259C168.074 147.231 161.633 147.231 157.661 143.259C161.633 147.231 161.633 153.671 157.661 157.644C161.633 153.671 168.074 153.671 172.046 157.644ZM382.152 321.032C378.219 317.098 378.219 310.721 382.152 306.788C378.219 310.721 371.842 310.721 367.908 306.788C371.842 310.721 371.842 317.098 367.908 321.032C371.841 317.098 378.219 317.098 382.152 321.032ZM382.078 41.3492C378.137 37.4086 378.137 31.0201 382.078 27.0802C378.137 31.0208 371.749 31.0208 367.809 27.0802C371.75 31.0208 371.75 37.4093 367.809 41.3492C371.749 37.4086 378.137 37.4086 382.078 41.3492ZM218.641 64.1768C214.724 60.26 214.724 53.9096 218.641 49.9928C214.724 53.9096 208.374 53.9096 204.457 49.9928C208.374 53.9096 208.374 60.26 204.457 64.1768C208.374 60.26 214.724 60.26 218.641 64.1768ZM218.75 297.47C214.841 293.562 214.841 287.223 218.75 283.315C214.841 287.223 208.503 287.223 204.594 283.315C208.503 287.223 208.503 293.562 204.594 297.47C208.503 293.561 214.84 293.561 218.75 297.47ZM195.144 87.7258C191.219 83.8011 191.219 77.4377 195.144 73.513C191.219 77.4377 184.856 77.4377 180.931 73.513C184.856 77.4377 184.856 83.8011 180.931 87.7258C184.856 83.8011 191.219 83.8011 195.144 87.7258ZM475.525 181.165C471.6 177.24 471.6 170.876 475.525 166.951C471.6 170.876 465.236 170.876 461.311 166.951C465.237 170.876 465.237 177.241 461.311 181.165C465.237 177.24 471.6 177.24 475.525 181.165ZM195.507 274.323C191.565 270.38 191.565 263.99 195.507 260.048C191.565 263.99 185.174 263.99 181.233 260.048C185.175 263.99 185.175 270.381 181.233 274.323C185.174 270.381 191.565 270.381 195.507 274.323ZM241.707 320.87C237.842 317.005 237.842 310.738 241.707 306.873C237.842 310.738 231.575 310.738 227.71 306.873C231.575 310.738 231.575 317.005 227.71 320.87C231.575 317.004 237.842 317.004 241.707 320.87ZM242.06 40.7854C238.204 36.9291 238.204 30.6773 242.06 26.821C238.204 30.6773 231.952 30.6773 228.096 26.821C231.952 30.6773 231.952 36.9291 228.096 40.7854C231.952 36.9291 238.204 36.9291 242.06 40.7854ZM475.502 134.323C471.625 130.447 471.625 124.161 475.502 120.285C471.625 124.161 465.34 124.161 461.463 120.285C465.34 124.161 465.34 130.447 461.463 134.323C465.34 130.447 471.624 130.447 475.502 134.323ZM475.149 227.348C471.285 223.483 471.285 217.219 475.149 213.354C471.285 217.219 465.02 217.219 461.156 213.354C465.02 217.219 465.02 223.483 461.156 227.348C465.02 223.483 471.285 223.483 475.149 227.348ZM171.648 250.596C167.877 246.825 167.877 240.712 171.648 236.942C167.877 240.712 161.764 240.712 157.994 236.942C161.764 240.712 161.764 246.825 157.994 250.596C161.764 246.826 167.877 246.826 171.648 250.596ZM171.602 110.668C167.833 106.899 167.833 100.79 171.602 97.0217C167.833 100.79 161.724 100.79 157.956 97.0217C161.724 100.79 161.724 106.899 157.956 110.668C161.724 106.899 167.833 106.899 171.602 110.668ZM311.517 344.105C307.714 340.302 307.714 334.136 311.517 330.333C307.714 334.136 301.547 334.136 297.744 330.333C301.547 334.136 301.547 340.302 297.744 344.105C301.547 340.302 307.714 340.302 311.517 344.105ZM311.797 17.6C308.008 13.8113 308.008 7.66972 311.797 3.88107C308.008 7.66972 301.866 7.66972 298.078 3.88107C301.866 7.66972 301.866 13.8113 298.078 17.6C301.866 13.8113 308.008 13.8113 311.797 17.6ZM358.206 343.853C354.502 340.149 354.502 334.145 358.206 330.441C354.502 334.145 348.498 334.145 344.794 330.441C348.498 334.145 348.498 340.149 344.794 343.853C348.498 340.149 354.503 340.149 358.206 343.853ZM358.388 17.358C354.689 13.6594 354.689 7.66324 358.388 3.9646C354.689 7.66324 348.693 7.66324 344.994 3.9646C348.693 7.66324 348.693 13.6594 344.994 17.358C348.693 13.6594 354.689 13.6594 358.388 17.358ZM148.391 180.415C144.659 176.683 144.659 170.633 148.391 166.901C144.659 170.633 138.609 170.633 134.877 166.901C138.609 170.633 138.609 176.683 134.877 180.415C138.609 176.684 144.659 176.684 148.391 180.415ZM264.67 343.712C260.993 340.035 260.993 334.075 264.67 330.398C260.993 334.075 255.033 334.075 251.356 330.398C255.033 334.075 255.033 340.035 251.356 343.712C255.033 340.035 260.993 340.035 264.67 343.712ZM264.532 17.1996C260.894 13.5615 260.894 7.66252 264.532 4.02364C260.894 7.6618 254.995 7.6618 251.356 4.02364C254.994 7.6618 254.994 13.5608 251.356 17.1996C254.995 13.5608 260.894 13.5608 264.532 17.1996ZM148.11 227.268C144.533 223.691 144.533 217.891 148.11 214.314C144.533 217.891 138.734 217.891 135.157 214.314C138.734 217.891 138.734 223.691 135.157 227.268C138.735 223.691 144.533 223.691 148.11 227.268ZM148.214 133.776C144.634 130.196 144.634 124.392 148.214 120.812C144.634 124.392 138.83 124.392 135.25 120.812C138.83 124.392 138.83 130.196 135.25 133.776C138.83 130.196 144.634 130.196 148.214 133.776ZM498.148 156.967C494.558 153.376 494.558 147.554 498.148 143.964C494.558 147.555 488.735 147.555 485.145 143.964C488.735 147.554 488.735 153.377 485.145 156.967C488.736 153.376 494.558 153.376 498.148 156.967ZM497.951 203.884C494.367 200.3 494.367 194.49 497.951 190.906C494.367 194.49 488.557 194.49 484.973 190.906C488.557 194.49 488.557 200.301 484.973 203.884C488.557 200.301 494.367 200.301 497.951 203.884ZM451.205 63.8261C447.683 60.3039 447.683 54.5943 451.205 51.072C447.683 54.5943 441.973 54.5943 438.451 51.072C441.973 54.5943 441.973 60.3039 438.451 63.8261C441.973 60.3046 447.683 60.3046 451.205 63.8261ZM451.125 297.062C447.609 293.546 447.609 287.847 451.125 284.332C447.609 287.847 441.91 287.847 438.395 284.332C441.91 287.847 441.91 293.546 438.395 297.062C441.911 293.546 447.609 293.546 451.125 297.062ZM427.656 40.2843C424.168 36.7966 424.168 31.1424 427.656 27.6548C424.168 31.1424 418.514 31.1424 415.027 27.6548C418.514 31.1424 418.514 36.7966 415.027 40.2843C418.514 36.7973 424.169 36.7973 427.656 40.2843ZM474.502 273.489C471.022 270.008 471.022 264.365 474.502 260.884C471.022 264.365 465.378 264.365 461.898 260.884C465.378 264.365 465.378 270.008 461.898 273.489C465.378 270.008 471.022 270.008 474.502 273.489ZM474.409 87.2024C470.925 83.7183 470.925 78.0699 474.409 74.5858C470.925 78.0699 465.276 78.0699 461.792 74.5858C465.276 78.0699 465.276 83.7183 461.792 87.2024C465.276 83.7183 470.925 83.7183 474.409 87.2024ZM334.158 366.842C330.733 363.416 330.733 357.862 334.158 354.436C330.733 357.862 325.179 357.862 321.753 354.436C325.179 357.862 325.179 363.416 321.753 366.842C325.179 363.416 330.733 363.416 334.158 366.842ZM319.331 360.646V360.645H319.33V360.646H319.331ZM287.682 366.671C284.294 363.284 284.294 357.791 287.682 354.404C284.294 357.791 278.802 357.791 275.414 354.404C278.802 357.791 278.802 363.284 275.414 366.671C278.802 363.284 284.294 363.284 287.682 366.671ZM287.674 -6.65179C284.338 -9.98755 284.338 -15.3955 287.674 -18.7312C284.338 -15.3955 278.93 -15.3955 275.594 -18.7312C278.93 -15.3955 278.93 -9.98755 275.594 -6.65179C278.93 -9.98755 284.338 -9.98755 287.674 -6.65179ZM170.916 63.1565C167.519 59.7596 167.519 54.2523 170.916 50.8553C167.519 54.2523 162.011 54.2523 158.614 50.8553C162.011 54.2523 162.011 59.7596 158.614 63.1565C162.011 59.7596 167.519 59.7596 170.916 63.1565ZM217.722 343.628C214.354 340.259 214.354 334.798 217.722 331.43C214.354 334.798 208.893 334.798 205.525 331.43C208.893 334.798 208.893 340.259 205.525 343.628C208.893 340.259 214.354 340.259 217.722 343.628ZM497.377 250.092C494.024 246.739 494.024 241.303 497.377 237.95C494.024 241.303 488.588 241.303 485.235 237.95C488.588 241.303 488.588 246.739 485.235 250.092C488.588 246.739 494.024 246.739 497.377 250.092ZM147.274 86.4903C144.017 83.2337 144.017 77.954 147.274 74.6974C144.017 77.954 138.737 77.954 135.482 74.6974C138.738 77.954 138.738 83.2337 135.482 86.4896C138.737 83.2337 144.017 83.2337 147.274 86.4903ZM147.442 272.785C144.235 269.578 144.235 264.379 147.442 261.173C144.235 264.38 139.036 264.38 135.83 261.173C139.037 264.38 139.037 269.579 135.83 272.785C139.036 269.578 144.235 269.578 147.442 272.785ZM124.09 203.222C120.814 199.945 120.814 194.632 124.09 191.355C120.814 194.632 115.501 194.632 112.224 191.355C115.501 194.632 115.501 199.945 112.224 203.222C115.502 199.945 120.814 199.945 124.09 203.222ZM380.817 366.351C377.584 363.118 377.584 357.877 380.817 354.644C377.584 357.877 372.344 357.877 369.111 354.644C372.344 357.877 372.344 363.118 369.111 366.351C372.344 363.118 377.585 363.118 380.817 366.351ZM380.907 -6.58051C377.643 -9.84427 377.643 -15.1363 380.907 -18.4008C377.643 -15.137 372.352 -15.137 369.087 -18.4008C372.351 -15.137 372.351 -9.84499 369.087 -6.58051C372.351 -9.84427 377.643 -9.84427 380.907 -6.58051ZM240.481 -7.18675C237.359 -10.308 237.359 -15.3688 240.481 -18.49C237.359 -15.3688 232.299 -15.3688 229.177 -18.49C232.299 -15.3688 232.299 -10.308 229.177 -7.18675C232.299 -10.3087 237.359 -10.3087 240.481 -7.18675ZM240.525 366.007C237.385 362.867 237.385 357.776 240.525 354.636C237.385 357.776 232.293 357.776 229.153 354.636C232.293 357.776 232.293 362.867 229.153 366.007C232.293 362.867 237.385 362.867 240.525 366.007ZM520.247 179.547C517.141 176.441 517.141 171.405 520.247 168.298C517.141 171.404 512.105 171.404 508.998 168.298C512.104 171.404 512.104 176.441 508.998 179.547C512.105 176.441 517.141 176.441 520.247 179.547ZM123.63 109.568C120.585 106.523 120.585 101.586 123.63 98.5409C120.585 101.586 115.648 101.586 112.603 98.5409C115.648 101.586 115.648 106.523 112.603 109.568C115.648 106.523 120.585 106.523 123.63 109.568ZM123.633 249.458C120.58 246.405 120.58 241.457 123.633 238.404C120.58 241.457 115.632 241.457 112.579 238.404C115.632 241.457 115.632 246.405 112.579 249.458C115.632 246.406 120.58 246.406 123.633 249.458ZM473.584 39.4649C470.523 36.4042 470.523 31.4412 473.584 28.3805C470.523 31.4412 465.561 31.4412 462.5 28.3805C465.561 31.4412 465.561 36.4042 462.5 39.4649C465.561 36.4035 470.523 36.4035 473.584 39.4649ZM473.698 319.816C470.635 316.753 470.635 311.786 473.698 308.723C470.634 311.785 465.669 311.785 462.605 308.723C465.668 311.785 465.668 316.752 462.605 319.816C465.669 316.752 470.634 316.752 473.698 319.816ZM310.193 389.206C307.199 386.211 307.199 381.356 310.193 378.36C307.199 381.355 302.343 381.355 299.348 378.36C302.342 381.355 302.342 386.211 299.348 389.206C302.343 386.211 307.199 386.211 310.193 389.206ZM310.462 -30.6364C307.481 -33.618 307.481 -38.4513 310.462 -41.4321C307.48 -38.4506 302.647 -38.4506 299.666 -41.4321C302.648 -38.4506 302.648 -33.6172 299.666 -30.6364C302.647 -33.6172 307.481 -33.6172 310.462 -30.6364ZM450.234 16.3551C447.26 13.3808 447.26 8.5575 450.234 5.58316C447.26 8.5575 442.436 8.5575 439.462 5.58316C442.436 8.5575 442.436 13.3808 439.462 16.3551C442.436 13.3808 447.26 13.3808 450.234 16.3551ZM449.99 342.889C446.983 339.882 446.983 335.007 449.99 332C446.983 335.007 442.108 335.007 439.101 332C442.108 335.007 442.108 339.882 439.101 342.889C442.108 339.882 446.983 339.882 449.99 342.889ZM520.319 225.927C517.287 222.896 517.287 217.982 520.319 214.951C517.287 217.982 512.373 217.982 509.342 214.951C512.373 217.982 512.373 222.896 509.342 225.927C512.373 222.896 517.287 222.896 520.319 225.927ZM496.849 295.894C493.964 293.009 493.964 288.332 496.849 285.447C493.964 288.332 489.287 288.332 486.402 285.447C489.287 288.332 489.287 293.009 486.402 295.894C489.287 293.009 493.964 293.009 496.849 295.894ZM496.824 62.5381C493.94 59.6544 493.94 54.9788 496.824 52.0952C493.94 54.9788 489.264 54.9788 486.381 52.0952C489.264 54.9788 489.264 59.6544 486.381 62.5381C489.264 59.6544 493.94 59.6544 496.824 62.5381ZM427.01 -7.29475C424.129 -10.1755 424.129 -14.8461 427.01 -17.7268C424.129 -14.8461 419.458 -14.8461 416.577 -17.7268C419.458 -14.8461 419.458 -10.1755 416.577 -7.29475C419.458 -10.1762 424.129 -10.1762 427.01 -7.29475ZM263.219 389.076C260.304 386.161 260.304 381.433 263.219 378.518C260.304 381.433 255.576 381.433 252.661 378.518C255.576 381.433 255.576 386.161 252.661 389.076C255.576 386.161 260.303 386.161 263.219 389.076ZM427.036 365.948C424.125 363.037 424.125 358.316 427.036 355.405C424.125 358.316 419.404 358.316 416.492 355.405C419.404 358.316 419.404 363.037 416.492 365.948C419.404 363.037 424.125 363.037 427.036 365.948ZM263.512 -30.9957C260.622 -33.8858 260.622 -38.5708 263.512 -41.4609C260.622 -38.5708 255.937 -38.5708 253.047 -41.4609C255.937 -38.5708 255.937 -33.8858 253.047 -30.9957C255.937 -33.8858 260.622 -33.8858 263.512 -30.9957ZM356.811 -30.7999C353.949 -33.6619 353.949 -38.3023 356.811 -41.1643C353.949 -38.3023 349.309 -38.3023 346.447 -41.1643C349.309 -38.3023 349.309 -33.6619 346.447 -30.7999C349.309 -33.6619 353.949 -33.6619 356.811 -30.7999ZM100.034 179.056C97.2258 176.248 97.2258 171.696 100.034 168.889C97.2258 171.697 92.6732 171.697 89.866 168.889C92.674 171.697 92.674 176.248 89.866 179.056C92.6732 176.249 97.2258 176.249 100.034 179.056ZM169.867 15.7071C167.041 12.8811 167.041 8.29973 169.867 5.47372C167.041 8.29973 162.46 8.29973 159.634 5.47372C162.46 8.29973 162.46 12.8811 159.634 15.7071C162.46 12.8818 167.041 12.8818 169.867 15.7071ZM146.84 39.1143C143.953 36.2278 143.953 31.5485 146.84 28.6628C143.953 31.5492 139.274 31.5492 136.388 28.6628C139.275 31.5492 139.275 36.2285 136.388 39.1143C139.275 36.2285 143.954 36.2285 146.84 39.1143ZM169.977 342.578C167.121 339.722 167.121 335.092 169.977 332.236C167.121 335.092 162.491 335.092 159.635 332.236C162.491 335.092 162.491 339.722 159.635 342.578C162.491 339.722 167.121 339.722 169.977 342.578ZM146.5 318.79C143.774 316.063 143.774 311.643 146.5 308.916C143.774 311.643 139.354 311.643 136.627 308.916C139.354 311.643 139.354 316.063 136.627 318.79C139.354 316.063 143.774 316.063 146.5 318.79ZM519.923 85.5708C517.14 82.7873 517.14 78.2744 519.923 75.4908C517.14 78.2744 512.627 78.2744 509.843 75.4908C512.627 78.2744 512.627 82.7873 509.843 85.5708C512.627 82.7873 517.14 82.7873 519.923 85.5708ZM519.88 272.458C517.13 269.708 517.13 265.25 519.88 262.499C517.13 265.25 512.672 265.25 509.921 262.499C512.672 265.25 512.672 269.708 509.921 272.458C512.671 269.708 517.13 269.708 519.88 272.458ZM99.8257 132.24C97.0832 129.497 97.0832 125.051 99.8257 122.31C97.0832 125.052 92.6372 125.052 89.8955 122.31C92.638 125.052 92.638 129.498 89.8955 132.24C92.6372 129.497 97.0832 129.497 99.8257 132.24ZM99.8286 225.394C97.1365 222.702 97.1365 218.337 99.8286 215.645C97.1365 218.337 92.7719 218.337 90.0798 215.645C92.7719 218.337 92.7719 222.702 90.0798 225.394C92.7712 222.702 97.1365 222.702 99.8286 225.394ZM193.333 -7.54028C190.58 -10.2928 190.58 -14.7561 193.333 -17.5087C190.58 -14.7561 186.117 -14.7561 183.364 -17.5087C186.117 -14.7561 186.117 -10.2928 183.364 -7.54028C186.117 -10.2928 190.58 -10.2928 193.333 -7.54028ZM193.386 365.744C190.573 362.931 190.573 358.371 193.386 355.558C190.573 358.371 186.013 358.371 183.2 355.558C186.013 358.371 186.013 362.931 183.2 365.744C186.013 362.931 190.574 362.931 193.386 365.744ZM122.928 295.205C120.313 292.59 120.313 288.35 122.928 285.735C120.313 288.35 116.073 288.35 113.458 285.735C116.073 288.35 116.073 292.59 113.458 295.205C116.074 292.59 120.313 292.59 122.928 295.205ZM122.933 62.0513C120.277 59.3945 120.277 55.0882 122.933 52.4314C120.277 55.0882 115.97 55.0882 113.313 52.4314C115.97 55.0882 115.97 59.3945 113.313 62.0513C115.97 59.3945 120.277 59.3945 122.933 62.0513ZM403.039 -30.977C400.355 -33.6612 400.355 -38.0128 403.039 -40.697C400.355 -38.0128 396.003 -38.0128 393.319 -40.697C396.003 -38.0128 396.003 -33.6612 393.319 -30.977C396.004 -33.6612 400.356 -33.6612 403.039 -30.977ZM403.126 388.697C400.429 386 400.429 381.626 403.126 378.928C400.429 381.626 396.055 381.626 393.357 378.928C396.055 381.626 396.055 386 393.357 388.697C396.055 386 400.429 386 403.126 388.697ZM542.745 202.254C540.121 199.63 540.121 195.374 542.745 192.749C540.121 195.374 535.866 195.374 533.241 192.749C535.865 195.374 535.865 199.629 533.241 202.254C535.866 199.629 540.121 199.629 542.745 202.254ZM542.75 155.405C540.103 152.758 540.103 148.464 542.75 145.817C540.103 148.464 535.81 148.464 533.162 145.817C535.81 148.464 535.81 152.758 533.162 155.405C535.81 152.758 540.103 152.758 542.75 155.405ZM216.379 388.68C213.734 386.036 213.734 381.748 216.379 379.103C213.734 381.748 209.446 381.748 206.802 379.103C209.446 381.748 209.446 386.036 206.802 388.68C209.446 386.036 213.734 386.036 216.379 388.68ZM216.351 -31.0044C213.732 -33.6237 213.732 -37.8717 216.351 -40.4911C213.732 -37.8717 209.484 -37.8717 206.865 -40.4911C209.484 -37.8717 209.484 -33.6237 206.865 -31.0044C209.484 -33.6237 213.731 -33.6237 216.351 -31.0044ZM332.785 -54.8572C330.217 -57.4248 330.217 -61.5871 332.785 -64.1546C330.217 -61.5871 326.055 -61.5871 323.487 -64.1546C326.055 -61.5871 326.055 -57.4248 323.487 -54.8572C326.055 -57.4248 330.217 -57.4248 332.785 -54.8572ZM332.612 412.004C330.008 409.401 330.008 405.18 332.612 402.577C330.008 405.18 325.788 405.18 323.184 402.577C325.788 405.18 325.788 409.401 323.184 412.004C325.788 409.402 330.008 409.402 332.612 412.004ZM542.655 108.724C540.103 106.172 540.103 102.033 542.655 99.4805C540.103 102.033 535.964 102.033 533.412 99.4805C535.964 102.033 535.964 106.172 533.412 108.724C535.964 106.171 540.103 106.171 542.655 108.724ZM542.644 248.646C540.094 246.096 540.094 241.961 542.644 239.411C540.094 241.961 535.96 241.961 533.41 239.411C535.96 241.961 535.96 246.096 533.41 248.646C535.96 246.096 540.095 246.096 542.644 248.646ZM286.198 411.522C283.662 408.986 283.662 404.874 286.198 402.338C283.662 404.874 279.55 404.874 277.013 402.338C279.549 404.874 279.549 408.986 277.013 411.522C279.55 408.986 283.662 408.986 286.198 411.522ZM286.495 -54.6988C283.953 -57.2404 283.953 -61.3617 286.495 -63.9033C283.953 -61.3617 279.832 -61.3617 277.291 -63.9033C279.832 -61.3617 279.832 -57.2404 277.291 -54.6988C279.832 -57.2404 283.953 -57.2404 286.495 -54.6988ZM99.1583 271.483C96.7535 269.079 96.7535 265.179 99.1583 262.774C96.7535 265.178 92.854 265.178 90.4484 262.774C92.8532 265.178 92.8532 269.078 90.4484 271.483C92.854 269.079 96.7535 269.079 99.1583 271.483ZM378.988 -54.9336C376.589 -57.3319 376.589 -61.2192 378.988 -63.6175C376.589 -61.2192 372.702 -61.2192 370.304 -63.6175C372.702 -61.2192 372.702 -57.3319 370.304 -54.9336C372.702 -57.3312 376.59 -57.3312 378.988 -54.9336ZM472.213 365.022C469.809 362.617 469.809 358.719 472.213 356.315C469.809 358.719 465.91 358.719 463.506 356.315C465.91 358.719 465.91 362.617 463.506 365.022C465.91 362.617 469.808 362.617 472.213 365.022ZM379.045 411.729C376.641 409.325 376.641 405.427 379.045 403.023C376.641 405.427 372.742 405.427 370.338 403.023C372.742 405.427 372.742 409.325 370.338 411.729C372.743 409.325 376.641 409.325 379.045 411.729ZM75.7381 154.787C73.3564 152.405 73.3564 148.543 75.7381 146.16C73.3564 148.542 69.4943 148.542 67.1118 146.16C69.4936 148.542 69.4936 152.404 67.1118 154.787C69.4936 152.405 73.3556 152.405 75.7381 154.787ZM472.637 -8.29485C470.266 -10.6658 470.266 -14.5092 472.637 -16.8801C470.266 -14.5092 466.422 -14.5092 464.051 -16.8801C466.422 -14.5092 466.422 -10.6658 464.051 -8.29485C466.422 -10.6658 470.266 -10.6658 472.637 -8.29485ZM495.968 14.9763C493.586 12.5945 493.586 8.73315 495.968 6.35139C493.586 8.73315 489.724 8.73315 487.343 6.35139C489.724 8.73315 489.724 12.5945 487.343 14.9763C489.724 12.5945 493.586 12.5945 495.968 14.9763ZM495.71 341.484C493.313 339.087 493.313 335.201 495.71 332.803C493.313 335.2 489.426 335.2 487.029 332.803C489.426 335.2 489.426 339.086 487.029 341.484C489.426 339.087 493.313 339.087 495.71 341.484ZM75.7655 201.361C73.4543 199.049 73.4543 195.302 75.7655 192.991C73.4543 195.302 69.7067 195.302 67.3955 192.991C69.7067 195.302 69.7067 199.049 67.3955 201.361C69.7067 199.049 73.4543 199.049 75.7655 201.361ZM518.949 38.3612C516.645 36.0564 516.645 32.3204 518.949 30.0156C516.645 32.3204 512.908 32.3204 510.604 30.0156C512.908 32.3204 512.908 36.0564 510.604 38.3612C512.908 36.0564 516.645 36.0564 518.949 38.3612ZM519.017 318.134C516.692 315.809 516.692 312.04 519.017 309.716C516.692 312.04 512.924 312.04 510.599 309.716C512.924 312.04 512.924 315.809 510.599 318.134C512.924 315.809 516.693 315.809 519.017 318.134ZM239.285 -55.151C236.981 -57.4543 236.981 -61.1889 239.285 -63.4922C236.981 -61.1889 233.247 -61.1889 230.943 -63.4922C233.247 -61.1889 233.247 -57.4543 230.943 -55.151C233.247 -57.4543 236.981 -57.4543 239.285 -55.151ZM449.234 388.237C446.879 385.882 446.879 382.063 449.234 379.708C446.879 382.063 443.06 382.063 440.705 379.708C443.06 382.063 443.06 385.882 440.705 388.237C443.06 385.882 446.878 385.882 449.234 388.237ZM238.998 411.3C236.664 408.966 236.664 405.182 238.998 402.848C236.664 405.182 232.88 405.182 230.545 402.848C232.88 405.182 232.88 408.966 230.545 411.3C232.88 408.966 236.664 408.966 238.998 411.3ZM448.952 -31.9836C446.722 -34.2134 446.722 -37.8285 448.952 -40.0591C446.722 -37.8292 443.107 -37.8292 440.877 -40.0591C443.107 -37.8292 443.107 -34.2141 440.877 -31.9836C443.107 -34.2134 446.722 -34.2134 448.952 -31.9836ZM75.4487 247.751C73.3196 245.622 73.3196 242.169 75.4487 240.04C73.3196 242.169 69.8672 242.169 67.7382 240.04C69.8672 242.169 69.8672 245.622 67.7382 247.751C69.8672 245.622 73.3196 245.622 75.4487 247.751ZM565.417 177.971C563.224 175.778 563.224 172.222 565.417 170.029C563.224 172.222 559.668 172.222 557.475 170.029C559.668 172.222 559.668 175.778 557.475 177.971C559.668 175.777 563.224 175.777 565.417 177.971ZM145.335 364.582C143.134 362.381 143.134 358.812 145.335 356.611C143.134 358.812 139.566 358.812 137.366 356.611C139.567 358.812 139.567 362.381 137.366 364.582C139.566 362.381 143.134 362.381 145.335 364.582ZM542.003 294.686C539.813 292.496 539.813 288.945 542.003 286.755C539.813 288.945 536.262 288.945 534.073 286.755C536.263 288.945 536.263 292.496 534.073 294.686C536.262 292.496 539.813 292.496 542.003 294.686ZM122.005 14.599C119.845 12.439 119.845 8.93765 122.005 6.77837C119.845 8.93837 116.343 8.93837 114.184 6.77837C116.344 8.93837 116.344 12.4397 114.184 14.599C116.344 12.439 119.845 12.439 122.005 14.599ZM121.982 340.976C119.898 338.893 119.898 335.515 121.982 333.431C119.898 335.515 116.52 335.515 114.436 333.431C116.52 335.515 116.52 338.893 114.436 340.976C116.52 338.893 119.898 338.893 121.982 340.976ZM541.956 61.3688C539.769 59.1821 539.769 55.6368 541.956 53.4502C539.769 55.6368 536.224 55.6368 534.038 53.4502C536.224 55.6368 536.224 59.1821 534.038 61.3688C536.224 59.1821 539.769 59.1821 541.956 61.3688ZM565.631 224.722C563.461 222.552 563.461 219.034 565.631 216.864C563.461 219.034 559.943 219.034 557.774 216.864C559.944 219.034 559.944 222.552 557.774 224.722C559.943 222.552 563.461 222.552 565.631 224.722ZM145.613 -8.93707C143.413 -11.1374 143.413 -14.7043 145.613 -16.9046C143.413 -14.7043 139.846 -14.7043 137.646 -16.9046C139.846 -14.7043 139.846 -11.1374 137.646 -8.93707C139.846 -11.1374 143.413 -11.1374 145.613 -8.93707ZM565.657 131.288C563.476 129.107 563.476 125.572 565.657 123.391C563.476 125.572 559.941 125.572 557.76 123.391C559.941 125.572 559.941 129.107 557.76 131.288C559.941 129.108 563.476 129.108 565.657 131.288ZM425.215 410.893C423.118 408.796 423.118 405.397 425.215 403.3C423.118 405.397 419.719 405.397 417.622 403.3C419.719 405.397 419.719 408.796 417.622 410.893C419.719 408.796 423.119 408.796 425.215 410.893ZM425.402 -55.5168C423.317 -57.6019 423.317 -60.983 425.402 -63.0688C423.317 -60.9837 419.936 -60.9837 417.85 -63.0688C419.935 -60.9837 419.935 -57.6026 417.85 -55.5168C419.935 -57.6026 423.316 -57.6026 425.402 -55.5168ZM168.664 387.666C166.581 385.583 166.581 382.207 168.664 380.124C166.581 382.207 163.205 382.207 161.122 380.124C163.205 382.207 163.205 385.583 161.122 387.666C163.204 385.583 166.581 385.583 168.664 387.666ZM168.805 -32.2903C166.73 -34.3653 166.73 -37.7292 168.805 -39.8042C166.73 -37.7292 163.366 -37.7292 161.291 -39.8042C163.366 -37.7292 163.366 -34.3653 161.291 -32.2903C163.366 -34.3653 166.73 -34.3653 168.805 -32.2903ZM308.767 -78.7195C306.668 -80.8183 306.668 -84.2217 308.767 -86.3212C306.668 -84.2224 303.265 -84.2224 301.165 -86.3212C303.264 -84.2224 303.264 -80.819 301.165 -78.7195C303.265 -80.819 306.668 -80.819 308.767 -78.7195ZM98.7097 37.9493C96.6016 35.8412 96.6016 32.4226 98.7097 30.3137C96.6016 32.4219 93.183 32.4219 91.0741 30.3137C93.1823 32.4219 93.1823 35.8405 91.0741 37.9493C93.1823 35.8412 96.6008 35.8412 98.7097 37.9493ZM98.4469 317.438C96.472 315.463 96.472 312.261 98.4469 310.286C96.472 312.261 93.2694 312.261 91.2944 310.286C93.2694 312.261 93.2694 315.463 91.2944 317.438C93.2694 315.463 96.472 315.463 98.4469 317.438ZM355.308 -78.6259C353.211 -80.7232 353.211 -84.1231 355.308 -86.2204C353.211 -84.1231 349.811 -84.1231 347.714 -86.2204C349.811 -84.1231 349.811 -80.7232 347.714 -78.6259C349.811 -80.7225 353.211 -80.7225 355.308 -78.6259ZM355.365 434.355C353.259 432.249 353.259 428.834 355.365 426.728C353.259 428.834 349.844 428.834 347.738 426.728C349.844 428.834 349.844 432.249 347.738 434.355C349.844 432.249 353.259 432.249 355.365 434.355ZM262.009 -78.7231C259.972 -80.7607 259.972 -84.0648 262.009 -86.1031C259.972 -84.0655 256.668 -84.0655 254.629 -86.1031C256.667 -84.0655 256.667 -80.7614 254.629 -78.7231C256.667 -80.7614 259.971 -80.7614 262.009 -78.7231ZM191.611 410.454C189.684 408.527 189.684 405.403 191.611 403.475C189.684 405.402 186.56 405.402 184.632 403.475C186.559 405.402 186.559 408.526 184.632 410.454C186.56 408.526 189.684 408.526 191.611 410.454ZM191.863 -55.7968C189.926 -57.7336 189.926 -60.8743 191.863 -62.8118C189.926 -60.875 186.785 -60.875 184.848 -62.8118C186.784 -60.875 186.784 -57.7344 184.848 -55.7968C186.784 -57.7344 189.925 -57.7344 191.863 -55.7968ZM51.634 177.274C49.7051 175.345 49.7051 172.218 51.634 170.289C49.7051 172.218 46.5774 172.218 44.6485 170.289C46.5774 172.218 46.5774 175.345 44.6485 177.274C46.5774 175.345 49.7051 175.345 51.634 177.274ZM74.7676 293.757C72.9488 291.938 72.9488 288.989 74.7676 287.169C72.9488 288.988 69.9997 288.988 68.1803 287.169C69.999 288.988 69.999 291.937 68.1803 293.757C69.999 291.938 72.9481 291.938 74.7676 293.757ZM564.903 84.2648C563.033 82.3942 563.033 79.3623 564.903 77.4917C563.033 79.3623 560.001 79.3623 558.13 77.4917C560.001 79.3623 560.001 82.3942 558.13 84.2648C560 82.3942 563.033 82.3942 564.903 84.2648ZM564.962 270.638C563.089 268.765 563.089 265.728 564.962 263.854C563.089 265.728 560.052 265.728 558.178 263.854C560.052 265.728 560.052 268.765 558.178 270.638C560.052 268.765 563.089 268.765 564.962 270.638ZM75.0455 60.4752C73.1742 58.604 73.1742 55.5699 75.0455 53.6993C73.1742 55.5706 70.1401 55.5706 68.2696 53.6993C70.1408 55.5706 70.1408 58.6047 68.2696 60.4752C70.1408 58.604 73.1742 58.604 75.0455 60.4752ZM401.728 434.043C399.807 432.123 399.807 429.009 401.728 427.089C399.807 429.009 396.693 429.009 394.773 427.089C396.693 429.009 396.693 432.123 394.773 434.043C396.693 432.123 399.807 432.123 401.728 434.043ZM401.581 -79.1068C399.709 -80.9788 399.709 -84.0136 401.581 -85.8856C399.709 -84.0136 396.674 -84.0136 394.802 -85.8856C396.674 -84.0136 396.674 -80.9788 394.802 -79.1068C396.674 -80.9788 399.709 -80.9788 401.581 -79.1068ZM51.6268 130.36C49.749 128.482 49.749 125.437 51.6268 123.559C49.749 125.437 46.7041 125.437 44.8256 123.559C46.7034 125.437 46.7034 128.481 44.8256 130.36C46.7041 128.482 49.749 128.482 51.6268 130.36ZM51.4165 223.695C49.6619 221.94 49.6619 219.096 51.4165 217.341C49.6619 219.096 46.8172 219.096 45.0625 217.341C46.8172 219.096 46.8172 221.94 45.0625 223.695C46.8164 221.94 49.6619 221.94 51.4165 223.695ZM587.882 200.439C586.138 198.694 586.138 195.866 587.882 194.122C586.138 195.866 583.309 195.866 581.565 194.122C583.309 195.866 583.309 198.694 581.565 200.439C583.309 198.695 586.138 198.695 587.882 200.439ZM587.875 153.982C586.089 152.196 586.089 149.3 587.875 147.515C586.089 149.301 583.193 149.301 581.407 147.515C583.193 149.301 583.193 152.197 581.407 153.982C583.193 152.196 586.089 152.196 587.875 153.982ZM494.517 386.979C492.766 385.228 492.766 382.39 494.517 380.64C492.766 382.391 489.928 382.391 488.178 380.64C489.929 382.391 489.929 385.229 488.178 386.979C489.928 385.229 492.766 385.229 494.517 386.979ZM494.638 -32.988C492.914 -34.7116 492.914 -37.5052 494.638 -39.2289C492.914 -37.5052 490.12 -37.5052 488.397 -39.2289C490.12 -37.5052 490.12 -34.7116 488.397 -32.988C490.12 -34.7109 492.914 -34.7109 494.638 -32.988ZM517.944 -9.81404C516.205 -11.5536 516.205 -14.3738 517.944 -16.1133C516.205 -14.3738 513.384 -14.3738 511.646 -16.1133C513.385 -14.3738 513.385 -11.5536 511.646 -9.81404C513.384 -11.5536 516.205 -11.5536 517.944 -9.81404ZM214.422 433.71C212.673 431.961 212.673 429.125 214.422 427.376C212.673 429.125 209.837 429.125 208.089 427.376C209.837 429.125 209.837 431.961 208.089 433.71C209.837 431.961 212.673 431.961 214.422 433.71ZM517.68 363.795C515.93 362.046 515.93 359.21 517.68 357.461C515.93 359.211 513.094 359.211 511.345 357.461C513.095 359.211 513.095 362.047 511.345 363.795C513.094 362.046 515.93 362.046 517.68 363.795ZM214.623 -79.7743C212.903 -81.4936 212.903 -84.2815 214.623 -86.0008C212.903 -84.2815 210.115 -84.2815 208.396 -86.0008C210.115 -84.2815 210.115 -81.4936 208.396 -79.7743C210.115 -81.4936 212.903 -81.4936 214.623 -79.7743ZM541.172 340.567C539.487 338.881 539.487 336.147 541.172 334.462C539.487 336.147 536.753 336.147 535.067 334.462C536.753 336.147 536.753 338.881 535.067 340.567C536.753 338.881 539.486 338.881 541.172 340.567ZM541.04 13.7177C539.353 12.0308 539.353 9.2955 541.04 7.60782C539.353 9.29477 536.618 9.29477 534.93 7.60782C536.617 9.29477 536.617 12.03 534.93 13.7177C536.617 12.0308 539.353 12.0308 541.04 13.7177ZM330.866 456.722C329.254 455.11 329.254 452.496 330.866 450.883C329.254 452.495 326.639 452.495 325.027 450.883C326.639 452.495 326.639 455.109 325.027 456.722C326.639 455.11 329.253 455.11 330.866 456.722ZM587.706 107.091C586.1 105.485 586.1 102.883 587.706 101.277C586.1 102.883 583.497 102.883 581.892 101.277C583.497 102.883 583.497 105.485 581.892 107.091C583.497 105.485 586.101 105.485 587.706 107.091ZM471.326 -56.3145C469.714 -57.9259 469.714 -60.5373 471.326 -62.1487C469.714 -60.5373 467.103 -60.5373 465.491 -62.1487C467.103 -60.5373 467.103 -57.9259 465.491 -56.3145C467.102 -57.9259 469.714 -57.9259 471.326 -56.3145ZM50.9802 269.973C49.4725 268.465 49.4725 266.02 50.9802 264.513C49.4725 266.02 47.0274 266.02 45.5197 264.513C47.0274 266.02 47.0274 268.465 45.5197 269.973C47.0274 268.465 49.4725 268.465 50.9802 269.973ZM51.0299 83.4656C49.4704 81.906 49.4704 79.3781 51.0299 77.8186C49.4704 79.3781 46.9424 79.3781 45.3829 77.8186C46.9424 79.3781 46.9424 81.906 45.3829 83.4656C46.9424 81.9068 49.4704 81.9068 51.0299 83.4656ZM587.707 246.88C586.1 245.273 586.1 242.667 587.707 241.06C586.1 242.667 583.494 242.667 581.887 241.06C583.494 242.667 583.494 245.273 581.887 246.88C583.494 245.273 586.099 245.273 587.707 246.88ZM471.073 409.908C469.472 408.307 469.472 405.712 471.073 404.111C469.472 405.712 466.877 405.712 465.276 404.111C466.877 405.712 466.877 408.307 465.276 409.908C466.877 408.307 469.472 408.307 471.073 409.908ZM331.016 -103.187C329.431 -104.772 329.431 -107.341 331.016 -108.926C329.431 -107.341 326.861 -107.341 325.277 -108.926C326.862 -107.341 326.862 -104.772 325.277 -103.187C326.861 -104.772 329.431 -104.772 331.016 -103.187ZM284.616 -103.068C283.036 -104.647 283.036 -107.208 284.616 -108.788C283.036 -107.208 280.475 -107.208 278.895 -108.788C280.475 -107.208 280.475 -104.647 278.895 -103.068C280.474 -104.647 283.036 -104.647 284.616 -103.068ZM564.362 37.0378C562.821 35.4963 562.821 32.9964 564.362 31.4549C562.821 32.9964 560.321 32.9964 558.78 31.4549C560.321 32.9964 560.321 35.4963 558.78 37.0378C560.321 35.4956 562.821 35.4956 564.362 37.0378ZM564.278 316.546C562.792 315.061 562.792 312.652 564.278 311.167C562.792 312.652 560.384 312.652 558.898 311.167C560.384 312.652 560.384 315.061 558.898 316.546C560.384 315.061 562.792 315.061 564.278 316.546ZM377.242 -103.361C375.82 -104.783 375.82 -107.09 377.242 -108.512C375.82 -107.09 373.514 -107.09 372.092 -108.512C373.514 -107.09 373.514 -104.784 372.092 -103.361C373.514 -104.783 375.82 -104.783 377.242 -103.361ZM27.3008 153.172C25.8544 151.725 25.8544 149.379 27.3008 147.932C25.8544 149.379 23.5086 149.379 22.0614 147.932C23.5079 149.379 23.5079 151.724 22.0614 153.172C23.5079 151.725 25.8536 151.725 27.3008 153.172ZM27.5658 199.789C26.1467 198.37 26.1467 196.069 27.5658 194.649C26.1467 196.068 23.8456 196.068 22.4257 194.649C23.8448 196.068 23.8448 198.369 22.4257 199.789C23.8456 198.37 26.1467 198.37 27.5658 199.789ZM97.454 -9.98325C96.0111 -11.4261 96.0111 -13.7661 97.454 -15.2097C96.0111 -13.7668 93.6712 -13.7668 92.2276 -15.2097C93.6704 -13.7668 93.6704 -11.4268 92.2276 -9.98325C93.6712 -11.4261 96.0104 -11.4261 97.454 -9.98325ZM377.269 456.7C375.832 455.263 375.832 452.933 377.269 451.496C375.832 452.933 373.502 452.933 372.065 451.496C373.502 452.933 373.502 455.263 372.065 456.7C373.502 455.263 375.832 455.263 377.269 456.7ZM447.255 433.245C445.838 431.828 445.838 429.531 447.255 428.115C445.838 429.531 443.541 429.531 442.125 428.115C443.541 429.531 443.541 431.828 442.125 433.245C443.542 431.828 445.838 431.828 447.255 433.245ZM97.4504 362.891C96.0868 361.527 96.0868 359.316 97.4504 357.951C96.0868 359.315 93.8749 359.315 92.5105 357.951C93.8742 359.315 93.8742 361.527 92.5105 362.891C93.8749 361.527 96.0861 361.527 97.4504 362.891ZM120.741 386.478C119.307 385.045 119.307 382.721 120.741 381.287C119.307 382.721 116.983 382.721 115.55 381.287C116.983 382.721 116.983 385.045 115.55 386.478C116.983 385.045 119.307 385.045 120.741 386.478ZM121.016 -33.4279C119.567 -34.8765 119.567 -37.2259 121.016 -38.6745C119.567 -37.2259 117.218 -37.2259 115.769 -38.6745C117.218 -37.2259 117.218 -34.8765 115.769 -33.4279C117.218 -34.8772 119.567 -34.8772 121.016 -33.4279ZM447.458 -80.2149C446.044 -81.629 446.044 -83.9208 447.458 -85.3348C446.044 -83.9208 443.752 -83.9208 442.338 -85.3348C443.752 -83.9208 443.752 -81.629 442.338 -80.2149C443.752 -81.6283 446.044 -81.6283 447.458 -80.2149ZM237.627 -103.487C236.239 -104.875 236.239 -107.124 237.627 -108.512C236.239 -107.124 233.99 -107.124 232.602 -108.512C233.99 -107.124 233.99 -104.875 232.602 -103.487C233.99 -104.875 236.239 -104.875 237.627 -103.487ZM143.955 409.919C142.564 408.529 142.564 406.275 143.955 404.886C142.564 406.276 140.311 406.276 138.921 404.886C140.311 406.276 140.311 408.53 138.921 409.919C140.311 408.529 142.565 408.529 143.955 409.919ZM144.099 -57.262C142.74 -58.6207 142.74 -60.8239 144.099 -62.1825C142.74 -60.8239 140.537 -60.8239 139.178 -62.1825C140.537 -60.8239 140.537 -58.6207 139.178 -57.262C140.537 -58.6207 142.739 -58.6207 144.099 -57.262ZM237.352 456.233C235.96 454.84 235.96 452.582 237.352 451.19C235.96 452.582 233.701 452.582 232.309 451.19C233.701 452.582 233.701 454.841 232.309 456.233C233.701 454.841 235.96 454.841 237.352 456.233ZM73.856 13.1273C72.4708 11.7421 72.4708 9.49565 73.856 8.11038C72.4708 9.49565 70.2244 9.49565 68.8391 8.11038C70.2244 9.49565 70.2244 11.7421 68.8391 13.1273C70.2244 11.7421 72.4708 11.7421 73.856 13.1273ZM73.9208 339.374C72.6479 338.102 72.6479 336.037 73.9208 334.764C72.6479 336.037 70.5829 336.037 69.31 334.764C70.5829 336.037 70.5829 338.102 69.31 339.374C70.5829 338.102 72.6479 338.102 73.9208 339.374ZM610.786 176.418C609.478 175.11 609.478 172.99 610.786 171.682C609.478 172.99 607.358 172.99 606.051 171.682C607.358 172.99 607.358 175.11 606.051 176.418C607.358 175.11 609.478 175.11 610.786 176.418ZM27.2108 106.332C25.9868 105.108 25.9868 103.123 27.2108 101.899C25.9868 103.123 24.0018 103.123 22.7778 101.899C24.0018 103.123 24.0018 105.108 22.7778 106.332C24.0018 105.108 25.9868 105.108 27.2108 106.332ZM587.064 293.017C585.84 291.793 585.84 289.809 587.064 288.585C585.84 289.809 583.857 289.809 582.633 288.585C583.857 289.809 583.857 291.793 582.633 293.017C583.857 291.793 585.841 291.793 587.064 293.017ZM166.741 432.719C165.526 431.504 165.526 429.536 166.741 428.321C165.526 429.536 163.558 429.536 162.343 428.321C163.558 429.536 163.558 431.504 162.343 432.719C163.558 431.505 165.526 431.505 166.741 432.719ZM50.2724 35.9772C49.0614 34.7662 49.0614 32.8035 50.2724 31.5924C49.0614 32.8035 47.0987 32.8035 45.8884 31.5924C47.0994 32.8035 47.0994 34.7662 45.8884 35.9765C47.0987 34.7669 49.0614 34.7669 50.2724 35.9772ZM586.906 59.5681C585.689 58.3505 585.689 56.377 586.906 55.1595C585.689 56.377 583.715 56.377 582.498 55.1595C583.715 56.377 583.715 58.3505 582.498 59.5681C583.715 58.3505 585.689 58.3505 586.906 59.5681ZM27.0388 245.794C25.93 244.685 25.93 242.888 27.0388 241.779C25.93 242.888 24.1328 242.888 23.024 241.779C24.1328 242.888 24.1328 244.685 23.024 245.794C24.1328 244.685 25.9307 244.685 27.0388 245.794ZM50.2544 315.695C49.15 314.591 49.15 312.801 50.2544 311.696C49.15 312.801 47.36 312.801 46.2556 311.696C47.36 312.801 47.36 314.591 46.2556 315.695C47.36 314.591 49.1507 314.591 50.2544 315.695ZM306.823 479.306C305.728 478.211 305.728 476.435 306.823 475.341C305.728 476.436 303.952 476.436 302.858 475.341C303.953 476.436 303.953 478.211 302.858 479.306C303.953 478.211 305.728 478.211 306.823 479.306ZM423.484 456.131C422.378 455.025 422.378 453.233 423.484 452.127C422.378 453.233 420.586 453.233 419.48 452.127C420.586 453.233 420.586 455.025 419.48 456.131C420.586 455.026 422.378 455.026 423.484 456.131ZM306.684 -127.341C305.599 -128.426 305.599 -130.186 306.684 -131.271C305.599 -130.186 303.839 -130.186 302.754 -131.271C303.839 -130.186 303.839 -128.426 302.754 -127.341C303.839 -128.426 305.599 -128.426 306.684 -127.341ZM423.352 -104.094C422.266 -105.18 422.266 -106.942 423.352 -108.029C422.266 -106.942 420.504 -106.942 419.417 -108.029C420.504 -106.942 420.504 -105.18 419.417 -104.094C420.504 -105.18 422.266 -105.18 423.352 -104.094ZM259.921 478.858C259.013 477.949 259.013 476.475 259.921 475.567C259.013 476.475 257.539 476.475 256.63 475.567C257.539 476.475 257.539 477.949 256.63 478.858C257.539 477.949 259.012 477.949 259.921 478.858ZM539.903 -34.4841C538.994 -35.3928 538.994 -36.8666 539.903 -37.7752C538.994 -36.8666 537.52 -36.8666 536.612 -37.7752C537.52 -36.8666 537.52 -35.3928 536.612 -34.4841C537.521 -35.3928 538.994 -35.3928 539.903 -34.4841ZM353.254 478.759C352.346 477.851 352.346 476.379 353.254 475.471C352.346 476.379 350.874 476.379 349.966 475.471C350.874 476.379 350.874 477.851 349.966 478.759C350.874 477.851 352.346 477.851 353.254 478.759ZM539.841 385.617C538.931 384.708 538.931 383.234 539.841 382.325C538.931 383.235 537.458 383.235 536.549 382.325C537.458 383.235 537.458 384.708 536.549 385.617C537.458 384.709 538.931 384.709 539.841 385.617ZM353.212 -127.433C352.202 -128.443 352.202 -130.081 353.212 -131.091C352.202 -130.081 350.565 -130.081 349.555 -131.091C350.565 -130.081 350.565 -128.443 349.555 -127.433C350.564 -128.443 352.202 -128.443 353.212 -127.433ZM260.037 -127.813C259.046 -128.804 259.046 -130.412 260.037 -131.403C259.046 -130.412 257.438 -130.412 256.447 -131.403C257.438 -130.412 257.438 -128.804 256.447 -127.813C257.438 -128.804 259.046 -128.804 260.037 -127.813ZM516.443 409C515.539 408.096 515.539 406.629 516.443 405.724C515.539 406.628 514.072 406.628 513.167 405.724C514.071 406.628 514.071 408.095 513.167 409C514.072 408.095 515.539 408.095 516.443 409ZM190.215 -104.218C189.217 -105.215 189.217 -106.833 190.215 -107.83C189.217 -106.833 187.599 -106.833 186.602 -107.83C187.599 -106.833 187.599 -105.215 186.602 -104.218C187.6 -105.215 189.217 -105.215 190.215 -104.218ZM493.225 -80.8629C492.355 -81.7327 492.355 -83.1439 493.225 -84.0136C492.355 -83.1439 490.944 -83.1439 490.074 -84.0136C490.944 -83.1439 490.944 -81.7327 490.074 -80.8629C490.944 -81.7327 492.355 -81.7327 493.225 -80.8629ZM516.362 -57.7624C515.494 -58.63 515.494 -60.0369 516.362 -60.9045C515.494 -60.0369 514.087 -60.0369 513.219 -60.9045C514.087 -60.0369 514.087 -58.63 513.219 -57.7624C514.087 -58.6308 515.494 -58.6308 516.362 -57.7624ZM26.5664 58.8949C25.6952 58.0237 25.6952 56.6103 26.5664 55.7391C25.6952 56.6103 24.2819 56.6103 23.4107 55.7391C24.2819 56.6103 24.2819 58.0237 23.4107 58.8949C24.2819 58.0237 25.6945 58.0237 26.5664 58.8949ZM3.05771 175.281C2.22323 174.446 2.22323 173.093 3.05771 172.258C2.22323 173.093 0.869636 173.093 0.0351562 172.258C0.869636 173.093 0.869636 174.446 0.0351562 175.281C0.869636 174.446 2.22323 174.446 3.05771 175.281ZM609.622 268.796C608.788 267.962 608.788 266.609 609.622 265.774C608.788 266.608 607.435 266.608 606.6 265.774C607.434 266.608 607.434 267.961 606.6 268.796C607.435 267.962 608.788 267.962 609.622 268.796ZM26.4476 291.886C25.6607 291.099 25.6607 289.823 26.4476 289.035C25.6607 289.822 24.3841 289.822 23.5964 289.035C24.3834 289.822 24.3834 291.098 23.5964 291.886C24.3841 291.099 25.66 291.099 26.4476 291.886ZM609.835 82.2128C609.021 81.3985 609.021 80.078 609.835 79.2636C609.021 80.078 607.7 80.078 606.886 79.2636C607.7 80.078 607.7 81.3985 606.886 82.2128C607.7 81.3985 609.021 81.3985 609.835 82.2128ZM563.051 362.133C562.217 361.299 562.217 359.948 563.051 359.115C562.217 359.948 560.866 359.948 560.032 359.115C560.866 359.948 560.866 361.299 560.032 362.133C560.866 361.3 562.218 361.3 563.051 362.133ZM493.126 432.154C492.279 431.307 492.279 429.933 493.126 429.086C492.279 429.933 490.905 429.933 490.059 429.086C490.905 429.933 490.905 431.307 490.059 432.154C490.906 431.307 492.279 431.307 493.126 432.154ZM562.994 -11.0603C562.158 -11.8963 562.158 -13.252 562.994 -14.088C562.158 -13.252 560.802 -13.252 559.966 -14.088C560.802 -13.252 560.802 -11.8963 559.966 -11.0603C560.801 -11.8963 562.157 -11.8963 562.994 -11.0603ZM2.8338 128.648C2.1066 127.921 2.1066 126.742 2.8338 126.015C2.1066 126.742 0.927956 126.742 0.200756 126.015C0.927956 126.742 0.927956 127.921 0.200756 128.648C0.927236 127.921 2.1066 127.921 2.8338 128.648ZM399.636 -128.003C398.946 -128.693 398.946 -129.811 399.636 -130.501C398.946 -129.811 397.827 -129.811 397.137 -130.501C397.827 -129.811 397.827 -128.693 397.137 -128.003C397.827 -128.693 398.945 -128.693 399.636 -128.003ZM469.36 -104.719C468.642 -105.437 468.642 -106.601 469.36 -107.319C468.642 -106.601 467.478 -106.601 466.76 -107.319C467.478 -106.601 467.478 -105.437 466.76 -104.719C467.479 -105.437 468.642 -105.437 469.36 -104.719ZM2.94612 221.642C2.26284 220.958 2.26284 219.849 2.94612 219.166C2.26284 219.849 1.15404 219.849 0.470756 219.166C1.15404 219.849 1.15404 220.958 0.470756 221.642C1.15404 220.958 2.26212 220.958 2.94612 221.642ZM399.398 478.501C398.743 477.846 398.743 476.784 399.398 476.129C398.743 476.784 397.681 476.784 397.026 476.129C397.681 476.784 397.681 477.846 397.026 478.501C397.681 477.846 398.742 477.846 399.398 478.501ZM469.378 455.056C468.72 454.398 468.72 453.332 469.378 452.674C468.72 453.332 467.654 453.332 466.995 452.674C467.654 453.332 467.654 454.398 466.995 455.056C467.653 454.398 468.72 454.398 469.378 455.056ZM212.74 -128.307C212.085 -128.962 212.085 -130.024 212.74 -130.679C212.085 -130.024 211.023 -130.024 210.367 -130.679C211.023 -130.024 211.023 -128.962 210.367 -128.307C211.023 -128.962 212.085 -128.962 212.74 -128.307ZM586.183 338.803C585.458 338.078 585.458 336.902 586.183 336.178C585.458 336.903 584.282 336.903 583.557 336.178C584.282 336.903 584.282 338.078 583.557 338.803C584.283 338.078 585.458 338.078 586.183 338.803ZM632.796 152.118C632.07 151.392 632.07 150.216 632.796 149.49C632.07 150.216 630.894 150.216 630.168 149.49C630.894 150.216 630.894 151.392 630.168 152.118C630.894 151.393 632.07 151.393 632.796 152.118ZM119.531 -81.652C118.879 -82.3044 118.879 -83.3613 119.531 -84.0136C118.879 -83.3613 117.822 -83.3613 117.17 -84.0136C117.822 -83.3613 117.822 -82.3044 117.17 -81.652C117.822 -82.3044 118.879 -82.3044 119.531 -81.652ZM72.8185 -34.9392C72.1662 -35.5915 72.1662 -36.6484 72.8185 -37.3008C72.1662 -36.6484 71.1092 -36.6484 70.4569 -37.3008C71.1092 -36.6484 71.1092 -35.5915 70.4569 -34.9392C71.1092 -35.5915 72.1669 -35.5915 72.8185 -34.9392ZM96.1242 -58.3276C95.4899 -58.962 95.4899 -59.9901 96.1242 -60.6244C95.4899 -59.9901 94.4617 -59.9901 93.8274 -60.6244C94.4617 -59.9901 94.4617 -58.962 93.8274 -58.3276C94.461 -58.962 95.4899 -58.962 96.1242 -58.3276ZM96.1847 408.351C95.5388 407.705 95.5388 406.659 96.1847 406.013C95.5388 406.659 94.492 406.659 93.8468 406.013C94.4927 406.659 94.4927 407.706 93.8468 408.351C94.4927 407.705 95.5396 407.705 96.1847 408.351ZM72.753 384.929C72.1223 384.298 72.1223 383.276 72.753 382.645C72.1223 383.276 71.0999 383.276 70.4692 382.645C71.0999 383.276 71.0999 384.298 70.4692 384.929C71.0999 384.298 72.1223 384.298 72.753 384.929ZM632.717 198.47C632.053 197.806 632.053 196.729 632.717 196.064C632.053 196.729 630.976 196.729 630.311 196.064C630.976 196.729 630.976 197.806 630.311 198.47C630.976 197.807 632.053 197.807 632.717 198.47ZM212.676 478.393C212.031 477.748 212.031 476.703 212.676 476.058C212.031 476.703 210.986 476.703 210.341 476.058C210.985 476.703 210.985 477.748 210.341 478.393C210.986 477.748 212.031 477.748 212.676 478.393ZM119.415 431.581C118.77 430.935 118.77 429.889 119.415 429.243C118.77 429.889 117.723 429.889 117.078 429.243C117.723 429.889 117.723 430.935 117.078 431.581C117.723 430.936 118.77 430.936 119.415 431.581ZM586.021 11.9465C585.387 11.3122 585.387 10.2841 586.021 9.64973C585.387 10.2841 584.358 10.2841 583.724 9.64973C584.358 10.2841 584.358 11.3122 583.724 11.9465C584.358 11.3122 585.387 11.3122 586.021 11.9465ZM282.34 501.263C281.887 500.81 281.887 500.076 282.34 499.623C281.887 500.076 281.153 500.076 280.7 499.623C281.153 500.076 281.153 500.81 280.7 501.263C281.153 500.81 281.887 500.81 282.34 501.263ZM632.302 244.751C631.849 244.298 631.849 243.564 632.302 243.111C631.849 243.564 631.114 243.564 630.662 243.111C631.114 243.564 631.114 244.298 630.662 244.751C631.114 244.298 631.849 244.298 632.302 244.751ZM282.519 -152.008C282.066 -152.461 282.066 -153.196 282.519 -153.648C282.066 -153.196 281.331 -153.196 280.878 -153.648C281.331 -153.196 281.331 -152.461 280.878 -152.008C281.331 -152.461 282.066 -152.461 282.519 -152.008ZM329.082 -151.805C328.625 -152.262 328.625 -153.004 329.082 -153.461C328.625 -153.004 327.884 -153.004 327.426 -153.461C327.884 -153.004 327.884 -152.262 327.426 -151.805C327.884 -152.262 328.625 -152.262 329.082 -151.805ZM49.0614 361.219C48.6164 360.774 48.6164 360.053 49.0614 359.608C48.6164 360.053 47.8957 360.053 47.4508 359.608C47.8957 360.053 47.8957 360.774 47.4508 361.219C47.895 360.774 48.6164 360.774 49.0614 361.219ZM2.4558 267.938C2.00508 267.488 2.00508 266.757 2.4558 266.307C2.00508 266.757 1.275 266.757 0.824277 266.307C1.275 266.757 1.275 267.488 0.824277 267.938C1.275 267.488 2.00508 267.488 2.4558 267.938ZM608.941 314.862C608.487 314.408 608.487 313.67 608.941 313.216C608.487 313.67 607.75 313.67 607.295 313.216C607.75 313.67 607.75 314.408 607.295 314.862C607.75 314.408 608.487 314.408 608.941 314.862ZM391.319 94.3628V94.3599H391.316V94.3628H391.319ZM356.693 389.119C353.806 386.231 353.806 381.551 356.693 378.663C353.806 381.551 349.125 381.551 346.238 378.663C349.125 381.551 349.125 386.231 346.238 389.119C349.125 386.231 353.806 386.231 356.693 389.119ZM194.2 40.0618C190.767 36.6281 190.767 31.0618 194.2 27.6281C190.767 31.0618 185.2 31.0618 181.767 27.6281C185.2 31.0618 185.2 36.6281 181.767 40.0618C185.2 36.6288 190.767 36.6288 194.2 40.0618ZM284.464 456.624C282.858 455.019 282.858 452.414 284.464 450.809C282.858 452.414 280.254 452.414 278.649 450.809C280.254 452.414 280.254 455.019 278.649 456.624C280.254 455.018 282.858 455.018 284.464 456.624ZM361.513 160.562C356.029 155.077 356.029 146.185 361.513 140.701C356.029 146.185 347.137 146.185 341.653 140.701C347.137 146.185 347.137 155.077 341.653 160.562C347.137 155.077 356.029 155.077 361.513 160.562ZM427.895 320.29C424.38 316.775 424.38 311.076 427.895 307.561C424.38 311.076 418.681 311.076 415.166 307.561C418.681 311.076 418.681 316.774 415.166 320.29C418.681 316.775 424.38 316.775 427.895 320.29ZM291.76 184.028C286.139 178.407 286.139 169.294 291.76 163.673C286.139 169.294 277.026 169.294 271.405 163.673C277.026 169.294 277.026 178.407 271.405 184.028C277.026 178.407 286.139 178.407 291.76 184.028ZM308.665 434.237C306.617 432.189 306.617 428.87 308.665 426.823C306.617 428.87 303.298 428.87 301.251 426.823C303.298 428.87 303.298 432.19 301.251 434.237C303.298 432.19 306.617 432.19 308.665 434.237ZM170.892 296.458C167.589 293.156 167.589 287.801 170.892 284.498C167.589 287.801 162.235 287.801 158.932 284.498C162.235 287.801 162.235 293.156 158.932 296.458C162.235 293.156 167.589 293.156 170.892 296.458ZM172.135 204.29C168.201 200.356 168.201 193.978 172.135 190.045C168.201 193.978 161.823 193.978 157.89 190.045C161.823 193.978 161.823 200.356 157.89 204.29C161.823 200.356 168.201 200.356 172.135 204.29ZM334.255 -6.76195C330.945 -10.0725 330.945 -15.4394 334.255 -18.7492C330.944 -15.4387 325.577 -15.4387 322.268 -18.7492C325.578 -15.4387 325.578 -10.0718 322.268 -6.76195C325.578 -10.0725 330.945 -10.0725 334.255 -6.76195ZM497.285 109.87C494.079 106.664 494.079 101.466 497.285 98.2608C494.079 101.467 488.881 101.467 485.676 98.2608C488.882 101.467 488.882 106.665 485.676 109.87C488.881 106.664 494.079 106.664 497.285 109.87ZM520.286 132.739C517.336 129.79 517.336 125.007 520.286 122.058C517.336 125.007 512.554 125.007 509.604 122.058C512.554 125.007 512.554 129.79 509.604 132.739C512.554 129.79 517.336 129.79 520.286 132.739ZM261.725 434.011C259.807 432.093 259.807 428.984 261.725 427.065C259.807 428.984 256.698 428.984 254.78 427.065C256.698 428.984 256.698 432.093 254.78 434.011C256.697 432.093 259.807 432.093 261.725 434.011ZM217.431 16.3047C214.224 13.0978 214.224 7.89868 217.431 4.6918C214.224 7.89868 209.025 7.89868 205.818 4.6918C209.025 7.89868 209.025 13.0978 205.818 16.3047C209.025 13.0978 214.224 13.0978 217.431 16.3047ZM75.4602 107.602C73.3355 105.477 73.3355 102.033 75.4602 99.9082C73.3355 102.033 69.891 102.033 67.7663 99.9082C69.891 102.033 69.891 105.477 67.7663 107.602C69.891 105.477 73.3355 105.477 75.4602 107.602ZM194.277 319.86C190.97 316.553 190.97 311.19 194.277 307.883C190.97 311.191 185.608 311.191 182.3 307.883C185.608 311.191 185.608 316.553 182.3 319.86C185.607 316.553 190.97 316.553 194.277 319.86ZM99.1784 84.8595C96.7729 82.454 96.7729 78.5544 99.1784 76.1489C96.7729 78.5544 92.8734 78.5544 90.4679 76.1489C92.8734 78.5544 92.8734 82.454 90.4679 84.8595C92.8734 82.454 96.7729 82.454 99.1784 84.8595ZM243.708 136.039C238.878 131.21 238.878 123.379 243.708 118.55C238.878 123.379 231.048 123.379 226.218 118.55C231.048 123.379 231.048 131.21 226.218 136.039C231.047 131.21 238.878 131.21 243.708 136.039ZM243.562 229.34C238.742 224.519 238.742 216.704 243.562 211.884C238.742 216.704 230.927 216.704 226.107 211.884C230.927 216.704 230.927 224.519 226.107 229.34C230.927 224.519 238.742 224.519 243.562 229.34ZM124.016 156.163C120.868 153.015 120.868 147.913 124.016 144.766C120.868 147.913 115.767 147.913 112.619 144.766C115.767 147.913 115.767 153.015 112.619 156.163C115.767 153.015 120.869 153.015 124.016 156.163ZM404.357 343.353C400.985 339.981 400.985 334.514 404.357 331.143C400.985 334.515 395.519 334.515 392.148 331.143C395.52 334.515 395.52 339.981 392.148 343.353C395.519 339.981 400.985 339.981 404.357 343.353ZM166.868 -80.7391C165.764 -81.8428 165.764 -83.6328 166.868 -84.7372C165.764 -83.6335 163.974 -83.6335 162.87 -84.7372C163.973 -83.6335 163.973 -81.8436 162.87 -80.7391C163.974 -81.8436 165.764 -81.8436 166.868 -80.7391ZM189.792 455.534C188.887 454.629 188.887 453.163 189.792 452.258C188.887 453.163 187.42 453.163 186.515 452.258C187.42 453.163 187.42 454.629 186.515 455.534C187.419 454.629 188.887 454.629 189.792 455.534ZM404.393 16.8461C401.01 13.4636 401.01 7.98004 404.393 4.59821C401.01 7.98076 395.527 7.98076 392.145 4.59821C395.528 7.98076 395.528 13.4643 392.145 16.8461C395.527 13.4643 401.01 13.4643 404.393 16.8461ZM610.237 222.75C609.131 221.644 609.131 219.852 610.237 218.746C609.131 219.852 607.339 219.852 606.233 218.746C607.339 219.852 607.339 221.644 606.233 222.75C607.339 221.645 609.131 221.645 610.237 222.75ZM610.225 129.313C609.12 128.208 609.12 126.415 610.225 125.31C609.12 126.415 607.327 126.415 606.222 125.31C607.327 126.415 607.327 128.208 606.222 129.313C607.327 128.208 609.119 128.208 610.225 129.313ZM142.412 454.561C141.973 454.122 141.973 453.41 142.412 452.971C141.973 453.41 141.261 453.41 140.823 452.971C141.262 453.41 141.262 454.122 140.823 454.561C141.261 454.122 141.973 454.122 142.412 454.561ZM2.46948 81.3185C2.031 80.88 2.031 80.1694 2.46948 79.7317C2.031 80.1701 1.32035 80.1701 0.882595 79.7317C1.32107 80.1701 1.32107 80.8808 0.882595 81.3185C1.32035 80.8808 2.031 80.8808 2.46948 81.3185ZM49.0081 -12.0064C48.5639 -12.4507 48.5639 -13.1714 49.0081 -13.6163C48.5639 -13.1721 47.8432 -13.1721 47.3982 -13.6163C47.8424 -13.1721 47.8424 -12.4514 47.3982 -12.0064C47.8432 -12.4507 48.5639 -12.4507 49.0081 -12.0064ZM329.028 501.302C328.589 500.864 328.589 500.153 329.028 499.716C328.589 500.154 327.879 500.154 327.441 499.716C327.879 500.154 327.879 500.865 327.441 501.302C327.879 500.864 328.589 500.864 329.028 501.302ZM632.337 104.714C631.899 104.275 631.899 103.564 632.337 103.127C631.899 103.565 631.188 103.565 630.75 103.127C631.189 103.565 631.189 104.276 630.75 104.714C631.189 104.275 631.899 104.275 632.337 104.714ZM609.017 34.9548C608.573 34.5106 608.573 33.7899 609.017 33.3449C608.573 33.7892 607.852 33.7892 607.407 33.3449C607.851 33.7892 607.851 34.5099 607.407 34.9548C607.852 34.5099 608.573 34.5099 609.017 34.9548ZM142.422 -105.453C141.984 -105.892 141.984 -106.601 142.422 -107.04C141.984 -106.601 141.274 -106.601 140.835 -107.04C141.274 -106.601 141.274 -105.892 140.835 -105.453C141.274 -105.892 141.985 -105.892 142.422 -105.453Z" fill="white"/>
</svg>
