<svg width="146" height="24" viewBox="0 0 146 24" fill="none" xmlns="http://www.w3.org/2000/svg">
<g clip-path="url(#clip0_19739_3867)">
<path d="M57.7188 2.17653C57.7188 0.926525 58.7307 -0.0258551 59.9211 -0.0258551C61.1116 -0.0258551 62.1235 0.986049 62.1235 2.17653C62.1235 3.367 61.1116 4.37891 59.9211 4.37891C58.6711 4.37891 57.7188 3.367 57.7188 2.17653Z" fill="white"/>
<path d="M92.4844 16.8172C92.4844 15.5672 93.4963 14.6148 94.6868 14.6148C95.8772 14.6148 96.8891 15.6267 96.8891 16.8172C96.8891 18.0076 95.8772 19.0195 94.6868 19.0195C93.4368 19.0195 92.4844 18.0672 92.4844 16.8172Z" fill="#009FE3"/>
<path d="M21.5844 15.8648C19.6797 15.8648 18.3702 14.3767 18.3702 12.2338C18.3702 10.091 19.6797 8.60286 21.5844 8.60286C23.4892 8.60286 24.7987 10.091 24.7987 12.2338C24.7987 14.4362 23.4892 15.8648 21.5844 15.8648ZM21.5844 5.32905C17.5963 5.32905 14.6797 8.24572 14.6797 12.1743C14.6797 16.1029 17.5963 19.0195 21.5844 19.0195C25.6321 19.0195 28.5487 16.1029 28.5487 12.1743C28.5487 8.24572 25.5725 5.32905 21.5844 5.32905Z" fill="white"/>
<path d="M53.4336 12.5919C53.255 12.2943 53.0764 12.0562 52.8979 11.8776L52.7788 11.7586L52.8979 11.6395C53.0764 11.4609 53.255 11.2228 53.4336 10.9252L56.9455 5.68713H52.6598L49.9812 9.79427C49.8026 10.0324 49.505 10.1514 49.0883 10.1514H48.4931V2.35379C48.4931 0.806175 47.5407 0.568081 46.4693 0.568081H44.6836V18.9609H48.4931V13.4252H48.8503C49.2669 13.4252 49.5645 13.4847 49.7431 13.7228L51.8265 17.7109C52.4217 18.7824 53.0169 18.9609 54.0883 18.9609H57.005L54.8026 15.3895L53.4336 12.5919Z" fill="white"/>
<path d="M71.9461 5.32999C69.9818 5.32999 68.7913 6.16332 68.077 6.93713L67.8389 7.17523L67.7794 6.87761C67.6008 6.1038 66.8865 5.68713 65.8746 5.68713H64.1484V18.9609H67.958V12.7705C67.958 12.1752 68.0175 11.6395 68.1961 11.1633C68.6128 9.73475 69.8032 8.84189 71.2318 8.84189C72.4223 8.84189 72.8984 9.43713 72.8984 11.1038V16.8776C72.8984 18.2467 73.5532 18.9014 74.9223 18.9014H76.708V10.449C76.6485 7.1157 75.0413 5.32999 71.9461 5.32999Z" fill="white"/>
<path d="M59.9849 5.62854H58.1992V15.8666V18.9023H60.104H60.1635H61.0564H61.9492V7.65234C61.9492 6.2833 61.2945 5.62854 59.9849 5.62854Z" fill="white"/>
<path d="M36.4047 15.8677C34.5 15.8677 33.1904 14.3797 33.1904 12.2368C33.1904 10.0939 34.5 8.60584 36.4047 8.60584C38.3095 8.60584 39.619 10.0939 39.619 12.2368C39.6786 14.4392 38.369 15.8677 36.4047 15.8677ZM36.4047 5.33203C32.4167 5.33203 29.5 8.2487 29.5 12.1773C29.5 16.1058 32.4167 19.082 36.4047 19.082C40.4524 19.082 43.369 16.1654 43.369 12.2368C43.369 8.30822 40.4524 5.33203 36.4047 5.33203Z" fill="white"/>
<path d="M117.541 15.8717C115.637 15.8717 114.327 14.3836 114.327 12.2407C114.327 10.0979 115.637 8.60977 117.541 8.60977C119.446 8.60977 120.756 10.0979 120.756 12.2407C120.756 14.4431 119.446 15.8717 117.541 15.8717ZM117.541 5.33596C113.553 5.33596 110.637 8.25262 110.637 12.1812C110.637 16.1098 113.553 19.0264 117.541 19.0264C121.53 19.086 124.506 16.2288 124.506 12.2407C124.506 8.25262 121.53 5.33596 117.541 5.33596Z" fill="#009FE3"/>
<path d="M84.6159 15.3339C82.5326 15.3339 81.8183 13.5482 81.8183 11.822C81.8183 11.0482 81.9969 8.66722 84.4373 8.66722C85.6278 8.66722 87.235 9.02437 87.235 11.941C87.235 14.7387 85.8064 15.3339 84.6159 15.3339ZM89.1992 5.57199C88.4849 5.57199 87.9492 5.86961 87.6516 6.40532L87.5326 6.58389L87.354 6.40532C86.7587 5.86961 85.6278 5.27437 83.8421 5.27437C80.3302 5.27437 77.9492 7.95294 77.9492 11.8815C77.9492 15.8101 80.3897 18.6077 83.9611 18.6077C85.1516 18.6077 86.104 18.3101 86.8778 17.7744L87.1754 17.5363V17.8934C87.1754 19.6791 86.0445 20.6315 83.9611 20.6315C82.9492 20.6315 82.0564 20.3934 81.4016 20.1553C80.6278 19.9172 80.1516 20.0958 79.7945 20.9291L79.4969 21.6434L79.0802 22.7148L79.3183 22.8339C80.6278 23.5482 82.354 23.9648 83.9611 23.9648C87.1754 23.9648 90.9254 22.2982 90.9254 17.6553V5.45294L89.1992 5.57199Z" fill="white"/>
<path d="M7.47435 15.7524H4.37911V12.0619C4.37911 11.2881 4.67671 10.8715 5.33147 10.7524H7.41481C8.9029 10.7524 9.8553 11.7048 9.8553 13.2524C9.91483 14.8 9.02197 15.7524 7.47435 15.7524ZM4.37911 5.81194V4.85956C4.37911 4.02623 4.73623 3.60956 5.51004 3.55004H7.05768C8.42672 3.55004 9.20052 4.38337 9.20052 5.69289C9.20052 6.7048 8.6648 7.9548 7.11719 7.9548H4.31956L4.37911 5.81194ZM11.4029 9.50242L10.8672 9.2048L11.3434 8.78813C11.8791 8.31194 12.8315 7.18099 12.8315 5.33575C12.8315 2.41909 10.5696 0.573847 7.11719 0.573847H3.18863H2.71245C1.70054 0.633371 0.867188 1.4667 0.867188 2.47861V18.8477H2.71245H7.23624C11.1053 18.8477 13.6053 16.7643 13.6053 13.4905C13.5458 11.7643 12.772 10.2167 11.4029 9.50242Z" fill="white"/>
<path d="M141.353 5.39435C139.805 5.39435 138.258 6.10863 137.305 7.35863L137.008 7.71578L136.77 7.29911C136.055 6.04911 134.865 5.39435 133.198 5.39435C131.413 5.39435 130.282 6.34673 129.686 6.94197L129.329 7.35863L129.21 6.82292C129.032 6.10863 128.377 5.69197 127.365 5.69197H125.758V18.9062H129.389V13.0729C129.389 12.5372 129.448 12.061 129.567 11.5253C129.924 10.0967 130.877 8.60863 132.424 8.72768C133.436 8.84673 133.913 9.56101 133.913 11.0491V18.9062H137.544V13.0729C137.544 12.4182 137.603 11.942 137.722 11.4658C138.02 10.0967 139.032 8.72768 140.52 8.72768C141.651 8.72768 142.067 9.38244 142.067 11.0491V16.942C142.067 18.2515 142.663 18.8467 143.972 18.8467H145.698V10.3943C145.758 7.06101 144.329 5.39435 141.353 5.39435Z" fill="#009FE3"/>
<path d="M108.493 14.3222C108.493 14.3222 106.946 15.9888 104.862 15.9888C103.017 15.9888 101.112 14.8579 101.112 12.2984C101.112 10.096 102.6 8.54837 104.684 8.54837C105.339 8.54837 106.112 8.78646 106.231 9.20313V9.26265C106.529 10.215 107.362 10.215 107.541 10.215H109.505V8.48884C109.505 6.22694 106.589 5.39361 104.624 5.39361C100.458 5.39361 97.4219 8.31027 97.4219 12.2984C97.4219 16.2865 100.398 19.2031 104.565 19.2031C108.136 19.2031 110.1 16.8222 110.1 16.8222L110.219 16.7031L108.672 14.0841L108.493 14.3222Z" fill="#009FE3"/>
</g>
<defs>
<clipPath id="clip0_19739_3867">
<rect width="144.81" height="24" fill="white" transform="translate(0.867188)"/>
</clipPath>
</defs>
</svg>
