<svg width="518" height="342" viewBox="0 0 518 342" fill="none" xmlns="http://www.w3.org/2000/svg">
<rect x="2.5" y="2.5" width="513" height="337" rx="22.5" fill="white" stroke="#FAFAFA" stroke-width="5"/>
<rect x="26" y="165" width="472" height="138" rx="25" fill="#262626"/>
<rect x="49" y="257" width="30" height="30" rx="15" fill="white"/>
<path d="M68.8225 272C68.8225 272.106 68.7802 272.208 68.7049 272.284C68.6295 272.359 68.5273 272.401 68.4208 272.401H64.4029V276.419C64.4029 276.526 64.3606 276.628 64.2852 276.703C64.2099 276.779 64.1077 276.821 64.0011 276.821C63.8946 276.821 63.7924 276.779 63.717 276.703C63.6417 276.628 63.5993 276.526 63.5993 276.419V272.401H59.5815C59.4749 272.401 59.3727 272.359 59.2974 272.284C59.222 272.208 59.1797 272.106 59.1797 272C59.1797 271.893 59.222 271.791 59.2974 271.716C59.3727 271.64 59.4749 271.598 59.5815 271.598H63.5993V267.58C63.5993 267.473 63.6417 267.371 63.717 267.296C63.7924 267.221 63.8946 267.178 64.0011 267.178C64.1077 267.178 64.2099 267.221 64.2852 267.296C64.3606 267.371 64.4029 267.473 64.4029 267.58V271.598H68.4208C68.5273 271.598 68.6295 271.64 68.7049 271.716C68.7802 271.791 68.8225 271.893 68.8225 272Z" fill="black"/>
<path d="M46.441 212.751C46.441 210.735 47.485 209.367 49.123 209.367C50.752 209.367 51.796 210.735 51.796 212.751C51.796 214.776 50.797 216.117 49.123 216.117C47.44 216.117 46.441 214.776 46.441 212.751ZM47.314 212.751C47.314 214.353 47.98 215.325 49.123 215.325C50.266 215.325 50.923 214.353 50.923 212.751C50.923 211.131 50.266 210.159 49.123 210.159C47.98 210.159 47.314 211.131 47.314 212.751ZM53.2122 212.733C52.8612 212.733 52.5642 212.445 52.5642 212.112C52.5642 211.761 52.8612 211.473 53.2122 211.473C53.5542 211.473 53.8512 211.761 53.8512 212.112C53.8512 212.445 53.5542 212.733 53.2122 212.733ZM53.2122 216.108C52.8612 216.108 52.5642 215.82 52.5642 215.478C52.5642 215.127 52.8612 214.839 53.2122 214.839C53.5542 214.839 53.8512 215.127 53.8512 215.478C53.8512 215.82 53.5542 216.108 53.2122 216.108ZM54.6243 212.751C54.6243 210.735 55.6683 209.367 57.3063 209.367C58.9353 209.367 59.9793 210.735 59.9793 212.751C59.9793 214.776 58.9803 216.117 57.3063 216.117C55.6233 216.117 54.6243 214.776 54.6243 212.751ZM55.4973 212.751C55.4973 214.353 56.1633 215.325 57.3063 215.325C58.4493 215.325 59.1063 214.353 59.1063 212.751C59.1063 211.131 58.4493 210.159 57.3063 210.159C56.1633 210.159 55.4973 211.131 55.4973 212.751ZM60.5046 212.751C60.5046 210.735 61.5486 209.367 63.1866 209.367C64.8156 209.367 65.8596 210.735 65.8596 212.751C65.8596 214.776 64.8606 216.117 63.1866 216.117C61.5036 216.117 60.5046 214.776 60.5046 212.751ZM61.3776 212.751C61.3776 214.353 62.0436 215.325 63.1866 215.325C64.3296 215.325 64.9866 214.353 64.9866 212.751C64.9866 211.131 64.3296 210.159 63.1866 210.159C62.0436 210.159 61.3776 211.131 61.3776 212.751ZM67.8428 216.108C66.8978 216.108 66.3398 215.577 66.3398 214.776C66.3398 213.966 66.9428 213.462 67.9778 213.381L69.3638 213.273V213.147C69.3638 212.409 68.9228 212.148 68.3288 212.148C67.6178 212.148 67.2128 212.463 67.2128 212.994H66.4748C66.4748 212.076 67.2308 211.473 68.3648 211.473C69.4538 211.473 70.1918 212.049 70.1918 213.237V216H69.4718L69.3818 215.289C69.1568 215.793 68.5538 216.108 67.8428 216.108ZM68.0858 215.451C68.8868 215.451 69.3728 214.929 69.3728 214.101V213.867L68.2478 213.957C67.5008 214.029 67.1948 214.317 67.1948 214.749C67.1948 215.217 67.5368 215.451 68.0858 215.451ZM71.8494 216H71.0034V211.599H71.7594L71.8404 212.175C72.0654 211.761 72.5334 211.473 73.1544 211.473C73.8384 211.473 74.3244 211.815 74.5494 212.364C74.7564 211.815 75.2874 211.473 75.9714 211.473C76.9794 211.473 77.5914 212.103 77.5914 213.12V216H76.7634V213.327C76.7634 212.634 76.3764 212.238 75.7824 212.238C75.1434 212.238 74.7204 212.688 74.7204 213.39V216H73.8834V213.318C73.8834 212.625 73.5054 212.247 72.9114 212.247C72.2724 212.247 71.8494 212.688 71.8494 213.39V216ZM80.4601 213.993V213.237H83.2051V213.993H80.4601ZM85.951 212.751C85.951 210.735 86.995 209.367 88.633 209.367C90.262 209.367 91.306 210.735 91.306 212.751C91.306 214.776 90.307 216.117 88.633 216.117C86.95 216.117 85.951 214.776 85.951 212.751ZM86.824 212.751C86.824 214.353 87.49 215.325 88.633 215.325C89.776 215.325 90.433 214.353 90.433 212.751C90.433 211.131 89.776 210.159 88.633 210.159C87.49 210.159 86.824 211.131 86.824 212.751ZM92.7222 212.733C92.3712 212.733 92.0742 212.445 92.0742 212.112C92.0742 211.761 92.3712 211.473 92.7222 211.473C93.0642 211.473 93.3612 211.761 93.3612 212.112C93.3612 212.445 93.0642 212.733 92.7222 212.733ZM92.7222 216.108C92.3712 216.108 92.0742 215.82 92.0742 215.478C92.0742 215.127 92.3712 214.839 92.7222 214.839C93.0642 214.839 93.3612 215.127 93.3612 215.478C93.3612 215.82 93.0642 216.108 92.7222 216.108ZM94.1343 212.751C94.1343 210.735 95.1783 209.367 96.8163 209.367C98.4453 209.367 99.4893 210.735 99.4893 212.751C99.4893 214.776 98.4903 216.117 96.8163 216.117C95.1333 216.117 94.1343 214.776 94.1343 212.751ZM95.0073 212.751C95.0073 214.353 95.6733 215.325 96.8163 215.325C97.9593 215.325 98.6163 214.353 98.6163 212.751C98.6163 211.131 97.9593 210.159 96.8163 210.159C95.6733 210.159 95.0073 211.131 95.0073 212.751ZM100.015 212.751C100.015 210.735 101.059 209.367 102.697 209.367C104.326 209.367 105.37 210.735 105.37 212.751C105.37 214.776 104.371 216.117 102.697 216.117C101.014 216.117 100.015 214.776 100.015 212.751ZM100.888 212.751C100.888 214.353 101.554 215.325 102.697 215.325C103.84 215.325 104.497 214.353 104.497 212.751C104.497 211.131 103.84 210.159 102.697 210.159C101.554 210.159 100.888 211.131 100.888 212.751ZM106.066 217.971V211.599H106.831L106.894 212.391C107.191 211.788 107.785 211.473 108.487 211.473C109.747 211.473 110.53 212.418 110.53 213.768C110.53 215.109 109.792 216.117 108.487 216.117C107.785 216.117 107.2 215.82 106.912 215.28V217.971H106.066ZM106.921 213.804C106.921 214.704 107.443 215.352 108.307 215.352C109.171 215.352 109.684 214.704 109.684 213.804C109.684 212.895 109.171 212.247 108.307 212.247C107.443 212.247 106.921 212.886 106.921 213.804ZM111.948 216H111.102V211.599H111.858L111.939 212.175C112.164 211.761 112.632 211.473 113.253 211.473C113.937 211.473 114.423 211.815 114.648 212.364C114.855 211.815 115.386 211.473 116.07 211.473C117.078 211.473 117.69 212.103 117.69 213.12V216H116.862V213.327C116.862 212.634 116.475 212.238 115.881 212.238C115.242 212.238 114.819 212.688 114.819 213.39V216H113.982V213.318C113.982 212.625 113.604 212.247 113.01 212.247C112.371 212.247 111.948 212.688 111.948 213.39V216Z" fill="#F5F5F5"/>
<path d="M48.548 199H47.176V188.878H48.548L53.728 196.704V188.878H55.1V199H53.728L48.548 191.174V199ZM56.2252 195.57C56.2252 193.456 57.7372 191.972 59.7952 191.972C61.8392 191.972 63.3512 193.456 63.3512 195.57C63.3512 197.684 61.8392 199.168 59.7952 199.168C57.7372 199.168 56.2252 197.684 56.2252 195.57ZM57.5552 195.57C57.5552 196.998 58.4652 197.992 59.7952 197.992C61.1112 197.992 62.0353 196.998 62.0353 195.57C62.0353 194.142 61.1112 193.148 59.7952 193.148C58.4652 193.148 57.5552 194.142 57.5552 195.57ZM72.2481 192.154H73.5501V199H72.3741L72.2341 197.964C71.8421 198.678 70.9321 199.168 69.9241 199.168C68.3281 199.168 67.4321 198.09 67.4321 196.41V192.154H68.7481V195.976C68.7481 197.446 69.3781 198.006 70.3861 198.006C71.5901 198.006 72.2481 197.236 72.2481 195.766V192.154ZM74.8995 202.066V192.154H76.0895L76.1875 193.386C76.6495 192.448 77.5735 191.958 78.6655 191.958C80.6255 191.958 81.8435 193.428 81.8435 195.528C81.8435 197.614 80.6955 199.182 78.6655 199.182C77.5735 199.182 76.6635 198.72 76.2155 197.88V202.066H74.8995ZM76.2295 195.584C76.2295 196.984 77.0415 197.992 78.3855 197.992C79.7295 197.992 80.5275 196.984 80.5275 195.584C80.5275 194.17 79.7295 193.162 78.3855 193.162C77.0415 193.162 76.2295 194.156 76.2295 195.584ZM82.286 195.584C82.286 193.442 83.644 191.958 85.646 191.958C87.368 191.958 88.572 192.938 88.81 194.464H87.494C87.27 193.596 86.57 193.134 85.688 193.134C84.442 193.134 83.588 194.086 83.588 195.57C83.588 197.04 84.386 197.992 85.632 197.992C86.57 197.992 87.27 197.502 87.508 196.69H88.824C88.558 198.174 87.284 199.168 85.632 199.168C83.616 199.168 82.286 197.74 82.286 195.584ZM89.2045 195.57C89.2045 193.456 90.7165 191.972 92.7745 191.972C94.8185 191.972 96.3305 193.456 96.3305 195.57C96.3305 197.684 94.8185 199.168 92.7745 199.168C90.7165 199.168 89.2045 197.684 89.2045 195.57ZM90.5345 195.57C90.5345 196.998 91.4445 197.992 92.7745 197.992C94.0905 197.992 95.0145 196.998 95.0145 195.57C95.0145 194.142 94.0905 193.148 92.7745 193.148C91.4445 193.148 90.5345 194.142 90.5345 195.57ZM98.5433 199H97.2273V192.154H98.4033L98.5293 193.05C98.8793 192.406 99.6073 191.958 100.573 191.958C101.637 191.958 102.393 192.49 102.743 193.344C103.065 192.49 103.891 191.958 104.955 191.958C106.523 191.958 107.475 192.938 107.475 194.52V199H106.187V194.842C106.187 193.764 105.585 193.148 104.661 193.148C103.667 193.148 103.009 193.848 103.009 194.94V199H101.707V194.828C101.707 193.75 101.119 193.162 100.195 193.162C99.2013 193.162 98.5433 193.848 98.5433 194.94V199ZM109.384 190.53C108.908 190.53 108.516 190.138 108.516 189.662C108.516 189.172 108.908 188.794 109.384 188.794C109.86 188.794 110.252 189.172 110.252 189.662C110.252 190.138 109.86 190.53 109.384 190.53ZM108.74 199V192.154H110.056V199H108.74ZM112.722 199H111.406V192.154H112.596L112.736 193.204C113.17 192.42 114.038 191.958 115.004 191.958C116.81 191.958 117.636 193.064 117.636 194.814V199H116.32V195.108C116.32 193.722 115.676 193.162 114.668 193.162C113.436 193.162 112.722 194.044 112.722 195.374V199ZM118.465 195.402C118.465 193.47 119.711 191.958 121.699 191.958C122.805 191.958 123.659 192.462 124.093 193.316L124.191 192.154H125.367V198.72C125.367 200.876 124.037 202.248 121.937 202.248C120.075 202.248 118.801 201.198 118.549 199.462H119.865C120.033 200.47 120.789 201.058 121.937 201.058C123.225 201.058 124.065 200.218 124.065 198.916V197.544C123.617 198.342 122.721 198.818 121.643 198.818C119.697 198.818 118.465 197.32 118.465 195.402ZM119.781 195.374C119.781 196.662 120.579 197.67 121.867 197.67C123.197 197.67 124.009 196.718 124.009 195.374C124.009 194.058 123.225 193.106 121.881 193.106C120.565 193.106 119.781 194.114 119.781 195.374ZM132.928 199.168C130.912 199.168 129.526 197.712 129.526 195.584C129.526 193.442 130.884 191.958 132.872 191.958C134.818 191.958 136.092 193.302 136.092 195.332V195.822L130.8 195.836C130.898 197.278 131.654 198.076 132.956 198.076C133.978 198.076 134.65 197.656 134.874 196.872H136.106C135.77 198.342 134.622 199.168 132.928 199.168ZM132.872 193.064C131.724 193.064 130.996 193.75 130.828 194.954H134.776C134.776 193.82 134.034 193.064 132.872 193.064ZM138.688 199L135.93 192.154H137.33L138.828 195.976C139.066 196.62 139.262 197.194 139.374 197.614C139.486 197.166 139.71 196.578 139.948 195.976L141.474 192.154H142.846L139.99 199H138.688ZM145.972 199.168C143.956 199.168 142.57 197.712 142.57 195.584C142.57 193.442 143.928 191.958 145.916 191.958C147.862 191.958 149.136 193.302 149.136 195.332V195.822L143.844 195.836C143.942 197.278 144.698 198.076 146 198.076C147.022 198.076 147.694 197.656 147.918 196.872H149.15C148.814 198.342 147.666 199.168 145.972 199.168ZM145.916 193.064C144.768 193.064 144.04 193.75 143.872 194.954H147.82C147.82 193.82 147.078 193.064 145.916 193.064ZM151.362 199H150.046V192.154H151.236L151.376 193.204C151.81 192.42 152.678 191.958 153.644 191.958C155.45 191.958 156.276 193.064 156.276 194.814V199H154.96V195.108C154.96 193.722 154.316 193.162 153.308 193.162C152.076 193.162 151.362 194.044 151.362 195.374V199ZM159.471 199H158.155V193.26H156.811V192.154H158.155V190.012H159.471V192.154H160.815V193.26H159.471V199Z" fill="white"/>
<path d="M239.488 33.884C238.996 33.884 238.6 33.488 238.6 32.996C238.6 32.504 238.996 32.12 239.488 32.12C239.968 32.12 240.376 32.504 240.376 32.996C240.376 33.488 239.968 33.884 239.488 33.884ZM237.34 43.784L237.58 42.488C237.784 42.548 237.904 42.56 238.084 42.56C238.588 42.56 238.756 42.272 238.756 41.672V35.072H240.22V41.84C240.22 43.1 239.5 43.916 238.216 43.916C237.94 43.916 237.724 43.892 237.34 43.784ZM245.273 35.072H246.737V41H245.381L245.273 40.208C244.913 40.772 244.145 41.156 243.353 41.156C241.985 41.156 241.181 40.232 241.181 38.78V35.072H242.645V38.264C242.645 39.392 243.089 39.848 243.905 39.848C244.829 39.848 245.273 39.308 245.273 38.18V35.072ZM249.233 41H247.769V35.072H249.125L249.245 35.84C249.617 35.24 250.337 34.892 251.141 34.892C252.629 34.892 253.397 35.816 253.397 37.352V41H251.933V37.7C251.933 36.704 251.441 36.224 250.685 36.224C249.785 36.224 249.233 36.848 249.233 37.808V41ZM257.007 41.156C255.243 41.156 254.007 39.872 254.007 38.036C254.007 36.176 255.219 34.892 256.959 34.892C258.735 34.892 259.863 36.08 259.863 37.928V38.372L255.399 38.384C255.507 39.428 256.059 39.956 257.031 39.956C257.835 39.956 258.363 39.644 258.531 39.08H259.887C259.635 40.376 258.555 41.156 257.007 41.156ZM256.971 36.092C256.107 36.092 255.579 36.56 255.435 37.448H258.411C258.411 36.632 257.847 36.092 256.971 36.092ZM262.147 40.472C262.147 41.468 261.427 42.26 260.455 42.38V41.792C260.995 41.696 261.403 41.372 261.403 40.952C261.307 41 261.199 41.024 261.055 41.024C260.587 41.024 260.203 40.676 260.203 40.196C260.203 39.62 260.575 39.236 261.115 39.236C261.715 39.236 262.147 39.728 262.147 40.472ZM271.838 40.988L265.754 41V39.848L268.622 37.424C269.81 36.416 270.206 35.84 270.206 35C270.206 34.004 269.666 33.44 268.742 33.44C267.782 33.44 267.182 34.112 267.17 35.24H265.646C265.658 33.32 266.882 32.072 268.742 32.072C270.614 32.072 271.778 33.14 271.778 34.916C271.778 36.14 271.106 37.064 269.774 38.204L268.19 39.56H271.838V40.988ZM272.304 36.632C272.304 33.908 273.768 32.06 276.012 32.06C278.256 32.06 279.732 33.908 279.732 36.632C279.732 39.344 278.34 41.156 276.012 41.156C273.684 41.156 272.304 39.344 272.304 36.632ZM273.816 36.632C273.816 38.66 274.632 39.8 276.012 39.8C277.404 39.8 278.22 38.66 278.22 36.632C278.22 34.556 277.404 33.416 276.012 33.416C274.632 33.416 273.816 34.556 273.816 36.632ZM286.405 40.988L280.321 41V39.848L283.189 37.424C284.377 36.416 284.773 35.84 284.773 35C284.773 34.004 284.233 33.44 283.309 33.44C282.349 33.44 281.749 34.112 281.737 35.24H280.213C280.225 33.32 281.449 32.072 283.309 32.072C285.181 32.072 286.345 33.14 286.345 34.916C286.345 36.14 285.673 37.064 284.341 38.204L282.757 39.56H286.405V40.988ZM289.79 41.144C287.954 41.144 286.742 39.968 286.742 38.192H288.266C288.266 39.188 288.854 39.776 289.826 39.776C290.858 39.776 291.518 39.104 291.518 38.036C291.518 37.016 290.906 36.32 289.85 36.32C289.178 36.32 288.566 36.656 288.254 37.112L286.898 36.824L287.978 32.228H292.55V33.644H289.082L288.614 35.468C289.034 35.192 289.562 35.036 290.162 35.036C291.914 35.036 293.078 36.224 293.078 37.952C293.078 39.848 291.746 41.144 289.79 41.144Z" fill="black"/>
<path d="M35.63 137H27.458V123.842H35.63V125.966H29.762V129.35H35.018V131.384H29.762V134.876H35.63V137ZM39.2172 137L35.6892 128.108H38.0292L39.5772 132.194C39.9552 133.256 40.2612 134.174 40.3692 134.66C40.4952 134.102 40.8192 133.166 41.1972 132.194L42.8172 128.108H45.0852L41.3772 137H39.2172ZM49.1661 137.234C46.5201 137.234 44.6661 135.308 44.6661 132.554C44.6661 129.764 46.4841 127.838 49.0941 127.838C51.7581 127.838 53.4501 129.62 53.4501 132.392V133.058L46.7541 133.076C46.9161 134.642 47.7441 135.434 49.2021 135.434C50.4081 135.434 51.2001 134.966 51.4521 134.12H53.4861C53.1081 136.064 51.4881 137.234 49.1661 137.234ZM49.1121 129.638C47.8161 129.638 47.0241 130.34 46.8081 131.672H51.2721C51.2721 130.448 50.4261 129.638 49.1121 129.638ZM56.6837 137H54.4877V128.108H56.5217L56.7017 129.26C57.2597 128.36 58.3397 127.838 59.5457 127.838C61.7777 127.838 62.9297 129.224 62.9297 131.528V137H60.7337V132.05C60.7337 130.556 59.9957 129.836 58.8617 129.836C57.5117 129.836 56.6837 130.772 56.6837 132.212V137ZM67.3913 137H65.1953V129.944H63.4853V128.108H65.1953V125.336H67.3913V128.108H69.1193V129.944H67.3913V137ZM79.422 132.464H76.524V137H74.22V123.842H79.422C82.068 123.842 83.778 125.57 83.778 128.144C83.778 130.682 82.05 132.464 79.422 132.464ZM78.972 125.894H76.524V130.412H78.936C80.52 130.412 81.366 129.566 81.366 128.126C81.366 126.686 80.502 125.894 78.972 125.894ZM88.2107 137.234C85.5647 137.234 83.7107 135.308 83.7107 132.554C83.7107 129.764 85.5287 127.838 88.1387 127.838C90.8027 127.838 92.4947 129.62 92.4947 132.392V133.058L85.7987 133.076C85.9607 134.642 86.7887 135.434 88.2467 135.434C89.4527 135.434 90.2447 134.966 90.4967 134.12H92.5307C92.1527 136.064 90.5327 137.234 88.2107 137.234ZM88.1567 129.638C86.8607 129.638 86.0687 130.34 85.8527 131.672H90.3167C90.3167 130.448 89.4707 129.638 88.1567 129.638ZM99.1122 128.072V130.106H98.3022C96.7182 130.106 95.7282 130.952 95.7282 132.68V137H93.5322V128.126H95.6022L95.7282 129.422C96.1062 128.54 96.9522 127.946 98.1402 127.946C98.4462 127.946 98.7522 127.982 99.1122 128.072ZM99.3482 128.108H100.626V127.028C100.626 124.616 101.904 123.608 103.83 123.608C104.172 123.608 104.586 123.626 104.964 123.698V125.57H104.19C103.074 125.57 102.804 126.146 102.804 127.028V128.108H104.928V129.944H102.804V137H100.626V129.944H99.3482V128.108ZM104.824 132.536C104.824 129.764 106.822 127.856 109.576 127.856C112.33 127.856 114.328 129.764 114.328 132.536C114.328 135.308 112.33 137.216 109.576 137.216C106.822 137.216 104.824 135.308 104.824 132.536ZM107.02 132.536C107.02 134.156 108.064 135.254 109.576 135.254C111.088 135.254 112.132 134.156 112.132 132.536C112.132 130.916 111.088 129.818 109.576 129.818C108.064 129.818 107.02 130.916 107.02 132.536ZM120.929 128.072V130.106H120.119C118.535 130.106 117.545 130.952 117.545 132.68V137H115.349V128.126H117.419L117.545 129.422C117.923 128.54 118.769 127.946 119.957 127.946C120.263 127.946 120.569 127.982 120.929 128.072ZM123.891 137H121.695V128.108H123.711L123.891 129.152C124.341 128.414 125.241 127.838 126.519 127.838C127.869 127.838 128.805 128.504 129.273 129.53C129.723 128.504 130.767 127.838 132.117 127.838C134.277 127.838 135.465 129.134 135.465 131.186V137H133.287V131.762C133.287 130.484 132.603 129.818 131.559 129.818C130.497 129.818 129.687 130.502 129.687 131.96V137H127.491V131.744C127.491 130.502 126.825 129.836 125.781 129.836C124.737 129.836 123.891 130.52 123.891 131.96V137ZM139.547 137.234C137.657 137.234 136.505 136.136 136.505 134.462C136.505 132.824 137.693 131.798 139.799 131.636L142.463 131.438V131.24C142.463 130.034 141.743 129.548 140.627 129.548C139.331 129.548 138.611 130.088 138.611 131.024H136.739C136.739 129.098 138.323 127.838 140.735 127.838C143.129 127.838 144.605 129.134 144.605 131.6V137H142.679L142.517 135.686C142.139 136.604 140.933 137.234 139.547 137.234ZM140.267 135.578C141.617 135.578 142.481 134.768 142.481 133.4V132.932L140.627 133.076C139.259 133.202 138.737 133.652 138.737 134.372C138.737 135.182 139.277 135.578 140.267 135.578ZM148.238 137H146.042V128.108H148.076L148.256 129.26C148.814 128.36 149.894 127.838 151.1 127.838C153.332 127.838 154.484 129.224 154.484 131.528V137H152.288V132.05C152.288 130.556 151.55 129.836 150.416 129.836C149.066 129.836 148.238 130.772 148.238 132.212V137ZM155.4 132.536C155.4 129.782 157.218 127.838 159.846 127.838C162.276 127.838 163.932 129.188 164.166 131.33H161.97C161.718 130.322 160.98 129.8 159.936 129.8C158.532 129.8 157.596 130.862 157.596 132.536C157.596 134.21 158.46 135.254 159.864 135.254C160.962 135.254 161.736 134.714 161.97 133.742H164.184C163.914 135.812 162.186 137.234 159.864 137.234C157.164 137.234 155.4 135.362 155.4 132.536ZM169.076 137.234C166.43 137.234 164.576 135.308 164.576 132.554C164.576 129.764 166.394 127.838 169.004 127.838C171.668 127.838 173.36 129.62 173.36 132.392V133.058L166.664 133.076C166.826 134.642 167.654 135.434 169.112 135.434C170.318 135.434 171.11 134.966 171.362 134.12H173.396C173.018 136.064 171.398 137.234 169.076 137.234ZM169.022 129.638C167.726 129.638 166.934 130.34 166.718 131.672H171.182C171.182 130.448 170.336 129.638 169.022 129.638Z" fill="black"/>
<path d="M473 190V195C473 195.265 472.895 195.52 472.707 195.707C472.52 195.895 472.265 196 472 196C471.735 196 471.48 195.895 471.293 195.707C471.105 195.52 471 195.265 471 195V191H467C466.735 191 466.48 190.895 466.293 190.707C466.105 190.52 466 190.265 466 190C466 189.735 466.105 189.48 466.293 189.293C466.48 189.105 466.735 189 467 189H472C472.265 189 472.52 189.105 472.707 189.293C472.895 189.48 473 189.735 473 190ZM457 209H453V205C453 204.735 452.895 204.48 452.707 204.293C452.52 204.105 452.265 204 452 204C451.735 204 451.48 204.105 451.293 204.293C451.105 204.48 451 204.735 451 205V210C451 210.265 451.105 210.52 451.293 210.707C451.48 210.895 451.735 211 452 211H457C457.265 211 457.52 210.895 457.707 210.707C457.895 210.52 458 210.265 458 210C458 209.735 457.895 209.48 457.707 209.293C457.52 209.105 457.265 209 457 209ZM472 204C471.735 204 471.48 204.105 471.293 204.293C471.105 204.48 471 204.735 471 205V209H467C466.735 209 466.48 209.105 466.293 209.293C466.105 209.48 466 209.735 466 210C466 210.265 466.105 210.52 466.293 210.707C466.48 210.895 466.735 211 467 211H472C472.265 211 472.52 210.895 472.707 210.707C472.895 210.52 473 210.265 473 210V205C473 204.735 472.895 204.48 472.707 204.293C472.52 204.105 472.265 204 472 204ZM457 189H452C451.735 189 451.48 189.105 451.293 189.293C451.105 189.48 451 189.735 451 190V195C451 195.265 451.105 195.52 451.293 195.707C451.48 195.895 451.735 196 452 196C452.265 196 452.52 195.895 452.707 195.707C452.895 195.52 453 195.265 453 195V191H457C457.265 191 457.52 190.895 457.707 190.707C457.895 190.52 458 190.265 458 190C458 189.735 457.895 189.48 457.707 189.293C457.52 189.105 457.265 189 457 189Z" fill="white"/>
<path d="M26.168 65.404V64.324H32.564V65.404H29.96V73H28.784V65.404H26.168ZM34.2023 72.988H33.0743V64.168H34.2023V68.032C34.5743 67.396 35.2823 66.964 36.1943 66.964C37.6943 66.964 38.4143 67.912 38.4143 69.412V73H37.2863V69.664C37.2863 68.476 36.7223 67.996 35.8823 67.996C34.7903 67.996 34.2023 68.788 34.2023 69.796V72.988ZM43.5526 67.132H44.6686V73H43.6606L43.5406 72.112C43.2046 72.724 42.4246 73.144 41.5606 73.144C40.1926 73.144 39.4246 72.22 39.4246 70.78V67.132H40.5526V70.408C40.5526 71.668 41.0926 72.148 41.9566 72.148C42.9886 72.148 43.5526 71.488 43.5526 70.228V67.132Z" fill="#A3A3A3"/>
<path d="M31.232 86.48H28.544V84.16H33.712V96H31.232V86.48ZM41.9764 92.816L39.6564 96H36.6964L39.4004 92.368C39.2404 92.4 39.0804 92.416 38.9204 92.416C36.4884 92.416 34.8244 90.736 34.8244 88.304C34.8244 85.712 36.7284 83.952 39.3524 83.952C42.0084 83.952 43.9444 85.84 43.9444 88.32C43.9444 89.776 43.4164 90.848 41.9764 92.816ZM41.2884 88.288C41.2884 87.072 40.5044 86.24 39.3524 86.24C38.2324 86.24 37.4484 87.072 37.4484 88.288C37.4484 89.504 38.2164 90.32 39.3524 90.32C40.5204 90.32 41.2884 89.504 41.2884 88.288Z" fill="#A3A3A3"/>
<path d="M257.504 66.664C257.504 65.176 258.704 64.168 260.492 64.168C262.148 64.168 263.216 65.092 263.312 66.592H262.124C262.064 65.728 261.452 65.224 260.48 65.224C259.388 65.224 258.68 65.776 258.68 66.628C258.68 67.324 259.076 67.744 259.892 67.936L261.32 68.272C262.736 68.596 263.456 69.364 263.456 70.588C263.456 72.148 262.244 73.144 260.396 73.144C258.632 73.144 257.456 72.22 257.384 70.732H258.584C258.608 71.56 259.304 72.088 260.396 72.088C261.548 72.088 262.28 71.548 262.28 70.684C262.28 70 261.908 69.568 261.08 69.376L259.652 69.052C258.236 68.728 257.504 67.912 257.504 66.664ZM265.978 73.144C264.718 73.144 263.974 72.436 263.974 71.368C263.974 70.288 264.778 69.616 266.158 69.508L268.006 69.364V69.196C268.006 68.212 267.418 67.864 266.626 67.864C265.678 67.864 265.138 68.284 265.138 68.992H264.154C264.154 67.768 265.162 66.964 266.674 66.964C268.126 66.964 269.11 67.732 269.11 69.316V73H268.15L268.03 72.052C267.73 72.724 266.926 73.144 265.978 73.144ZM266.302 72.268C267.37 72.268 268.018 71.572 268.018 70.468V70.156L266.518 70.276C265.522 70.372 265.114 70.756 265.114 71.332C265.114 71.956 265.57 72.268 266.302 72.268ZM271.754 73H270.626V68.08H269.474V67.132H270.626V65.296H271.754V67.132H272.906V68.08H271.754V73Z" fill="#A3A3A3"/>
<path d="M266.2 95.968L257.752 96V94.08L261.656 90.832C262.92 89.792 263.448 89.056 263.448 88.08C263.448 86.88 262.856 86.24 261.8 86.24C260.696 86.24 260.056 86.992 260.056 88.32H257.48C257.48 85.664 259.176 83.936 261.784 83.936C264.488 83.936 266.104 85.392 266.104 87.92C266.104 89.536 265.128 90.848 263.656 92.08L261.88 93.568H266.2V95.968ZM269.436 86.48H266.748V84.16H271.916V96H269.436V86.48Z" fill="#A3A3A3"/>
<path d="M365.504 66.664C365.504 65.176 366.704 64.168 368.492 64.168C370.148 64.168 371.216 65.092 371.312 66.592H370.124C370.064 65.728 369.452 65.224 368.48 65.224C367.388 65.224 366.68 65.776 366.68 66.628C366.68 67.324 367.076 67.744 367.892 67.936L369.32 68.272C370.736 68.596 371.456 69.364 371.456 70.588C371.456 72.148 370.244 73.144 368.396 73.144C366.632 73.144 365.456 72.22 365.384 70.732H366.584C366.608 71.56 367.304 72.088 368.396 72.088C369.548 72.088 370.28 71.548 370.28 70.684C370.28 70 369.908 69.568 369.08 69.376L367.652 69.052C366.236 68.728 365.504 67.912 365.504 66.664ZM376.318 67.132H377.434V73H376.426L376.306 72.112C375.97 72.724 375.19 73.144 374.326 73.144C372.958 73.144 372.19 72.22 372.19 70.78V67.132H373.318V70.408C373.318 71.668 373.858 72.148 374.722 72.148C375.754 72.148 376.318 71.488 376.318 70.228V67.132ZM379.718 73H378.59V67.132H379.61L379.73 68.032C380.102 67.36 380.846 66.964 381.674 66.964C383.222 66.964 383.93 67.912 383.93 69.412V73H382.802V69.664C382.802 68.476 382.25 67.996 381.386 67.996C380.33 67.996 379.718 68.752 379.718 69.892V73Z" fill="#A3A3A3"/>
<path d="M374.2 95.968L365.752 96V94.08L369.656 90.832C370.92 89.792 371.448 89.056 371.448 88.08C371.448 86.88 370.856 86.24 369.8 86.24C368.696 86.24 368.056 86.992 368.056 88.32H365.48C365.48 85.664 367.176 83.936 369.784 83.936C372.488 83.936 374.104 85.392 374.104 87.92C374.104 89.536 373.128 90.848 371.656 92.08L369.88 93.568H374.2V95.968ZM383.404 95.968L374.956 96V94.08L378.86 90.832C380.124 89.792 380.652 89.056 380.652 88.08C380.652 86.88 380.06 86.24 379.004 86.24C377.9 86.24 377.26 86.992 377.26 88.32H374.684C374.684 85.664 376.38 83.936 378.988 83.936C381.692 83.936 383.308 85.392 383.308 87.92C383.308 89.536 382.332 90.848 380.86 92.08L379.084 93.568H383.404V95.968Z" fill="#A3A3A3"/>
<path d="M474.16 73H473.008V64.324H474.16L477.148 71.62L480.136 64.324H481.312V73H480.16V69.568C480.16 67.948 480.172 67.36 480.232 66.748L477.7 73H476.596L474.076 66.772C474.136 67.192 474.16 68.08 474.16 69.292V73ZM482.276 70.06C482.276 68.248 483.572 66.976 485.336 66.976C487.088 66.976 488.384 68.248 488.384 70.06C488.384 71.872 487.088 73.144 485.336 73.144C483.572 73.144 482.276 71.872 482.276 70.06ZM483.416 70.06C483.416 71.284 484.196 72.136 485.336 72.136C486.464 72.136 487.256 71.284 487.256 70.06C487.256 68.836 486.464 67.984 485.336 67.984C484.196 67.984 483.416 68.836 483.416 70.06ZM490.281 73H489.153V67.132H490.173L490.293 68.032C490.665 67.36 491.409 66.964 492.237 66.964C493.785 66.964 494.493 67.912 494.493 69.412V73H493.365V69.664C493.365 68.476 492.813 67.996 491.949 67.996C490.893 67.996 490.281 68.752 490.281 69.892V73Z" fill="#A3A3A3"/>
<path d="M483.2 95.968L474.752 96V94.08L478.656 90.832C479.92 89.792 480.448 89.056 480.448 88.08C480.448 86.88 479.856 86.24 478.8 86.24C477.696 86.24 477.056 86.992 477.056 88.32H474.48C474.48 85.664 476.176 83.936 478.784 83.936C481.488 83.936 483.104 85.392 483.104 87.92C483.104 89.536 482.128 90.848 480.656 92.08L478.88 93.568H483.2V95.968ZM487.396 90.432H485.668V88.768C485.7 88.736 485.732 88.72 485.764 88.688L488.34 86.432H483.876V84.16H491.588V86.224L489.092 88.416C490.692 88.896 491.988 90.176 491.988 92.192C491.988 94.688 489.972 96.208 487.572 96.208C485.268 96.208 483.332 94.8 483.332 92.128H485.892C485.892 93.296 486.596 93.92 487.636 93.92C488.644 93.92 489.332 93.232 489.332 92.176C489.332 91.232 488.788 90.432 487.396 90.432Z" fill="#A3A3A3"/>
<path d="M150.592 69.316H147.184V73H146.008V64.324H151.24V65.404H147.184V68.248H150.592V69.316ZM154.989 67.084V68.116H154.485C153.417 68.116 152.757 68.764 152.757 69.892V73H151.629V67.144H152.685L152.757 68.032C152.997 67.42 153.585 67.012 154.389 67.012C154.593 67.012 154.761 67.036 154.989 67.084ZM156.119 65.74C155.711 65.74 155.375 65.404 155.375 64.996C155.375 64.576 155.711 64.252 156.119 64.252C156.527 64.252 156.863 64.576 156.863 64.996C156.863 65.404 156.527 65.74 156.119 65.74ZM155.567 73V67.132H156.695V73H155.567Z" fill="black"/>
<path d="M150.2 95.968L141.752 96V94.08L145.656 90.832C146.92 89.792 147.448 89.056 147.448 88.08C147.448 86.88 146.856 86.24 145.8 86.24C144.696 86.24 144.056 86.992 144.056 88.32H141.48C141.48 85.664 143.176 83.936 145.784 83.936C148.488 83.936 150.104 85.392 150.104 87.92C150.104 89.536 149.128 90.848 147.656 92.08L145.88 93.568H150.2V95.968ZM150.623 90.112C150.623 86.448 152.703 83.936 155.792 83.936C158.88 83.936 160.96 86.448 160.96 90.112C160.96 93.776 159.04 96.208 155.792 96.208C152.543 96.208 150.623 93.776 150.623 90.112ZM153.183 90.112C153.183 92.656 154.143 93.936 155.792 93.936C157.439 93.936 158.399 92.656 158.399 90.112C158.399 87.488 157.439 86.208 155.792 86.208C154.143 86.208 153.183 87.488 153.183 90.112Z" fill="black"/>
<rect x="174" y="189" width="49" height="13" rx="6.5" fill="white"/>
<path d="M185.842 193.577H186.493V197H185.905L185.835 196.482C185.639 196.839 185.184 197.084 184.68 197.084C183.882 197.084 183.434 196.545 183.434 195.705V193.577H184.092V195.488C184.092 196.223 184.407 196.503 184.911 196.503C185.513 196.503 185.842 196.118 185.842 195.383V193.577ZM187.168 198.533V193.577H187.763L187.812 194.193C188.043 193.724 188.505 193.479 189.051 193.479C190.031 193.479 190.64 194.214 190.64 195.264C190.64 196.307 190.066 197.091 189.051 197.091C188.505 197.091 188.05 196.86 187.826 196.44V198.533H187.168ZM187.833 195.292C187.833 195.992 188.239 196.496 188.911 196.496C189.583 196.496 189.982 195.992 189.982 195.292C189.982 194.585 189.583 194.081 188.911 194.081C188.239 194.081 187.833 194.578 187.833 195.292ZM190.861 195.292C190.861 194.221 191.54 193.479 192.541 193.479C193.402 193.479 194.004 193.969 194.123 194.732H193.465C193.353 194.298 193.003 194.067 192.562 194.067C191.939 194.067 191.512 194.543 191.512 195.285C191.512 196.02 191.911 196.496 192.534 196.496C193.003 196.496 193.353 196.251 193.472 195.845H194.13C193.997 196.587 193.36 197.084 192.534 197.084C191.526 197.084 190.861 196.37 190.861 195.292ZM194.32 195.285C194.32 194.228 195.076 193.486 196.105 193.486C197.127 193.486 197.883 194.228 197.883 195.285C197.883 196.342 197.127 197.084 196.105 197.084C195.076 197.084 194.32 196.342 194.32 195.285ZM194.985 195.285C194.985 195.999 195.44 196.496 196.105 196.496C196.763 196.496 197.225 195.999 197.225 195.285C197.225 194.571 196.763 194.074 196.105 194.074C195.44 194.074 194.985 194.571 194.985 195.285ZM198.99 197H198.332V193.577H198.92L198.983 194.025C199.158 193.703 199.522 193.479 200.005 193.479C200.537 193.479 200.915 193.745 201.09 194.172C201.251 193.745 201.664 193.479 202.196 193.479C202.98 193.479 203.456 193.969 203.456 194.76V197H202.812V194.921C202.812 194.382 202.511 194.074 202.049 194.074C201.552 194.074 201.223 194.424 201.223 194.97V197H200.572V194.914C200.572 194.375 200.278 194.081 199.816 194.081C199.319 194.081 198.99 194.424 198.99 194.97V197ZM204.41 192.765C204.172 192.765 203.976 192.569 203.976 192.331C203.976 192.086 204.172 191.897 204.41 191.897C204.648 191.897 204.844 192.086 204.844 192.331C204.844 192.569 204.648 192.765 204.41 192.765ZM204.088 197V193.577H204.746V197H204.088ZM206.079 197H205.421V193.577H206.016L206.086 194.102C206.303 193.71 206.737 193.479 207.22 193.479C208.123 193.479 208.536 194.032 208.536 194.907V197H207.878V195.054C207.878 194.361 207.556 194.081 207.052 194.081C206.436 194.081 206.079 194.522 206.079 195.187V197ZM208.95 195.201C208.95 194.235 209.573 193.479 210.567 193.479C211.12 193.479 211.547 193.731 211.764 194.158L211.813 193.577H212.401V196.86C212.401 197.938 211.736 198.624 210.686 198.624C209.755 198.624 209.118 198.099 208.992 197.231H209.65C209.734 197.735 210.112 198.029 210.686 198.029C211.33 198.029 211.75 197.609 211.75 196.958V196.272C211.526 196.671 211.078 196.909 210.539 196.909C209.566 196.909 208.95 196.16 208.95 195.201ZM209.608 195.187C209.608 195.831 210.007 196.335 210.651 196.335C211.316 196.335 211.722 195.859 211.722 195.187C211.722 194.529 211.33 194.053 210.658 194.053C210 194.053 209.608 194.557 209.608 195.187Z" fill="black"/>
</svg>
