<svg width="268" height="220" viewBox="0 0 268 220" fill="none" xmlns="http://www.w3.org/2000/svg">
<g clip-path="url(#clip0_20023_52567)">
<rect width="268" height="220" rx="32" fill="#655675"/>
<g opacity="0.87">
<line x1="254.594" y1="154" x2="12.9937" y2="154" stroke="white" stroke-width="0.8" stroke-dasharray="1.6 1.6"/>
<line x1="133.393" y1="236" x2="133.393" y2="-5.60001" stroke="white" stroke-width="0.8" stroke-dasharray="1.6 1.6"/>
<line x1="133.393" y1="104.799" x2="133.393" y2="71.1988" stroke="#98AAE5" stroke-width="0.8" stroke-dasharray="1.6 1.6"/>
<line x1="178.991" y1="203.199" x2="178.991" y2="44.7992" stroke="white" stroke-width="0.8" stroke-dasharray="1.6 1.6"/>
<line x1="87.7914" y1="203.199" x2="87.7914" y2="44.7992" stroke="white" stroke-width="0.8" stroke-dasharray="1.6 1.6"/>
<line x1="240.191" y1="195.599" x2="27.3914" y2="195.599" stroke="white" stroke-width="0.8" stroke-dasharray="1.6 1.6"/>
<line x1="240.191" y1="113.199" x2="27.3914" y2="113.199" stroke="white" stroke-width="0.8" stroke-dasharray="1.6 1.6"/>
<rect x="27.7906" y="83.5992" width="212" height="160" rx="18.8" stroke="url(#paint0_linear_20023_52567)" stroke-width="0.8"/>
<rect x="27.7906" y="-115.6" width="212" height="160" rx="18.8" stroke="url(#paint1_linear_20023_52567)" stroke-width="0.8"/>
<rect x="42.9938" y="16.4" width="181.6" height="270.4" rx="18.8" stroke="url(#paint2_linear_20023_52567)" stroke-width="0.8"/>
<g clip-path="url(#clip1_20023_52567)">
<rect x="48.9922" y="104.799" width="169.6" height="98.4" rx="19.2" fill="#F5F5F5"/>
<g filter="url(#filter0_d_20023_52567)">
<rect x="116.191" y="111.199" width="96" height="85.6" rx="12.8" fill="#F9F9F9"/>
<rect x="116.591" y="111.599" width="95.2" height="84.8" rx="12.4" stroke="url(#paint3_linear_20023_52567)" stroke-width="0.8"/>
<rect x="125.793" y="124" width="19.2" height="3.2" rx="1.6" fill="#D9D9D9"/>
<rect x="125.793" y="130.4" width="40.8" height="3.2" rx="1.6" fill="#ECECEC"/>
<rect x="125.793" y="136.801" width="66.4" height="3.2" rx="1.6" fill="#ECECEC"/>
<rect x="125.793" y="143.199" width="40.8" height="3.2" rx="1.6" fill="#ECECEC"/>
<rect x="125.793" y="151.199" width="32" height="20" rx="3.2" fill="url(#paint4_linear_20023_52567)" fill-opacity="0.5"/>
<rect x="125.793" y="151.199" width="32" height="20" rx="3.2" fill="url(#paint5_radial_20023_52567)" fill-opacity="0.6"/>
<rect x="160.992" y="151.199" width="32" height="20" rx="3.2" fill="url(#paint6_linear_20023_52567)" fill-opacity="0.5"/>
<rect x="160.992" y="151.199" width="32" height="20" rx="3.2" fill="url(#paint7_radial_20023_52567)" fill-opacity="0.6"/>
<rect x="119.395" y="177.6" width="89.6" height="16" rx="8" fill="#ECECEC"/>
<path d="M207.394 185.599C207.394 189.134 204.528 191.999 200.994 191.999C197.459 191.999 194.594 189.134 194.594 185.599C194.594 182.065 197.459 179.199 200.994 179.199C204.528 179.199 207.394 182.065 207.394 185.599ZM197.402 185.599C197.402 187.583 199.01 189.191 200.994 189.191C202.977 189.191 204.585 187.583 204.585 185.599C204.585 183.616 202.977 182.008 200.994 182.008C199.01 182.008 197.402 183.616 197.402 185.599Z" fill="url(#paint8_linear_20023_52567)"/>
</g>
<circle cx="61.7945" cy="124" r="2.4" fill="#01AB57"/>
<path d="M68.7193 126.6H67.9129V121.921H68.7257L70.9209 125.236V121.921H71.7273V126.6H70.9209L68.7193 123.284V126.6ZM74.0621 126.683C73.1213 126.683 72.4621 125.998 72.4621 125.019C72.4621 124.027 73.1085 123.342 74.0365 123.342C74.9837 123.342 75.5853 123.976 75.5853 124.961V125.198L73.2045 125.204C73.2621 125.761 73.5565 126.043 74.0749 126.043C74.5037 126.043 74.7853 125.876 74.8749 125.576H75.5981C75.4637 126.267 74.8877 126.683 74.0621 126.683ZM74.0429 123.982C73.5821 123.982 73.3005 124.232 73.2237 124.705H74.8109C74.8109 124.27 74.5101 123.982 74.0429 123.982ZM76.7703 126.6L75.7463 123.438H76.5591L76.9751 124.795C77.0455 125.044 77.1095 125.32 77.1671 125.614C77.2247 125.307 77.2823 125.108 77.3847 124.795L77.8199 123.438H78.6135L79.0359 124.795C79.0743 124.923 79.2023 125.396 79.2407 125.608C79.2919 125.371 79.3943 124.993 79.4519 124.795L79.8743 123.438H80.6999L79.6055 126.6H78.8759L78.4407 125.23C78.3127 124.814 78.2423 124.513 78.2167 124.353C78.1847 124.5 78.1271 124.724 77.9671 125.243L77.5319 126.6H76.7703ZM82.7185 124.948C82.7185 124.027 83.3201 123.336 84.2225 123.336C84.6961 123.336 85.0673 123.534 85.2529 123.873L85.2977 123.438H86.0209V126.44C86.0209 127.496 85.3873 128.155 84.3633 128.155C83.4545 128.155 82.8337 127.636 82.7377 126.792H83.5185C83.5697 127.201 83.8833 127.444 84.3633 127.444C84.9009 127.444 85.2465 127.105 85.2465 126.58V126.056C85.0481 126.35 84.6577 126.536 84.2033 126.536C83.3073 126.536 82.7185 125.864 82.7185 124.948ZM83.5057 124.929C83.5057 125.46 83.8449 125.857 84.3569 125.857C84.8945 125.857 85.2273 125.48 85.2273 124.929C85.2273 124.392 84.9009 124.02 84.3569 124.02C83.8385 124.02 83.5057 124.411 83.5057 124.929ZM88.813 123.425V124.148H88.525C87.9618 124.148 87.6098 124.449 87.6098 125.064V126.6H86.829V123.444H87.565L87.6098 123.905C87.7442 123.592 88.045 123.38 88.4674 123.38C88.5762 123.38 88.685 123.393 88.813 123.425ZM89.0496 125.012C89.0496 124.027 89.76 123.348 90.7392 123.348C91.7184 123.348 92.4288 124.027 92.4288 125.012C92.4288 125.998 91.7184 126.676 90.7392 126.676C89.76 126.676 89.0496 125.998 89.0496 125.012ZM89.8304 125.012C89.8304 125.588 90.2016 125.979 90.7392 125.979C91.2768 125.979 91.648 125.588 91.648 125.012C91.648 124.436 91.2768 124.046 90.7392 124.046C90.2016 124.046 89.8304 124.436 89.8304 125.012ZM95.1167 123.438H95.8975V126.6H95.1743L95.1167 126.177C94.9247 126.478 94.5151 126.683 94.0927 126.683C93.3631 126.683 92.9343 126.19 92.9343 125.416V123.438H93.7151V125.14C93.7151 125.742 93.9519 125.985 94.3871 125.985C94.8799 125.985 95.1167 125.697 95.1167 125.096V123.438ZM96.704 128.065V123.438H97.4272L97.4784 123.918C97.6704 123.553 98.0864 123.342 98.5664 123.342C99.456 123.342 100.045 123.988 100.045 124.98C100.045 125.966 99.5072 126.683 98.5664 126.683C98.0928 126.683 97.6832 126.497 97.4848 126.177V128.065H96.704ZM97.4912 125.019C97.4912 125.588 97.8432 125.979 98.3808 125.979C98.9312 125.979 99.2576 125.582 99.2576 125.019C99.2576 124.456 98.9312 124.052 98.3808 124.052C97.8432 124.052 97.4912 124.449 97.4912 125.019Z" fill="black"/>
<rect x="67.3945" y="131.4" width="37.6" height="3.2" rx="1.6" fill="#ECECEC"/>
<circle cx="61.7945" cy="143.199" r="2.4" fill="#D9D9D9"/>
<rect x="67.3945" y="140.799" width="23.2" height="3.2" rx="1.6" fill="#D9D9D9"/>
<rect x="67.3945" y="147.199" width="37.6" height="3.2" rx="1.6" fill="#ECECEC"/>
<circle cx="61.7945" cy="159.199" r="2.4" fill="#D9D9D9"/>
<rect x="67.3945" y="156.799" width="23.2" height="3.2" rx="1.6" fill="#D9D9D9"/>
<rect x="67.3945" y="163.199" width="37.6" height="3.2" rx="1.6" fill="#ECECEC"/>
<rect x="59.3945" y="176.799" width="16" height="16" rx="8" fill="url(#paint9_linear_20023_52567)"/>
<g clip-path="url(#clip2_20023_52567)">
<path d="M70.6021 184.55H67.6573V181.594C67.6573 181.456 67.5427 181.33 67.3937 181.33C67.2562 181.33 67.1302 181.445 67.1302 181.594V184.55H64.1854C64.0479 184.55 63.9219 184.664 63.9219 184.813C63.9219 184.951 64.0365 185.077 64.1854 185.077H67.1417V188.01C67.1417 188.148 67.2562 188.274 67.4052 188.274C67.5427 188.274 67.6687 188.159 67.6687 188.01V185.065H70.6021C70.7396 185.065 70.8656 184.951 70.8656 184.802C70.8656 184.664 70.7396 184.55 70.6021 184.55Z" fill="white"/>
</g>
</g>
<rect x="49.3922" y="105.199" width="168.8" height="97.6" rx="18.8" stroke="url(#paint10_linear_20023_52567)" stroke-width="0.8"/>
<g clip-path="url(#clip3_20023_52567)">
<rect x="108.191" y="21.5996" width="51.2" height="51.2" rx="25.6" fill="#E5EAFA"/>
<g filter="url(#filter1_d_20023_52567)">
<circle cx="133.791" cy="47.1996" r="21.6" fill="#E5EAFA"/>
<circle cx="133.791" cy="47.1996" r="21.2" stroke="url(#paint11_linear_20023_52567)" stroke-width="0.8"/>
</g>
<rect x="126.595" y="39.9988" width="13.6" height="13.6" rx="2.4" stroke="#BBBBBB" stroke-width="1.6" stroke-dasharray="1.6 1.6"/>
<g clip-path="url(#clip4_20023_52567)">
<path d="M135.992 49.4004L140.659 61.1384L142.78 56.1886L147.73 54.0674L135.992 49.4004Z" fill="#57A4FF"/>
<path d="M140.659 61.1384L142.78 56.1886L135.992 49.4004L140.659 61.1384Z" fill="#2488FF"/>
</g>
</g>
<rect x="108.591" y="21.9996" width="50.4" height="50.4" rx="25.2" stroke="url(#paint12_linear_20023_52567)" stroke-width="0.8"/>
<g clip-path="url(#clip5_20023_52567)">
<rect x="165.793" y="28" width="38.4" height="38.4" rx="19.2" fill="#E5EAFA"/>
<g filter="url(#filter2_d_20023_52567)">
<circle cx="184.992" cy="47.1992" r="16" fill="#E5EAFA"/>
<circle cx="184.992" cy="47.1992" r="15.6" stroke="url(#paint13_linear_20023_52567)" stroke-width="0.8"/>
</g>
<path d="M191.784 49.8222C191.647 49.4507 191.235 49.259 190.864 49.3963L184.997 51.5474L179.131 49.3963C179.121 49.3939 179.114 49.3916 179.105 49.3868C178.731 49.259 178.321 49.4555 178.191 49.8317C178.064 50.2056 178.26 50.615 178.636 50.7428L184.749 52.9886C184.91 53.0478 185.085 53.0478 185.243 52.9886L191.356 50.7428C191.73 50.6079 191.919 50.1938 191.784 49.8222ZM191.784 46.9517C191.647 46.5802 191.235 46.3885 190.864 46.5257L184.997 48.6792L179.131 46.5257C179.121 46.5234 179.114 46.521 179.105 46.5186C178.731 46.3885 178.321 46.5872 178.191 46.9612C178.064 47.3351 178.26 47.7445 178.636 47.8746L184.749 50.1181C184.91 50.1772 185.085 50.1772 185.243 50.1181L191.356 47.8746C191.73 47.7374 191.919 47.3256 191.784 46.9517ZM191.358 43.6552L185.246 41.4117C185.085 41.3549 184.91 41.3549 184.749 41.4117L178.636 43.6552C178.352 43.7593 178.165 44.0291 178.168 44.3296C178.165 44.6302 178.352 44.8999 178.636 45.0041L184.749 47.2475C184.91 47.3043 185.085 47.3043 185.246 47.2475L191.358 45.0041C191.56 44.9331 191.716 44.7745 191.789 44.5757C191.924 44.2018 191.732 43.79 191.358 43.6552ZM178.636 45.0041L184.749 47.2475C184.91 47.3043 185.085 47.3043 185.246 47.2475L191.358 45.0041C191.56 44.9331 191.716 44.7745 191.789 44.5757C191.924 44.2018 191.732 43.79 191.358 43.6552L185.246 41.4117C185.085 41.3549 184.91 41.3549 184.749 41.4117L178.636 43.6552C178.352 43.7593 178.165 44.0291 178.168 44.3296C178.165 44.6302 178.352 44.8999 178.636 45.0041ZM190.864 46.5257L184.997 48.6792L179.131 46.5257C179.121 46.5234 179.114 46.521 179.105 46.5186C178.731 46.3885 178.321 46.5872 178.191 46.9612C178.064 47.3351 178.26 47.7445 178.636 47.8746L184.749 50.1181C184.91 50.1772 185.085 50.1772 185.243 50.1181L191.356 47.8746C191.73 47.7374 191.919 47.3256 191.784 46.9517C191.647 46.5802 191.235 46.3885 190.864 46.5257ZM190.864 49.3963L184.997 51.5474L179.131 49.3963C179.121 49.3939 179.114 49.3916 179.105 49.3868C178.731 49.259 178.321 49.4555 178.191 49.8317C178.064 50.2056 178.26 50.615 178.636 50.7428L184.749 52.9886C184.91 53.0478 185.085 53.0478 185.243 52.9886L191.356 50.7428C191.73 50.6079 191.919 50.1938 191.784 49.8222C191.647 49.4507 191.235 49.259 190.864 49.3963ZM178.636 45.0041L184.749 47.2475C184.91 47.3043 185.085 47.3043 185.246 47.2475L191.358 45.0041C191.56 44.9331 191.716 44.7745 191.789 44.5757C191.924 44.2018 191.732 43.79 191.358 43.6552L185.246 41.4117C185.085 41.3549 184.91 41.3549 184.749 41.4117L178.636 43.6552C178.352 43.7593 178.165 44.0291 178.168 44.3296C178.165 44.6302 178.352 44.8999 178.636 45.0041ZM190.864 46.5257L184.997 48.6792L179.131 46.5257C179.121 46.5234 179.114 46.521 179.105 46.5186C178.731 46.3885 178.321 46.5872 178.191 46.9612C178.064 47.3351 178.26 47.7445 178.636 47.8746L184.749 50.1181C184.91 50.1772 185.085 50.1772 185.243 50.1181L191.356 47.8746C191.73 47.7374 191.919 47.3256 191.784 46.9517C191.647 46.5802 191.235 46.3885 190.864 46.5257ZM190.864 49.3963L184.997 51.5474L179.131 49.3963C179.121 49.3939 179.114 49.3916 179.105 49.3868C178.731 49.259 178.321 49.4555 178.191 49.8317C178.064 50.2056 178.26 50.615 178.636 50.7428L184.749 52.9886C184.91 53.0478 185.085 53.0478 185.243 52.9886L191.356 50.7428C191.73 50.6079 191.919 50.1938 191.784 49.8222C191.647 49.4507 191.235 49.259 190.864 49.3963Z" fill="#BAC7F2"/>
</g>
<g clip-path="url(#clip6_20023_52567)">
<rect x="63.3906" y="28" width="38.4" height="38.4" rx="19.2" fill="#E5EAFA"/>
<g filter="url(#filter3_d_20023_52567)">
<circle cx="82.5898" cy="47.1992" r="16" fill="#E5EAFA"/>
<circle cx="82.5898" cy="47.1992" r="15.6" stroke="url(#paint14_linear_20023_52567)" stroke-width="0.8"/>
</g>
<g clip-path="url(#clip7_20023_52567)">
<g clip-path="url(#clip8_20023_52567)">
<path d="M76.9921 48.8C78.1121 48.8 78.9921 47.92 78.9921 46.8C78.9921 45.68 78.1121 44.8 76.9921 44.8C75.8721 44.8 74.9921 45.68 74.9921 46.8C74.9921 47.92 75.8721 48.8 76.9921 48.8ZM88.1921 48.8C89.3121 48.8 90.1921 47.92 90.1921 46.8C90.1921 45.68 89.3121 44.8 88.1921 44.8C87.0721 44.8 86.1921 45.68 86.1921 46.8C86.1921 47.92 87.0721 48.8 88.1921 48.8ZM82.5121 48C83.6321 48 84.5121 47.12 84.5121 46C84.5121 44.88 83.6321 44 82.5121 44C81.3921 44 80.5121 44.88 80.5121 46C80.5121 47.12 81.3921 48 82.5121 48ZM78.7431 57.0724C78.6885 57.0028 78.6424 56.9264 78.5896 56.8554C78.2499 56.3992 78.1121 55.874 78.1121 55.28L78.6721 50.64C78.6721 50.48 78.7521 50.32 78.7521 50.16C78.7521 50.1317 78.7521 50.0934 78.7521 50.0521C78.7521 49.9163 78.7019 49.7564 78.5796 49.6972C78.5301 49.6733 78.4856 49.6705 78.4326 49.6555C78.2354 49.6 78.0937 49.6 77.9521 49.6H76.0321C74.9921 49.6 74.1121 50.32 74.0321 51.36L73.5521 55.44C73.4785 55.7342 73.6078 56.0961 73.8157 56.339C73.8516 56.381 73.8866 56.4237 73.9207 56.4672C74.1912 56.8123 74.618 57.1376 74.6517 57.5748L74.9921 62C74.9921 62.24 75.1521 62.4 75.3921 62.4H78.5921C78.8321 62.4 78.9921 62.24 78.9921 62L79.3121 57.68C79.3121 57.3979 78.9514 57.3113 78.7653 57.0993C78.7576 57.0905 78.7502 57.0815 78.7431 57.0724ZM86.1121 55.36L85.5521 50.72C85.4721 49.6 84.5921 48.8 83.5521 48.8H81.4721C80.4321 48.8 79.5521 49.6 79.4721 50.72L78.9121 55.36C78.8321 55.76 78.9921 56.16 79.2321 56.4C79.5996 56.7675 80.064 57.1993 80.1055 57.7174L80.5121 62.8C80.5121 63.04 80.6721 63.2 80.9121 63.2H84.1121C84.3521 63.2 84.5121 63.04 84.5121 62.8L84.9252 57.6363C84.9629 57.164 85.435 56.829 85.7412 56.4674C85.7799 56.4218 85.8143 56.3795 85.8529 56.3337C86.0581 56.0903 86.1851 55.7251 86.1121 55.36ZM91.7121 55.44L91.2321 51.36C91.0721 50.32 90.1921 49.6 89.1521 49.6H87.1521C86.9121 49.6 86.6721 49.6 86.5121 49.68C86.4818 49.6951 86.4516 49.7131 86.423 49.7339C86.1617 49.9241 86.3521 50.3168 86.3521 50.64L86.9121 55.28C86.9921 55.92 86.7521 56.48 86.3521 56.96C86.2721 57.04 86.1921 57.12 86.0321 57.28C85.9521 57.36 85.8721 57.52 85.8721 57.6L86.1921 62C86.1921 62.24 86.3521 62.4 86.5921 62.4H89.7921C90.0321 62.4 90.1921 62.24 90.1921 62L90.5277 57.6368C90.564 57.1646 91.0354 56.8287 91.3414 56.4672C91.3799 56.4217 91.4146 56.3797 91.4518 56.3331C91.6455 56.0902 91.7121 55.7318 91.7121 55.44Z" fill="url(#paint15_linear_20023_52567)" fill-opacity="0.5"/>
<path d="M76.9921 48.8C78.1121 48.8 78.9921 47.92 78.9921 46.8C78.9921 45.68 78.1121 44.8 76.9921 44.8C75.8721 44.8 74.9921 45.68 74.9921 46.8C74.9921 47.92 75.8721 48.8 76.9921 48.8ZM88.1921 48.8C89.3121 48.8 90.1921 47.92 90.1921 46.8C90.1921 45.68 89.3121 44.8 88.1921 44.8C87.0721 44.8 86.1921 45.68 86.1921 46.8C86.1921 47.92 87.0721 48.8 88.1921 48.8ZM82.5121 48C83.6321 48 84.5121 47.12 84.5121 46C84.5121 44.88 83.6321 44 82.5121 44C81.3921 44 80.5121 44.88 80.5121 46C80.5121 47.12 81.3921 48 82.5121 48ZM78.7431 57.0724C78.6885 57.0028 78.6424 56.9264 78.5896 56.8554C78.2499 56.3992 78.1121 55.874 78.1121 55.28L78.6721 50.64C78.6721 50.48 78.7521 50.32 78.7521 50.16C78.7521 50.1317 78.7521 50.0934 78.7521 50.0521C78.7521 49.9163 78.7019 49.7564 78.5796 49.6972C78.5301 49.6733 78.4856 49.6705 78.4326 49.6555C78.2354 49.6 78.0937 49.6 77.9521 49.6H76.0321C74.9921 49.6 74.1121 50.32 74.0321 51.36L73.5521 55.44C73.4785 55.7342 73.6078 56.0961 73.8157 56.339C73.8516 56.381 73.8866 56.4237 73.9207 56.4672C74.1912 56.8123 74.618 57.1376 74.6517 57.5748L74.9921 62C74.9921 62.24 75.1521 62.4 75.3921 62.4H78.5921C78.8321 62.4 78.9921 62.24 78.9921 62L79.3121 57.68C79.3121 57.3979 78.9514 57.3113 78.7653 57.0993C78.7576 57.0905 78.7502 57.0815 78.7431 57.0724ZM86.1121 55.36L85.5521 50.72C85.4721 49.6 84.5921 48.8 83.5521 48.8H81.4721C80.4321 48.8 79.5521 49.6 79.4721 50.72L78.9121 55.36C78.8321 55.76 78.9921 56.16 79.2321 56.4C79.5996 56.7675 80.064 57.1993 80.1055 57.7174L80.5121 62.8C80.5121 63.04 80.6721 63.2 80.9121 63.2H84.1121C84.3521 63.2 84.5121 63.04 84.5121 62.8L84.9252 57.6363C84.9629 57.164 85.435 56.829 85.7412 56.4674C85.7799 56.4218 85.8143 56.3795 85.8529 56.3337C86.0581 56.0903 86.1851 55.7251 86.1121 55.36ZM91.7121 55.44L91.2321 51.36C91.0721 50.32 90.1921 49.6 89.1521 49.6H87.1521C86.9121 49.6 86.6721 49.6 86.5121 49.68C86.4818 49.6951 86.4516 49.7131 86.423 49.7339C86.1617 49.9241 86.3521 50.3168 86.3521 50.64L86.9121 55.28C86.9921 55.92 86.7521 56.48 86.3521 56.96C86.2721 57.04 86.1921 57.12 86.0321 57.28C85.9521 57.36 85.8721 57.52 85.8721 57.6L86.1921 62C86.1921 62.24 86.3521 62.4 86.5921 62.4H89.7921C90.0321 62.4 90.1921 62.24 90.1921 62L90.5277 57.6368C90.564 57.1646 91.0354 56.8287 91.3414 56.4672C91.3799 56.4217 91.4146 56.3797 91.4518 56.3331C91.6455 56.0902 91.7121 55.7318 91.7121 55.44Z" fill="url(#paint16_radial_20023_52567)" fill-opacity="0.6"/>
</g>
</g>
</g>
</g>
</g>
<defs>
<filter id="filter0_d_20023_52567" x="108.191" y="106.399" width="112" height="101.6" filterUnits="userSpaceOnUse" color-interpolation-filters="sRGB">
<feFlood flood-opacity="0" result="BackgroundImageFix"/>
<feColorMatrix in="SourceAlpha" type="matrix" values="0 0 0 0 0 0 0 0 0 0 0 0 0 0 0 0 0 0 127 0" result="hardAlpha"/>
<feOffset dy="3.2"/>
<feGaussianBlur stdDeviation="4"/>
<feComposite in2="hardAlpha" operator="out"/>
<feColorMatrix type="matrix" values="0 0 0 0 0 0 0 0 0 0 0 0 0 0 0 0 0 0 0.12 0"/>
<feBlend mode="normal" in2="BackgroundImageFix" result="effect1_dropShadow_20023_52567"/>
<feBlend mode="normal" in="SourceGraphic" in2="effect1_dropShadow_20023_52567" result="shape"/>
</filter>
<filter id="filter1_d_20023_52567" x="107.391" y="23.1996" width="51.1992" height="51.1992" filterUnits="userSpaceOnUse" color-interpolation-filters="sRGB">
<feFlood flood-opacity="0" result="BackgroundImageFix"/>
<feColorMatrix in="SourceAlpha" type="matrix" values="0 0 0 0 0 0 0 0 0 0 0 0 0 0 0 0 0 0 127 0" result="hardAlpha"/>
<feOffset dx="-0.8" dy="1.6"/>
<feGaussianBlur stdDeviation="2"/>
<feComposite in2="hardAlpha" operator="out"/>
<feColorMatrix type="matrix" values="0 0 0 0 0 0 0 0 0 0 0 0 0 0 0 0 0 0 0.15 0"/>
<feBlend mode="normal" in2="BackgroundImageFix" result="effect1_dropShadow_20023_52567"/>
<feBlend mode="normal" in="SourceGraphic" in2="effect1_dropShadow_20023_52567" result="shape"/>
</filter>
<filter id="filter2_d_20023_52567" x="164.192" y="28.7992" width="40" height="40" filterUnits="userSpaceOnUse" color-interpolation-filters="sRGB">
<feFlood flood-opacity="0" result="BackgroundImageFix"/>
<feColorMatrix in="SourceAlpha" type="matrix" values="0 0 0 0 0 0 0 0 0 0 0 0 0 0 0 0 0 0 127 0" result="hardAlpha"/>
<feOffset dx="-0.8" dy="1.6"/>
<feGaussianBlur stdDeviation="2"/>
<feComposite in2="hardAlpha" operator="out"/>
<feColorMatrix type="matrix" values="0 0 0 0 0 0 0 0 0 0 0 0 0 0 0 0 0 0 0.15 0"/>
<feBlend mode="normal" in2="BackgroundImageFix" result="effect1_dropShadow_20023_52567"/>
<feBlend mode="normal" in="SourceGraphic" in2="effect1_dropShadow_20023_52567" result="shape"/>
</filter>
<filter id="filter3_d_20023_52567" x="61.7898" y="28.7992" width="40" height="40" filterUnits="userSpaceOnUse" color-interpolation-filters="sRGB">
<feFlood flood-opacity="0" result="BackgroundImageFix"/>
<feColorMatrix in="SourceAlpha" type="matrix" values="0 0 0 0 0 0 0 0 0 0 0 0 0 0 0 0 0 0 127 0" result="hardAlpha"/>
<feOffset dx="-0.8" dy="1.6"/>
<feGaussianBlur stdDeviation="2"/>
<feComposite in2="hardAlpha" operator="out"/>
<feColorMatrix type="matrix" values="0 0 0 0 0 0 0 0 0 0 0 0 0 0 0 0 0 0 0.15 0"/>
<feBlend mode="normal" in2="BackgroundImageFix" result="effect1_dropShadow_20023_52567"/>
<feBlend mode="normal" in="SourceGraphic" in2="effect1_dropShadow_20023_52567" result="shape"/>
</filter>
<linearGradient id="paint0_linear_20023_52567" x1="133.791" y1="83.1992" x2="133.791" y2="243.999" gradientUnits="userSpaceOnUse">
<stop stop-color="white"/>
<stop offset="1" stop-color="white" stop-opacity="0"/>
</linearGradient>
<linearGradient id="paint1_linear_20023_52567" x1="133.791" y1="-116" x2="133.791" y2="44.8" gradientUnits="userSpaceOnUse">
<stop offset="0.7" stop-color="white" stop-opacity="0"/>
<stop offset="1" stop-color="white"/>
</linearGradient>
<linearGradient id="paint2_linear_20023_52567" x1="133.794" y1="16" x2="133.794" y2="287.2" gradientUnits="userSpaceOnUse">
<stop stop-color="white"/>
<stop offset="1" stop-color="white" stop-opacity="0"/>
</linearGradient>
<linearGradient id="paint3_linear_20023_52567" x1="116.191" y1="111.199" x2="212.191" y2="196.799" gradientUnits="userSpaceOnUse">
<stop stop-color="white"/>
<stop offset="0.472203" stop-color="white"/>
<stop offset="1" stop-color="#DDDDDD"/>
</linearGradient>
<linearGradient id="paint4_linear_20023_52567" x1="129.526" y1="153.033" x2="140.449" y2="174.576" gradientUnits="userSpaceOnUse">
<stop stop-color="#B94402"/>
<stop offset="0.42836" stop-color="#FCD731"/>
<stop offset="1" stop-color="#284370"/>
</linearGradient>
<radialGradient id="paint5_radial_20023_52567" cx="0" cy="0" r="1" gradientTransform="matrix(-16.1333 8 -12.8 -10.0833 152.993 151.866)" gradientUnits="userSpaceOnUse">
<stop stop-color="white"/>
<stop offset="1" stop-color="white" stop-opacity="0"/>
</radialGradient>
<linearGradient id="paint6_linear_20023_52567" x1="163.526" y1="151.949" x2="177.474" y2="177.44" gradientUnits="userSpaceOnUse">
<stop stop-color="#120048"/>
<stop offset="0.241554" stop-color="#4100D2"/>
<stop offset="0.713254" stop-color="#D605E4"/>
<stop offset="1" stop-color="#FF9954"/>
</linearGradient>
<radialGradient id="paint7_radial_20023_52567" cx="0" cy="0" r="1" gradientTransform="matrix(-20 0.833333 -1.33333 -12.5 188.992 170.366)" gradientUnits="userSpaceOnUse">
<stop stop-color="white"/>
<stop offset="1" stop-color="white" stop-opacity="0"/>
</radialGradient>
<linearGradient id="paint8_linear_20023_52567" x1="200.994" y1="179.199" x2="200.994" y2="191.999" gradientUnits="userSpaceOnUse">
<stop stop-color="#D9D9D9"/>
<stop offset="1" stop-color="#BBBBBB"/>
</linearGradient>
<linearGradient id="paint9_linear_20023_52567" x1="67.3945" y1="176.799" x2="67.3945" y2="192.799" gradientUnits="userSpaceOnUse">
<stop stop-color="#6C9AFC"/>
<stop offset="1" stop-color="#405C96"/>
</linearGradient>
<linearGradient id="paint10_linear_20023_52567" x1="48.9922" y1="104.799" x2="215.53" y2="208.134" gradientUnits="userSpaceOnUse">
<stop stop-color="#DDDDDD"/>
<stop offset="1" stop-color="white"/>
</linearGradient>
<linearGradient id="paint11_linear_20023_52567" x1="133.791" y1="25.5996" x2="133.791" y2="68.7996" gradientUnits="userSpaceOnUse">
<stop stop-color="white" stop-opacity="0"/>
<stop offset="1" stop-color="white"/>
</linearGradient>
<linearGradient id="paint12_linear_20023_52567" x1="133.791" y1="21.5996" x2="133.791" y2="72.7996" gradientUnits="userSpaceOnUse">
<stop stop-color="white" stop-opacity="0"/>
<stop offset="1" stop-color="#98AAE5"/>
</linearGradient>
<linearGradient id="paint13_linear_20023_52567" x1="184.992" y1="31.1992" x2="184.992" y2="63.1992" gradientUnits="userSpaceOnUse">
<stop stop-color="white" stop-opacity="0"/>
<stop offset="1" stop-color="white"/>
</linearGradient>
<linearGradient id="paint14_linear_20023_52567" x1="82.5898" y1="31.1992" x2="82.5898" y2="63.1992" gradientUnits="userSpaceOnUse">
<stop stop-color="white" stop-opacity="0"/>
<stop offset="1" stop-color="white"/>
</linearGradient>
<linearGradient id="paint15_linear_20023_52567" x1="74.9706" y1="44.72" x2="90.8213" y2="61.8626" gradientUnits="userSpaceOnUse">
<stop stop-color="#120048"/>
<stop offset="0.241554" stop-color="#4100D2"/>
<stop offset="0.713254" stop-color="#D605E4"/>
<stop offset="1" stop-color="#FF9954"/>
</linearGradient>
<radialGradient id="paint16_radial_20023_52567" cx="0" cy="0" r="1" gradientTransform="matrix(-11.363 0.8 -0.757534 -12 89.4395 62.4)" gradientUnits="userSpaceOnUse">
<stop stop-color="white"/>
<stop offset="1" stop-color="white" stop-opacity="0"/>
</radialGradient>
<clipPath id="clip0_20023_52567">
<rect width="268" height="220" rx="32" fill="white"/>
</clipPath>
<clipPath id="clip1_20023_52567">
<rect x="48.9922" y="104.799" width="169.6" height="98.4" rx="19.2" fill="white"/>
</clipPath>
<clipPath id="clip2_20023_52567">
<rect width="7.33333" height="7.33333" fill="white" transform="translate(63.7266 181.135)"/>
</clipPath>
<clipPath id="clip3_20023_52567">
<rect x="108.191" y="21.5996" width="51.2" height="51.2" rx="25.6" fill="white"/>
</clipPath>
<clipPath id="clip4_20023_52567">
<rect width="12.8" height="12.8" fill="white" transform="translate(135.395 48.7988)"/>
</clipPath>
<clipPath id="clip5_20023_52567">
<rect x="165.793" y="28" width="38.4" height="38.4" rx="19.2" fill="white"/>
</clipPath>
<clipPath id="clip6_20023_52567">
<rect x="63.3906" y="28" width="38.4" height="38.4" rx="19.2" fill="white"/>
</clipPath>
<clipPath id="clip7_20023_52567">
<rect x="72.9883" y="37.5996" width="19.2" height="19.2" rx="9.6" fill="white"/>
</clipPath>
<clipPath id="clip8_20023_52567">
<rect width="19.2" height="19.2" fill="white" transform="translate(72.9883 44)"/>
</clipPath>
</defs>
</svg>
