<svg width="32" height="32" viewBox="0 0 32 32" fill="none" xmlns="http://www.w3.org/2000/svg">
<g clip-path="url(#clip0_18775_131686)">
<path d="M21.5373 20.7492C20.522 21.6505 19.2551 22.7722 16.9514 22.7722H15.5776C13.9124 22.7722 12.3983 22.1678 11.3148 21.0705C10.2564 19.999 9.67349 18.5321 9.67349 16.9397V15.0577C9.67349 13.4653 10.2564 11.9984 11.3148 10.9269C12.3983 9.82965 13.9124 9.2252 15.5776 9.2252H16.9514C19.2551 9.2252 20.5208 10.3469 21.5373 11.2482C22.5916 12.183 23.5024 12.9899 25.9286 12.9899C26.2987 12.99 26.6682 12.9604 27.0336 12.9015C27.0336 12.8943 27.0288 12.8877 27.0258 12.8806C26.8803 12.5197 26.7097 12.1694 26.5151 11.8323L24.8929 9.02212C24.1615 7.75541 23.1096 6.70351 21.8428 5.97212C20.5761 5.24073 19.1392 4.85561 17.6765 4.85547H14.4315C12.9687 4.85561 11.5318 5.24073 10.2651 5.97212C8.99839 6.70351 7.94647 7.75541 7.21507 9.02212L5.59284 11.8323C4.86155 13.0991 4.47656 14.536 4.47656 15.9987C4.47656 17.4614 4.86155 18.8983 5.59284 20.1651L7.21507 22.9753C7.9465 24.2419 8.99844 25.2937 10.2652 26.025C11.5319 26.7563 12.9688 27.1413 14.4315 27.1413H17.6765C19.1392 27.1413 20.5761 26.7563 21.8428 26.025C23.1095 25.2937 24.1615 24.2419 24.8929 22.9753L26.5151 20.1651C26.7097 19.828 26.8803 19.4778 27.0258 19.1168C27.0258 19.1097 27.0312 19.1031 27.0336 19.0959C26.6682 19.037 26.2987 19.0074 25.9286 19.0075C23.5024 19.0075 22.5916 19.8145 21.5373 20.7492Z" fill="#006BFF"/>
<path d="M16.9555 10.9336H15.5817C13.048 10.9336 11.3828 12.7434 11.3828 15.0602V16.9423C11.3828 19.2591 13.048 21.0689 15.5817 21.0689H16.9555C20.6479 21.0689 20.36 17.306 25.9327 17.306C26.461 17.3056 26.9882 17.3538 27.5077 17.45C27.6767 16.4926 27.6767 15.5129 27.5077 14.5555C26.9883 14.6522 26.461 14.7006 25.9327 14.7001C20.3582 14.6995 20.6479 10.9336 16.9555 10.9336Z" fill="#006BFF"/>
<path d="M30.7107 18.8222C29.7608 18.1279 28.6657 17.6582 27.508 17.4485C27.508 17.458 27.505 17.4676 27.5032 17.4765C27.4039 18.0317 27.248 18.5753 27.038 19.0988C27.9945 19.2468 28.902 19.6202 29.6857 20.1882C29.6857 20.1966 29.6809 20.2049 29.678 20.2139C29.2338 21.6563 28.5626 23.0186 27.6896 24.2497C26.8266 25.4694 25.7787 26.5471 24.5837 27.444C21.6909 29.6202 18.0801 30.6177 14.4804 30.2351C10.8807 29.8524 7.56023 28.1182 5.18955 25.3824C2.81888 22.6467 1.57457 19.1133 1.70789 15.4958C1.84121 11.8782 3.34222 8.44603 5.90783 5.89221C7.65079 4.15057 9.81417 2.8888 12.1882 2.22926C14.5623 1.56971 17.0665 1.53475 19.4581 2.12777C21.8496 2.72079 24.0474 3.92167 25.8383 5.61398C27.6292 7.3063 28.9524 9.43262 29.6797 11.7868C29.6827 11.7958 29.6851 11.8041 29.6875 11.8125C28.9033 12.3806 27.995 12.7538 27.038 12.9013C27.2479 13.4253 27.404 13.9692 27.5038 14.5248C27.5038 14.5337 27.5038 14.5427 27.508 14.551C28.6659 14.3418 29.761 13.8721 30.7107 13.1773C31.6239 12.5018 31.4471 11.7384 31.3079 11.2869C29.2957 4.7496 23.21 0 16.0145 0C7.17885 0 0.015625 7.16323 0.015625 15.9989C0.015625 24.8345 7.17885 31.9983 16.0145 31.9983C23.21 31.9983 29.2957 27.2487 31.305 20.7132C31.4471 20.2617 31.6239 19.4983 30.7107 18.8222Z" fill="#006BFF"/>
<path d="M27.0359 12.9028C26.6705 12.9618 26.301 12.9913 25.9309 12.9912C23.5047 12.9912 22.5938 12.1843 21.5396 11.2496C20.5243 10.3483 19.2574 9.22656 16.9537 9.22656H15.5799C13.9147 9.22656 12.4006 9.83101 11.3171 10.9282C10.2587 11.9998 9.67578 13.4667 9.67578 15.059V16.9411C9.67578 18.5334 10.2587 20.0004 11.3171 21.0719C12.4006 22.1691 13.9147 22.7736 15.5799 22.7736H16.9537C19.2574 22.7736 20.5231 21.6519 21.5396 20.7506C22.5938 19.8158 23.5047 19.0089 25.9309 19.0089C26.301 19.0088 26.6705 19.0384 27.0359 19.0973C27.2459 18.5738 27.4018 18.0303 27.5011 17.4751C27.5011 17.4661 27.5047 17.4565 27.5059 17.447C26.9864 17.3508 26.4592 17.3026 25.9309 17.303C20.3564 17.303 20.6461 21.0659 16.9537 21.0659H15.5799C13.0463 21.0659 11.381 19.2562 11.381 16.9393V15.0596C11.381 12.7428 13.0463 10.933 15.5799 10.933H16.9537C20.6461 10.933 20.3582 14.6959 25.9309 14.6959C26.4592 14.6964 26.9865 14.648 27.5059 14.5514C27.5059 14.543 27.5059 14.534 27.5017 14.5251C27.4018 13.9699 27.2457 13.4264 27.0359 12.9028Z" fill="#0AE9EF"/>
<path d="M27.0359 12.9028C26.6705 12.9618 26.301 12.9913 25.9309 12.9912C23.5047 12.9912 22.5938 12.1843 21.5396 11.2496C20.5243 10.3483 19.2574 9.22656 16.9537 9.22656H15.5799C13.9147 9.22656 12.4006 9.83101 11.3171 10.9282C10.2587 11.9998 9.67578 13.4667 9.67578 15.059V16.9411C9.67578 18.5334 10.2587 20.0004 11.3171 21.0719C12.4006 22.1691 13.9147 22.7736 15.5799 22.7736H16.9537C19.2574 22.7736 20.5231 21.6519 21.5396 20.7506C22.5938 19.8158 23.5047 19.0089 25.9309 19.0089C26.301 19.0088 26.6705 19.0384 27.0359 19.0973C27.2459 18.5738 27.4018 18.0303 27.5011 17.4751C27.5011 17.4661 27.5047 17.4565 27.5059 17.447C26.9864 17.3508 26.4592 17.3026 25.9309 17.303C20.3564 17.303 20.6461 21.0659 16.9537 21.0659H15.5799C13.0463 21.0659 11.381 19.2562 11.381 16.9393V15.0596C11.381 12.7428 13.0463 10.933 15.5799 10.933H16.9537C20.6461 10.933 20.3582 14.6959 25.9309 14.6959C26.4592 14.6964 26.9865 14.648 27.5059 14.5514C27.5059 14.543 27.5059 14.534 27.5017 14.5251C27.4018 13.9699 27.2457 13.4264 27.0359 12.9028Z" fill="#0AE9EF"/>
</g>
<defs>
<clipPath id="clip0_18775_131686">
<rect width="31.4052" height="31.9983" fill="white"/>
</clipPath>
</defs>
</svg>
