<svg width="488" height="340" viewBox="0 0 488 340" fill="none" xmlns="http://www.w3.org/2000/svg">
<g clip-path="url(#clip0_18829_11454)">
<rect width="1920" height="1080" fill="white"/>
<g filter="url(#filter0_d_18829_11454)">
<rect y="1" width="329" height="1082" fill="white"/>
</g>
<rect x="109" y="75" width="190" height="1" fill="#E5E5E5"/>
<rect x="109" y="240.812" width="190" height="1" fill="#E5E5E5"/>
<path d="M29.1992 42.8883C29.1992 37.2883 33.8389 32.7383 39.5096 32.7383C45.2199 32.7383 49.8199 37.2883 49.8199 42.8883C49.8199 45.4549 51.9216 47.5161 54.4992 47.5161C57.0768 47.5161 59.1389 45.4549 59.1389 42.8883C59.1389 40.3605 57.0768 38.2605 54.4992 38.2605C53.2699 38.2605 52.1596 38.8049 51.3665 39.5049C50.8113 37.6772 49.8199 35.9272 48.5113 34.6049C50.2165 33.3994 52.2389 32.7383 54.4992 32.7383C60.1699 32.7383 64.8889 37.2883 64.8889 42.8883C64.8889 48.4883 60.1699 52.9994 54.4992 52.9994C48.7492 52.9994 44.1492 48.4883 44.1492 42.8883C44.1492 40.3605 42.0871 38.2994 39.5096 38.2994C36.8923 38.2994 34.8699 40.3605 34.8699 42.8883C34.8699 45.4549 36.8923 47.5161 39.5096 47.5161C40.7389 47.5161 41.8492 47.0105 42.682 46.2716C43.1975 48.1383 44.1492 49.7716 45.4578 51.1716C43.7923 52.3383 41.7699 52.9994 39.5096 52.9994C33.8389 52.9994 29.1992 48.4883 29.1992 42.8883Z" fill="#0A0A0A"/>
<rect x="98.5" y="29.5" width="126.943" height="27.1709" rx="13.5855" fill="white" stroke="#D4D4D4"/>
<mask id="path-8-inside-1_18829_11454" fill="white">
<path d="M211.784 43.3782C211.784 43.4609 211.751 43.5402 211.692 43.5986C211.634 43.6571 211.555 43.69 211.472 43.69H208.354V46.8078C208.354 46.8905 208.321 46.9698 208.263 47.0283C208.204 47.0868 208.125 47.1196 208.042 47.1196C207.96 47.1196 207.88 47.0868 207.822 47.0283C207.763 46.9698 207.73 46.8905 207.73 46.8078V43.69H204.613C204.53 43.69 204.451 43.6571 204.392 43.5986C204.334 43.5402 204.301 43.4609 204.301 43.3782C204.301 43.2955 204.334 43.2162 204.392 43.1577C204.451 43.0992 204.53 43.0664 204.613 43.0664H207.73V39.9485C207.73 39.8658 207.763 39.7865 207.822 39.728C207.88 39.6696 207.96 39.6367 208.042 39.6367C208.125 39.6367 208.204 39.6696 208.263 39.728C208.321 39.7865 208.354 39.8658 208.354 39.9485V43.0664H211.472C211.555 43.0664 211.634 43.0992 211.692 43.1577C211.751 43.2162 211.784 43.2955 211.784 43.3782Z"/>
</mask>
<path d="M211.784 43.3782C211.784 43.4609 211.751 43.5402 211.692 43.5986C211.634 43.6571 211.555 43.69 211.472 43.69H208.354V46.8078C208.354 46.8905 208.321 46.9698 208.263 47.0283C208.204 47.0868 208.125 47.1196 208.042 47.1196C207.96 47.1196 207.88 47.0868 207.822 47.0283C207.763 46.9698 207.73 46.8905 207.73 46.8078V43.69H204.613C204.53 43.69 204.451 43.6571 204.392 43.5986C204.334 43.5402 204.301 43.4609 204.301 43.3782C204.301 43.2955 204.334 43.2162 204.392 43.1577C204.451 43.0992 204.53 43.0664 204.613 43.0664H207.73V39.9485C207.73 39.8658 207.763 39.7865 207.822 39.728C207.88 39.6696 207.96 39.6367 208.042 39.6367C208.125 39.6367 208.204 39.6696 208.263 39.728C208.321 39.7865 208.354 39.8658 208.354 39.9485V43.0664H211.472C211.555 43.0664 211.634 43.0992 211.692 43.1577C211.751 43.2162 211.784 43.2955 211.784 43.3782Z" fill="black"/>
<path d="M211.692 43.5986L213.107 45.0129L211.692 43.5986ZM208.354 43.69V41.69H206.354V43.69H208.354ZM208.263 47.0283L209.677 48.4425L208.263 47.0283ZM207.73 43.69H209.73V41.69H207.73V43.69ZM204.392 43.5986L202.978 45.0129L204.392 43.5986ZM207.73 43.0664V45.0664H209.73V43.0664H207.73ZM208.042 39.6367V41.6367V39.6367ZM208.263 39.728L209.677 38.3138L208.263 39.728ZM208.354 43.0664H206.354V45.0664H208.354V43.0664ZM211.784 43.3782H209.784C209.784 42.9304 209.962 42.501 210.278 42.1844L211.692 43.5986L213.107 45.0129C213.54 44.5793 213.784 43.9913 213.784 43.3782H211.784ZM211.692 43.5986L210.278 42.1844C210.595 41.8678 211.024 41.69 211.472 41.69V43.69V45.69C212.085 45.69 212.673 45.4464 213.107 45.0129L211.692 43.5986ZM211.472 43.69V41.69H208.354V43.69V45.69H211.472V43.69ZM208.354 43.69H206.354V46.8078H208.354H210.354V43.69H208.354ZM208.354 46.8078H206.354C206.354 46.3601 206.532 45.9307 206.848 45.6141L208.263 47.0283L209.677 48.4425C210.11 48.009 210.354 47.421 210.354 46.8078H208.354ZM208.263 47.0283L206.848 45.6141C207.165 45.2975 207.594 45.1196 208.042 45.1196V47.1196V49.1196C208.655 49.1196 209.243 48.8761 209.677 48.4425L208.263 47.0283ZM208.042 47.1196V45.1196C208.49 45.1196 208.919 45.2975 209.236 45.6141L207.822 47.0283L206.408 48.4425C206.841 48.8761 207.429 49.1196 208.042 49.1196V47.1196ZM207.822 47.0283L209.236 45.6141C209.553 45.9307 209.73 46.3601 209.73 46.8078H207.73H205.73C205.73 47.421 205.974 48.009 206.408 48.4425L207.822 47.0283ZM207.73 46.8078H209.73V43.69H207.73H205.73V46.8078H207.73ZM207.73 43.69V41.69H204.613V43.69V45.69H207.73V43.69ZM204.613 43.69V41.69C205.06 41.69 205.49 41.8678 205.806 42.1844L204.392 43.5986L202.978 45.0129C203.411 45.4464 203.999 45.69 204.613 45.69V43.69ZM204.392 43.5986L205.806 42.1844C206.123 42.501 206.301 42.9304 206.301 43.3782H204.301H202.301C202.301 43.9913 202.544 44.5793 202.978 45.0129L204.392 43.5986ZM204.301 43.3782H206.301C206.301 43.8259 206.123 44.2553 205.806 44.5719L204.392 43.1577L202.978 41.7435C202.544 42.177 202.301 42.765 202.301 43.3782H204.301ZM204.392 43.1577L205.806 44.5719C205.49 44.8885 205.06 45.0664 204.613 45.0664V43.0664V41.0664C203.999 41.0664 203.411 41.3099 202.978 41.7435L204.392 43.1577ZM204.613 43.0664V45.0664H207.73V43.0664V41.0664H204.613V43.0664ZM207.73 43.0664H209.73V39.9485H207.73H205.73V43.0664H207.73ZM207.73 39.9485H209.73C209.73 40.3962 209.553 40.8257 209.236 41.1423L207.822 39.728L206.408 38.3138C205.974 38.7474 205.73 39.3354 205.73 39.9485H207.73ZM207.822 39.728L209.236 41.1423C208.919 41.4589 208.49 41.6367 208.042 41.6367L208.042 39.6367V37.6367C207.429 37.6367 206.841 37.8803 206.408 38.3138L207.822 39.728ZM208.042 39.6367V41.6367C207.594 41.6367 207.165 41.4589 206.848 41.1423L208.263 39.728L209.677 38.3138C209.243 37.8803 208.655 37.6367 208.042 37.6367L208.042 39.6367ZM208.263 39.728L206.848 41.1423C206.532 40.8256 206.354 40.3962 206.354 39.9485H208.354H210.354C210.354 39.3354 210.11 38.7474 209.677 38.3138L208.263 39.728ZM208.354 39.9485H206.354V43.0664H208.354H210.354V39.9485H208.354ZM208.354 43.0664V45.0664H211.472V43.0664V41.0664H208.354V43.0664ZM211.472 43.0664V45.0664C211.024 45.0664 210.595 44.8885 210.278 44.5719L211.692 43.1577L213.107 41.7435C212.673 41.3099 212.085 41.0664 211.472 41.0664V43.0664ZM211.692 43.1577L210.278 44.5719C209.962 44.2553 209.784 43.8259 209.784 43.3782H211.784H213.784C213.784 42.7651 213.54 42.177 213.107 41.7435L211.692 43.1577Z" fill="black" mask="url(#path-8-inside-1_18829_11454)"/>
<path d="M122.523 48.715L121.483 47.545C120.807 47.935 120.001 48.156 119.104 48.156C116.387 48.156 114.515 46.141 114.515 43.242C114.515 40.356 116.4 38.328 119.117 38.328C121.834 38.328 123.732 40.343 123.732 43.242C123.732 44.607 123.316 45.777 122.575 46.635L123.589 47.766L122.523 48.715ZM121.977 43.242C121.977 41.214 120.859 39.927 119.117 39.927C117.375 39.927 116.257 41.214 116.257 43.242C116.257 45.27 117.375 46.557 119.117 46.557C119.585 46.557 120.001 46.466 120.378 46.284L119.117 44.867L120.17 43.918L121.431 45.335C121.782 44.789 121.977 44.074 121.977 43.242ZM128.882 41.578H130.468V48H128.999L128.882 47.142C128.492 47.753 127.66 48.169 126.802 48.169C125.32 48.169 124.449 47.168 124.449 45.595V41.578H126.035V45.036C126.035 46.258 126.516 46.752 127.4 46.752C128.401 46.752 128.882 46.167 128.882 44.945V41.578ZM132.379 40.291C131.833 40.291 131.404 39.862 131.404 39.329C131.404 38.796 131.833 38.38 132.379 38.38C132.899 38.38 133.328 38.796 133.328 39.329C133.328 39.862 132.899 40.291 132.379 40.291ZM131.586 48V41.578H133.172V48H131.586ZM133.913 44.776C133.913 42.787 135.226 41.383 137.124 41.383C138.879 41.383 140.075 42.358 140.244 43.905H138.658C138.476 43.177 137.943 42.8 137.189 42.8C136.175 42.8 135.499 43.567 135.499 44.776C135.499 45.985 136.123 46.739 137.137 46.739C137.93 46.739 138.489 46.349 138.658 45.647H140.257C140.062 47.142 138.814 48.169 137.137 48.169C135.187 48.169 133.913 46.817 133.913 44.776ZM142.517 48H140.944V38.328H142.517V44.269L145.013 41.578H147.002L144.558 44.126L146.95 48H145.13L143.453 45.296L142.517 46.271V48ZM151.43 48H149.701L153.133 38.497H154.836L158.268 48H156.513L155.746 45.803H152.197L151.43 48ZM153.77 41.331L152.691 44.399H155.265L154.173 41.331C154.095 41.084 154.004 40.798 153.978 40.603C153.939 40.785 153.861 41.071 153.77 41.331ZM158.036 44.776C158.036 42.787 159.349 41.383 161.247 41.383C163.002 41.383 164.198 42.358 164.367 43.905H162.781C162.599 43.177 162.066 42.8 161.312 42.8C160.298 42.8 159.622 43.567 159.622 44.776C159.622 45.985 160.246 46.739 161.26 46.739C162.053 46.739 162.612 46.349 162.781 45.647H164.38C164.185 47.142 162.937 48.169 161.26 48.169C159.31 48.169 158.036 46.817 158.036 44.776ZM167.225 48H165.639V42.904H164.404V41.578H165.639V39.576H167.225V41.578H168.473V42.904H167.225V48ZM169.732 40.291C169.186 40.291 168.757 39.862 168.757 39.329C168.757 38.796 169.186 38.38 169.732 38.38C170.252 38.38 170.681 38.796 170.681 39.329C170.681 39.862 170.252 40.291 169.732 40.291ZM168.939 48V41.578H170.525V48H168.939ZM171.266 44.776C171.266 42.774 172.709 41.396 174.698 41.396C176.687 41.396 178.13 42.774 178.13 44.776C178.13 46.778 176.687 48.156 174.698 48.156C172.709 48.156 171.266 46.778 171.266 44.776ZM172.852 44.776C172.852 45.946 173.606 46.739 174.698 46.739C175.79 46.739 176.544 45.946 176.544 44.776C176.544 43.606 175.79 42.813 174.698 42.813C173.606 42.813 172.852 43.606 172.852 44.776ZM180.454 48H178.868V41.578H180.337L180.467 42.41C180.87 41.76 181.65 41.383 182.521 41.383C184.133 41.383 184.965 42.384 184.965 44.048V48H183.379V44.425C183.379 43.346 182.846 42.826 182.027 42.826C181.052 42.826 180.454 43.502 180.454 44.542V48ZM185.433 46.05H186.941C186.954 46.609 187.37 46.96 188.098 46.96C188.839 46.96 189.242 46.661 189.242 46.193C189.242 45.868 189.073 45.634 188.501 45.504L187.344 45.231C186.187 44.971 185.628 44.425 185.628 43.398C185.628 42.137 186.694 41.383 188.176 41.383C189.619 41.383 190.594 42.215 190.607 43.463H189.099C189.086 42.917 188.722 42.566 188.111 42.566C187.487 42.566 187.123 42.852 187.123 43.333C187.123 43.697 187.409 43.931 187.955 44.061L189.112 44.334C190.191 44.581 190.737 45.075 190.737 46.063C190.737 47.363 189.632 48.169 188.046 48.169C186.447 48.169 185.433 47.311 185.433 46.05Z" fill="black"/>
<rect x="267.031" y="33.1094" width="36.9744" height="19.3675" rx="9.68376" fill="#E5E5E5"/>
<path d="M284.212 43.4491H283.02V41.5417H284.212C284.637 41.5417 285.051 41.4158 285.404 41.18C285.757 40.9442 286.032 40.6091 286.195 40.217C286.357 39.8249 286.399 39.3935 286.317 38.9772C286.234 38.561 286.03 38.1786 285.729 37.8785C285.429 37.5784 285.047 37.374 284.631 37.2912C284.214 37.2084 283.783 37.2509 283.391 37.4133C282.999 37.5758 282.664 37.8508 282.428 38.2037C282.192 38.5566 282.066 38.9714 282.066 39.3958V40.588H280.159V39.3958C280.159 38.9714 280.033 38.5566 279.797 38.2037C279.561 37.8508 279.226 37.5758 278.834 37.4133C278.442 37.2509 278.011 37.2084 277.594 37.2912C277.178 37.374 276.796 37.5784 276.496 37.8785C276.196 38.1786 275.991 38.561 275.908 38.9772C275.826 39.3935 275.868 39.8249 276.031 40.217C276.193 40.6091 276.468 40.9442 276.821 41.18C277.174 41.4158 277.589 41.5417 278.013 41.5417H279.205V43.4491H278.013C277.589 43.4491 277.174 43.5749 276.821 43.8107C276.468 44.0465 276.193 44.3816 276.031 44.7737C275.868 45.1658 275.826 45.5973 275.908 46.0135C275.991 46.4298 276.196 46.8121 276.496 47.1122C276.796 47.4123 277.178 47.6167 277.594 47.6995C278.011 47.7823 278.442 47.7398 278.834 47.5774C279.226 47.415 279.561 47.1399 279.797 46.7871C280.033 46.4342 280.159 46.0193 280.159 45.5949V44.4028H282.066V45.5949C282.066 46.0193 282.192 46.4342 282.428 46.7871C282.664 47.1399 282.999 47.415 283.391 47.5774C283.783 47.7398 284.214 47.7823 284.631 47.6995C285.047 47.6167 285.429 47.4123 285.729 47.1122C286.03 46.8121 286.234 46.4298 286.317 46.0135C286.399 45.5973 286.357 45.1658 286.195 44.7737C286.032 44.3816 285.757 44.0465 285.404 43.8107C285.051 43.5749 284.637 43.4491 284.212 43.4491ZM283.02 39.3958C283.02 39.1601 283.09 38.9296 283.221 38.7335C283.352 38.5375 283.538 38.3847 283.756 38.2944C283.974 38.2042 284.213 38.1806 284.445 38.2266C284.676 38.2726 284.888 38.3861 285.055 38.5529C285.222 38.7196 285.335 38.932 285.381 39.1633C285.427 39.3945 285.404 39.6342 285.313 39.852C285.223 40.0699 285.07 40.2561 284.874 40.3871C284.678 40.518 284.448 40.588 284.212 40.588H283.02V39.3958ZM276.821 39.3958C276.821 39.0797 276.946 38.7764 277.17 38.5529C277.394 38.3293 277.697 38.2037 278.013 38.2037C278.329 38.2037 278.632 38.3293 278.856 38.5529C279.08 38.7764 279.205 39.0797 279.205 39.3958V40.588H278.013C277.697 40.588 277.394 40.4624 277.17 40.2388C276.946 40.0152 276.821 39.712 276.821 39.3958ZM279.205 45.5949C279.205 45.8307 279.135 46.0612 279.004 46.2572C278.873 46.4533 278.687 46.6061 278.469 46.6963C278.251 46.7865 278.012 46.8101 277.78 46.7641C277.549 46.7181 277.337 46.6046 277.17 46.4379C277.003 46.2711 276.89 46.0587 276.844 45.8275C276.798 45.5962 276.821 45.3565 276.912 45.1387C277.002 44.9209 277.155 44.7347 277.351 44.6037C277.547 44.4727 277.777 44.4028 278.013 44.4028H279.205V45.5949ZM280.159 41.5417H282.066V43.4491H280.159V41.5417ZM284.212 46.787C283.896 46.787 283.593 46.6614 283.369 46.4379C283.146 46.2143 283.02 45.9111 283.02 45.5949V44.4028H284.212C284.528 44.4028 284.831 44.5284 285.055 44.7519C285.279 44.9755 285.404 45.2787 285.404 45.5949C285.404 45.9111 285.279 46.2143 285.055 46.4379C284.831 46.6614 284.528 46.787 284.212 46.787Z" fill="#0A0A0A"/>
<path d="M289.35 37.7104V43.0404L293.536 37.7104H295.057L291.911 41.7014L295.109 47.1094H293.627L291.066 42.7804L289.35 44.9514V47.1094H288.076V37.7104H289.35Z" fill="#0A0A0A"/>
<rect x="235.832" y="29.5" width="27.1709" height="27.1709" rx="13.5855" fill="white" stroke="#E5E5E5"/>
<path d="M252.227 47.4132C252.227 47.5153 252.186 47.6133 252.114 47.6855C252.042 47.7578 251.944 47.7983 251.841 47.7983H248.76C248.658 47.7983 248.56 47.7578 248.488 47.6855C248.416 47.6133 248.375 47.5153 248.375 47.4132C248.375 47.3111 248.416 47.2131 248.488 47.1409C248.56 47.0686 248.658 47.028 248.76 47.028H251.841C251.944 47.028 252.042 47.0686 252.114 47.1409C252.186 47.2131 252.227 47.3111 252.227 47.4132ZM255.086 39.533C254.653 38.687 254.003 37.9712 253.202 37.459C253.16 37.4317 253.112 37.4131 253.062 37.4043C253.012 37.3955 252.961 37.3966 252.911 37.4077C252.862 37.4188 252.815 37.4395 252.773 37.4687C252.732 37.4979 252.697 37.5351 252.669 37.578C252.642 37.6209 252.624 37.6688 252.615 37.7188C252.607 37.7688 252.608 37.8201 252.62 37.8695C252.631 37.919 252.652 37.9658 252.681 38.0071C252.711 38.0484 252.748 38.0835 252.791 38.1104C253.478 38.5473 254.035 39.1611 254.402 39.8874C254.451 39.9752 254.532 40.0405 254.628 40.0696C254.724 40.0986 254.827 40.089 254.916 40.0428C255.005 39.9967 255.073 39.9176 255.105 39.8223C255.136 39.7271 255.13 39.6233 255.086 39.533ZM245.858 40.0954C245.928 40.0953 245.997 40.0759 246.058 40.0392C246.118 40.0026 246.167 39.95 246.199 39.8874C246.567 39.1611 247.124 38.5473 247.81 38.1104C247.853 38.0835 247.891 38.0484 247.92 38.0071C247.95 37.9658 247.971 37.919 247.982 37.8695C247.993 37.8201 247.995 37.7688 247.986 37.7188C247.978 37.6688 247.959 37.6209 247.932 37.578C247.905 37.5351 247.87 37.4979 247.828 37.4687C247.787 37.4395 247.74 37.4188 247.69 37.4077C247.641 37.3966 247.59 37.3955 247.54 37.4043C247.49 37.4131 247.442 37.4317 247.399 37.459C246.599 37.9712 245.949 38.687 245.516 39.533C245.485 39.5917 245.471 39.6573 245.473 39.7233C245.475 39.7894 245.494 39.8538 245.529 39.9103C245.563 39.9668 245.611 40.0135 245.669 40.0459C245.727 40.0783 245.792 40.0953 245.858 40.0954ZM254.817 45.0994C254.885 45.2164 254.922 45.3494 254.922 45.4848C254.923 45.6203 254.887 45.7534 254.82 45.8709C254.752 45.9884 254.655 46.086 254.538 46.1539C254.421 46.2218 254.288 46.2577 254.152 46.2577H246.449C246.314 46.2575 246.181 46.2215 246.064 46.1536C245.947 46.0856 245.85 45.9879 245.783 45.8705C245.715 45.753 245.68 45.6199 245.681 45.4846C245.681 45.3492 245.717 45.2164 245.785 45.0994C246.219 44.3508 246.449 43.2863 246.449 42.0211C246.449 40.9996 246.855 40.02 247.577 39.2977C248.3 38.5754 249.279 38.1696 250.301 38.1696C251.322 38.1696 252.302 38.5754 253.024 39.2977C253.747 40.02 254.152 40.9996 254.152 42.0211C254.152 43.2858 254.382 44.3503 254.817 45.0994ZM254.152 45.4875C253.64 44.6079 253.382 43.4418 253.382 42.0211C253.382 41.2039 253.057 40.4202 252.48 39.8424C251.902 39.2645 251.118 38.9399 250.301 38.9399C249.484 38.9399 248.7 39.2645 248.122 39.8424C247.544 40.4202 247.22 41.2039 247.22 42.0211C247.22 43.4423 246.961 44.6083 246.449 45.4875H254.152Z" fill="black"/>
<rect x="24" y="94" width="50" height="412" rx="25" fill="#E5E5E5" fill-opacity="0.3"/>
<circle cx="49.5" cy="119.5" r="17.5" fill="#D9D9D9"/>
<path d="M49.1236 112.722C49.2233 112.623 49.3583 112.567 49.4991 112.567C49.6398 112.567 49.7749 112.623 49.8745 112.722L56.0299 118.878C56.0789 118.928 56.1376 118.969 56.2024 118.997C56.2672 119.024 56.3369 119.039 56.4075 119.04C56.478 119.04 56.548 119.027 56.6132 119C56.6785 118.973 56.7378 118.934 56.7877 118.884C56.8375 118.834 56.8769 118.775 56.9036 118.709C56.9303 118.644 56.9437 118.574 56.9431 118.504C56.9424 118.433 56.9277 118.363 56.8999 118.299C56.872 118.234 56.8315 118.175 56.7807 118.126L50.626 111.971C50.478 111.823 50.3023 111.705 50.109 111.625C49.9156 111.545 49.7084 111.504 49.4991 111.504C49.2898 111.504 49.0825 111.545 48.8892 111.625C48.6958 111.705 48.5201 111.823 48.3721 111.971L42.2167 118.126C42.166 118.175 42.1255 118.234 42.0977 118.299C42.0699 118.363 42.0553 118.433 42.0547 118.504C42.0541 118.574 42.0676 118.644 42.0943 118.709C42.1211 118.775 42.1606 118.834 42.2105 118.884C42.2604 118.934 42.3197 118.973 42.385 119C42.4503 119.027 42.5203 119.04 42.5908 119.039C42.6613 119.039 42.731 119.024 42.7958 118.996C42.8606 118.968 42.9192 118.928 42.9682 118.877L49.1236 112.722Z" fill="black"/>
<path d="M49.5 113.848L55.2793 119.627C55.3005 119.648 55.3218 119.668 55.3438 119.688V124.078C55.3438 124.811 54.7487 125.406 54.0156 125.406H51.625C51.4841 125.406 51.349 125.35 51.2493 125.251C51.1497 125.151 51.0938 125.016 51.0938 124.875V121.687C51.0938 121.547 51.0378 121.411 50.9381 121.312C50.8385 121.212 50.7034 121.156 50.5625 121.156H48.4375C48.2966 121.156 48.1615 121.212 48.0618 121.312C47.9622 121.411 47.9062 121.547 47.9062 121.687V124.875C47.9062 125.016 47.8503 125.151 47.7506 125.251C47.651 125.35 47.5159 125.406 47.375 125.406H44.9844C44.6321 125.406 44.2943 125.266 44.0452 125.017C43.7962 124.768 43.6562 124.43 43.6562 124.078V119.688C43.6783 119.668 43.6998 119.648 43.7207 119.627L49.5 113.848Z" fill="black"/>
<circle cx="61" cy="107" r="4" fill="#41AA5F"/>
<path d="M44.082 169.801V171.77M53.2695 169.801V171.77M40.8008 183.582V173.738C40.8008 173.216 41.0082 172.715 41.3774 172.346C41.7466 171.977 42.2474 171.77 42.7695 171.77H54.582C55.1042 171.77 55.6049 171.977 55.9741 172.346C56.3434 172.715 56.5508 173.216 56.5508 173.738V183.582M40.8008 183.582C40.8008 184.104 41.0082 184.605 41.3774 184.974C41.7466 185.343 42.2474 185.551 42.7695 185.551H54.582C55.1042 185.551 55.6049 185.343 55.9741 184.974C56.3434 184.605 56.5508 184.104 56.5508 183.582M40.8008 183.582V177.02C40.8008 176.497 41.0082 175.997 41.3774 175.627C41.7466 175.258 42.2474 175.051 42.7695 175.051H54.582C55.1042 175.051 55.6049 175.258 55.9741 175.627C56.3434 175.997 56.5508 176.497 56.5508 177.02V183.582M48.6758 178.332H48.6828V178.339H48.6758V178.332ZM48.6758 180.301H48.6828V180.308H48.6758V180.301ZM48.6758 182.27H48.6828V182.277H48.6758V182.27ZM46.707 180.301H46.714V180.308H46.707V180.301ZM46.707 182.27H46.714V182.277H46.707V182.27ZM44.7383 180.301H44.7453V180.308H44.7383V180.301ZM44.7383 182.27H44.7453V182.277H44.7383V182.27ZM50.6445 178.332H50.6515V178.339H50.6445V178.332ZM50.6445 180.301H50.6515V180.308H50.6445V180.301ZM50.6445 182.27H50.6515V182.277H50.6445V182.27ZM52.6133 178.332H52.6203V178.339H52.6133V178.332ZM52.6133 180.301H52.6203V180.308H52.6133V180.301Z" stroke="black" stroke-width="1.7" stroke-linecap="round" stroke-linejoin="round"/>
<path d="M55.7188 228.792V232.333C55.7188 233.245 55.0302 234.03 54.0808 234.15C52.2547 234.381 50.3918 234.5 48.5 234.5C46.6083 234.5 44.7454 234.381 42.9193 234.15C41.9699 234.03 41.2813 233.245 41.2813 232.333V228.792M55.7188 228.792C55.9266 228.62 56.0928 228.407 56.2061 228.168C56.3194 227.929 56.377 227.67 56.375 227.408V224.255C56.375 223.354 55.703 222.576 54.7677 222.443C53.7766 222.301 52.7805 222.194 51.7813 222.12M55.7188 228.792C55.549 228.929 55.3513 229.037 55.1299 229.108C52.9916 229.784 50.753 230.127 48.5 230.125C46.183 230.125 43.9544 229.767 41.8702 229.108C41.6543 229.04 41.4543 228.932 41.2813 228.792M41.2813 228.792C41.0735 228.62 40.9073 228.407 40.794 228.168C40.6807 227.929 40.6231 227.67 40.625 227.408V224.255C40.625 223.354 41.297 222.576 42.2324 222.443C43.2235 222.301 44.2196 222.194 45.2188 222.12M51.7813 222.12V221.375C51.7813 220.878 51.5739 220.401 51.2047 220.049C50.8355 219.698 50.3347 219.5 49.8125 219.5H47.1875C46.6654 219.5 46.1646 219.698 45.7954 220.049C45.4262 220.401 45.2188 220.878 45.2188 221.375V222.12M51.7813 222.12C49.5971 221.959 47.403 221.959 45.2188 222.12M48.5 227.625H48.507V227.632H48.5V227.625Z" stroke="black" stroke-width="1.7" stroke-linecap="round" stroke-linejoin="round"/>
<path d="M44.8679 270.219L46.2119 270.995M44.8679 270.219C44.6968 270.52 44.4678 270.784 44.1943 270.996C43.9207 271.209 43.6078 271.364 43.2737 271.455C42.9396 271.546 42.5909 271.57 42.2476 271.525C41.9043 271.48 41.5732 271.368 41.2734 271.195C40.9736 271.022 40.711 270.791 40.5007 270.516C40.2904 270.241 40.1366 269.928 40.0481 269.593C39.9596 269.258 39.9382 268.909 39.9851 268.566C40.032 268.223 40.1463 267.893 40.3214 267.594C40.672 266.996 41.2448 266.561 41.915 266.384C42.5851 266.207 43.2982 266.302 43.8985 266.649C44.4988 266.995 44.9376 267.565 45.1192 268.234C45.3009 268.903 45.2105 269.617 44.8679 270.219ZM46.2119 270.995C46.4954 271.159 46.7317 271.393 46.8978 271.675C47.0638 271.957 47.154 272.277 47.1595 272.605C47.1639 272.912 47.2068 273.213 47.282 273.501M46.2119 270.995L48.0293 272.045M47.282 273.501C47.2068 273.789 47.1639 274.089 47.1595 274.397C47.1539 274.725 47.0636 275.045 46.8975 275.326C46.7315 275.608 46.4953 275.842 46.2119 276.006M47.282 273.501C47.4221 272.967 47.6771 272.47 48.0293 272.045M48.0293 272.045C48.5013 271.474 49.1305 271.054 49.8388 270.838L54.4981 269.413C55.2036 269.198 55.9555 269.184 56.6681 269.375L57.3708 269.563L50.551 273.501M44.8679 276.782L46.2119 276.006M44.8679 276.782C45.043 277.08 45.1573 277.411 45.2042 277.754C45.251 278.097 45.2296 278.446 45.1412 278.78C45.0527 279.115 44.8989 279.429 44.6886 279.704C44.4783 279.979 44.2157 280.21 43.9159 280.383C43.6161 280.556 43.285 280.668 42.9417 280.712C42.5984 280.757 42.2497 280.733 41.9156 280.643C41.5815 280.552 41.2686 280.396 40.995 280.184C40.7214 279.972 40.4925 279.708 40.3214 279.407C39.9788 278.804 39.8884 278.091 40.0701 277.422C40.2517 276.753 40.6905 276.183 41.2908 275.836C41.8911 275.489 42.6042 275.394 43.2743 275.572C43.9445 275.749 44.5173 276.184 44.8679 276.782ZM46.2119 276.006L48.0293 274.957M48.0293 274.957C48.5013 275.527 49.1305 275.947 49.8388 276.163L54.499 277.589C55.2045 277.804 55.9564 277.817 56.669 277.626L57.3708 277.438L50.551 273.501M48.0293 274.957L50.551 273.501" stroke="black" stroke-width="1.7" stroke-linecap="round" stroke-linejoin="round"/>
<path d="M51.7823 319.188V315.25C51.7823 314.38 51.4366 313.545 50.8212 312.93C50.2059 312.314 49.3713 311.969 48.5011 311.969C47.6308 311.969 46.7962 312.314 46.1809 312.93C45.5655 313.545 45.2198 314.38 45.2198 315.25V319.188M55.1563 317.444L56.2614 327.944C56.3227 328.525 55.8677 329.031 55.2823 329.031H41.7198C41.5817 329.031 41.4452 329.002 41.319 328.946C41.1928 328.89 41.0799 328.808 40.9875 328.706C40.895 328.603 40.8252 328.482 40.7826 328.351C40.7399 328.22 40.7253 328.081 40.7398 327.944L41.8458 317.444C41.8713 317.202 41.9855 316.978 42.1663 316.815C42.3471 316.652 42.5817 316.562 42.8249 316.562H54.1772C54.6812 316.562 55.1038 316.943 55.1563 317.444ZM45.5479 319.188C45.5479 319.275 45.5134 319.358 45.4518 319.42C45.3903 319.481 45.3068 319.516 45.2198 319.516C45.1328 319.516 45.0493 319.481 44.9878 319.42C44.9263 319.358 44.8917 319.275 44.8917 319.188C44.8917 319.1 44.9263 319.017 44.9878 318.955C45.0493 318.894 45.1328 318.859 45.2198 318.859C45.3068 318.859 45.3903 318.894 45.4518 318.955C45.5134 319.017 45.5479 319.1 45.5479 319.188ZM52.1104 319.188C52.1104 319.275 52.0759 319.358 52.0143 319.42C51.9528 319.481 51.8693 319.516 51.7823 319.516C51.6953 319.516 51.6118 319.481 51.5503 319.42C51.4887 319.358 51.4542 319.275 51.4542 319.188C51.4542 319.1 51.4887 319.017 51.5503 318.955C51.6118 318.894 51.6953 318.859 51.7823 318.859C51.8693 318.859 51.9528 318.894 52.0143 318.955C52.0759 319.017 52.1104 319.1 52.1104 319.188Z" stroke="black" stroke-width="1.7" stroke-linecap="round" stroke-linejoin="round"/>
<path d="M100 109.375V120.625M105.625 115H94.375" stroke="black" stroke-width="1.5" stroke-linecap="round" stroke-linejoin="round"/>
<rect x="244.625" y="103" width="47.3721" height="24.814" rx="12.407" fill="#FF5B04" fill-opacity="0.1"/>
<path d="M260.04 115.099H262.77V112.369H263.81V115.099H266.54V116.139H263.81V118.882H262.77V116.139H260.04V115.099ZM270.52 115.138H269.584V114.293L272.249 111.732H268.024V110.601H273.861V111.628L271.287 114.085C272.886 114.28 274.095 115.359 274.095 117.049C274.095 118.947 272.665 120.156 270.754 120.156C268.908 120.156 267.582 119.025 267.582 117.075H268.843C268.843 118.297 269.597 119.012 270.78 119.012C272.002 119.012 272.795 118.232 272.795 117.023C272.795 115.892 272.015 115.138 270.52 115.138Z" fill="#FF5B04"/>
<path d="M120.368 120H119.144L122.312 111.324H123.62L126.8 120H125.564L124.784 117.84H121.136L120.368 120ZM122.816 113.196L121.496 116.82H124.436L123.104 113.196C123.044 113.028 122.984 112.824 122.96 112.692C122.936 112.812 122.876 113.016 122.816 113.196ZM129.891 120.144C128.187 120.144 127.155 118.872 127.155 117.084C127.155 115.284 128.199 113.964 129.939 113.964C130.839 113.964 131.595 114.36 131.991 115.08V111.168H133.107V120H132.099L132.003 118.932C131.619 119.736 130.827 120.144 129.891 120.144ZM130.119 119.124C131.271 119.124 131.979 118.272 131.979 117.048C131.979 115.848 131.271 114.984 130.119 114.984C128.967 114.984 128.295 115.848 128.295 117.048C128.295 118.26 128.967 119.124 130.119 119.124ZM137.086 120.144C135.382 120.144 134.35 118.872 134.35 117.084C134.35 115.284 135.394 113.964 137.134 113.964C138.034 113.964 138.79 114.36 139.186 115.08V111.168H140.302V120H139.294L139.198 118.932C138.814 119.736 138.022 120.144 137.086 120.144ZM137.314 119.124C138.466 119.124 139.174 118.272 139.174 117.048C139.174 115.848 138.466 114.984 137.314 114.984C136.162 114.984 135.49 115.848 135.49 117.048C135.49 118.26 136.162 119.124 137.314 119.124ZM149.003 120.132C146.531 120.132 144.887 118.356 144.887 115.668C144.887 112.992 146.579 111.18 149.063 111.18C151.019 111.18 152.519 112.344 152.843 114.12H151.583C151.259 112.992 150.287 112.308 149.027 112.308C147.275 112.308 146.123 113.628 146.123 115.656C146.123 117.684 147.275 119.004 149.027 119.004C150.299 119.004 151.307 118.32 151.631 117.252H152.879C152.507 118.98 150.959 120.132 149.003 120.132ZM153.745 117.06C153.745 115.248 155.041 113.976 156.805 113.976C158.557 113.976 159.853 115.248 159.853 117.06C159.853 118.872 158.557 120.144 156.805 120.144C155.041 120.144 153.745 118.872 153.745 117.06ZM154.885 117.06C154.885 118.284 155.665 119.136 156.805 119.136C157.933 119.136 158.725 118.284 158.725 117.06C158.725 115.836 157.933 114.984 156.805 114.984C155.665 114.984 154.885 115.836 154.885 117.06ZM162.229 120H161.101V114.132H162.121L162.241 115.032C162.613 114.36 163.357 113.964 164.185 113.964C165.733 113.964 166.441 114.912 166.441 116.412V120H165.313V116.664C165.313 115.476 164.761 114.996 163.897 114.996C162.841 114.996 162.229 115.752 162.229 116.892V120ZM169.66 120H168.532V115.08H167.38V114.132H168.532V112.296H169.66V114.132H170.812V115.08H169.66V120ZM173.47 120.144C172.21 120.144 171.466 119.436 171.466 118.368C171.466 117.288 172.27 116.616 173.65 116.508L175.498 116.364V116.196C175.498 115.212 174.91 114.864 174.118 114.864C173.17 114.864 172.63 115.284 172.63 115.992H171.646C171.646 114.768 172.654 113.964 174.166 113.964C175.618 113.964 176.602 114.732 176.602 116.316V120H175.642L175.522 119.052C175.222 119.724 174.418 120.144 173.47 120.144ZM173.794 119.268C174.862 119.268 175.51 118.572 175.51 117.468V117.156L174.01 117.276C173.014 117.372 172.606 117.756 172.606 118.332C172.606 118.956 173.062 119.268 173.794 119.268ZM177.78 117.072C177.78 115.236 178.944 113.964 180.66 113.964C182.136 113.964 183.168 114.804 183.372 116.112H182.244C182.052 115.368 181.452 114.972 180.696 114.972C179.628 114.972 178.896 115.788 178.896 117.06C178.896 118.32 179.58 119.136 180.648 119.136C181.452 119.136 182.052 118.716 182.256 118.02H183.384C183.156 119.292 182.064 120.144 180.648 120.144C178.92 120.144 177.78 118.92 177.78 117.072ZM186.23 120H185.102V115.08H183.95V114.132H185.102V112.296H186.23V114.132H187.382V115.08H186.23V120ZM187.914 118.296H188.994C188.994 118.896 189.45 119.256 190.194 119.256C190.986 119.256 191.442 118.932 191.442 118.392C191.442 117.996 191.25 117.756 190.638 117.6L189.606 117.36C188.562 117.108 188.07 116.592 188.07 115.728C188.07 114.648 188.982 113.964 190.278 113.964C191.562 113.964 192.402 114.684 192.426 115.8H191.346C191.322 115.212 190.926 114.84 190.242 114.84C189.534 114.84 189.138 115.152 189.138 115.692C189.138 116.088 189.426 116.352 190.002 116.496L191.034 116.748C192.03 116.988 192.522 117.444 192.522 118.32C192.522 119.436 191.562 120.144 190.17 120.144C188.79 120.144 187.914 119.412 187.914 118.296Z" fill="black"/>
<path d="M128.832 148.468C128.832 151.108 127.104 152.957 124.644 152.957C122.196 152.957 120.492 151.108 120.492 148.468C120.492 145.84 122.208 143.98 124.656 143.98C127.116 143.98 128.832 145.828 128.832 148.468ZM127.596 148.468C127.596 146.452 126.42 145.12 124.656 145.12C122.892 145.12 121.728 146.452 121.728 148.468C121.728 150.484 122.892 151.828 124.656 151.828C126.42 151.828 127.596 150.472 127.596 148.468ZM131.788 152.812L129.424 146.944H130.624L131.908 150.22C132.112 150.772 132.28 151.264 132.376 151.624C132.472 151.24 132.664 150.736 132.868 150.22L134.176 146.944H135.352L132.904 152.812H131.788ZM138.512 152.957C136.784 152.957 135.596 151.708 135.596 149.884C135.596 148.048 136.76 146.776 138.464 146.776C140.132 146.776 141.224 147.928 141.224 149.668V150.088L136.688 150.1C136.772 151.336 137.42 152.021 138.536 152.021C139.412 152.021 139.988 151.66 140.18 150.988H141.236C140.948 152.248 139.964 152.957 138.512 152.957ZM138.464 147.724C137.48 147.724 136.856 148.312 136.712 149.344H140.096C140.096 148.372 139.46 147.724 138.464 147.724ZM145.844 146.896V147.928H145.34C144.272 147.928 143.612 148.576 143.612 149.704V152.812H142.484V146.956H143.54L143.612 147.844C143.852 147.232 144.44 146.824 145.244 146.824C145.448 146.824 145.616 146.848 145.844 146.896ZM148.722 152.812L146.358 146.944H147.558L148.842 150.22C149.046 150.772 149.214 151.264 149.31 151.624C149.406 151.24 149.598 150.736 149.802 150.22L151.11 146.944H152.286L149.838 152.812H148.722ZM153.735 145.552C153.327 145.552 152.991 145.216 152.991 144.808C152.991 144.388 153.327 144.064 153.735 144.064C154.143 144.064 154.479 144.388 154.479 144.808C154.479 145.216 154.143 145.552 153.735 145.552ZM153.183 152.812V146.944H154.311V152.812H153.183ZM158.481 152.957C156.753 152.957 155.565 151.708 155.565 149.884C155.565 148.048 156.729 146.776 158.433 146.776C160.101 146.776 161.193 147.928 161.193 149.668V150.088L156.657 150.1C156.741 151.336 157.389 152.021 158.505 152.021C159.381 152.021 159.957 151.66 160.149 150.988H161.205C160.917 152.248 159.933 152.957 158.481 152.957ZM158.433 147.724C157.449 147.724 156.825 148.312 156.681 149.344H160.065C160.065 148.372 159.429 147.724 158.433 147.724ZM163.514 152.812L161.594 146.944H162.758L163.73 149.992C163.862 150.424 163.982 150.868 164.09 151.384C164.186 150.868 164.342 150.376 164.474 149.992L165.458 146.944H166.61L167.582 149.992C167.678 150.28 167.87 150.964 167.966 151.384C168.062 150.916 168.17 150.508 168.338 149.992L169.322 146.944H170.498L168.493 152.812H167.426L166.406 149.668C166.214 149.08 166.094 148.624 166.034 148.3C165.974 148.588 165.866 148.972 165.65 149.68L164.63 152.812H163.514Z" fill="black"/>
<path d="M95.8217 148.125L92.6875 149.812L95.8217 151.5M95.8217 148.125L100 150.375L104.178 148.125M95.8217 148.125L92.6875 146.438L100 142.5L107.312 146.438L104.178 148.125M95.8217 151.5L92.6875 153.188L100 157.125L107.312 153.188L104.178 151.5M95.8217 151.5L100 153.75L104.178 151.5M104.178 148.125L107.312 149.812L104.178 151.5" stroke="black" stroke-width="1.5" stroke-linecap="round" stroke-linejoin="round"/>
<path d="M96.8972 174.995C97.745 174.435 98.7288 174.114 99.7441 174.068C100.759 174.022 101.768 174.252 102.663 174.733C103.558 175.215 104.306 175.929 104.828 176.802C105.349 177.674 105.624 178.672 105.624 179.688C105.624 181.878 105.207 183.97 104.448 185.889M95.3057 176.586C94.6964 177.506 94.3723 178.585 94.3742 179.688C94.376 180.748 94.0769 181.786 93.5117 182.683M95.0035 185.352C96.4112 183.802 97.1898 181.782 97.1867 179.688C97.1867 178.942 97.483 178.227 98.0105 177.699C98.5379 177.172 99.2533 176.875 99.9992 176.875C100.745 176.875 101.461 177.172 101.988 177.699C102.515 178.227 102.812 178.942 102.812 179.688C102.812 180.083 102.796 180.475 102.764 180.862M99.9992 179.688C100.003 182.37 99.0454 184.965 97.2992 187M102.274 183.553C101.868 184.976 101.239 186.325 100.41 187.551" stroke="black" stroke-width="1.5" stroke-linecap="round" stroke-linejoin="round"/>
<path d="M123.608 183.945C121.136 183.945 119.492 182.168 119.492 179.48C119.492 176.804 121.184 174.992 123.668 174.992C125.624 174.992 127.124 176.156 127.448 177.932H126.188C125.864 176.804 124.892 176.12 123.632 176.12C121.88 176.12 120.728 177.44 120.728 179.468C120.728 181.496 121.88 182.816 123.632 182.816C124.904 182.816 125.912 182.132 126.236 181.064H127.484C127.112 182.792 125.564 183.945 123.608 183.945ZM129.803 183.8H128.675V174.98H129.803V178.844C130.175 178.208 130.883 177.776 131.795 177.776C133.295 177.776 134.015 178.724 134.015 180.224V183.812H132.887V180.476C132.887 179.288 132.323 178.808 131.483 178.808C130.391 178.808 129.803 179.6 129.803 180.608V183.8ZM138.11 183.957C136.382 183.957 135.194 182.708 135.194 180.884C135.194 179.048 136.358 177.776 138.062 177.776C139.73 177.776 140.822 178.928 140.822 180.668V181.088L136.286 181.1C136.37 182.336 137.018 183.021 138.134 183.021C139.01 183.021 139.586 182.66 139.778 181.988H140.834C140.546 183.248 139.562 183.957 138.11 183.957ZM138.062 178.724C137.078 178.724 136.454 179.312 136.31 180.344H139.694C139.694 179.372 139.058 178.724 138.062 178.724ZM141.698 180.884C141.698 179.048 142.862 177.776 144.578 177.776C146.054 177.776 147.086 178.616 147.29 179.924H146.162C145.97 179.18 145.37 178.784 144.614 178.784C143.546 178.784 142.814 179.6 142.814 180.872C142.814 182.132 143.498 182.948 144.566 182.948C145.37 182.948 145.97 182.528 146.174 181.832H147.302C147.074 183.104 145.982 183.957 144.566 183.957C142.838 183.957 141.698 182.732 141.698 180.884ZM149.644 183.812H148.516V174.98H149.644V180.704L152.248 177.944H153.664L151.42 180.285L153.652 183.812H152.356L150.64 181.1L149.644 182.144V183.812ZM153.822 181.136V180.128H157.482V181.136H153.822ZM159.602 176.552C159.194 176.552 158.858 176.216 158.858 175.808C158.858 175.388 159.194 175.064 159.602 175.064C160.01 175.064 160.346 175.388 160.346 175.808C160.346 176.216 160.01 176.552 159.602 176.552ZM159.05 183.812V177.944H160.178V183.812H159.05ZM162.944 183.812H161.816V177.944H162.836L162.956 178.844C163.328 178.172 164.072 177.776 164.9 177.776C166.448 177.776 167.156 178.724 167.156 180.224V183.812H166.028V180.476C166.028 179.288 165.476 178.808 164.612 178.808C163.556 178.808 162.944 179.564 162.944 180.704V183.812Z" fill="black"/>
<path d="M95.5014 210.812L93.4531 204.156C98.3528 205.581 102.973 207.832 107.115 210.812C102.973 213.793 98.3533 216.044 93.4539 217.469L95.5014 210.812ZM95.5014 210.812H101.126" stroke="black" stroke-width="1.5" stroke-linecap="round" stroke-linejoin="round"/>
<path d="M119.168 207.216V206.136H125.564V207.216H122.96V214.812H121.784V207.216H119.168ZM127.106 207.552C126.698 207.552 126.362 207.216 126.362 206.808C126.362 206.388 126.698 206.064 127.106 206.064C127.514 206.064 127.85 206.388 127.85 206.808C127.85 207.216 127.514 207.552 127.106 207.552ZM126.554 214.812V208.944H127.682V214.812H126.554ZM128.936 211.884C128.936 210.048 130.1 208.776 131.816 208.776C133.292 208.776 134.324 209.616 134.528 210.924H133.4C133.208 210.18 132.608 209.784 131.852 209.784C130.784 209.784 130.052 210.6 130.052 211.872C130.052 213.132 130.736 213.948 131.804 213.948C132.608 213.948 133.208 213.528 133.412 212.832H134.54C134.312 214.104 133.22 214.957 131.804 214.957C130.076 214.957 128.936 213.732 128.936 211.884ZM136.882 214.812H135.754V205.98H136.882V211.704L139.486 208.944H140.902L138.658 211.285L140.89 214.812H139.594L137.878 212.1L136.882 213.144V214.812ZM144.133 214.957C142.405 214.957 141.217 213.708 141.217 211.884C141.217 210.048 142.381 208.776 144.085 208.776C145.753 208.776 146.845 209.928 146.845 211.668V212.088L142.309 212.1C142.393 213.336 143.041 214.021 144.157 214.021C145.033 214.021 145.609 213.66 145.801 212.988H146.857C146.569 214.248 145.585 214.957 144.133 214.957ZM144.085 209.724C143.101 209.724 142.477 210.312 142.333 211.344H145.717C145.717 210.372 145.081 209.724 144.085 209.724ZM149.702 214.812H148.574V209.892H147.422V208.944H148.574V207.108H149.702V208.944H150.854V209.892H149.702V214.812ZM151.387 213.108H152.467C152.467 213.708 152.923 214.068 153.667 214.068C154.459 214.068 154.915 213.744 154.915 213.204C154.915 212.808 154.723 212.568 154.111 212.412L153.079 212.172C152.035 211.92 151.543 211.404 151.543 210.54C151.543 209.46 152.455 208.776 153.751 208.776C155.035 208.776 155.875 209.496 155.899 210.612H154.819C154.795 210.024 154.399 209.652 153.715 209.652C153.007 209.652 152.611 209.964 152.611 210.504C152.611 210.9 152.899 211.164 153.475 211.308L154.507 211.56C155.503 211.8 155.995 212.256 155.995 213.132C155.995 214.248 155.035 214.957 153.643 214.957C152.263 214.957 151.387 214.224 151.387 213.108Z" fill="black"/>
<path d="M100 289.375V300.625M105.625 295H94.375" stroke="black" stroke-width="1.5" stroke-linecap="round" stroke-linejoin="round"/>
<rect x="244.625" y="283" width="47.3721" height="24.814" rx="12.407" fill="black"/>
<path d="M260.04 295.099H262.77V292.369H263.81V295.099H266.54V296.139H263.81V298.882H262.77V296.139H260.04V295.099ZM270.52 295.138H269.584V294.293L272.249 291.732H268.024V290.601H273.861V291.628L271.287 294.085C272.886 294.28 274.095 295.359 274.095 297.049C274.095 298.947 272.665 300.156 270.754 300.156C268.908 300.156 267.582 299.025 267.582 297.075H268.843C268.843 298.297 269.597 299.012 270.78 299.012C272.002 299.012 272.795 298.232 272.795 297.023C272.795 295.892 272.015 295.138 270.52 295.138Z" fill="white"/>
<path d="M120.368 300H119.144L122.312 291.324H123.62L126.8 300H125.564L124.784 297.84H121.136L120.368 300ZM122.816 293.196L121.496 296.82H124.436L123.104 293.196C123.044 293.028 122.984 292.824 122.96 292.692C122.936 292.812 122.876 293.016 122.816 293.196ZM129.312 300H128.184V295.08H127.032V294.132H128.184V292.296H129.312V294.132H130.464V295.08H129.312V300ZM133.238 300H132.11V295.08H130.958V294.132H132.11V292.296H133.238V294.132H134.39V295.08H133.238V300ZM137.875 300.144C136.147 300.144 134.959 298.896 134.959 297.072C134.959 295.236 136.123 293.964 137.827 293.964C139.495 293.964 140.587 295.116 140.587 296.856V297.276L136.051 297.288C136.135 298.524 136.783 299.208 137.899 299.208C138.775 299.208 139.351 298.848 139.543 298.176H140.599C140.311 299.436 139.327 300.144 137.875 300.144ZM137.827 294.912C136.843 294.912 136.219 295.5 136.075 296.532H139.459C139.459 295.56 138.823 294.912 137.827 294.912ZM142.975 300H141.847V294.132H142.867L142.987 295.032C143.359 294.36 144.103 293.964 144.931 293.964C146.479 293.964 147.187 294.912 147.187 296.412V300H146.059V296.664C146.059 295.476 145.507 294.996 144.643 294.996C143.587 294.996 142.975 295.752 142.975 296.892V300ZM151.102 300.144C149.398 300.144 148.366 298.872 148.366 297.084C148.366 295.284 149.41 293.964 151.15 293.964C152.05 293.964 152.806 294.36 153.202 295.08V291.168H154.318V300H153.31L153.214 298.932C152.83 299.736 152.038 300.144 151.102 300.144ZM151.33 299.124C152.482 299.124 153.19 298.272 153.19 297.048C153.19 295.848 152.482 294.984 151.33 294.984C150.178 294.984 149.506 295.848 149.506 297.048C149.506 298.26 150.178 299.124 151.33 299.124ZM157.661 300.144C156.401 300.144 155.657 299.436 155.657 298.368C155.657 297.288 156.461 296.616 157.841 296.508L159.689 296.364V296.196C159.689 295.212 159.101 294.864 158.309 294.864C157.361 294.864 156.821 295.284 156.821 295.992H155.837C155.837 294.768 156.845 293.964 158.357 293.964C159.809 293.964 160.793 294.732 160.793 296.316V300H159.833L159.713 299.052C159.413 299.724 158.609 300.144 157.661 300.144ZM157.985 299.268C159.053 299.268 159.701 298.572 159.701 297.468V297.156L158.201 297.276C157.205 297.372 156.797 297.756 156.797 298.332C156.797 298.956 157.253 299.268 157.985 299.268ZM163.483 300H162.355V294.132H163.375L163.495 295.032C163.867 294.36 164.611 293.964 165.439 293.964C166.987 293.964 167.695 294.912 167.695 296.412V300H166.567V296.664C166.567 295.476 166.015 294.996 165.151 294.996C164.095 294.996 163.483 295.752 163.483 296.892V300ZM168.873 297.072C168.873 295.236 170.037 293.964 171.753 293.964C173.229 293.964 174.261 294.804 174.465 296.112H173.337C173.145 295.368 172.545 294.972 171.789 294.972C170.721 294.972 169.989 295.788 169.989 297.06C169.989 298.32 170.673 299.136 171.741 299.136C172.545 299.136 173.145 298.716 173.349 298.02H174.477C174.249 299.292 173.157 300.144 171.741 300.144C170.013 300.144 168.873 298.92 168.873 297.072ZM178.2 300.144C176.472 300.144 175.284 298.896 175.284 297.072C175.284 295.236 176.448 293.964 178.152 293.964C179.82 293.964 180.912 295.116 180.912 296.856V297.276L176.376 297.288C176.46 298.524 177.108 299.208 178.224 299.208C179.1 299.208 179.676 298.848 179.868 298.176H180.924C180.636 299.436 179.652 300.144 178.2 300.144ZM178.152 294.912C177.168 294.912 176.544 295.5 176.4 296.532H179.784C179.784 295.56 179.148 294.912 178.152 294.912Z" fill="black"/>
<path d="M126.3 332.812H121.008V324.136H126.3V325.216H122.184V327.928H125.892V328.972H122.184V331.72H126.3V332.812ZM128.94 332.812H127.812V326.944H128.832L128.952 327.844C129.324 327.172 130.068 326.776 130.896 326.776C132.444 326.776 133.152 327.724 133.152 329.224V332.812H132.024V329.476C132.024 328.288 131.472 327.808 130.608 327.808C129.552 327.808 128.94 328.564 128.94 329.704V332.812ZM134.342 329.729C134.342 328.072 135.41 326.776 137.114 326.776C138.062 326.776 138.794 327.208 139.166 327.94L139.25 326.944H140.258V332.572C140.258 334.421 139.118 335.597 137.318 335.597C135.722 335.597 134.63 334.697 134.414 333.208H135.542C135.686 334.073 136.334 334.576 137.318 334.576C138.422 334.576 139.142 333.857 139.142 332.74V331.564C138.758 332.248 137.99 332.656 137.066 332.656C135.398 332.656 134.342 331.372 134.342 329.729ZM135.47 329.704C135.47 330.808 136.154 331.672 137.258 331.672C138.398 331.672 139.094 330.856 139.094 329.704C139.094 328.576 138.422 327.76 137.27 327.76C136.142 327.76 135.47 328.624 135.47 329.704ZM143.602 332.957C142.342 332.957 141.598 332.248 141.598 331.18C141.598 330.1 142.402 329.428 143.782 329.32L145.63 329.176V329.008C145.63 328.024 145.042 327.676 144.25 327.676C143.302 327.676 142.762 328.096 142.762 328.804H141.778C141.778 327.58 142.786 326.776 144.298 326.776C145.75 326.776 146.734 327.544 146.734 329.128V332.812H145.774L145.654 331.864C145.354 332.536 144.55 332.957 143.602 332.957ZM143.926 332.08C144.994 332.08 145.642 331.384 145.642 330.28V329.968L144.142 330.088C143.146 330.184 142.738 330.568 142.738 331.144C142.738 331.768 143.194 332.08 143.926 332.08ZM147.924 329.729C147.924 328.072 148.992 326.776 150.696 326.776C151.644 326.776 152.376 327.208 152.748 327.94L152.832 326.944H153.84V332.572C153.84 334.421 152.7 335.597 150.9 335.597C149.304 335.597 148.212 334.697 147.996 333.208H149.124C149.268 334.073 149.916 334.576 150.9 334.576C152.004 334.576 152.724 333.857 152.724 332.74V331.564C152.34 332.248 151.572 332.656 150.648 332.656C148.98 332.656 147.924 331.372 147.924 329.729ZM149.052 329.704C149.052 330.808 149.736 331.672 150.84 331.672C151.98 331.672 152.676 330.856 152.676 329.704C152.676 328.576 152.004 327.76 150.852 327.76C149.724 327.76 149.052 328.624 149.052 329.704ZM158 332.957C156.272 332.957 155.084 331.708 155.084 329.884C155.084 328.048 156.248 326.776 157.952 326.776C159.62 326.776 160.712 327.928 160.712 329.668V330.088L156.176 330.1C156.26 331.336 156.908 332.021 158.024 332.021C158.9 332.021 159.476 331.66 159.668 330.988H160.724C160.436 332.248 159.452 332.957 158 332.957ZM157.952 327.724C156.968 327.724 156.344 328.312 156.2 329.344H159.584C159.584 328.372 158.948 327.724 157.952 327.724ZM163.1 332.812H161.972V326.944H162.98L163.088 327.712C163.388 327.16 164.012 326.776 164.84 326.776C165.752 326.776 166.4 327.232 166.7 327.964C166.976 327.232 167.684 326.776 168.596 326.776C169.94 326.776 170.756 327.616 170.756 328.972V332.812H169.652V329.248C169.652 328.324 169.136 327.796 168.344 327.796C167.492 327.796 166.928 328.396 166.928 329.332V332.812H165.812V329.236C165.812 328.312 165.308 327.808 164.516 327.808C163.664 327.808 163.1 328.396 163.1 329.332V332.812ZM174.852 332.957C173.124 332.957 171.936 331.708 171.936 329.884C171.936 328.048 173.1 326.776 174.804 326.776C176.472 326.776 177.564 327.928 177.564 329.668V330.088L173.028 330.1C173.112 331.336 173.76 332.021 174.876 332.021C175.752 332.021 176.328 331.66 176.52 330.988H177.576C177.288 332.248 176.304 332.957 174.852 332.957ZM174.804 327.724C173.82 327.724 173.196 328.312 173.052 329.344H176.436C176.436 328.372 175.8 327.724 174.804 327.724ZM179.952 332.812H178.824V326.944H179.844L179.964 327.844C180.336 327.172 181.08 326.776 181.908 326.776C183.456 326.776 184.164 327.724 184.164 329.224V332.812H183.036V329.476C183.036 328.288 182.484 327.808 181.62 327.808C180.564 327.808 179.952 328.564 179.952 329.704V332.812ZM187.382 332.812H186.254V327.892H185.102V326.944H186.254V325.108H187.382V326.944H188.534V327.892H187.382V332.812ZM194.196 332.812H193.02V324.136H194.196V327.868H198.492V324.136H199.668V332.812H198.492V328.96H194.196V332.812ZM204.02 332.957C202.292 332.957 201.104 331.708 201.104 329.884C201.104 328.048 202.268 326.776 203.972 326.776C205.64 326.776 206.732 327.928 206.732 329.668V330.088L202.196 330.1C202.28 331.336 202.928 332.021 204.044 332.021C204.92 332.021 205.496 331.66 205.688 330.988H206.744C206.456 332.248 205.472 332.957 204.02 332.957ZM203.972 327.724C202.988 327.724 202.364 328.312 202.22 329.344H205.604C205.604 328.372 204.968 327.724 203.972 327.724ZM209.649 332.957C208.389 332.957 207.645 332.248 207.645 331.18C207.645 330.1 208.449 329.428 209.829 329.32L211.677 329.176V329.008C211.677 328.024 211.089 327.676 210.297 327.676C209.349 327.676 208.809 328.096 208.809 328.804H207.825C207.825 327.58 208.833 326.776 210.345 326.776C211.797 326.776 212.781 327.544 212.781 329.128V332.812H211.821L211.701 331.864C211.401 332.536 210.597 332.957 209.649 332.957ZM209.973 332.08C211.041 332.08 211.689 331.384 211.689 330.28V329.968L210.189 330.088C209.193 330.184 208.785 330.568 208.785 331.144C208.785 331.768 209.241 332.08 209.973 332.08ZM215.906 332.812H214.778V327.892H213.626V326.944H214.778V325.108H215.906V326.944H217.058V327.892H215.906V332.812ZM219.198 332.812H218.07V326.944H219.078L219.186 327.712C219.486 327.16 220.11 326.776 220.938 326.776C221.85 326.776 222.498 327.232 222.798 327.964C223.074 327.232 223.782 326.776 224.694 326.776C226.038 326.776 226.854 327.616 226.854 328.972V332.812H225.75V329.248C225.75 328.324 225.234 327.796 224.442 327.796C223.59 327.796 223.026 328.396 223.026 329.332V332.812H221.91V329.236C221.91 328.312 221.406 327.808 220.614 327.808C219.762 327.808 219.198 328.396 219.198 329.332V332.812ZM230.134 332.957C228.874 332.957 228.13 332.248 228.13 331.18C228.13 330.1 228.934 329.428 230.314 329.32L232.162 329.176V329.008C232.162 328.024 231.574 327.676 230.782 327.676C229.834 327.676 229.294 328.096 229.294 328.804H228.31C228.31 327.58 229.318 326.776 230.83 326.776C232.282 326.776 233.266 327.544 233.266 329.128V332.812H232.306L232.186 331.864C231.886 332.536 231.082 332.957 230.134 332.957ZM230.458 332.08C231.526 332.08 232.174 331.384 232.174 330.28V329.968L230.674 330.088C229.678 330.184 229.27 330.568 229.27 331.144C229.27 331.768 229.726 332.08 230.458 332.08ZM234.828 335.441V326.944H235.848L235.932 328C236.328 327.196 237.12 326.776 238.056 326.776C239.736 326.776 240.78 328.036 240.78 329.836C240.78 331.624 239.796 332.969 238.056 332.969C237.12 332.969 236.34 332.572 235.956 331.852V335.441H234.828ZM235.968 329.884C235.968 331.084 236.664 331.948 237.816 331.948C238.968 331.948 239.652 331.084 239.652 329.884C239.652 328.672 238.968 327.808 237.816 327.808C236.664 327.808 235.968 328.66 235.968 329.884ZM241.543 331.108H242.623C242.623 331.708 243.079 332.068 243.823 332.068C244.615 332.068 245.071 331.744 245.071 331.204C245.071 330.808 244.879 330.568 244.267 330.412L243.235 330.172C242.191 329.92 241.699 329.404 241.699 328.54C241.699 327.46 242.611 326.776 243.907 326.776C245.191 326.776 246.031 327.496 246.055 328.612H244.975C244.951 328.024 244.555 327.652 243.871 327.652C243.163 327.652 242.767 327.964 242.767 328.504C242.767 328.9 243.055 329.164 243.631 329.308L244.663 329.56C245.659 329.8 246.151 330.256 246.151 331.132C246.151 332.248 245.191 332.957 243.799 332.957C242.419 332.957 241.543 332.224 241.543 331.108Z" fill="black"/>
<path d="M95.8217 328.125L92.6875 329.812L95.8217 331.5M95.8217 328.125L100 330.375L104.178 328.125M95.8217 328.125L92.6875 326.438L100 322.5L107.312 326.438L104.178 328.125M95.8217 331.5L92.6875 333.188L100 337.125L107.312 333.188L104.178 331.5M95.8217 331.5L100 333.75L104.178 331.5M104.178 328.125L107.312 329.812L104.178 331.5" stroke="black" stroke-width="1.5" stroke-linecap="round" stroke-linejoin="round"/>
<path d="M93.73 269.897C92.239 269.897 91.273 268.86 91.273 267.257C91.273 265.668 92.274 264.611 93.772 264.611C94.983 264.611 95.886 265.318 96.061 266.417H95.116C94.941 265.822 94.43 265.472 93.751 265.472C92.806 265.472 92.211 266.158 92.211 267.25C92.211 268.335 92.813 269.035 93.751 269.035C94.444 269.035 94.976 268.671 95.144 268.104H96.075C95.879 269.182 94.941 269.897 93.73 269.897ZM101.548 267.25C101.548 268.804 100.526 269.897 99.0555 269.897C97.5925 269.897 96.5845 268.811 96.5845 267.25C96.5845 265.697 97.5995 264.604 99.0625 264.604C100.526 264.604 101.548 265.689 101.548 267.25ZM100.603 267.25C100.603 266.158 100.001 265.465 99.0625 265.465C98.1245 265.465 97.5225 266.158 97.5225 267.25C97.5225 268.342 98.1245 269.035 99.0625 269.035C100.001 269.035 100.603 268.328 100.603 267.25ZM102.248 268.321V267.565H104.502V268.321H102.248ZM106.187 269.812L104.661 264.695H105.592L106.404 267.397C106.481 267.677 106.558 267.965 106.635 268.412C106.719 267.957 106.796 267.691 106.887 267.397L107.692 264.695H108.679L109.47 267.397C109.554 267.684 109.631 267.978 109.715 268.412C109.813 267.936 109.883 267.663 109.96 267.404L110.786 264.695H111.696L110.142 269.812H109.274L108.182 266.088L107.069 269.812H106.187ZM116.846 267.25C116.846 268.804 115.824 269.897 114.354 269.897C112.891 269.897 111.883 268.811 111.883 267.25C111.883 265.697 112.898 264.604 114.361 264.604C115.824 264.604 116.846 265.689 116.846 267.25ZM115.901 267.25C115.901 266.158 115.299 265.465 114.361 265.465C113.423 265.465 112.821 266.158 112.821 267.25C112.821 268.342 113.423 269.035 114.361 269.035C115.299 269.035 115.901 268.328 115.901 267.25ZM118.576 269.812H117.68V264.695H119.633C120.795 264.695 121.474 265.283 121.474 266.291C121.474 266.977 121.152 267.467 120.55 267.712L121.523 269.812H120.543L119.675 267.901H118.576V269.812ZM118.576 265.493V267.11H119.633C120.2 267.11 120.536 266.809 120.536 266.291C120.536 265.78 120.2 265.493 119.633 265.493H118.576ZM123.266 264.695V267.383L125.338 264.695H126.395L124.701 266.879L126.416 269.812H125.38L124.113 267.635L123.266 268.72V269.812H122.37V264.695H123.266ZM127.983 264.695V269.812H127.087V264.695H127.983ZM129.999 269.812H129.117V264.695H130.006L132.407 268.321V264.695H133.289V269.812H132.407L129.999 266.186V269.812ZM136.661 265.451C135.646 265.451 135.065 266.186 135.065 267.292C135.065 268.433 135.723 269.056 136.668 269.056C137.557 269.056 138.096 268.566 138.096 267.747V267.726H136.549V266.935H138.929V269.812H138.173L138.117 269.224C137.837 269.616 137.256 269.89 136.563 269.89C135.128 269.89 134.127 268.846 134.127 267.271C134.127 265.717 135.142 264.611 136.682 264.611C137.851 264.611 138.754 265.29 138.901 266.333H137.956C137.795 265.731 137.277 265.451 136.661 265.451Z" fill="black"/>
<rect x="357.5" y="23.5" width="147" height="33.4" rx="16.7" fill="white" stroke="#D4D4D4"/>
<path d="M378.002 42.6H379.858C379.874 43.288 380.386 43.72 381.282 43.72C382.194 43.72 382.69 43.352 382.69 42.776C382.69 42.376 382.482 42.088 381.778 41.928L380.354 41.592C378.93 41.272 378.242 40.6 378.242 39.336C378.242 37.784 379.554 36.856 381.378 36.856C383.154 36.856 384.354 37.88 384.37 39.416H382.514C382.498 38.744 382.05 38.312 381.298 38.312C380.53 38.312 380.082 38.664 380.082 39.256C380.082 39.704 380.434 39.992 381.106 40.152L382.53 40.488C383.858 40.792 384.53 41.4 384.53 42.616C384.53 44.216 383.17 45.208 381.218 45.208C379.25 45.208 378.002 44.152 378.002 42.6ZM388.912 45.208C386.56 45.208 384.912 43.496 384.912 41.048C384.912 38.568 386.528 36.856 388.848 36.856C391.216 36.856 392.72 38.44 392.72 40.904V41.496L386.768 41.512C386.912 42.904 387.648 43.608 388.944 43.608C390.016 43.608 390.72 43.192 390.944 42.44H392.752C392.416 44.168 390.976 45.208 388.912 45.208ZM388.864 38.456C387.712 38.456 387.008 39.08 386.816 40.264H390.784C390.784 39.176 390.032 38.456 388.864 38.456ZM395.916 45.208C394.236 45.208 393.212 44.232 393.212 42.744C393.212 41.288 394.268 40.376 396.14 40.232L398.508 40.056V39.88C398.508 38.808 397.868 38.376 396.876 38.376C395.724 38.376 395.084 38.856 395.084 39.688H393.42C393.42 37.976 394.828 36.856 396.972 36.856C399.1 36.856 400.412 38.008 400.412 40.2V45H398.7L398.556 43.832C398.22 44.648 397.148 45.208 395.916 45.208ZM396.556 43.736C397.756 43.736 398.524 43.016 398.524 41.8V41.384L396.876 41.512C395.66 41.624 395.196 42.024 395.196 42.664C395.196 43.384 395.676 43.736 396.556 43.736ZM406.65 37.064V38.872H405.93C404.522 38.872 403.642 39.624 403.642 41.16V45H401.69V37.112H403.53L403.642 38.264C403.978 37.48 404.73 36.952 405.786 36.952C406.058 36.952 406.33 36.984 406.65 37.064ZM406.601 41.032C406.601 38.584 408.217 36.856 410.553 36.856C412.713 36.856 414.185 38.056 414.393 39.96H412.441C412.217 39.064 411.561 38.6 410.633 38.6C409.385 38.6 408.553 39.544 408.553 41.032C408.553 42.52 409.321 43.448 410.569 43.448C411.545 43.448 412.233 42.968 412.441 42.104H414.409C414.169 43.944 412.633 45.208 410.569 45.208C408.169 45.208 406.601 43.544 406.601 41.032ZM417.174 45H415.222V33.096H417.19V38.12C417.686 37.352 418.614 36.856 419.75 36.856C421.702 36.856 422.726 38.088 422.726 40.136V45H420.774V40.6C420.774 39.272 420.118 38.632 419.126 38.632C417.894 38.632 417.174 39.496 417.174 40.68V45Z" fill="black"/>
<path d="M487.352 45.6444L484.223 42.5157C485.13 41.4268 485.582 40.0301 485.485 38.6161C485.389 37.2022 484.751 35.88 483.704 34.9244C482.658 33.9689 481.283 33.4536 479.866 33.4858C478.449 33.518 477.099 34.0952 476.097 35.0973C475.095 36.0994 474.518 37.4493 474.486 38.8661C474.454 40.283 474.969 41.6577 475.924 42.7043C476.88 43.7509 478.202 44.3888 479.616 44.4853C481.03 44.5819 482.427 44.1296 483.516 43.2226L486.644 46.3519C486.691 46.3984 486.746 46.4352 486.807 46.4604C486.867 46.4855 486.932 46.4985 486.998 46.4985C487.064 46.4985 487.129 46.4855 487.19 46.4604C487.25 46.4352 487.305 46.3984 487.352 46.3519C487.398 46.3055 487.435 46.2503 487.46 46.1896C487.486 46.1289 487.498 46.0639 487.498 45.9982C487.498 45.9325 487.486 45.8674 487.46 45.8067C487.435 45.746 487.398 45.6909 487.352 45.6444ZM475.498 38.9982C475.498 38.1082 475.762 37.2381 476.257 36.4981C476.751 35.7581 477.454 35.1813 478.276 34.8407C479.098 34.5001 480.003 34.411 480.876 34.5847C481.749 34.7583 482.551 35.1869 483.18 35.8162C483.81 36.4455 484.238 37.2474 484.412 38.1203C484.585 38.9932 484.496 39.898 484.156 40.7203C483.815 41.5425 483.238 42.2453 482.498 42.7398C481.758 43.2343 480.888 43.4982 479.998 43.4982C478.805 43.4969 477.661 43.0223 476.818 42.1787C475.974 41.3351 475.5 40.1913 475.498 38.9982Z" fill="black"/>
<rect x="345.5" y="95.5" width="1559" height="174" rx="38.5" fill="#F8F8F8" stroke="url(#paint0_linear_18829_11454)" stroke-width="3"/>
<rect x="389" y="128" width="110" height="110" rx="55" fill="#FAFAFA" stroke="#E5E5E5" stroke-width="2"/>
<path d="M434.82 174.52H430.02V171.07H438.51V193H434.82V174.52ZM456.043 192.97L440.833 193V190.12L448.003 184.06C450.973 181.54 451.963 180.1 451.963 178C451.963 175.51 450.613 174.1 448.303 174.1C445.903 174.1 444.403 175.78 444.373 178.6H440.563C440.593 173.8 443.653 170.68 448.303 170.68C452.983 170.68 455.893 173.35 455.893 177.79C455.893 180.85 454.213 183.16 450.883 186.01L446.923 189.4H456.043V192.97Z" fill="black"/>
</g>
<defs>
<filter id="filter0_d_18829_11454" x="-4" y="-3" width="337" height="1090" filterUnits="userSpaceOnUse" color-interpolation-filters="sRGB">
<feFlood flood-opacity="0" result="BackgroundImageFix"/>
<feColorMatrix in="SourceAlpha" type="matrix" values="0 0 0 0 0 0 0 0 0 0 0 0 0 0 0 0 0 0 127 0" result="hardAlpha"/>
<feOffset/>
<feGaussianBlur stdDeviation="2"/>
<feComposite in2="hardAlpha" operator="out"/>
<feColorMatrix type="matrix" values="0 0 0 0 0 0 0 0 0 0 0 0 0 0 0 0 0 0 0.25 0"/>
<feBlend mode="normal" in2="BackgroundImageFix" result="effect1_dropShadow_18829_11454"/>
<feBlend mode="normal" in="SourceGraphic" in2="effect1_dropShadow_18829_11454" result="shape"/>
</filter>
<linearGradient id="paint0_linear_18829_11454" x1="344" y1="182.5" x2="1906" y2="182.5" gradientUnits="userSpaceOnUse">
<stop stop-color="white"/>
<stop offset="1" stop-color="#D4D4D4"/>
</linearGradient>
<clipPath id="clip0_18829_11454">
<rect width="1920" height="1080" rx="30" fill="white"/>
</clipPath>
</defs>
</svg>
