<svg width="32" height="32" viewBox="0 0 32 32" fill="none" xmlns="http://www.w3.org/2000/svg">
<g clip-path="url(#clip0_19604_8442)">
<path d="M22.625 0H9.375C4.2 0 0 4.2 0 9.375V22.625C0 27.8 4.2 32 9.375 32H22.625C27.8 32 32 27.8 32 22.625V9.375C32 4.2 27.8 0 22.625 0ZM23.7369 20.8056H8.26313C7.42813 20.8056 7.00938 19.7956 7.6 19.205L15.3369 11.4681C15.7031 11.1019 16.2969 11.1019 16.6625 11.4681L24.3994 19.205C24.99 19.7956 24.5719 20.8056 23.7362 20.8056H23.7369Z" fill="white"/>
</g>
<defs>
<clipPath id="clip0_19604_8442">
<rect width="32" height="32" fill="white"/>
</clipPath>
</defs>
</svg>
