<svg width="101" height="24" viewBox="0 0 101 24" fill="none" xmlns="http://www.w3.org/2000/svg">
<g clip-path="url(#clip0_19604_4231)">
<path d="M49.8735 5.60547H47.2031V19.3553H49.8735V5.60547Z" fill="white"/>
<path d="M60.2237 14.4779C60.2237 16.3687 58.9964 17.2312 57.3709 17.2312C55.7455 17.2312 54.6508 16.3853 54.6508 14.5774V9.66797H51.9805V15.1911C51.9805 17.9444 53.7054 19.5532 56.5748 19.5532C58.3827 19.5532 59.3778 18.8898 60.0579 18.1434H60.2071L60.4394 19.3708H62.8941V9.66797H60.2237V14.4779Z" fill="white"/>
<path d="M86.429 17.4496C84.4719 17.4496 83.3772 16.5539 83.1948 15.2602H91.6702C91.7034 14.9948 91.7366 14.7129 91.72 14.4475C91.7034 10.9644 89.0662 9.48828 86.2466 9.48828C82.9791 9.48828 80.5078 11.4454 80.5078 14.5968C80.5078 17.5989 82.863 19.556 86.4124 19.556C89.3813 19.556 91.3551 18.2457 91.7531 16.2222H89.116C88.8174 17.0183 87.872 17.4496 86.429 17.4496ZM86.2632 11.5947C87.9715 11.5947 88.9501 12.3577 89.116 13.4192H83.2611C83.5099 12.3908 84.5051 11.5947 86.2632 11.5947Z" fill="white"/>
<path d="M96.2815 11.0612H96.1157L95.8669 9.66797H93.4453V19.3542H96.1157V15.1911C96.1157 13.3169 97.1938 12.272 99.2173 12.272C99.5821 12.272 99.947 12.3051 100.312 12.3715V9.66797H99.947C98.1392 9.66797 97.0445 10.0494 96.2815 11.0612Z" fill="white"/>
<path d="M42.8752 8.95585C42.8752 8.10996 43.4723 7.74507 44.2519 7.74507C44.6167 7.74507 44.9651 7.79483 45.3134 7.89434L45.7612 5.95378C45.1143 5.72157 44.4343 5.60547 43.7543 5.60547C41.7805 5.60547 40.1883 6.65039 40.1883 8.82316V9.66905H37.8828V11.7921H40.1883V19.3553H42.8752V11.7921H45.8939V9.66905H42.8752V8.95585Z" fill="white"/>
<path d="M68.813 6.94922H66.3251L66.1924 9.68592H64.0859V11.8089H66.1426V16.5857C66.1426 18.2111 66.9719 19.5712 69.4598 19.5712C70.1067 19.5712 70.7535 19.5049 71.3838 19.3556V17.3155C71.0189 17.3984 70.654 17.4482 70.2725 17.4482C68.9457 17.4482 68.813 16.6852 68.813 16.1047V11.7923H71.4667V9.66933H68.813V6.94922Z" fill="white"/>
<path d="M77.2104 6.94922H74.7391L74.6064 9.68592H72.5V11.8089H74.5567V16.5857C74.5567 18.2111 75.386 19.5712 77.8739 19.5712C78.5207 19.5712 79.151 19.4883 79.7813 19.3556V17.3155C79.4164 17.3984 79.0515 17.4482 78.67 17.4482C77.3431 17.4482 77.2104 16.6852 77.2104 16.1047V11.7923H79.8642V9.66933H77.1938V6.94922H77.2104Z" fill="white"/>
<path d="M0.675781 5.24153C0.675781 3.68244 1.1236 2.35556 2.08559 1.41016L3.7442 3.06876C1.90315 4.90981 3.51199 10.632 8.76977 15.8898C14.0275 21.1475 19.7497 22.7564 21.5908 20.9153L23.2494 22.5739C20.1312 25.6921 13.049 23.4696 7.11116 17.5484C2.99783 13.4184 0.675781 8.75777 0.675781 5.24153Z" fill="#009A46"/>
<path d="M11.1439 23.9994C9.58479 23.9994 8.2579 23.5516 7.3125 22.5896L8.9711 20.931C10.8122 22.772 16.5343 21.1632 21.7921 15.9054C27.0499 10.6476 28.6587 4.92544 26.8177 3.08439L28.4763 1.42578C31.5945 4.54396 29.3719 11.6262 23.4507 17.564C19.3208 21.6773 14.6435 23.9994 11.1439 23.9994Z" fill="#FF5805"/>
<path d="M23.9828 15.1913C22.971 12.2888 20.9143 9.18718 18.1942 6.46707C12.2564 0.529269 5.17419 -1.67667 2.05601 1.42492C1.84039 1.65712 2.03942 2.20446 2.48725 2.65228C2.93507 3.10011 3.499 3.29914 3.71461 3.08352C5.55567 1.24247 11.2778 2.85131 16.5356 8.10909C19.0235 10.597 20.8812 13.3835 21.7768 15.9543C22.5564 18.21 22.49 20.0345 21.5778 20.9467C21.3622 21.1623 21.5446 21.7096 22.009 22.1741C22.4734 22.6385 23.0208 22.8209 23.2364 22.6053C24.8286 20.9964 25.094 18.3593 23.9828 15.1913Z" fill="#F5AFCB"/>
<path d="M28.4621 1.42595C26.8698 -0.166312 24.2326 -0.431688 21.0647 0.66299C18.1621 1.67474 15.0606 3.73141 12.3404 6.45152C6.40264 12.3893 4.1967 19.4716 7.31488 22.5897C7.53049 22.8054 8.09442 22.6229 8.54224 22.1585C8.99007 21.6941 9.1891 21.1467 8.97348 20.9311C7.13243 19.0901 8.74128 13.3679 13.9991 8.11012C16.487 5.62222 19.2734 3.76458 21.8277 2.86893C24.0834 2.08939 25.9078 2.15573 26.8201 3.06797C27.0357 3.28358 27.583 3.10114 28.0474 2.63673C28.5118 2.17232 28.6943 1.65815 28.4621 1.42595Z" fill="#FF9B00"/>
</g>
<defs>
<clipPath id="clip0_19604_4231">
<rect width="152.044" height="24" fill="white" transform="translate(0.675781)"/>
</clipPath>
</defs>
</svg>
