<svg width="111" height="32" viewBox="0 0 111 32" fill="none" xmlns="http://www.w3.org/2000/svg">
<g clip-path="url(#clip0_18775_131700)">
<path d="M12.6974 5.1875V13.9354H4.66062V5.1875H0.847656V26.07H4.66165V17.6059H12.6963V26.07H16.5113V5.1875H12.6974ZM28.7192 19.3204C28.7192 20.1574 28.3867 20.9602 27.7949 21.552C27.203 22.1439 26.4003 22.4764 25.5633 22.4764C24.7262 22.4764 23.9235 22.1439 23.3317 21.552C22.7398 20.9602 22.4073 20.1574 22.4073 19.3204V10.3754H18.7894V19.3204C18.7894 21.1152 19.5024 22.8364 20.7715 24.1055C22.0405 25.3746 23.7618 26.0876 25.5565 26.0876C27.3513 26.0876 29.0725 25.3746 30.3416 24.1055C31.6107 22.8364 32.3237 21.1152 32.3237 19.3204V10.3754H28.7192V19.3204ZM55.5266 11.2971C55.5266 9.46289 56.7394 8.88176 58.0679 8.88176C59.1393 8.88176 60.5534 9.6972 61.4793 10.686L63.8482 7.89291C62.6653 6.29299 60.2665 5.1875 58.3022 5.1875C54.3767 5.1875 51.5381 7.48622 51.5381 11.2971C51.5381 18.3677 60.1797 16.1237 60.1797 20.0812C60.1797 21.3012 58.9948 22.3788 57.6385 22.3788C55.4987 22.3788 54.8051 21.3332 53.8224 20.2267L51.1924 22.961C52.8748 25.0254 54.9496 26.0741 57.4341 26.0741C61.1634 26.0741 64.163 23.7476 64.163 20.1101C64.163 12.2612 55.5204 14.7003 55.5204 11.2971M108.989 22.7339C106.851 22.7339 106.243 21.8091 106.243 20.3929V14.1223H109.567V10.9451H106.243V6.75335L102.574 8.39972V21.1722C102.574 24.4391 104.829 26.0855 107.919 26.0855C108.404 26.0938 108.889 26.0545 109.366 25.9699L110.261 22.6751C109.858 22.703 109.394 22.7308 108.989 22.7308M42.4909 10.4796C40.699 10.4796 39.4479 10.9998 38.2382 12.1858V5.3124H34.6152V18.0529C34.6152 22.8217 38.0627 26.0896 41.9376 26.0896C46.2357 26.0896 50.0167 22.7639 50.0167 18.2862C50.0167 13.8642 46.5371 10.4827 42.4909 10.4827M42.4682 22.4428C41.9282 22.4428 41.3935 22.3365 40.8947 22.1299C40.3958 21.9232 39.9425 21.6203 39.5607 21.2385C39.1789 20.8567 38.876 20.4034 38.6694 19.9046C38.4627 19.4057 38.3564 18.871 38.3564 18.3311C38.3564 17.7911 38.4627 17.2564 38.6694 16.7576C38.876 16.2587 39.1789 15.8054 39.5607 15.4236C39.9425 15.0418 40.3958 14.7389 40.8947 14.5323C41.3935 14.3256 41.9282 14.2193 42.4682 14.2193C43.5587 14.2193 44.6045 14.6525 45.3756 15.4236C46.1467 16.1947 46.58 17.2406 46.58 18.3311C46.58 19.4216 46.1467 20.4674 45.3756 21.2385C44.6045 22.0096 43.5587 22.4428 42.4682 22.4428ZM81.8385 18.0962C81.8385 13.6103 78.0658 10.2928 73.7594 10.2928C69.8856 10.2928 66.437 13.5597 66.437 18.3295V31.0772H70.06V24.1945C71.2677 25.3784 72.5208 25.9007 74.3106 25.9007C78.3568 25.9007 81.8385 22.5192 81.8385 18.0962ZM78.4074 18.0508C78.4074 19.1413 77.9742 20.1872 77.2031 20.9583C76.432 21.7294 75.3862 22.1626 74.2956 22.1626C73.2051 22.1626 72.1593 21.7294 71.3882 20.9583C70.6171 20.1872 70.1839 19.1413 70.1839 18.0508C70.1839 16.9603 70.6171 15.9145 71.3882 15.1434C72.1593 14.3722 73.2051 13.939 74.2956 13.939C75.3862 13.939 76.432 14.3722 77.2031 15.1434C77.9742 15.9145 78.4074 16.9603 78.4074 18.0508Z" fill="white"/>
<path d="M93.4723 10.066V6.42547C93.9534 6.20062 94.3607 5.84376 94.6469 5.39642C94.9331 4.94908 95.0863 4.42967 95.0887 3.89863V3.81502C95.0887 2.26672 93.8336 1.01156 92.2853 1.01156H92.2017C91.4581 1.01156 90.7451 1.30692 90.2193 1.83267C89.6936 2.35843 89.3982 3.0715 89.3982 3.81502V3.89863C89.4007 4.42967 89.5539 4.94908 89.84 5.39642C90.1262 5.84376 90.5335 6.20062 91.0146 6.42547V10.066C89.6319 10.2778 88.3297 10.8511 87.2399 11.7279L77.2554 3.95127C77.3266 3.69426 77.3637 3.43001 77.3679 3.16473C77.3691 2.53995 77.185 1.92883 76.8389 1.40869C76.4927 0.888545 76.0001 0.482741 75.4233 0.242608C74.8465 0.00247513 74.2114 -0.0611993 73.5984 0.0596392C72.9854 0.180478 72.4221 0.4804 71.9796 0.92147C71.537 1.36254 71.2353 1.92494 71.1124 2.53753C70.9896 3.15013 71.0512 3.78539 71.2894 4.36297C71.5277 4.94055 71.9319 5.4345 72.4509 5.78233C72.9699 6.13017 73.5804 6.31627 74.2052 6.31708C74.7518 6.31451 75.2882 6.16859 75.7607 5.89388L85.5925 13.5446C84.7092 14.8789 84.2485 16.4483 84.2702 18.0483C84.2919 19.6483 84.7951 21.2046 85.7143 22.5144L82.724 25.5057C82.4822 25.4284 82.2304 25.3874 81.9767 25.3839C81.4638 25.3844 80.9626 25.5368 80.5363 25.822C80.1101 26.1071 79.7779 26.5123 79.5818 26.9862C79.3858 27.4601 79.3346 27.9815 79.4347 28.4844C79.5349 28.9874 79.7819 29.4494 80.1445 29.8121C80.5072 30.1747 80.9692 30.4217 81.4722 30.5219C81.9751 30.622 82.4965 30.5708 82.9704 30.3747C83.4443 30.1787 83.8494 29.8465 84.1346 29.4203C84.4198 28.994 84.5722 28.4928 84.5726 27.9799C84.5693 27.7262 84.5283 27.4743 84.4508 27.2326L87.4091 24.2733C88.3738 25.016 89.4957 25.528 90.6888 25.7701C91.882 26.0122 93.1147 25.978 94.2925 25.6702C95.4704 25.3623 96.5622 24.7889 97.4842 23.9939C98.4062 23.1989 99.1341 22.2034 99.6119 21.0836C100.09 19.9639 100.305 18.7496 100.241 17.5339C100.177 16.3181 99.8359 15.1331 99.2432 14.0696C98.6506 13.0061 97.8224 12.0924 96.8221 11.3985C95.8218 10.7045 94.676 10.2487 93.4723 10.066ZM92.246 22.0396C91.6993 22.0547 91.1551 21.96 90.6456 21.7611C90.1361 21.5623 89.6716 21.2634 89.2796 20.882C88.8876 20.5006 88.576 20.0445 88.3632 19.5406C88.1504 19.0368 88.0408 18.4954 88.0408 17.9485C88.0408 17.4015 88.1504 16.8602 88.3632 16.3563C88.576 15.8525 88.8876 15.3964 89.2796 15.015C89.6716 14.6336 90.1361 14.3347 90.6456 14.1358C91.1551 13.937 91.6993 13.8423 92.246 13.8573C93.3057 13.8944 94.3096 14.3413 95.0463 15.1039C95.783 15.8665 96.195 16.8852 96.1955 17.9454C96.196 19.0057 95.7851 20.0249 95.0491 20.7882C94.3132 21.5515 93.3098 21.9994 92.2502 22.0375" fill="#FF7A59"/>
</g>
<defs>
<clipPath id="clip0_18775_131700">
<rect width="109.414" height="31.9983" fill="white" transform="translate(0.855469)"/>
</clipPath>
</defs>
</svg>
