<svg width="33" height="32" viewBox="0 0 33 32" fill="none" xmlns="http://www.w3.org/2000/svg">
<g clip-path="url(#clip0_18775_131698)">
<path d="M28.1954 17.6079C28.1954 17.8932 28.083 18.1668 27.8828 18.3684C27.6827 18.5701 27.4114 18.6835 27.1284 18.6835C26.8454 18.6835 26.574 18.5701 26.3739 18.3684C26.1737 18.1668 26.0613 17.8932 26.0613 17.6079V7.99962C26.0613 7.71439 26.1737 7.44083 26.3739 7.23914C26.574 7.03744 26.8454 6.92413 27.1284 6.92413C27.4114 6.92413 27.6827 7.03744 27.8828 7.23914C28.083 7.44083 28.1954 7.71439 28.1954 7.99962V17.6079ZM27.825 24.2654C27.684 24.4076 23.7158 27.7407 16.4406 27.7407C9.16565 27.7407 5.22391 24.4254 5.05635 24.2831C4.95077 24.1934 4.8638 24.0835 4.80042 23.9599C4.73706 23.8361 4.69853 23.7011 4.68705 23.5623C4.67558 23.4236 4.6914 23.284 4.73359 23.1513C4.77578 23.0189 4.84351 22.8959 4.9329 22.7898C5.11706 22.5751 5.378 22.4425 5.65883 22.4207C5.93966 22.3991 6.21758 22.4903 6.432 22.6743C6.49373 22.7188 10.0387 25.6163 16.4319 25.6163C22.8251 25.6163 26.3965 22.701 26.4317 22.6743C26.6485 22.4919 26.9274 22.4019 27.2089 22.4235C27.4906 22.4451 27.7527 22.5765 27.9397 22.7898C28.1196 23.0015 28.2094 23.2761 28.1895 23.554C28.1697 23.8319 28.0418 24.0908 27.8339 24.2742L27.825 24.2654ZM4.67717 7.99962C4.69311 7.71349 4.8208 7.44533 5.03231 7.25381C5.24381 7.06227 5.52194 6.96292 5.80591 6.97746C6.06915 6.99253 6.31755 7.10531 6.50318 7.29406C6.68881 7.48281 6.79853 7.73416 6.81118 7.99962V17.5902C6.81118 17.8754 6.69876 18.1489 6.49866 18.3506C6.29856 18.5524 6.02716 18.6657 5.74417 18.6657C5.46119 18.6657 5.18979 18.5524 4.98969 18.3506C4.78959 18.1489 4.67717 17.8754 4.67717 17.5902V7.99962ZM10.0298 5.86641C10.0458 5.58027 10.1735 5.31213 10.385 5.1206C10.5965 4.92906 10.8746 4.82971 11.1586 4.84425C11.4218 4.85932 11.6702 4.9721 11.8559 5.16085C12.0415 5.3496 12.1512 5.60094 12.1638 5.86641V20.0878C12.1638 20.3731 12.0514 20.6466 11.8513 20.8483C11.6512 21.05 11.3798 21.1632 11.0968 21.1632C10.8139 21.1632 10.5425 21.05 10.3424 20.8483C10.1423 20.6466 10.0298 20.3731 10.0298 20.0878V5.86641ZM15.409 5.33311C15.409 5.04787 15.5214 4.77432 15.7215 4.57263C15.9216 4.37093 16.1929 4.25761 16.476 4.25761C16.7589 4.25761 17.0304 4.37093 17.2305 4.57263C17.4306 4.77432 17.543 5.04787 17.543 5.33311V20.7989C17.543 21.0841 17.4306 21.3576 17.2305 21.5594C17.0304 21.7611 16.7589 21.8744 16.476 21.8744C16.1929 21.8744 15.9216 21.7611 15.7215 21.5594C15.5214 21.3576 15.409 21.0841 15.409 20.7989V5.33311ZM20.6999 5.86641C20.6999 5.58118 20.8123 5.30762 21.0125 5.10592C21.2125 4.90423 21.4839 4.79092 21.767 4.79092C22.0499 4.79092 22.3213 4.90423 22.5214 5.10592C22.7214 5.30762 22.8338 5.58118 22.8338 5.86641V20.0878C22.8338 20.3731 22.7214 20.6466 22.5214 20.8483C22.3213 21.05 22.0499 21.1632 21.767 21.1632C21.4839 21.1632 21.2125 21.05 21.0125 20.8483C20.8123 20.6466 20.6999 20.3731 20.6999 20.0878V5.86641ZM28.4865 8.87578e-05H4.43026C3.9061 -0.00342312 3.38639 0.097313 2.9009 0.296529C2.4154 0.495745 1.97366 0.78953 1.60097 1.16106C1.22828 1.53259 0.931947 1.97456 0.728951 2.46169C0.525954 2.94881 0.420277 3.47151 0.417969 3.99986V27.9985C0.420277 28.5268 0.525954 29.0496 0.728951 29.5367C0.931947 30.0237 1.22828 30.4658 1.60097 30.8373C1.97366 31.2087 2.4154 31.5026 2.9009 31.7018C3.38639 31.9011 3.9061 32.0017 4.43026 31.9982H28.4865C29.0098 32.0017 29.5288 31.9013 30.0137 31.7026C30.4987 31.504 30.9399 31.211 31.3126 30.8403C31.6852 30.4698 31.9817 30.0289 32.1852 29.5427C32.3887 29.0567 32.4952 28.5349 32.4987 28.0074V3.99986C32.4963 3.47227 32.391 2.9503 32.1886 2.46376C31.9861 1.97722 31.6905 1.53564 31.3187 1.16422C30.9471 0.792805 30.5063 0.498834 30.0218 0.299093C29.5373 0.0993508 29.0186 -0.00225088 28.4952 8.87578e-05" fill="white"/>
</g>
<defs>
<clipPath id="clip0_18775_131698">
<rect width="32.5597" height="31.9983" fill="white" transform="translate(0.296875)"/>
</clipPath>
</defs>
</svg>
