<svg width="30" height="30" viewBox="0 0 30 30" fill="none" xmlns="http://www.w3.org/2000/svg">
<path d="M23.0013 27H7.0013C6.64768 27 6.30854 27.1405 6.05849 27.3905C5.80844 27.6406 5.66797 27.9797 5.66797 28.3333C5.66797 28.687 5.80844 29.0261 6.05849 29.2761C6.30854 29.5262 6.64768 29.6667 7.0013 29.6667H23.0013C23.3549 29.6667 23.6941 29.5262 23.9441 29.2761C24.1942 29.0261 24.3346 28.687 24.3346 28.3333C24.3346 27.9797 24.1942 27.6406 23.9441 27.3905C23.6941 27.1405 23.3549 27 23.0013 27Z" fill="white"/>
<path d="M10.1987 14.1982C11.2296 14.1982 12.0654 13.3624 12.0654 12.3315C12.0654 11.3006 11.2296 10.4648 10.1987 10.4648C9.16777 10.4648 8.33203 11.3006 8.33203 12.3315C8.33203 13.3624 9.16777 14.1982 10.1987 14.1982Z" fill="white"/>
<path d="M22.9987 0.332031H6.9987C6.12322 0.332031 5.25631 0.50447 4.44747 0.839501C3.63864 1.17453 2.90371 1.6656 2.28465 2.28465C1.03441 3.5349 0.332031 5.23059 0.332031 6.9987V17.6654C0.332031 19.4335 1.03441 21.1292 2.28465 22.3794C2.90371 22.9985 3.63864 23.4895 4.44747 23.8246C5.25631 24.1596 6.12322 24.332 6.9987 24.332H22.9987C23.8742 24.332 24.7411 24.1596 25.5499 23.8246C26.3588 23.4895 27.0937 22.9985 27.7127 22.3794C28.3318 21.7604 28.8229 21.0254 29.1579 20.2166C29.4929 19.4078 29.6654 18.5408 29.6654 17.6654V6.9987C29.6654 6.12322 29.4929 5.25631 29.1579 4.44747C28.8229 3.63864 28.3318 2.90371 27.7127 2.28465C27.0937 1.6656 26.3588 1.17453 25.5499 0.839501C24.7411 0.50447 23.8742 0.332031 22.9987 0.332031ZM22.9987 13.6654H14.5054C14.1861 14.7028 13.5052 15.5913 12.5863 16.1693C11.6675 16.7473 10.5718 16.9764 9.49838 16.815C8.42496 16.6535 7.44509 16.1123 6.7369 15.2896C6.02871 14.467 5.63921 13.4175 5.63921 12.332C5.63921 11.2465 6.02871 10.1971 6.7369 9.37442C7.44509 8.55177 8.42496 8.01053 9.49838 7.84911C10.5718 7.68768 11.6675 7.91678 12.5863 8.49476C13.5052 9.07273 14.1861 9.96122 14.5054 10.9987H16.332V9.66537C16.332 9.31174 16.4725 8.9726 16.7226 8.72256C16.9726 8.47251 17.3117 8.33203 17.6654 8.33203C18.019 8.33203 18.3581 8.47251 18.6082 8.72256C18.8582 8.9726 18.9987 9.31174 18.9987 9.66537V10.9987H20.332V9.66537C20.332 9.31174 20.4725 8.9726 20.7226 8.72256C20.9726 8.47251 21.3117 8.33203 21.6654 8.33203C22.019 8.33203 22.3581 8.47251 22.6082 8.72256C22.8582 8.9726 22.9987 9.31174 22.9987 9.66537V10.9987C23.3523 10.9987 23.6915 11.1392 23.9415 11.3892C24.1916 11.6393 24.332 11.9784 24.332 12.332C24.332 12.6857 24.1916 13.0248 23.9415 13.2748C23.6915 13.5249 23.3523 13.6654 22.9987 13.6654Z" fill="white"/>
</svg>
