<svg width="32" height="32" viewBox="0 0 32 32" fill="none" xmlns="http://www.w3.org/2000/svg">
<path d="M27.9394 16.4664C27.9094 16.4664 27.8794 16.4664 27.8494 16.4564L25.4044 16.0064C25.1344 15.9564 24.9544 15.6964 25.0044 15.4264C25.0544 15.1564 25.3094 14.9764 25.5844 15.0264L27.3444 15.3514L27.1094 13.7014C27.0894 13.5414 27.1444 13.3814 27.2594 13.2714C27.3744 13.1614 27.5344 13.1114 27.6944 13.1414L30.1394 13.5914C30.4094 13.6414 30.5894 13.9014 30.5394 14.1714C30.4894 14.4414 30.2344 14.6214 29.9594 14.5714L28.1994 14.2464L28.4344 15.8964C28.4544 16.0564 28.3994 16.2164 28.2844 16.3264C28.1894 16.4164 28.0644 16.4664 27.9394 16.4664Z" fill="white"/>
<path d="M22.6698 10.1595C22.5098 10.1595 22.3548 10.0845 22.2598 9.94452C22.1048 9.71952 22.1598 9.40452 22.3848 9.24952L23.8598 8.22952L22.5298 7.22952C22.3998 7.13452 22.3248 6.97952 22.3298 6.81952C22.3298 6.65952 22.4148 6.50952 22.5448 6.41952L24.5898 5.00952C24.8198 4.85452 25.1298 4.90952 25.2848 5.13952C25.4398 5.36452 25.3848 5.67952 25.1598 5.83452L23.6848 6.85452L25.0148 7.85452C25.1448 7.94952 25.2198 8.10452 25.2148 8.26452C25.2148 8.42452 25.1298 8.57452 24.9998 8.66452L22.9548 10.0745C22.8698 10.1345 22.7698 10.1645 22.6698 10.1645V10.1595Z" fill="white"/>
<path d="M27.5973 24.3667C27.4373 24.3667 27.2823 24.2917 27.1873 24.1517L26.1673 22.6767L25.1673 24.0067C25.0723 24.1367 24.9073 24.2067 24.7573 24.2067C24.5973 24.2067 24.4473 24.1217 24.3573 23.9917L22.9473 21.9467C22.7923 21.7217 22.8473 21.4067 23.0723 21.2517C23.3023 21.0967 23.6123 21.1517 23.7673 21.3817L24.7873 22.8567L25.7873 21.5267C25.8823 21.3967 26.0323 21.3317 26.1973 21.3267C26.3573 21.3267 26.5073 21.4117 26.5973 21.5417L28.0073 23.5867C28.1623 23.8117 28.1073 24.1267 27.8823 24.2817C27.7973 24.3417 27.6973 24.3717 27.5973 24.3717V24.3667Z" fill="white"/>
<path d="M19.625 11.6289V20.3739C21.26 19.5939 22.395 17.9339 22.395 16.0039C22.395 14.0739 21.26 12.4089 19.625 11.6339V11.6289Z" fill="white"/>
<path d="M18.6259 4.11844V27.8784C18.6259 28.3534 18.1259 28.6634 17.7009 28.4534L6.21094 22.7084V9.28844L17.7009 3.54344C18.1259 3.33344 18.6259 3.64344 18.6259 4.11844Z" fill="white"/>
<path d="M5.21031 9.53906V22.4591H2.58031C2.23031 22.4591 1.94531 22.1741 1.94531 21.8191V10.1791C1.94531 9.82406 2.23031 9.53906 2.58031 9.53906H5.21031Z" fill="white"/>
</svg>
