<svg width="32" height="32" viewBox="0 0 32 32" fill="none" xmlns="http://www.w3.org/2000/svg">
<g clip-path="url(#clip0_19604_8359)">
<path d="M10.9125 17.0039C10.9125 16.4862 10.4928 16.0664 9.975 16.0664H4.6875C4.16975 16.0664 3.75 16.4862 3.75 17.0039V28.2497H10.9125V17.0039Z" fill="white"/>
<path d="M31.0625 30.125H1.875V0.9375C1.875 0.41975 1.45525 0 0.9375 0C0.41975 0 0 0.41975 0 0.9375V31.0625C0 31.5802 0.41975 32 0.9375 32H31.0625C31.5802 32 32 31.5802 32 31.0625C32 30.5448 31.5802 30.125 31.0625 30.125Z" fill="white"/>
<path d="M19.9516 2.94531C19.9516 2.42756 19.5318 2.00781 19.0141 2.00781H13.7266C13.2088 2.00781 12.7891 2.42756 12.7891 2.94531V28.2495H19.9516V2.94531Z" fill="white"/>
<path d="M28.9867 9.97656C28.9867 9.45881 28.567 9.03906 28.0492 9.03906H22.7617C22.244 9.03906 21.8242 9.45881 21.8242 9.97656V28.2516H28.9867V9.97656Z" fill="white"/>
</g>
<defs>
<clipPath id="clip0_19604_8359">
<rect width="32" height="32" fill="white"/>
</clipPath>
</defs>
</svg>
