<svg width="135" height="24" viewBox="0 0 135 24" fill="none" xmlns="http://www.w3.org/2000/svg">
<g clip-path="url(#clip0_19604_4187)">
<path d="M19.4266 2.30469H1.37856C0.802562 2.30469 0.274563 2.78469 0.274563 3.40869V5.42469C0.274563 6.04869 0.802562 6.57669 1.37856 6.57669H19.4266C20.0506 6.57669 20.5306 6.04869 20.5786 5.42469V3.45669C20.5786 2.78469 20.0506 2.30469 19.4266 2.30469ZM19.4266 13.6327H1.37856C1.09056 13.6327 0.802563 13.7767 0.562563 13.9687C0.370563 14.1607 0.226562 14.4487 0.226562 14.7847V16.8007C0.226562 17.4247 0.754562 17.9527 1.33056 17.9527H19.3786C20.0026 17.9527 20.4826 17.4727 20.5306 16.8007V14.7847C20.5786 14.1127 20.0506 13.6327 19.4266 13.6327ZM11.5546 19.2487H1.37856C1.09056 19.2487 0.802563 19.3447 0.610563 19.5847C0.418563 19.7767 0.274563 20.0647 0.274563 20.4007V22.4167C0.274563 23.0407 0.802562 23.5687 1.37856 23.5687H11.5066C12.1306 23.5687 12.6106 23.0407 12.6106 22.4167V20.3527C12.6586 19.7767 12.1786 19.2487 11.5546 19.2487ZM20.5786 7.96869H1.37856C1.09056 7.96869 0.802563 8.06469 0.610563 8.30469C0.418563 8.49669 0.274563 8.78469 0.274563 9.12069V11.1367C0.274563 11.7607 0.802562 12.2887 1.37856 12.2887H20.5306C21.1546 12.2887 21.6346 11.7607 21.6346 11.1367V9.12069C21.6826 8.44869 21.2026 7.96869 20.5786 7.96869Z" fill="#00C3F7"/>
<path d="M41.5558 6.864C40.9798 6.288 40.3558 5.856 39.5878 5.52C38.8678 5.184 38.0518 5.04 37.2358 5.04C36.4678 5.04 35.6998 5.184 34.9798 5.52C34.4998 5.76 34.0677 6.048 33.7317 6.432V6.096C33.7317 5.904 33.6358 5.76 33.5398 5.616C33.3958 5.472 33.2518 5.376 33.0598 5.376H30.5158C30.3238 5.376 30.1318 5.472 30.0358 5.616C29.8918 5.76 29.8438 5.904 29.8438 6.096V22.896C29.8438 23.088 29.9398 23.232 30.0358 23.376C30.1798 23.52 30.3238 23.568 30.5158 23.568H33.0598C33.2518 23.568 33.3958 23.52 33.5398 23.376C33.6838 23.232 33.7317 23.088 33.7317 22.896V17.136C34.1157 17.52 34.5478 17.856 35.0758 18C35.7478 18.24 36.4678 18.384 37.1398 18.384C37.9558 18.384 38.7717 18.24 39.4917 17.904C40.2597 17.616 40.9318 17.136 41.4598 16.56C42.0358 15.936 42.5158 15.216 42.8038 14.448C43.1398 13.584 43.3318 12.624 43.2838 11.712C43.2838 10.752 43.1398 9.84 42.8038 8.928C42.6118 8.208 42.1318 7.488 41.5558 6.864ZM39.2998 12.96C39.1558 13.296 38.9638 13.632 38.7238 13.92C38.1958 14.496 37.4758 14.784 36.7078 14.784C36.3238 14.784 35.9398 14.688 35.6038 14.544C35.2678 14.4 34.9317 14.16 34.6917 13.92C34.4517 13.632 34.2118 13.296 34.0678 12.96C33.7798 12.192 33.7798 11.376 34.0678 10.608C34.2118 10.272 34.4037 9.936 34.6917 9.648C34.9797 9.36 35.2678 9.168 35.6038 8.976C35.9398 8.832 36.3238 8.736 36.7078 8.736C37.0918 8.736 37.4758 8.832 37.8598 8.976C38.1958 9.12 38.4837 9.36 38.7717 9.6C39.0117 9.888 39.2038 10.176 39.3478 10.56C39.5878 11.328 39.5878 12.192 39.2998 12.96ZM57.1558 5.424H54.6117C54.4198 5.424 54.2758 5.52 54.1318 5.616C53.9878 5.76 53.9398 5.952 53.9398 6.144V6.432C53.6038 6.048 53.2198 5.76 52.7878 5.568C52.1158 5.232 51.3478 5.088 50.5798 5.088C48.9478 5.088 47.3638 5.76 46.2118 6.912C45.6357 7.536 45.1558 8.256 44.8198 9.024C44.4358 9.888 44.2917 10.848 44.2917 11.808C44.2917 12.768 44.4358 13.728 44.8198 14.592C45.1558 15.36 45.6357 16.08 46.2118 16.704C47.3638 17.856 48.8997 18.528 50.5317 18.528C51.2997 18.528 52.0678 18.384 52.7398 18.048C53.1718 17.808 53.6038 17.52 53.8918 17.184V17.52C53.8918 17.712 53.9878 17.856 54.0838 18C54.2278 18.096 54.3718 18.192 54.5638 18.192H57.1078C57.2998 18.192 57.4438 18.096 57.5878 18C57.7318 17.856 57.7798 17.712 57.7798 17.52V6.144C57.7798 5.952 57.7318 5.808 57.5878 5.664C57.4918 5.472 57.3478 5.424 57.1558 5.424ZM53.6998 12.912C53.5558 13.248 53.3638 13.584 53.1238 13.872C52.8838 14.112 52.5478 14.352 52.2118 14.544C51.4918 14.88 50.6758 14.88 49.9558 14.544C49.6198 14.4 49.2838 14.16 49.0438 13.872C48.8038 13.584 48.5638 13.248 48.4678 12.912C48.1798 12.144 48.1798 11.328 48.4678 10.56C48.6118 10.224 48.8038 9.888 49.0438 9.6C49.2838 9.312 49.6198 9.12 49.9558 8.928C50.6758 8.592 51.4918 8.592 52.2118 8.928C52.5478 9.072 52.8358 9.312 53.1238 9.552C53.3638 9.84 53.5558 10.128 53.6998 10.512C54.0358 11.328 54.0358 12.192 53.6998 12.912ZM82.4518 11.424C82.0678 11.088 81.6838 10.848 81.2038 10.656C80.7238 10.464 80.2438 10.32 79.7158 10.224L77.7958 9.84C77.3158 9.744 76.9318 9.6 76.7398 9.456C76.5958 9.36 76.4998 9.168 76.4998 8.976C76.4998 8.784 76.5958 8.592 76.8838 8.448C77.2198 8.256 77.6038 8.16 77.9398 8.208C78.4198 8.208 78.9478 8.304 79.3798 8.496C79.8118 8.688 80.2438 8.928 80.6278 9.168C81.2038 9.504 81.6838 9.456 82.0198 9.072L82.9318 8.016C83.1238 7.824 83.2198 7.584 83.2198 7.344C83.2198 7.104 83.0758 6.816 82.8838 6.672C82.4998 6.336 81.8758 5.952 81.0118 5.616C80.1958 5.28 79.1398 5.088 77.8918 5.088C77.1238 5.088 76.4038 5.184 75.6838 5.424C75.0598 5.616 74.4838 5.904 74.0038 6.288C73.5238 6.624 73.1878 7.104 72.8998 7.632C72.6598 8.16 72.5158 8.688 72.5158 9.264C72.5158 10.32 72.8518 11.184 73.4758 11.808C74.0998 12.432 74.9158 12.864 75.9718 13.056L77.9878 13.488C78.4198 13.584 78.8518 13.68 79.2838 13.872C79.5238 13.968 79.6678 14.16 79.6678 14.448C79.6678 14.688 79.5718 14.88 79.2838 15.072C79.0438 15.264 78.6118 15.36 78.0838 15.36C77.5558 15.36 76.9798 15.264 76.4998 15.024C76.0198 14.784 75.5878 14.496 75.2038 14.16C75.0118 14.016 74.8197 13.92 74.6278 13.824C74.3877 13.776 74.0998 13.824 73.8118 14.064L72.7077 14.928C72.4198 15.168 72.2278 15.552 72.3238 15.888C72.3718 16.272 72.7078 16.608 73.2358 17.04C74.6278 18 76.3078 18.48 77.9878 18.432C78.7557 18.432 79.5718 18.336 80.2918 18.096C80.9638 17.904 81.5397 17.616 82.0677 17.184C82.5477 16.8 82.9798 16.32 83.2198 15.792C83.5078 15.264 83.6038 14.688 83.6038 14.064C83.6038 13.536 83.5078 13.008 83.2677 12.48C83.0757 12.144 82.7878 11.76 82.4518 11.424ZM93.4918 14.496C93.3958 14.304 93.1558 14.16 92.9157 14.112C92.6758 14.112 92.4358 14.208 92.2438 14.304C91.9558 14.496 91.5718 14.64 91.1878 14.64C91.0918 14.64 90.9478 14.64 90.8038 14.592C90.6598 14.592 90.5638 14.496 90.4678 14.4C90.3717 14.304 90.2758 14.16 90.1798 14.016C90.0838 13.824 90.0358 13.584 90.0838 13.344V8.736H93.3957C93.5877 8.736 93.7798 8.64 93.9238 8.496C94.0677 8.352 94.1637 8.208 94.1637 8.016V6.048C94.1637 5.856 94.0677 5.664 93.9238 5.568C93.7798 5.424 93.6358 5.376 93.4438 5.376H90.1318V2.256C90.1318 2.064 90.0838 1.872 89.9398 1.776C89.7958 1.632 89.6518 1.584 89.4598 1.584H86.9158C86.7238 1.584 86.5318 1.632 86.4358 1.776C86.2918 1.92 86.2438 2.112 86.2438 2.256V5.424H84.8038C84.6118 5.424 84.4198 5.52 84.3238 5.664C84.1798 5.808 84.1318 5.952 84.1318 6.144V8.112C84.1318 8.304 84.1798 8.448 84.3238 8.592C84.4198 8.736 84.6118 8.832 84.8038 8.832H86.2438V14.304C86.2438 14.976 86.3397 15.6 86.6278 16.176C86.8677 16.656 87.2038 17.088 87.5877 17.424C87.9717 17.76 88.4518 18 88.9798 18.144C89.5078 18.288 90.0358 18.384 90.5638 18.384C91.2838 18.384 91.9557 18.288 92.6277 18.048C93.2517 17.856 93.8278 17.472 94.2598 17.04C94.5478 16.752 94.5957 16.272 94.3558 15.936L93.4918 14.496ZM107.412 5.424H104.868C104.676 5.424 104.532 5.52 104.388 5.616C104.244 5.76 104.196 5.952 104.196 6.144V6.432C103.86 6.048 103.476 5.76 103.044 5.568C102.372 5.232 101.604 5.088 100.836 5.088C99.2038 5.088 97.6677 5.76 96.5157 6.912C95.9398 7.536 95.4598 8.256 95.1237 9.024C94.7398 9.888 94.5957 10.848 94.5957 11.76C94.5957 12.72 94.7398 13.632 95.1237 14.544C95.4598 15.312 95.9398 16.032 96.5157 16.656C97.6677 17.808 99.2038 18.48 100.836 18.48C101.604 18.48 102.372 18.336 103.044 18C103.476 17.76 103.908 17.472 104.196 17.136V17.472C104.196 17.664 104.244 17.808 104.388 17.952C104.532 18.096 104.676 18.144 104.868 18.144H107.412C107.796 18.144 108.084 17.856 108.084 17.472V6.144C108.084 5.952 108.036 5.808 107.892 5.664C107.748 5.472 107.604 5.424 107.412 5.424ZM103.956 12.912C103.812 13.248 103.62 13.584 103.38 13.872C103.092 14.112 102.804 14.352 102.468 14.544C102.132 14.688 101.7 14.784 101.316 14.784C100.932 14.784 100.548 14.688 100.212 14.544C99.8758 14.4 99.5398 14.16 99.2998 13.872C99.0598 13.584 98.8198 13.248 98.7238 12.912C98.4358 12.144 98.4358 11.328 98.7238 10.56C98.8678 10.224 99.0598 9.888 99.2998 9.6C99.5878 9.312 99.8758 9.12 100.212 8.928C100.548 8.784 100.932 8.688 101.316 8.688C101.7 8.688 102.084 8.784 102.468 8.928C102.804 9.072 103.092 9.312 103.38 9.552C103.62 9.84 103.86 10.128 103.956 10.512C104.292 11.328 104.292 12.192 103.956 12.912ZM121.332 14.304L119.892 13.2C119.604 12.96 119.364 12.912 119.124 13.008C118.932 13.104 118.74 13.248 118.596 13.392C118.26 13.776 117.924 14.112 117.492 14.4C117.06 14.64 116.58 14.784 116.052 14.736C115.476 14.736 114.948 14.592 114.468 14.256C113.988 13.92 113.652 13.44 113.46 12.912C113.316 12.528 113.268 12.144 113.268 11.76C113.268 11.376 113.316 10.944 113.46 10.56C113.604 10.224 113.796 9.888 114.036 9.6C114.324 9.312 114.612 9.12 114.948 8.976C115.284 8.832 115.716 8.736 116.1 8.736C116.58 8.736 117.108 8.832 117.492 9.072C117.924 9.36 118.26 9.696 118.596 10.08C118.74 10.224 118.932 10.368 119.124 10.464C119.364 10.56 119.604 10.512 119.892 10.272L121.332 9.168C121.524 9.024 121.668 8.88 121.716 8.688C121.812 8.448 121.764 8.208 121.668 8.016C121.092 7.152 120.324 6.432 119.412 5.904C118.452 5.376 117.3 5.088 116.004 5.088C115.092 5.088 114.18 5.28 113.364 5.616C112.548 5.952 111.828 6.432 111.204 7.056C110.58 7.68 110.1 8.4 109.764 9.168C109.092 10.848 109.092 12.768 109.764 14.448C110.1 15.264 110.58 15.984 111.204 16.56C112.5 17.808 114.18 18.48 116.004 18.48C117.3 18.48 118.452 18.192 119.412 17.664C120.324 17.136 121.092 16.416 121.668 15.552C121.812 15.36 121.812 15.12 121.716 14.88C121.62 14.64 121.476 14.448 121.332 14.304ZM134.82 16.944L130.836 11.04L134.244 6.528C134.388 6.336 134.436 6.048 134.388 5.808C134.34 5.616 134.148 5.424 133.764 5.424H131.076C130.932 5.424 130.788 5.472 130.644 5.52C130.452 5.616 130.356 5.712 130.26 5.904L127.524 9.744H126.852V0.672C126.852 0.48 126.804 0.336 126.66 0.192C126.516 0.048 126.372 0 126.18 0H123.636C123.444 0 123.3 0.048 123.156 0.192C123.012 0.336 122.964 0.48 122.964 0.672V17.376C122.964 17.568 123.06 17.76 123.156 17.856C123.3 18 123.444 18.048 123.636 18.048H126.18C126.372 18.048 126.516 17.952 126.66 17.856C126.804 17.712 126.852 17.568 126.852 17.376V12.96H127.572L130.548 17.568C130.74 17.904 131.076 18.096 131.412 18.096H134.244C134.676 18.096 134.868 17.904 134.916 17.712C135.012 17.472 134.964 17.184 134.82 16.944ZM71.5558 5.424H68.7238C68.5318 5.424 68.2917 5.472 68.1478 5.664C68.0037 5.808 67.9077 5.952 67.9077 6.144L65.7958 13.92H65.2677L63.0117 6.096C62.9637 5.952 62.9158 5.76 62.7718 5.616C62.6278 5.472 62.4358 5.376 62.2438 5.376H59.3158C58.9318 5.376 58.6918 5.52 58.5958 5.76C58.4998 6 58.4998 6.24 58.5958 6.432L62.1958 17.424C62.2438 17.568 62.3398 17.76 62.4838 17.856C62.6278 18 62.8198 18.048 63.0117 18.048H64.5477L64.4038 18.384L64.0677 19.392C63.9717 19.68 63.7798 19.968 63.4917 20.208C63.2518 20.4 62.9637 20.496 62.6278 20.496C62.3877 20.496 62.0998 20.448 61.8598 20.352C61.6198 20.256 61.3798 20.112 61.1878 19.968C60.9958 19.824 60.7558 19.776 60.5638 19.776H60.5158C60.2278 19.776 59.9878 19.92 59.8918 20.16L58.9798 21.504C58.5958 22.08 58.8358 22.464 59.0758 22.656C59.5558 23.088 60.1318 23.424 60.7558 23.664C61.4278 23.904 62.1478 24 62.9158 24C64.2118 24 65.3158 23.664 66.1318 22.944C66.9958 22.176 67.6198 21.168 67.9558 20.064L72.1318 6.48C72.2278 6.24 72.2278 6 72.1318 5.76C72.1318 5.568 71.9398 5.424 71.5558 5.424Z" fill="white"/>
</g>
<defs>
<clipPath id="clip0_19604_4187">
<rect width="134.688" height="24" fill="white" transform="translate(0.277344)"/>
</clipPath>
</defs>
</svg>
