<svg width="268" height="220" viewBox="0 0 268 220" fill="none" xmlns="http://www.w3.org/2000/svg">
<g clip-path="url(#clip0_20023_52496)">
<rect width="268" height="220" rx="32" fill="#3A8C52"/>
<g clip-path="url(#clip1_20023_52496)">
<path d="M180.178 115.965L205.793 96.5365C207.663 95.4686 207.29 94.3391 205.748 93.8698C204.206 93.4005 204.509 92.2234 206.487 91.9563L217.816 90.4258L219.266 91.044C217.534 92.5219 215.201 97.1295 214.291 99.5907C212.739 100.083 212.374 98.3016 211.549 98.2568C211.123 97.1682 209.813 97.3776 208.313 98.5094L184.735 116.31C183.236 117.442 183.644 118.355 185.647 118.349L211.39 118.27C213.393 118.263 214.635 116.913 214.164 115.253L213.874 114.229C213.596 113.259 214.724 112.117 216.331 113.137L228.183 120.616L217.033 127.302C215.403 128.294 213.648 126.956 214.085 125.289L214.225 124.754C214.661 123.087 213.393 121.748 211.39 121.762L185.646 121.943C183.644 121.957 183.357 122.753 185.007 123.72L204.172 134.955C205.822 135.923 207.24 135.369 207.341 133.718C207.281 133.022 208.942 132.327 210.265 133.414L217.645 144.386L216.285 144.559L202.446 142.324C200.477 142.013 200.451 140.726 201.644 140.235L201.9 140.159C204.107 139.644 204.41 138.948 202.746 137.892C195.476 133.671 188.735 129.372 180.749 125.253C179.12 124.441 175.04 123.746 173.826 123.737C140.594 120.155 59.2021 130.044 0 156.656V150.207C57.862 127.694 153.624 119.408 173.331 117.901C175.326 117.749 178.67 117.088 180.178 115.965Z" fill="#007B4E"/>
<path d="M181.125 116.225L207.208 96.7939C208.717 95.6705 208.69 94.3786 207.148 93.9093C205.606 93.4395 205.959 92.8425 207.937 92.5754L219.265 91.0449L215.503 98.2C214.683 99.7585 213.673 100.139 213.248 99.0501C212.822 97.9615 211.262 97.9968 209.763 99.1285L186.184 116.93C184.685 118.062 185.093 118.974 187.096 118.969L212.84 118.889C214.842 118.883 216.084 117.533 215.613 115.873L215.323 114.849C214.852 113.189 215.773 112.67 217.379 113.691L228.34 120.656L217.695 127.132C216.065 128.124 215.097 127.577 215.534 125.909L215.674 125.374C216.111 123.707 214.842 122.368 212.839 122.382L187.095 122.563C185.093 122.577 184.807 123.373 186.456 124.34L205.621 135.574C207.271 136.543 208.69 135.988 208.79 134.337C208.89 132.687 209.772 132.553 210.76 134.038L217.643 144.387L203.231 142.115C201.261 141.804 201.2 141.102 203.094 140.546L203.349 140.47C205.243 139.914 205.425 138.699 203.756 137.755L182.141 125.533C180.472 124.589 177.599 124.134 175.523 123.902C143.126 120.41 54.3407 133.868 0 157.461V151.399C57.6979 128.454 154.909 120.042 174.782 118.522C176.777 118.369 179.617 117.348 181.125 116.225Z" fill="url(#paint0_linear_20023_52496)"/>
<path opacity="0.05" d="M-0.255761 151.431C5.18072 149.34 9.8808 147.659 14.5361 146.14C31.8703 140.482 53.2085 135.338 77.9572 130.848C121.471 122.953 163.069 119.417 174.782 118.522C176.786 118.368 179.631 117.338 181.125 116.224L207.209 96.7939C207.927 96.2591 208.322 95.6677 208.322 95.129C208.322 94.5813 207.894 94.1367 207.147 93.9093C206.709 93.776 206.187 93.5593 206.187 93.2849C206.187 92.9842 206.825 92.7255 207.937 92.5754L219.265 91.0449L215.502 98.2C215.006 99.142 214.417 99.6913 213.928 99.67C213.725 99.6616 213.442 99.5474 213.246 99.0501C213.094 98.657 212.786 98.3977 212.358 98.2992C211.638 98.1345 210.668 98.4448 209.762 99.1285L186.183 116.93C185.311 117.588 185.054 118.222 185.498 118.598C185.786 118.843 186.338 118.971 187.095 118.969L212.839 118.889C214.504 118.884 215.712 117.906 215.712 116.564C215.712 116.338 215.679 116.106 215.612 115.873L215.322 114.849C215.084 114.011 215.201 113.419 215.637 113.233C216.029 113.065 216.648 113.227 217.378 113.691L228.339 120.656L217.694 127.132C216.952 127.583 216.316 127.732 215.905 127.551C215.45 127.351 215.312 126.752 215.533 125.91L215.673 125.375C215.905 124.488 215.647 123.632 214.983 123.071C214.452 122.621 213.689 122.376 212.839 122.383L187.094 122.563C186.024 122.571 185.384 122.817 185.384 123.221C185.384 123.537 185.765 123.935 186.456 124.34L205.62 135.575C206.437 136.054 207.219 136.178 207.823 135.924C208.399 135.681 208.742 135.118 208.79 134.338C208.838 133.558 209.06 133.089 209.419 133.017C209.795 132.941 210.272 133.304 210.761 134.039L217.644 144.388L203.231 142.115C202.252 141.961 201.713 141.707 201.713 141.401C201.713 141.111 202.203 140.808 203.094 140.547L203.35 140.471C204.333 140.183 204.898 139.696 204.898 139.137C204.898 138.662 204.492 138.172 203.756 137.756L182.141 125.534C180.836 124.797 178.609 124.248 175.523 123.903C155.023 121.694 112.562 126.35 72.2648 135.226C52.7331 139.528 24.3232 146.864 -0.100641 157.383L-0.363281 157.497V151.472L-0.255761 151.431ZM72.1752 134.925C112.513 126.04 155.029 121.381 175.571 123.595C178.713 123.947 180.992 124.512 182.343 125.275L203.958 137.497C204.799 137.973 205.261 138.555 205.261 139.136C205.261 139.835 204.608 140.429 203.469 140.763L203.214 140.838C202.289 141.109 202.082 141.351 202.077 141.396C202.09 141.445 202.339 141.659 203.299 141.811L216.947 143.963L210.448 134.191C209.939 133.425 209.588 133.3 209.506 133.317C209.444 133.329 209.204 133.541 209.155 134.354C209.1 135.25 208.685 135.907 207.986 136.201C207.259 136.506 206.347 136.375 205.418 135.83L186.254 124.595C185.438 124.117 185.025 123.654 185.025 123.221C185.025 122.935 185.226 122.267 187.094 122.254L212.839 122.073C213.787 122.066 214.64 122.343 215.241 122.851C215.994 123.487 216.29 124.452 216.03 125.442L215.89 125.977C215.826 126.221 215.794 126.441 215.794 126.632C215.794 126.827 215.83 127.168 216.074 127.276C216.347 127.396 216.888 127.244 217.486 126.879L227.727 120.65L217.164 113.938C216.462 113.492 216 113.424 215.802 113.508C215.596 113.597 215.565 113.902 215.565 114.075C215.565 114.275 215.602 114.511 215.677 114.775L215.967 115.799C216.041 116.056 216.077 116.312 216.077 116.562C216.077 118.083 214.716 119.191 212.843 119.197L187.099 119.277C186.244 119.28 185.603 119.12 185.245 118.816C185.032 118.636 184.919 118.407 184.919 118.154C184.919 117.708 185.274 117.204 185.946 116.697L209.524 98.8961C210.521 98.1429 211.617 97.808 212.454 97.9996C213.005 98.1256 213.399 98.4548 213.593 98.951C213.692 99.2019 213.824 99.3548 213.948 99.3604C214.163 99.3693 214.667 99.0339 215.173 98.0724L218.662 91.4386L207.995 92.8795C206.915 93.0256 206.627 93.2267 206.563 93.2866C206.606 93.3331 206.762 93.4619 207.27 93.6164C208.17 93.8903 208.686 94.4413 208.686 95.1273C208.686 95.7568 208.246 96.4304 207.448 97.0252L181.365 116.456C179.821 117.606 176.883 118.67 174.815 118.828C163.107 119.724 121.528 123.258 78.0339 131.148C53.3032 135.635 31.984 140.776 14.6666 146.427C10.0482 147.933 5.38568 149.601 0.0012787 151.67V156.992C24.3932 146.522 52.6961 139.216 72.1752 134.925Z" fill="#E3E3E3"/>
<path d="M25.5399 181.578C27.3666 181.42 29.2185 181.328 31.0867 181.312C31.5582 181.31 32.0096 181.304 32.5024 181.319L34.2193 181.455C34.5257 181.484 34.7631 181.489 35.0308 181.504L35.8165 181.546L37.3951 181.645C41.6181 181.933 45.9396 182.414 50.3115 183.068C54.6845 183.723 59.1069 184.551 63.5381 185.523C64.6458 185.767 65.7541 186.018 66.8623 186.279C67.9739 186.539 69.0424 186.797 70.1349 187.091C72.3105 187.673 74.4856 188.338 76.6449 189.055C80.967 190.487 85.2331 192.122 89.4219 193.674C93.6107 195.228 97.729 196.693 101.748 197.839L102.501 198.051C102.744 198.115 102.98 198.183 103.218 198.239L104.686 198.6C105.676 198.834 106.663 199.053 107.652 199.254C109.63 199.655 111.605 199.989 113.571 200.272C117.505 200.835 121.404 201.186 125.219 201.405C132.85 201.838 140.153 201.753 146.846 201.528C153.541 201.296 159.635 200.91 164.881 200.565L166.808 200.437C167.427 200.395 168.067 200.355 168.572 200.307C169.64 200.217 170.676 200.123 171.645 200.025C173.59 199.828 175.311 199.63 176.779 199.449L179.244 199.14C181.036 198.912 184.05 198.067 185.334 196.843C192.572 189.834 199.539 182.513 208.018 175.242C209.929 174.001 209.394 172.912 207.644 172.595C205.914 172.279 206.083 171.078 208.225 170.619C212.33 169.746 216.702 168.897 221.336 168.139L223.185 168.666C222.145 169.453 221.007 171.039 220.044 172.742C219.079 174.447 218.29 176.271 217.878 177.533C216.136 178.144 215.555 176.401 214.607 176.426C214.012 175.377 212.535 175.7 211.01 176.966C203.012 183.603 196.339 190.337 189.617 196.857C188.335 198.1 188.811 198.98 190.716 198.813C198.878 198.091 207.451 197.088 216.501 196.374C218.609 196.209 219.824 194.778 219.167 193.157L218.758 192.158C218.363 191.212 219.489 189.985 221.348 190.898C225.905 193.128 230.432 195.46 234.785 197.951C230.695 200.185 226.868 202.548 223.216 204.988C221.622 206.07 219.715 204.861 220.004 203.168L220.101 202.625C220.408 200.933 218.952 199.681 216.863 199.853C207.936 200.591 199.387 201.625 191.136 202.39C189.216 202.565 189.026 203.379 190.728 204.21C197.331 207.418 204.293 210.455 211.089 213.599C212.843 214.41 214.173 213.739 214.081 212.089C213.936 211.401 215.517 210.566 216.952 211.546C219.794 214.995 222.537 218.477 225.107 222.002L223.847 222.249C219.462 221.761 214.94 221.397 210.326 221.082C208.356 220.956 208.158 219.681 209.269 219.081L209.511 218.982C211.614 218.265 211.826 217.548 210.053 216.65C202.348 213.122 194.899 209.598 186.787 206.062C185.125 205.375 181.199 204.913 180.065 204.946C179.082 204.88 178.061 204.824 177.006 204.771C174.827 204.657 172.497 204.573 170.038 204.48L166.141 204.338C164.745 204.293 163.313 204.256 161.847 204.226C155.984 204.101 149.584 204.089 142.786 203.99C135.988 203.884 128.789 203.703 121.324 203.079C117.592 202.762 113.79 202.334 109.946 201.706C108.025 201.391 106.09 201.029 104.15 200.601C103.178 200.385 102.203 200.162 101.256 199.917C100.275 199.662 99.2913 199.386 98.3007 199.101C90.3812 196.825 82.1727 193.602 73.8903 191.312C71.8205 190.743 69.7514 190.229 67.6917 189.808C65.6986 189.417 63.4973 189.019 61.3564 188.659C57.055 187.942 52.7447 187.371 48.4618 186.971C44.1784 186.571 39.9218 186.341 35.7336 186.302C34.6864 186.293 33.6437 186.294 32.6054 186.309C32.34 186.311 32.1014 186.322 31.8141 186.316L30.9019 186.281C30.3066 186.263 29.6878 186.223 29.293 186.286C27.515 186.45 25.7393 186.684 23.9741 186.982C16.912 188.175 10.0307 190.354 3.65679 193.197C2.41807 193.739 1.20399 194.311 0.00390625 194.903V188.359C1.68111 187.577 3.43391 186.848 5.25559 186.175C11.3439 183.879 18.2285 182.218 25.5399 181.578Z" fill="#002A4C"/>
<path d="M24.6338 182.679C26.4079 182.494 28.2077 182.37 30.0238 182.32C30.478 182.307 30.9327 182.284 31.3891 182.281L31.7313 182.265H31.9043L32.1121 182.295L32.9521 182.365L33.8223 182.437C34.1118 182.459 34.3448 182.464 34.6097 182.478L36.1592 182.559C40.3037 182.795 44.553 183.224 48.86 183.825C53.167 184.427 57.5316 185.202 61.9114 186.123C63.0061 186.354 64.1026 186.593 65.1985 186.841C66.295 187.092 67.3954 187.344 68.4454 187.601C70.5824 188.133 72.7289 188.752 74.8647 189.431C83.421 192.154 91.8327 195.789 99.9589 198.205C100.966 198.506 102.005 198.811 102.952 199.043C103.942 199.295 104.944 199.533 105.941 199.749C107.936 200.185 109.931 200.55 111.917 200.859C115.889 201.476 119.827 201.868 123.685 202.119C131.404 202.615 138.804 202.56 145.625 202.346C152.447 202.124 158.696 201.732 164.137 201.371L168.048 201.102C169.16 201.009 170.261 200.909 171.288 200.807C173.353 200.602 175.204 200.386 176.812 200.185C178.288 200.004 179.561 199.836 180.605 199.695C182.417 199.453 184.955 198.264 186.238 197.038C193.637 189.994 200.807 182.636 209.596 175.362C211.129 174.103 210.96 172.819 209.188 172.498C207.44 172.181 207.739 171.551 209.911 171.096C214.077 170.231 218.494 169.397 223.186 168.666C221.772 171.121 220.435 173.585 219.166 176.054C218.338 177.669 217.219 178.125 216.628 177.074C216.036 176.023 214.238 176.187 212.692 177.45C204.571 184.065 197.822 190.81 191.062 197.356C189.775 198.604 190.258 199.482 192.176 199.308C200.398 198.557 209.017 197.554 218.097 196.878C220.21 196.721 221.44 195.299 220.791 193.672L220.39 192.671C219.731 191.049 220.694 190.463 222.55 191.384C226.761 193.478 230.938 195.668 234.961 197.989C231.053 200.148 227.387 202.428 223.887 204.778C222.284 205.858 221.255 205.379 221.559 203.688L221.659 203.145C221.978 201.456 220.531 200.195 218.438 200.358C209.492 201.058 200.907 202.09 192.61 202.883C190.679 203.066 190.493 203.88 192.205 204.705C198.856 207.89 205.83 210.923 212.601 214.083C214.349 214.9 215.676 214.234 215.592 212.582C215.503 210.931 216.374 210.724 217.513 212.127C220.156 215.385 222.707 218.675 225.108 222.002C220.56 221.487 215.864 221.115 211.07 220.8C209.102 220.672 208.947 219.981 210.735 219.253L210.977 219.155C212.76 218.431 212.794 217.206 211.033 216.418C203.421 213.024 195.554 209.761 188.16 206.236C186.444 205.424 183.659 205.156 181.679 205.028C180.223 204.942 178.663 204.883 177.011 204.846C174.767 204.79 172.348 204.772 169.779 204.752L165.675 204.72C164.213 204.714 162.711 204.718 161.172 204.729C155.015 204.769 148.261 204.931 141.069 204.959C133.876 204.979 126.242 204.877 118.316 204.191C114.353 203.843 110.318 203.34 106.239 202.583C104.204 202.204 102.139 201.761 100.107 201.236C98.0481 200.697 95.9795 200.09 93.9041 199.444C85.6117 196.857 77.2234 193.597 69.0502 191.673C68.0316 191.428 67.0129 191.21 66.0077 191.009L62.9121 190.428C60.7857 190.032 58.6633 189.669 56.5505 189.344C52.3247 188.692 48.1342 188.126 44.0199 187.787C39.905 187.448 35.8657 187.212 31.9435 187.212H31.5761L31.3925 187.276C31.3292 187.275 31.2502 187.301 31.1797 187.297L30.3089 187.265C29.7466 187.24 29.1525 187.198 28.7918 187.254C27.9664 187.321 27.1437 187.406 26.3239 187.502C24.6842 187.694 23.058 187.944 21.4502 188.243C15.0192 189.44 8.92919 191.417 3.50223 193.872C2.30327 194.404 1.13735 194.96 0.00390625 195.536V189.645C1.58647 188.877 3.23791 188.156 4.95599 187.488C10.85 185.151 17.5302 183.428 24.6338 182.679Z" fill="url(#paint1_linear_20023_52496)"/>
<path opacity="0.05" d="M-0.258015 189.678C0.506945 189.36 1.21535 189.046 1.89911 188.742C2.85167 188.32 3.75103 187.921 4.74559 187.532C8.45111 186.056 12.482 184.845 16.7262 183.935C21.3753 182.942 26.0362 182.392 30.5801 182.302L31.3165 182.291C31.3814 182.291 31.4436 182.29 31.5057 182.29C31.6866 182.287 31.8737 182.285 32.1173 182.31L33.9591 182.449C35.0545 182.495 36.1946 182.556 37.3477 182.631C39.6655 182.782 42.0315 182.995 44.3802 183.26C49.1816 183.799 54.2272 184.588 59.3775 185.607C61.8645 186.097 64.5239 186.674 67.2819 187.321C69.7241 187.89 72.4037 188.64 75.244 189.551C78.959 190.741 82.6522 192.109 86.5621 193.557C88.2657 194.189 90.0269 194.842 91.7757 195.472C94.3646 196.402 96.4898 197.124 98.4638 197.745C99.4567 198.06 100.535 198.381 101.762 198.727C102.188 198.851 102.58 198.949 102.995 199.053L103.352 199.143C103.894 199.276 104.432 199.409 104.975 199.531C108.949 200.447 113.173 201.133 117.888 201.63C127.286 202.609 136.29 202.56 142.245 202.438C149.64 202.274 156.511 201.87 162.835 201.457L167.171 201.164L168.165 201.091L170.803 200.855C172.77 200.662 174.728 200.443 176.792 200.186C178.325 199.997 179.633 199.823 180.602 199.693C182.425 199.45 184.947 198.26 186.225 197.041C188.026 195.325 189.851 193.557 191.615 191.847C197.188 186.445 202.951 180.861 209.615 175.354C210.342 174.754 210.716 174.12 210.658 173.597C210.595 173.054 210.063 172.653 209.201 172.496C208.707 172.407 208.11 172.242 208.074 171.944C208.074 171.642 208.729 171.34 209.917 171.092C214.454 170.151 218.663 169.376 222.788 168.726L223.141 168.67L222.984 168.946C221.676 171.233 220.381 173.627 219.134 176.063C218.551 177.202 217.893 177.623 217.472 177.637C217.151 177.647 216.869 177.454 216.656 177.077C216.442 176.695 216.059 176.461 215.548 176.397C214.697 176.292 213.595 176.697 212.67 177.455C205.582 183.238 199.498 189.156 193.615 194.879C192.765 195.706 191.917 196.529 191.07 197.351C190.564 197.842 190.314 198.292 190.356 198.646C190.375 198.816 190.465 198.963 190.615 199.072C190.916 199.291 191.455 199.372 192.176 199.306C195.143 199.035 198.102 198.737 201.234 198.422C206.673 197.874 212.295 197.308 218.097 196.876C219.869 196.745 221.081 195.689 220.975 194.352C220.956 194.128 220.9 193.899 220.809 193.673L220.407 192.671C220.293 192.388 220.226 192.131 220.207 191.907C220.203 191.865 220.201 191.821 220.201 191.776C220.201 191.319 220.423 191.119 220.61 191.032C221.02 190.843 221.702 190.966 222.532 191.378C227.147 193.674 231.135 195.794 234.724 197.857L234.951 197.988L234.721 198.115C231.159 200.094 227.612 202.273 223.881 204.778C223.155 205.267 222.517 205.453 222.086 205.301C221.753 205.184 221.558 204.876 221.519 204.413C221.5 204.2 221.517 203.954 221.566 203.684L221.667 203.142C221.708 202.922 221.72 202.703 221.702 202.493C221.649 201.849 221.312 201.28 220.752 200.893C220.153 200.477 219.331 200.286 218.439 200.356C212.714 200.804 207.112 201.391 201.694 201.958C198.56 202.286 195.6 202.596 192.611 202.881C191.613 202.976 191.04 203.252 191.039 203.638C191.039 203.653 191.04 203.667 191.041 203.679C191.078 203.996 191.494 204.36 192.211 204.704C196.051 206.544 200.07 208.364 203.956 210.125C206.801 211.414 209.744 212.748 212.604 214.081C213.468 214.485 214.254 214.541 214.817 214.239C215.354 213.951 215.633 213.355 215.592 212.58C215.588 212.503 215.586 212.43 215.586 212.362C215.586 211.711 215.759 211.303 216.071 211.213C216.433 211.109 216.96 211.442 217.514 212.125C220.324 215.588 222.746 218.728 224.919 221.725L225.12 222.002L224.74 221.96C220.831 221.524 216.486 221.155 211.068 220.799C210.088 220.734 209.526 220.532 209.488 220.229L209.486 220.194C209.486 219.913 209.929 219.578 210.734 219.251L210.976 219.152C211.895 218.779 212.394 218.24 212.325 217.686C212.266 217.214 211.807 216.763 211.031 216.416C208.414 215.248 205.722 214.077 203.118 212.944C198.148 210.782 193.008 208.546 188.155 206.234C186.858 205.614 184.738 205.219 181.676 205.026C180.302 204.945 178.772 204.885 176.999 204.845C174.721 204.789 172.266 204.773 169.666 204.755L164.141 204.724C162.554 204.727 160.837 204.738 159.04 204.759C156.942 204.78 154.784 204.814 152.57 204.847C147.356 204.927 141.964 205.01 136.294 204.97C128.882 204.905 120.065 204.663 110.858 203.351C108.57 203.022 106.348 202.636 104.256 202.202C103.197 201.982 102.085 201.732 100.946 201.456C99.9221 201.197 98.806 200.896 97.6277 200.561C93.5577 199.401 89.421 198.002 85.4209 196.648L83.8663 196.123C78.6001 194.354 72.631 192.351 66.2672 191.059L61.0956 190.093C59.3047 189.775 57.4702 189.474 55.6434 189.199C51.813 188.625 48.019 188.175 44.3684 187.864C40.431 187.527 36.5693 187.343 32.8895 187.315L31.4441 187.311L29.3677 187.203C29.2926 187.199 29.2372 187.205 29.1817 187.21C29.1442 187.214 29.1061 187.218 29.072 187.219L27.243 187.381C25.6476 187.545 24.0045 187.771 22.3587 188.055C15.8756 189.174 9.37007 191.158 3.54271 193.793C3.05439 194.01 2.61143 194.227 2.14215 194.458C1.46623 194.789 0.766785 195.133 -0.100655 195.484L-0.359375 195.59V189.718L-0.258015 189.678ZM1.96127 194.192C2.43447 193.96 2.88079 193.741 3.37527 193.523C9.23119 190.874 15.7709 188.88 22.287 187.755C23.9424 187.469 25.5955 187.242 27.2016 187.077L28.4269 186.962L29.0457 186.913C29.0804 186.912 29.1112 186.909 29.1425 186.905C29.2153 186.898 29.2876 186.892 29.3861 186.896L31.4565 187.004L32.8917 187.008C36.5827 187.036 40.4562 187.221 44.4042 187.558C48.0644 187.871 51.8662 188.321 55.7056 188.897C57.5368 189.172 59.3747 189.473 61.1706 189.794L66.3484 190.76C72.7402 192.057 78.7216 194.065 83.999 195.837L85.5547 196.362C89.5503 197.715 93.6825 199.113 97.7426 200.27C98.9163 200.604 100.028 200.904 101.047 201.162C102.178 201.436 103.287 201.685 104.342 201.903C106.425 202.335 108.637 202.721 110.918 203.048C120.1 204.356 128.899 204.598 136.296 204.663C141.962 204.703 147.351 204.621 152.564 204.54C154.777 204.506 156.937 204.474 159.035 204.451C160.833 204.432 162.551 204.42 164.141 204.418L169.67 204.448C172.271 204.466 174.727 204.483 177.009 204.538C178.786 204.578 180.321 204.638 181.702 204.72C184.819 204.916 186.987 205.325 188.331 205.966C193.179 208.276 198.315 210.51 203.282 212.671C205.886 213.804 208.581 214.976 211.199 216.144C212.086 216.54 212.614 217.077 212.685 217.656C212.772 218.357 212.209 218.996 211.131 219.434L210.889 219.532C210.039 219.877 209.848 220.133 209.847 220.193C209.866 220.24 210.136 220.428 211.096 220.492C216.346 220.837 220.59 221.195 224.409 221.613C222.292 218.705 219.936 215.655 217.215 212.304C216.629 211.581 216.267 211.485 216.185 211.508C216.118 211.527 215.914 211.78 215.954 212.568C215.998 213.466 215.661 214.153 215.009 214.502C214.33 214.866 213.413 214.814 212.428 214.355C209.57 213.02 206.629 211.687 203.785 210.399C199.897 208.638 195.876 206.817 192.033 204.974C191.198 204.574 190.73 204.137 190.68 203.71C190.647 203.408 190.794 202.743 192.57 202.575C195.557 202.289 198.516 201.979 201.649 201.652C207.07 201.084 212.675 200.498 218.405 200.05C219.392 199.972 220.306 200.187 220.98 200.654C221.619 201.096 222.003 201.742 222.064 202.473C222.082 202.704 222.07 202.948 222.024 203.191L221.924 203.734C221.879 203.978 221.864 204.201 221.881 204.392C221.897 204.586 221.963 204.924 222.224 205.017C222.52 205.12 223.055 204.941 223.657 204.536C227.317 202.079 230.8 199.935 234.295 197.985C230.771 195.967 226.861 193.891 222.349 191.647C221.531 191.24 221.004 191.204 220.784 191.306C220.637 191.374 220.563 191.532 220.563 191.777C220.563 191.814 220.565 191.851 220.568 191.885C220.585 192.084 220.646 192.315 220.75 192.572L221.152 193.575C221.253 193.826 221.315 194.081 221.336 194.333C221.454 195.855 220.103 197.04 218.129 197.187C212.332 197.618 206.712 198.184 201.277 198.731C198.143 199.047 195.183 199.344 192.214 199.616C191.391 199.691 190.757 199.585 190.379 199.309C190.157 199.147 190.023 198.93 189.994 198.679C189.942 198.242 190.222 197.708 190.797 197.15C191.645 196.329 192.492 195.505 193.342 194.677C199.231 188.95 205.319 183.027 212.419 177.235C213.437 176.4 214.626 175.973 215.6 176.094C216.237 176.174 216.715 176.468 216.984 176.946C217.066 177.093 217.238 177.338 217.459 177.331C217.681 177.324 218.248 177.025 218.802 175.943C220.001 173.601 221.244 171.297 222.501 169.09C218.496 169.728 214.403 170.483 210.004 171.397C208.845 171.637 208.531 171.865 208.456 171.939C208.518 171.986 208.718 172.095 209.277 172.197C210.304 172.384 210.939 172.884 211.018 173.57C211.09 174.203 210.686 174.904 209.867 175.579C203.213 181.077 197.456 186.658 191.887 192.055C190.122 193.766 188.297 195.535 186.495 197.25C185.169 198.516 182.551 199.75 180.658 200.002C179.688 200.132 178.379 200.306 176.844 200.495C174.776 200.753 172.814 200.972 170.842 201.165L168.197 201.402L162.862 201.769C156.533 202.181 149.657 202.587 142.252 202.751C136.287 202.872 127.265 202.922 117.843 201.941C113.111 201.442 108.87 200.752 104.88 199.833C104.335 199.71 103.795 199.577 103.248 199.442L102.891 199.353C102.473 199.248 102.078 199.148 101.646 199.024C100.417 198.677 99.3341 198.354 98.3373 198.038C96.3577 197.416 94.228 196.692 91.6341 195.76C89.8835 195.129 88.1212 194.476 86.4177 193.845C82.5117 192.398 78.8224 191.031 75.1163 189.844C72.2861 188.936 69.6177 188.188 67.1862 187.623C64.4332 186.976 61.7782 186.4 59.2958 185.911C54.1566 184.894 49.1222 184.107 44.3331 183.569C41.9912 183.304 39.6314 183.093 37.3202 182.941C36.17 182.866 35.0337 182.805 33.935 182.761L32.0803 182.62C31.8552 182.597 31.6877 182.599 31.5113 182.602C31.4464 182.602 31.3814 182.603 31.3181 182.603L30.5873 182.613C26.0721 182.703 21.4375 183.25 16.8147 184.236C12.5923 185.141 8.58383 186.346 4.89791 187.815C3.91007 188.201 3.01463 188.599 2.06599 189.019C1.40967 189.309 0.732625 189.61 0.00238505 189.915V195.103C0.740465 194.792 1.36039 194.487 1.96127 194.192Z" fill="#E3E3E3"/>
<path d="M60.1005 239.298C64.0525 234.789 67.8207 230.058 71.2333 225.147C74.6527 220.237 77.7165 215.154 80.3955 209.978C83.0818 204.804 85.3789 199.536 87.3994 194.246C91.4611 183.672 94.2359 172.995 96.1539 162.591C98.0769 152.185 99.179 142.039 99.9748 132.447C100.762 122.858 101.251 113.817 101.742 105.649C102.223 97.4825 102.704 90.1908 103.218 84.1472C103.473 81.126 103.73 78.4173 103.974 76.0704L104.154 74.3786L104.241 73.5851L104.263 73.3964L104.274 73.2552L104.298 72.9769L104.476 70.999C104.637 69.2512 104.469 66.2418 103.456 64.7253C97.5657 56.1316 91.9657 47.1581 86.9615 37.5351C86.2688 35.5107 84.8839 35.5751 83.9151 36.9303C82.9553 38.281 81.6913 37.7182 81.9467 35.7576C82.4389 32.0152 83.0303 28.2268 83.7381 24.3952L84.9304 23.1582C85.459 24.2177 86.8254 25.6379 88.3789 26.9718C89.9312 28.3068 91.6694 29.5568 92.9171 30.3184C92.9927 31.9076 90.8725 31.7755 90.5718 32.5438C89.2133 32.6586 89.0537 33.96 89.9105 35.6524C94.4028 44.5211 99.4215 52.8404 104.719 60.8137C105.734 62.333 106.862 62.1432 107.246 60.4038C108.902 52.9412 110.825 45.4311 113.176 37.9248C113.724 36.1776 112.568 34.7216 110.556 34.6841L109.316 34.664C108.139 34.6522 107.179 33.33 108.816 32.1787C112.823 29.3512 116.894 26.6319 121.026 24.0531C122.212 27.9669 123.535 31.7923 124.97 35.5398C125.616 37.1817 123.625 38.2883 121.864 37.4724L121.299 37.208C119.543 36.3809 117.665 37.105 117.131 38.8382C114.85 46.2504 112.987 53.6827 111.386 61.0853C111.014 62.814 111.88 63.2027 113.309 61.9684C118.851 57.1956 124.501 52.5666 130.277 48.2036C131.767 47.0792 131.485 45.7889 129.636 45.2944C128.829 45.1746 128.453 43.62 130.028 42.8097C134.804 41.7278 139.583 40.7439 144.358 39.8731L144.191 40.978C142.132 44.3548 140.164 47.8139 138.277 51.3385C137.482 52.8444 136.009 52.5795 135.714 51.5009L135.685 51.2769C135.597 49.3746 134.88 48.9563 133.292 50.0628C126.815 55.0037 120.493 59.8158 114.279 65.894C113.039 67.1389 111.52 70.5118 111.307 71.5495C111.142 72.0182 110.98 72.4998 110.821 72.9932L110.584 73.7424L110.467 74.1238L110.407 74.3299L110.336 74.592C109.96 75.9953 109.594 77.4614 109.244 78.9846C108.541 82.0316 107.893 85.3104 107.3 88.7896C106.112 95.7488 105.16 103.504 104.316 111.822C103.466 120.142 102.723 129.023 101.772 138.293C100.815 147.564 99.6461 157.226 97.7969 167.145C95.9517 177.06 93.3948 187.252 89.7189 197.479C87.904 202.593 85.8113 207.74 83.3506 212.853C80.8961 217.968 78.0687 223.055 74.875 228.038C71.6864 233.022 68.1321 237.896 64.3465 242.605C61.2026 246.516 57.9059 250.316 54.5537 254.002H46.0742C46.6869 253.4 47.3006 252.796 47.9144 252.185C52.0209 248.096 56.1497 243.81 60.1005 239.298Z" fill="#264400"/>
<path d="M60.8215 240.178C64.8093 235.614 68.6217 230.82 72.0758 225.836C75.5372 220.856 78.6396 215.696 81.3477 210.44C84.0654 205.187 86.3844 199.833 88.4189 194.47C92.5136 183.732 95.2945 172.888 97.2041 162.324C99.1177 151.756 100.2 141.456 100.978 131.722C101.748 121.989 102.225 112.815 102.715 104.529C103.195 96.2441 103.687 88.8487 104.218 82.7234C104.481 79.6619 104.748 76.9179 105.003 74.543L105.097 73.6694C105.116 73.5103 105.121 73.4258 105.13 73.3182L105.156 73.0102L105.255 71.8454L105.44 69.8479C105.607 68.1002 104.941 65.4626 103.93 63.9438C98.0873 55.2022 92.5517 46.0664 87.6477 36.2602C86.801 34.5578 85.3293 34.2499 84.3527 35.6051C83.3839 36.9569 82.7981 36.4803 83.0641 34.5192C83.5793 30.775 84.1942 26.9861 84.9289 23.1562C87.1717 25.0703 89.4375 26.9486 91.7273 28.7932C93.222 29.9983 93.3429 31.041 91.9821 31.1508C90.6225 31.2578 90.1812 32.7491 91.0296 34.4459C95.4693 43.337 100.448 51.6754 105.717 59.6621C106.725 61.1842 107.855 60.9971 108.245 59.2594C109.929 51.8042 111.887 44.3058 114.282 36.8202C114.84 35.0781 113.692 33.6182 111.681 33.5706L110.441 33.5448C108.43 33.5084 108.116 32.5413 109.758 31.3978C113.493 28.8039 117.284 26.3051 121.123 23.9274C122.288 27.6749 123.575 31.3401 124.968 34.9325C125.61 36.5795 124.726 37.2369 122.97 36.4114L122.407 36.1449C120.656 35.3099 118.774 36.0234 118.23 37.7521C115.908 45.1418 114.01 52.5596 112.381 59.9527C112.003 61.6792 112.867 62.0701 114.301 60.8409C119.861 56.087 125.53 51.4861 131.325 47.1595C132.821 46.044 132.545 44.7566 130.698 44.2542C128.85 43.757 128.923 42.9875 130.861 42.5608C135.36 41.573 139.861 40.6725 144.357 39.8711C142.212 43.3829 140.17 46.9854 138.215 50.6578C137.416 52.1637 136.6 52.0578 136.395 50.3997L136.367 50.1762C136.17 48.5209 134.833 48.0718 133.367 49.2063C127.049 54.1086 120.887 59.3468 114.855 64.7542C113.456 66.0069 112.413 68.3869 111.787 70.1229C111.46 71.0452 111.146 72.0269 110.847 73.0646L110.627 73.8531L110.52 74.2551L110.388 74.7955C110.209 75.5358 110.035 76.2935 109.865 77.0691C109.184 80.1693 108.569 83.5444 108.02 87.1536C106.918 94.3726 106.1 102.519 105.399 111.297C104.689 120.077 104.094 129.487 103.219 139.305C102.338 149.122 101.168 159.357 99.1636 169.803C98.1623 175.025 96.9499 180.301 95.4681 185.593C93.9953 190.882 92.2173 196.195 90.2053 201.455C88.1708 206.737 85.8188 212.004 83.0804 217.182C80.3498 222.362 77.2323 227.449 73.7989 232.354C70.3712 237.263 66.6309 241.981 62.7647 246.479C60.5437 249.059 58.283 251.564 56.0156 254.001H47.7539C48.021 253.735 48.2881 253.471 48.5553 253.204C52.6769 249.078 56.8332 244.744 60.8215 240.178Z" fill="url(#paint2_linear_20023_52496)"/>
<path opacity="0.05" d="M47.8635 254.06C49.0653 252.72 50.3001 251.48 51.494 250.281C52.2337 249.538 52.9987 248.771 53.753 247.982C58.2325 243.296 62.4185 238.508 66.1945 233.753C70.4309 228.425 74.2294 222.936 77.4853 217.435C80.8593 211.748 83.9174 205.594 86.5746 199.145C89.2699 192.619 91.5653 185.912 93.3982 179.207C96.3511 168.455 98.4175 157.071 99.9009 143.381C101.104 132.216 101.736 121.432 102.294 111.918L102.348 111.002C102.889 101.521 103.424 92.394 104.037 84.9527C104.313 81.5569 104.611 78.3189 104.923 75.3285L105.125 73.4033L105.442 69.8478C105.458 69.6714 105.467 69.4816 105.467 69.2839C105.467 67.5244 104.821 65.2765 103.93 63.9387C97.4196 54.1925 92.094 45.1317 87.6504 36.24C87.2438 35.4263 86.6883 34.9049 86.0852 34.7711C85.4653 34.6333 84.8381 34.9335 84.3626 35.5937C83.9639 36.1465 83.6346 36.399 83.3804 36.3453C83.0696 36.2775 83.0041 35.7685 83.0041 35.3529C83.0041 35.1116 83.0265 34.8293 83.069 34.5141C83.5831 30.7794 84.1896 27.0689 84.8705 23.4854L84.9277 23.1875L85.178 23.4009C87.2965 25.2029 89.5017 27.0269 91.7311 28.8217C92.4933 29.4349 92.9301 30.0408 92.9301 30.4837C92.9301 30.5543 92.9189 30.6198 92.8965 30.6775C92.8276 30.8573 92.6165 31.0824 92.0005 31.1317C91.5071 31.1709 91.1162 31.3954 90.8704 31.7807C90.4661 32.4141 90.5282 33.4607 91.0339 34.4704C95.1141 42.6352 99.9177 50.8784 105.721 59.6709C106.111 60.2617 106.549 60.6235 106.952 60.689C107.145 60.7204 107.335 60.684 107.502 60.5826C107.841 60.3782 108.099 59.9213 108.248 59.261C110.092 51.0973 112.066 43.7574 114.285 36.8218C114.376 36.5345 114.423 36.2473 114.423 35.9678C114.423 34.8417 113.684 33.9597 112.495 33.6645C112.242 33.6018 111.971 33.5677 111.69 33.5615L110.45 33.5346C110.1 33.5279 109.794 33.4926 109.54 33.4305C109.053 33.3112 108.768 33.0967 108.717 32.8105C108.649 32.4281 109.02 31.9196 109.752 31.4105C113.509 28.8009 117.263 26.3308 120.91 24.0673L121.124 23.9345L121.192 24.1524C122.299 27.6989 123.57 31.3271 124.97 34.938C125.259 35.6817 125.247 36.2585 124.93 36.5502C124.687 36.7742 124.282 36.8246 123.758 36.6964C123.517 36.637 123.253 36.5401 122.973 36.4074L122.41 36.1409C122.18 36.0317 121.944 35.9471 121.708 35.8889C120.98 35.7097 120.238 35.7819 119.619 36.0938C118.957 36.427 118.464 37.0161 118.233 37.7525C116.078 44.6103 114.164 51.8724 112.384 59.9537C112.326 60.2214 112.295 60.4622 112.295 60.6694C112.295 61.3655 112.615 61.5217 112.806 61.5531C113.167 61.6125 113.698 61.361 114.302 60.8453C120.325 55.6944 125.894 51.2177 131.328 47.16C132.068 46.6067 132.399 46.0019 132.26 45.4469C132.127 44.9161 131.573 44.4927 130.701 44.2564C129.837 44.0229 129.361 43.7227 129.361 43.4024C129.371 43.0759 129.919 42.7701 130.864 42.5624C135.309 41.5846 139.725 40.7004 143.99 39.9337L144.364 39.866L144.189 40.1561C142.17 43.4735 140.161 47.0082 138.217 50.6617C137.817 51.4126 137.406 51.7878 137.06 51.7173C136.728 51.6501 136.493 51.1836 136.398 50.4041L136.37 50.1801C136.266 49.3188 135.843 48.7476 135.208 48.6137C134.665 48.4984 134.012 48.7101 133.369 49.2096C127.525 53.7433 121.47 58.8276 114.86 64.7529C113.753 65.7453 112.72 67.5529 111.79 70.1233C111.411 71.1907 111.048 72.3465 110.712 73.5589L110.144 75.8488C109.946 76.7106 109.748 77.6161 109.556 78.5413C108.813 82.132 108.136 86.1757 107.544 90.56C106.422 98.811 105.639 108.027 104.81 119.328L104.569 122.584C103.866 132.12 103.138 141.98 101.897 152.182C100.319 165.17 98.0938 176.531 95.0945 186.912C94.073 190.453 92.9373 193.971 91.7188 197.365C90.2835 201.411 88.7099 205.345 87.0417 209.058C85.1242 213.335 82.9654 217.562 80.6241 221.623C78.1276 225.957 75.3013 230.301 72.2235 234.535C69.0113 238.96 65.5937 243.259 62.0662 247.313C61.168 248.346 60.2395 249.364 59.3418 250.348C58.2084 251.59 57.0363 252.874 55.8709 254.247L55.8161 254.311H47.6406L47.8635 254.06ZM59.054 250.157C59.9511 249.174 60.8779 248.158 61.7739 247.128C65.2952 243.08 68.7067 238.789 71.9144 234.371C74.986 230.146 77.8061 225.811 80.2981 221.485C82.6345 217.434 84.7893 213.215 86.7029 208.946C88.3677 205.24 89.9385 201.313 91.371 197.274C92.5879 193.884 93.7219 190.373 94.7422 186.837C97.7377 176.47 99.9603 165.123 101.537 152.149C102.777 141.955 103.504 132.097 104.207 122.565L104.448 119.308C105.278 108.003 106.06 98.7819 107.184 90.5241C107.777 86.1337 108.456 82.0844 109.2 78.4869C109.391 77.5601 109.59 76.6524 109.788 75.7877L110.096 74.4902L110.36 73.4878C110.698 72.2687 111.062 71.1067 111.444 70.0326C112.39 67.4152 113.451 65.5666 114.597 64.539C121.213 58.6081 127.274 53.5188 133.124 48.98C133.861 48.4088 134.632 48.1725 135.295 48.3125C136.087 48.4799 136.61 49.1491 136.73 50.1476L136.758 50.3716C136.857 51.1847 137.087 51.402 137.139 51.4154C137.198 51.4165 137.494 51.2698 137.886 50.5329C139.777 46.9808 141.729 43.5407 143.691 40.3028C139.547 41.0526 135.265 41.9133 130.955 42.8609C129.957 43.0804 129.727 43.3374 129.724 43.4108C129.724 43.4774 129.924 43.721 130.811 43.9613C131.813 44.2329 132.454 44.7374 132.615 45.382C132.781 46.0473 132.41 46.7629 131.568 47.3918C126.14 51.4451 120.576 55.9173 114.559 61.0631C113.848 61.6707 113.236 61.9378 112.738 61.8561C112.496 61.8163 111.933 61.6214 111.933 60.6689C111.933 60.4426 111.965 60.1822 112.028 59.8961C113.81 51.8074 115.725 44.5381 117.882 37.6719C118.138 36.8565 118.69 36.2013 119.435 35.8267C120.14 35.4717 120.984 35.3877 121.809 35.5909C122.071 35.6559 122.333 35.7494 122.585 35.8698L123.149 36.1364C123.405 36.2579 123.643 36.3458 123.858 36.3985C124.077 36.4522 124.473 36.5161 124.664 36.3397C124.763 36.2478 124.816 36.0888 124.816 35.8793C124.816 35.6464 124.75 35.3546 124.626 35.0349C123.252 31.4923 122.002 27.9324 120.91 24.4497C117.335 26.6735 113.66 29.0949 109.981 31.6502C109.375 32.0708 109.026 32.4874 109.075 32.7641C109.111 32.964 109.402 33.0754 109.64 33.1337C109.863 33.1885 110.139 33.2193 110.459 33.2261L111.698 33.2529C112.01 33.2597 112.312 33.2983 112.595 33.3683C113.946 33.7032 114.785 34.6994 114.785 35.9689C114.785 36.2758 114.734 36.5905 114.634 36.9047C112.418 43.833 110.446 51.1651 108.604 59.3209C108.436 60.0613 108.128 60.5854 107.711 60.8363C107.461 60.9875 107.175 61.0418 106.883 60.9942C106.366 60.9097 105.855 60.5048 105.405 59.8238C99.5952 51.0212 94.7848 42.7679 90.7001 34.5925C90.1474 33.487 90.0903 32.3581 90.5517 31.6334C90.8581 31.1535 91.3475 30.8741 91.9663 30.8248C92.1561 30.8097 92.4849 30.7576 92.5521 30.5823C92.5627 30.5549 92.5677 30.5224 92.5677 30.4849C92.5677 30.3527 92.4893 29.8582 91.483 29.0479C89.3382 27.322 87.2164 25.5692 85.1718 23.8343C84.5144 27.3209 83.9286 30.925 83.4297 34.5521C83.3882 34.8551 83.3669 35.125 83.3669 35.3546C83.3669 35.7886 83.4414 35.9673 83.4795 36.03C83.5551 35.9919 83.7472 35.8609 84.0541 35.4336C84.6185 34.649 85.3925 34.299 86.177 34.4737C86.891 34.6317 87.5328 35.2163 87.9847 36.1201C92.4221 45.0012 97.7421 54.0513 104.248 63.7886C105.166 65.1679 105.832 67.4801 105.832 69.2867C105.832 69.4928 105.822 69.6916 105.805 69.8753L105.489 73.4313L105.285 75.3571C104.973 78.3453 104.675 81.5815 104.4 84.9751C103.787 92.4141 103.251 101.539 102.71 111.018L102.657 111.934C102.1 121.451 101.466 132.238 100.263 143.411C98.7776 157.114 96.7084 168.512 93.7516 179.278C91.9159 185.993 89.6165 192.712 86.9168 199.248C84.254 205.71 81.1897 211.876 77.8089 217.574C74.5464 223.087 70.7395 228.588 66.4947 233.926C62.7125 238.689 58.5197 243.484 54.0341 248.177C53.277 248.968 52.5109 249.738 51.7701 250.481C50.6529 251.603 49.5004 252.759 48.3753 253.999H55.6296C56.7815 252.647 57.9368 251.381 59.054 250.157Z" fill="#E3E3E3"/>
<path d="M143.949 164.089L178.968 167.4C180.954 167.624 181.698 167.163 180.851 165.615L178.959 162.15C178.112 160.602 179.845 159.399 181.386 160.304L199.666 171.612L198.216 172.23L181.129 175.361C179.163 175.686 178.199 174.745 179.599 173.523L179.728 173.411C181.127 172.19 180.654 171.007 178.671 170.769L153.488 167.753C151.505 167.515 151.202 168.147 152.811 169.164L180.678 186.777C182.287 187.793 183.34 187.25 183.03 185.563L182.581 183.118C182.367 181.815 183.621 180.423 184.778 181.408L194.831 195.485L193.381 196.103L176.655 191.608C175.191 191.259 175.66 190.074 177.185 190.077L178.756 190.083C180.759 190.092 180.695 189.918 179.059 188.933L151.985 172.611C150.349 171.626 149.838 172.025 150.84 173.503L162.074 190.051C163.077 191.529 164.235 191.845 164.661 190.756C165.087 189.668 167.086 188.347 168.365 190.988L169.66 198.539L167.698 198.879L159.35 197.231C157.372 196.963 157.182 195.619 158.724 195.149C160.266 194.68 160.521 193.857 159.494 192.391L144.718 171.281C143.692 169.814 141.238 168.553 139.245 168.377C24.7582 158.322 18.6861 103.35 0 84.7996V75.918C25.6446 88.4194 9.31784 153.264 143.949 164.089Z" fill="#4D2F00"/>
<path d="M145.943 162.588C153.617 162.545 167.629 166.33 180.238 167.396C182.223 167.619 183.147 166.546 182.302 164.999L180.409 161.534C179.563 159.986 180.191 159.545 181.811 160.549L199.666 171.614L182.074 174.529C180.109 174.855 179.65 174.129 181.05 172.907L181.178 172.795C182.578 171.573 182.105 170.391 180.122 170.153L154.939 167.137C152.956 166.899 152.653 167.531 154.262 168.547L182.129 186.16C183.738 187.177 184.791 186.634 184.481 184.946L184.032 182.502C183.722 180.815 184.31 180.631 185.345 182.094L194.832 195.487L178.106 190.992C176.196 190.479 176.271 190.07 178.274 190.079L179.845 190.086C181.848 190.095 182.145 189.303 180.511 188.317L153.437 171.996C151.801 171.01 151.289 171.409 152.292 172.887L163.525 189.435C164.529 190.914 165.687 191.229 166.112 190.14C166.538 189.052 167.548 189.432 168.366 190.991L169.662 198.543L160.801 196.616C158.823 196.348 158.47 195.751 160.012 195.281C161.554 194.812 161.972 193.242 160.946 191.776L146.17 170.666C145.144 169.199 142.688 167.949 140.697 167.762C24.4877 156.851 14.378 94.7544 0 82.1672V74.6582C27.6858 85.25 7.72968 150.479 145.943 162.588Z" fill="url(#paint3_linear_20023_52496)"/>
<path opacity="0.05" d="M198.779 171.446L182.007 174.225C181.233 174.353 180.804 174.29 180.66 174.189C180.625 174.165 180.604 174.138 180.604 174.079C180.604 174 180.655 173.696 181.311 173.123L181.44 173.011C182.034 172.493 182.348 171.95 182.348 171.443C182.348 170.607 181.536 170.01 180.175 169.847L154.991 166.83C154.057 166.718 153.444 166.782 153.116 167.024C152.954 167.145 152.868 167.304 152.868 167.485C152.868 167.866 153.254 168.295 154.048 168.796L181.916 186.408C182.774 186.952 183.563 187.116 184.135 186.869C184.421 186.747 184.9 186.405 184.9 185.495C184.9 185.31 184.88 185.11 184.841 184.899L184.392 182.454C184.34 182.171 184.314 181.929 184.314 181.736C184.314 181.611 184.324 181.527 184.337 181.471C184.458 181.555 184.688 181.761 185.037 182.253L194.027 194.946L178.217 190.697C177.81 190.588 177.543 190.496 177.368 190.426C177.56 190.404 177.847 190.387 178.273 190.388L179.845 190.395C180.721 190.399 181.332 190.259 181.662 189.979C181.838 189.831 181.93 189.645 181.93 189.442C181.93 189.011 181.523 188.548 180.721 188.064L153.647 171.744C152.756 171.207 152.158 171.037 151.764 171.212C151.635 171.269 151.418 171.414 151.418 171.752C151.418 172.063 151.602 172.486 151.98 173.042L163.213 189.591C163.903 190.607 164.705 191.155 165.414 191.093C165.688 191.069 166.189 190.927 166.458 190.239C166.556 189.988 166.689 189.835 166.812 189.831C166.996 189.822 167.48 190.075 168.017 191.079L169.226 198.129L160.892 196.317L160.876 196.313L160.86 196.31C159.784 196.165 159.494 195.964 159.428 195.903C159.471 195.856 159.629 195.727 160.134 195.573C161.221 195.241 161.87 194.424 161.87 193.387C161.87 192.803 161.658 192.192 161.256 191.618L146.477 170.508C145.443 169.029 142.82 167.661 140.636 167.456C118.993 165.424 99.5525 161.436 82.8762 155.603C68.6209 150.618 55.9464 144.135 45.2498 136.335C25.7075 122.086 16.1074 106.289 9.13151 94.7544C5.70991 89.0972 3.26495 84.6156 0.001825 82.0429V75.1443C7.97847 78.3128 11.7221 85.8604 16.6954 95.3424C29.0115 118.825 47.7138 154.33 145.818 162.924L145.838 162.956H145.857C149.83 162.956 155.703 163.948 161.923 165.054C167.641 166.07 174.12 167.192 180.161 167.703C181.072 167.806 181.829 167.659 182.34 167.277C182.743 166.976 182.955 166.553 182.955 166.052C182.955 165.683 182.84 165.284 182.612 164.866L180.731 161.402C180.433 160.858 180.389 160.569 180.389 160.445C180.389 160.351 180.413 160.321 180.414 160.319C180.414 160.321 180.705 160.245 181.596 160.797L198.779 171.446ZM199.666 171.614L181.806 160.548C180.675 159.846 180.022 159.85 180.022 160.446C180.022 160.702 180.14 161.067 180.395 161.533L182.271 164.998C182.481 165.383 182.569 165.739 182.569 166.053C182.569 167 181.641 167.563 180.15 167.396C167.54 166.33 153.439 162.545 145.764 162.588C7.55174 150.478 27.56 85.2495 -0.359375 74.6582V82.1672C14.1441 94.7544 24.3092 156.85 140.518 167.762C142.509 167.949 145.146 169.199 146.172 170.666L160.948 191.776C161.328 192.319 161.511 192.877 161.511 193.387C161.511 194.254 160.984 194.985 160.014 195.281C159.368 195.479 159.054 195.698 159.054 195.905C159.054 196.194 159.656 196.46 160.804 196.616L169.664 198.543L168.369 190.991C167.549 189.433 166.54 189.052 166.115 190.14C165.689 191.229 164.531 190.914 163.527 189.435L152.294 172.887C151.947 172.375 151.781 171.992 151.781 171.752C151.781 171.299 152.371 171.352 153.439 171.996L180.513 188.317C181.223 188.746 181.568 189.137 181.568 189.443C181.568 189.84 180.981 190.092 179.848 190.087L178.277 190.08C177.244 190.075 176.724 190.182 176.724 190.356C176.724 190.52 177.184 190.744 178.109 190.993L194.835 195.488L185.349 182.094C184.501 180.897 183.953 180.802 183.953 181.736C183.953 181.941 183.98 182.197 184.036 182.502L184.485 184.947C184.521 185.146 184.539 185.329 184.539 185.495C184.539 186.74 183.552 187.057 182.133 186.161L154.266 168.548C153.571 168.109 153.232 167.742 153.232 167.485C153.232 167.148 153.817 167.003 154.943 167.138L180.126 170.154C181.339 170.299 181.987 170.798 181.987 171.444C181.987 171.852 181.726 172.321 181.183 172.795L181.054 172.907C180.506 173.385 180.243 173.787 180.243 174.08C180.243 174.536 180.881 174.727 182.078 174.529L199.666 171.614Z" fill="#E3E3E3"/>
<path d="M197.81 24.0625L197.917 25.15C198.084 26.8513 197.381 27.567 196.347 26.685C196.29 26.6374 196.237 26.5999 196.184 26.5696L196.441 26.2723C196.554 25.3477 197.153 24.7423 197.81 24.0625Z" fill="#72006C"/>
<path d="M0 212.187V205.911C9.18568 202.14 17.8842 196.98 24.4294 191.914C17.5241 200.235 8.96448 207.712 0 212.187Z" fill="#590055"/>
<path d="M180.11 57.3818C182.063 57.0043 184.107 55.3882 184.667 53.749L194.168 29.4926C194.897 28.0887 195.267 26.0414 196.181 26.5694L194.715 28.2674L190.123 51.266C189.915 52.9645 191.007 53.4707 192.56 52.3933L212.448 39.156C213.77 38.3894 213.112 38.2656 211.685 38.3311L210.484 38.3115C208.772 38.2124 208.429 36.5531 209.943 35.6078L227.752 26.906L229.762 27.5601L222.42 42.7109C221.331 43.7161 219.515 43.025 218.824 41.8345C218.133 40.6439 216.649 40.173 215.102 41.2571L195.209 55.1922C193.66 56.2763 194.017 57.3235 196.005 57.5318L224.109 60.4741C226.096 60.6818 227.118 60.1795 226.391 58.5886L226.245 58.2699C225.601 57.0956 226.643 56.535 228.517 57.2451L239.152 65L223.813 68.1623C221.362 68.285 221.068 66.7388 222.579 65.9811L223.993 65.1355C225.632 64.1544 225.34 63.2797 223.342 63.1806L194.981 61.7722C192.982 61.673 189.744 61.7195 187.754 61.9088C135.133 66.9068 103.16 87.3754 80.3828 111.925C98.1147 88.7742 125.056 68.0257 180.11 57.3818Z" fill="#590055"/>
<path d="M23.1484 193.048C41.176 171.325 55.3378 138.919 80.3855 111.924C59.0288 139.805 50.7962 171.649 23.1484 193.048Z" fill="#72006C"/>
<path d="M23.3984 193.047C41.1146 171.169 55.3252 139.505 80.6394 112.738C59.2972 140.144 51.0227 171.026 23.3984 193.047Z" fill="url(#paint4_linear_20023_52496)"/>
<path d="M0 213.408V207.07C9.17784 203.005 16.8336 198.277 23.394 193.047C16.4338 201.643 8.93032 208.726 0 213.408Z" fill="url(#paint5_linear_20023_52496)"/>
<path opacity="0.05" d="M21.1966 195.164C14.2974 203.273 7.55671 208.943 0.183192 212.855V207.261C7.90447 203.915 14.8098 199.941 21.1966 195.164ZM23.3958 193.047C16.8354 198.277 9.24791 203.005 -0.179688 207.07V213.407C8.88503 208.726 16.4355 201.643 23.3958 193.047Z" fill="#E3E3E3"/>
<path d="M198.097 13.1309L198.86 19.367C199.373 21.0173 199.928 20.5817 199.336 21.9688C198.95 22.8726 198.358 23.4931 197.808 24.0615L196.738 13.1309H198.097Z" fill="#72006C"/>
<path d="M181.561 58.309C183.513 57.9316 185.557 56.316 186.117 54.6769L194.136 31.2291L191.573 52.1994C191.366 53.8979 192.456 54.4008 194.009 53.3234L213.978 39.4678C215.531 38.3904 215.173 37.6221 213.175 37.7525L211.863 37.8377C209.866 37.9676 209.656 37.3852 211.393 36.5362L229.761 27.5605L223.194 41.6608C222.455 43.2478 221.295 43.5693 220.605 42.3787C219.914 41.1876 218.099 41.1013 216.552 42.1855L196.658 56.1205C195.111 57.2047 195.468 58.2519 197.456 58.4602L225.559 61.4025C227.547 61.6108 228.569 60.4897 227.841 58.8981L227.695 58.5795C226.968 56.9886 227.647 56.5613 229.215 57.6247L240.493 65.2838L224.612 68.0631C222.65 68.4064 222.39 67.8901 224.029 66.909L225.443 66.0634C227.083 65.0828 226.791 64.2075 224.792 64.1084L199.223 62.8389C199.223 62.8389 193.131 63.2947 190.844 63.428C188.769 63.549 185.101 63.2527 183.095 63.4952C133.733 69.4642 102.893 89.2087 80.6367 112.74C98.5909 89.6847 125.795 69.0907 181.561 58.309Z" fill="url(#paint6_linear_20023_52496)"/>
<path opacity="0.1" d="M239.661 65.1116L224.539 67.7582C223.819 67.8848 223.487 67.8646 223.35 67.84C223.422 67.742 223.632 67.5224 224.238 67.1601L225.652 66.3145C226.447 65.8385 226.868 65.348 226.868 64.8955C226.868 64.5959 226.667 63.8897 224.813 63.7973L199.245 62.5278L199.218 62.5261L199.192 62.5284C199.132 62.5328 193.076 62.9853 190.82 63.1175C189.939 63.169 188.769 63.1438 187.531 63.1169C185.899 63.0816 184.213 63.0458 183.044 63.1869C142.674 68.0684 111.511 82.1121 85.6207 107.21C94.7235 96.7203 104.877 88.3455 117.126 81.1747C134.442 71.0359 155.545 63.6539 181.642 58.6084C183.748 58.2012 185.867 56.5112 186.466 54.7606L193.36 34.604L191.213 52.165C191.195 52.3128 191.185 52.4562 191.185 52.5906C191.185 53.6076 191.705 53.9699 192.013 54.0953C192.606 54.3356 193.396 54.1452 194.239 53.56L214.208 39.7044C214.938 39.1988 215.307 38.7317 215.307 38.3168C215.307 38.1028 215.209 37.9119 215.022 37.764C214.676 37.4908 214.046 37.3816 213.148 37.4404L211.836 37.526C211.062 37.5764 210.709 37.5031 210.595 37.4538C210.654 37.3631 210.897 37.1329 211.575 36.8014L229.042 28.2659L222.858 41.544C222.439 42.4428 221.954 42.7744 221.639 42.7856C221.305 42.7973 221.052 42.4479 220.93 42.239C220.603 41.6756 220.032 41.2937 219.325 41.1638C218.373 40.9891 217.278 41.2736 216.322 41.9439L196.428 55.8789C195.713 56.3807 195.334 56.9071 195.334 57.4021C195.334 58.1189 196.11 58.628 197.412 58.764L225.515 61.7063C226.446 61.8037 227.221 61.6419 227.755 61.2381C228.202 60.901 228.439 60.4256 228.439 59.8628C228.439 59.5223 228.352 59.1594 228.179 58.7831L228.033 58.4644C227.813 57.9817 227.766 57.6972 227.766 57.5427C227.766 57.4094 227.8 57.3584 227.81 57.3528C227.855 57.326 228.208 57.3338 228.989 57.8641L239.661 65.1116ZM240.493 65.2819L229.215 57.6228C228.075 56.8483 227.404 56.864 227.404 57.5432C227.404 57.7975 227.498 58.1441 227.696 58.577L227.842 58.8956C228.001 59.244 228.076 59.5693 228.076 59.8633C228.076 60.9133 227.113 61.5624 225.56 61.4L197.457 58.4577C196.301 58.3368 195.697 57.9324 195.697 57.4027C195.697 57.0202 196.011 56.5728 196.659 56.1186L216.553 42.1836C218.101 41.0994 219.915 41.1862 220.606 42.3768C221.296 43.5673 222.456 43.2459 223.195 41.6588L229.763 27.5586L211.395 36.5343C210.605 36.9201 210.218 37.2511 210.218 37.4852C210.218 37.7657 210.775 37.9068 211.865 37.8357L213.177 37.7506C214.338 37.675 214.945 37.9024 214.945 38.3184C214.945 38.618 214.63 39.0151 213.979 39.4659L194.01 53.3214C192.585 54.3109 191.549 53.9682 191.549 52.5912C191.549 52.468 191.557 52.3364 191.574 52.1975L194.137 31.2272L186.118 54.6749C185.558 56.314 183.515 57.9302 181.562 58.3071C125.796 69.0888 98.592 89.6822 80.6367 112.738C102.893 89.2062 133.733 69.4617 183.095 63.4927C185.101 63.2502 188.769 63.547 190.844 63.4255C193.131 63.2922 199.223 62.8364 199.223 62.8364L224.792 64.1059C225.921 64.1619 226.506 64.4654 226.506 64.8955C226.506 65.227 226.158 65.6341 225.443 66.0608L224.029 66.9064C223.305 67.3393 222.952 67.682 222.952 67.8999C222.952 68.1754 223.517 68.2516 224.612 68.06L240.493 65.2819Z" fill="#E3E3E3"/>
<path d="M200.31 20.3464C200.743 21.7374 200.204 22.4929 199.011 22.5186L198.098 13.2344L200.31 20.3464Z" fill="url(#paint7_linear_20023_52496)"/>
<path d="M198.277 22.4591C198.544 22.5061 198.786 22.524 199.009 22.519L199.364 26.1293C199.532 27.8312 198.829 28.4953 197.794 27.6128C196.759 26.7308 195.466 27.3445 194.906 28.9836L194.137 31.2298L194.356 29.4451C194.563 27.7466 198.123 22.4317 198.277 22.4591Z" fill="url(#paint8_linear_20023_52496)"/>
<path d="M22.0029 194.142C21.6064 194.337 19.6392 195.323 21.6064 194.028C50.3451 175.102 68.7226 118.91 87.4988 104.596C85.55 106.57 83.4999 109.815 78.8474 115.514C60.8109 137.605 53.303 173.093 22.0029 194.142Z" fill="#590055"/>
<path d="M198.943 28.1909C198.117 28.649 197.593 27.3431 196.465 27.2507C195.83 27.1986 194.954 29.5176 193.897 31.9329C193.897 31.9329 193.08 32.5606 193.563 31.2441C194.105 29.7679 194.705 25.2347 195.891 25.5757C196.92 25.872 199.064 28.7711 198.655 24.5711C198.619 24.2021 196.737 13.1309 196.737 13.1309H198.097C198.097 13.1309 200.499 27.3274 198.943 28.1909Z" fill="#590055"/>
<path d="M198.341 27.1656C197.515 27.6237 196.975 26.1845 195.845 26.1173C194.678 26.0473 190.965 39.7219 188.684 43.4022C188.684 43.4022 193.917 26.4314 194.592 25.7051C195.503 24.7245 196.137 23.5407 196.439 21.5051C196.493 21.1377 196.738 13.1309 196.738 13.1309C196.738 13.1309 199.897 26.3021 198.341 27.1656Z" fill="url(#paint9_linear_20023_52496)"/>
<path d="M118.356 220.267C112.7 212.451 107.591 204.009 103.468 195.089C99.3943 186.169 95.7347 177.12 92.5186 168.218C89.302 159.316 86.5389 150.565 84.2345 142.267C81.9279 133.971 80.0799 126.129 78.6373 119.059C77.1925 111.989 76.1537 105.691 75.4134 100.488C75.0438 97.8866 74.7476 95.5587 74.5118 93.5433L73.9714 88.8426C73.7726 87.0904 72.9937 84.1493 71.6861 82.8092C64.1306 75.2307 56.7833 67.3308 49.7106 59.0501C48.5743 57.2547 47.2292 57.5308 46.5852 58.9465C45.944 60.3605 44.5826 60.0194 44.3894 58.1479C44.026 54.5768 43.7141 50.9855 43.457 47.3752L44.3127 46.0558C45.8746 47.8243 51.0663 50.3606 53.8741 51.3736C54.3272 52.8419 52.2188 53.0553 52.1046 53.8169C50.8003 54.1372 50.9487 55.3726 52.1768 56.828C58.6089 64.453 65.278 71.7554 72.1307 78.7817C73.4389 80.1206 74.5135 79.7673 74.5342 78.0055C74.6328 70.4489 74.9458 62.8777 75.5092 55.2992C75.6408 53.5335 74.1596 52.3351 72.1822 52.6308L70.9631 52.815C69.8078 52.9954 68.5551 51.8994 69.8784 50.5392C73.1157 47.1988 76.4018 43.9222 79.7366 40.7168C81.9329 44.2106 84.1886 47.6474 86.4953 51.0314C87.5223 52.5132 85.8317 53.9255 83.9142 53.4294L83.2988 53.2686C81.383 52.7652 79.7176 53.7754 79.5961 55.5322C79.0775 63.0474 78.8065 70.5592 78.7488 78.0576C78.7376 79.8087 79.6683 80.063 80.8236 78.6389C85.3019 73.1296 89.8956 67.7508 94.6091 62.5282C95.8254 61.1809 95.2598 59.9534 93.3334 59.7702C92.5147 59.7831 91.7985 58.3221 93.1565 57.2659C97.595 55.4101 102.046 53.613 106.514 51.8782L106.613 53.0133C105.395 56.7597 104.243 60.5386 103.155 64.3432C102.702 65.9672 101.194 65.9358 100.672 64.9144L100.594 64.6971C100.094 62.8256 99.2969 62.5305 97.9792 63.8784C92.6922 69.797 87.4607 75.4519 82.5814 82.3522C81.6149 83.7601 80.8062 87.3088 80.8096 88.365C80.7435 88.8522 80.6808 89.3517 80.6265 89.8624L80.5469 90.638C80.5217 90.9068 80.4977 91.1403 80.4764 91.4668C80.3907 92.6971 80.328 93.9795 80.291 95.3118C80.2188 97.9751 80.2479 100.836 80.3896 103.866C80.6729 109.928 81.4054 116.674 82.6441 123.892C85.1093 138.334 89.6391 154.65 96.2298 171.226C97.875 175.371 99.6452 179.534 101.537 183.69C102.482 185.768 103.458 187.845 104.463 189.917L105.993 193.024C106.51 194.052 107.037 195.071 107.58 196.084C111.928 204.191 117.217 211.867 123.123 219.057C129.033 226.25 135.553 232.966 142.425 239.256C148.102 244.449 154.021 249.351 160.083 253.997H149.49C145.157 250.251 140.838 246.193 136.602 241.849C130.216 235.295 124.018 228.086 118.356 220.267Z" fill="#440069"/>
<path d="M137.908 241.538C131.464 235.015 125.203 227.818 119.484 219.996C113.768 212.178 108.606 203.717 104.441 194.762C100.319 185.785 96.607 176.649 93.3511 167.66C90.0942 158.671 87.2992 149.824 84.9713 141.432C82.6422 133.039 80.7791 125.102 79.3321 117.945C77.8817 110.788 76.8446 104.412 76.1098 99.1471C75.743 96.5145 75.4507 94.1592 75.2183 92.1219L74.6891 87.5652C74.497 85.8146 73.3031 83.3159 71.9972 81.9741C64.459 74.2489 57.1348 66.1956 50.1006 57.7513C48.8821 56.2858 47.3684 56.227 46.7199 57.6421C46.0742 59.0556 45.3955 58.6949 45.209 56.8251C44.8585 53.2557 44.5594 49.6661 44.3164 46.0574C46.9854 47.4429 49.6633 48.807 52.349 50.1505C54.1024 51.0285 54.4698 51.9833 53.1627 52.3009C51.8574 52.6161 51.7784 54.0705 53.0014 55.5276C59.4067 63.1637 66.0506 70.4757 72.8814 77.5104C74.1857 78.851 75.2609 78.5005 75.2866 76.7409C75.4093 69.1933 75.7486 61.631 76.3394 54.0643C76.4772 52.3009 75.0005 51.0997 73.022 51.3897L71.8023 51.5701C69.8244 51.8669 69.2885 51.0022 70.6151 49.647C73.6358 46.5687 76.6978 43.5458 79.8025 40.584C81.9344 43.9233 84.1201 47.2105 86.3522 50.4478C87.3787 51.9329 86.6675 52.7231 84.7518 52.2202L84.1369 52.0584C82.2228 51.5499 80.554 52.5545 80.4252 54.3079C79.8798 61.8119 79.5835 69.3137 79.5018 76.8037C79.485 78.5525 80.4146 78.8085 81.5743 77.3889C86.0706 71.8964 90.6822 66.5372 95.4136 61.3348C96.635 59.9925 96.0738 58.7661 94.1474 58.5779C92.221 58.3931 92.1191 57.6293 93.9212 56.8867C98.1083 55.1647 102.306 53.4948 106.518 51.8803C105.257 55.7818 104.07 59.7169 102.95 63.6812C102.493 65.3063 101.668 65.3293 101.106 63.7187L101.03 63.5009C100.474 61.8909 99.0598 61.6669 97.8703 63.0237C92.7385 68.8841 87.7573 74.9383 82.9217 81.1504C81.8006 82.589 81.2574 85.0861 80.9958 86.8915C80.862 87.8497 80.7528 88.8649 80.6727 89.934L80.6173 90.7454L80.5938 91.1587L80.573 91.6358C80.5484 92.2821 80.5299 92.9434 80.5204 93.6188C80.479 96.3208 80.5574 99.2541 80.7646 102.384C81.1767 108.646 82.1041 115.696 83.578 123.265C86.5118 138.406 91.6946 155.59 98.81 172.785C100.585 177.086 102.479 181.389 104.476 185.667C105.475 187.805 106.5 189.937 107.551 192.061C108.597 194.182 109.677 196.229 110.824 198.268C115.402 206.405 120.821 214.025 126.683 221.076C132.548 228.13 138.849 234.628 145.273 240.572C150.53 245.432 155.87 249.918 161.173 254.001H151.39C146.856 250.186 142.339 246.019 137.908 241.538Z" fill="url(#paint10_linear_20023_52496)"/>
<path opacity="0.1" d="M44.611 46.2257C47.187 47.5596 49.7915 48.8846 52.3507 50.1642C53.3481 50.6631 53.9434 51.2203 53.9434 51.6543C53.9434 51.6745 53.9417 51.6941 53.9389 51.7126C53.9137 51.8946 53.7597 52.1415 53.1666 52.2849C52.6934 52.3991 52.3653 52.6679 52.2169 53.0627C51.9699 53.7191 52.2695 54.666 53.0031 55.5391C59.171 62.8902 65.859 70.2839 72.8809 77.514C73.3866 78.0348 73.8917 78.3243 74.3022 78.3288C74.4982 78.3311 74.6774 78.2672 74.8218 78.1435C75.1136 77.8937 75.2738 77.4076 75.285 76.739C75.4104 69.044 75.7638 61.414 76.3372 54.0623C76.4503 52.5817 75.3919 51.4488 73.8357 51.3458C73.5725 51.3284 73.2986 51.3402 73.022 51.3816L71.8023 51.5614C71.459 51.6123 71.1516 51.6297 70.8878 51.6129C70.3838 51.5804 70.0534 51.4236 69.9342 51.1599C69.7706 50.8031 70.0126 50.2633 70.6095 49.6535C73.5921 46.6143 76.6262 43.6183 79.6289 40.7495L79.8002 40.5859L79.9229 40.7786C81.9792 43.9947 84.1419 47.2483 86.35 50.4487C86.812 51.1179 86.938 51.6857 86.6978 52.0206C86.5124 52.2799 86.1277 52.3975 85.585 52.3622C85.3342 52.3459 85.0508 52.2967 84.7467 52.216L84.1285 52.0536C83.8793 51.9875 83.6228 51.9461 83.3758 51.9293C82.621 51.8795 81.9008 52.0749 81.3677 52.4798C80.7998 52.911 80.4347 53.5595 80.3793 54.3065C79.8495 61.5921 79.411 69.1611 79.411 76.8017V76.8499C79.411 77.7571 79.7336 78.3019 80.2001 78.3075C80.5686 78.3115 81.0849 77.9861 81.5721 77.3903C86.131 71.8205 90.788 66.4176 95.4125 61.3323C96.0117 60.6726 96.2032 60.0123 95.9445 59.4915C95.6953 58.9903 95.0558 58.6655 94.1452 58.5771C93.2352 58.4891 92.6993 58.2702 92.6377 57.9599C92.6343 57.9415 92.6321 57.9219 92.6321 57.9011C92.6321 57.5875 93.089 57.2269 93.9195 56.8853C98.007 55.2031 102.127 53.5623 106.166 52.0099L106.517 51.875L106.415 52.1914C105.209 55.9417 104.042 59.8079 102.948 63.6815C102.72 64.4907 102.398 64.9291 102.04 64.9151C101.7 64.9011 101.369 64.4767 101.105 63.7201L101.029 63.5017C100.739 62.6639 100.198 62.1672 99.5436 62.137C98.987 62.1118 98.3917 62.4271 97.8675 63.0246C92.8538 68.7511 87.8245 74.8484 82.9206 81.1467C82.0335 82.2858 81.385 84.2178 80.9936 86.8895C80.8379 87.9995 80.7164 89.1945 80.6341 90.4394L80.5786 91.4233L80.5372 92.5539C80.5165 93.3189 80.4997 94.1079 80.4997 94.8998V94.9631C80.4997 98.1864 80.6699 101.676 80.9947 105.334C81.674 113.017 83.0471 121.373 85.0637 130.169C87.1402 139.236 89.8825 148.64 93.2156 158.119C96.5795 167.696 100.534 177.321 104.969 186.723C105.599 188.059 106.256 189.427 106.922 190.789L107.976 192.922C108.402 193.767 108.754 194.45 109.084 195.076C110.655 198.061 112.394 201.075 114.255 204.034C118.273 210.44 122.888 216.726 127.973 222.716C137.252 233.659 148.657 244.49 160.953 254.04L161.299 254.309H151.589L151.536 254.263C144.992 248.63 139.222 243.127 133.898 237.437C126.625 229.634 120.409 221.778 114.894 213.422C111.739 208.636 108.856 203.671 106.326 198.662C104.942 195.937 103.679 193.133 102.521 190.51C101.298 187.746 100.072 184.871 98.8766 181.963C94.7898 172.028 91.1033 161.768 87.9197 151.47C85.0536 142.213 82.5638 132.816 80.5198 123.541C78.8538 115.995 77.4634 108.433 76.3865 101.066C75.981 98.2995 75.6142 95.5175 75.2973 92.7975L74.6886 87.5632C74.4959 85.8054 73.2874 83.2943 71.9944 81.9666C64.2121 73.9905 56.8442 65.8375 50.0962 57.7348C49.5138 57.0359 48.849 56.6333 48.2241 56.6008C47.5834 56.5672 47.0358 56.943 46.7216 57.6307C46.539 58.0294 46.2534 58.502 45.9286 58.4863C45.5742 58.4695 45.3115 57.8614 45.2079 56.8181C44.8658 53.3321 44.5723 49.8159 44.3366 46.3657L44.3164 46.0717L44.611 46.2257ZM46.3828 57.5192C46.758 56.6977 47.4367 56.2508 48.2454 56.2928C48.9818 56.3309 49.7439 56.7795 50.3907 57.5562C57.1337 65.6521 64.496 73.799 72.2727 81.7689C73.605 83.1375 74.8498 85.7242 75.0486 87.533L75.6574 92.7667C75.9743 95.4844 76.3411 98.2637 76.746 101.028C77.8218 108.389 79.2117 115.944 80.876 123.484C82.9189 132.752 85.4058 142.141 88.2697 151.391C91.451 161.682 95.1347 171.934 99.2182 181.861C100.413 184.766 101.638 187.64 102.859 190.401C104.016 193.021 105.277 195.821 106.658 198.539C109.183 203.538 112.06 208.494 115.208 213.27C120.713 221.612 126.919 229.454 134.18 237.244C139.481 242.91 145.225 248.391 151.738 253.999H160.36C148.178 244.502 136.883 233.755 127.676 222.897C122.583 216.896 117.959 210.598 113.933 204.179C112.069 201.214 110.325 198.194 108.751 195.203C108.42 194.576 108.066 193.89 107.64 193.043L106.584 190.907C105.918 189.544 105.26 188.175 104.629 186.837C100.19 177.426 96.2306 167.794 92.8639 158.207C89.5286 148.718 86.7812 139.304 84.7025 130.227C82.6831 121.42 81.3106 113.052 80.6302 105.357C80.3054 101.69 80.1346 98.1937 80.1346 94.9619V94.8987C80.1346 94.1046 80.1514 93.3127 80.1721 92.545L80.2163 91.4104L80.2706 90.422C80.3535 89.1693 80.475 87.9681 80.6318 86.8503C81.0306 84.1304 81.6981 82.1531 82.6165 80.9743C87.5243 74.6709 92.557 68.5691 97.5752 62.8381C98.1733 62.1549 98.8789 61.7959 99.5604 61.8273C100.377 61.8643 101.039 62.4427 101.374 63.4127L101.45 63.6316C101.725 64.4212 101.998 64.6032 102.051 64.6088C102.109 64.5999 102.37 64.4095 102.594 63.6154C103.658 59.8477 104.79 56.094 105.962 52.4406C102.039 53.952 98.0417 55.5592 94.0752 57.1916C93.2201 57.5433 92.9927 57.6547 92.9927 57.9639H92.9922C93.0028 57.9639 93.2352 58.2058 94.1816 58.2976C95.2282 58.3995 95.968 58.7619 96.2704 59.37C96.5818 59.9922 96.369 60.7695 95.6869 61.5215C91.0652 66.603 86.4004 72.0014 81.8459 77.5667C81.2708 78.2689 80.7007 78.6223 80.1934 78.6161C79.8618 78.6122 79.0476 78.4319 79.0476 76.8493V76.7983C79.0476 69.1521 79.4866 61.5781 80.0164 54.2863C80.078 53.4575 80.5081 52.7335 81.1482 52.2479C81.7546 51.7871 82.5599 51.5636 83.4139 51.6202C83.6872 51.6387 83.9655 51.6846 84.2405 51.7574L84.8559 51.9192C85.1348 51.9926 85.3902 52.0374 85.6136 52.0525C85.8404 52.0671 86.243 52.0615 86.3886 51.8582C86.5466 51.6353 86.4138 51.1498 86.0375 50.6038C83.8709 47.4644 81.749 44.2735 79.728 41.1174C76.7841 43.9336 73.8105 46.8708 70.8878 49.8495C70.4023 50.3456 70.1654 50.8127 70.2718 51.0462C70.3598 51.2388 70.7126 51.2898 70.9147 51.3032C71.1488 51.3178 71.4266 51.3021 71.7402 51.2551L72.9604 51.0753C73.2656 51.0299 73.5697 51.0171 73.8637 51.0361C75.6249 51.1526 76.8294 52.4187 76.699 54.0814C76.1261 61.428 75.7722 69.0524 75.6473 76.7418C75.635 77.4922 75.4384 78.0516 75.0789 78.3596C74.8638 78.545 74.5934 78.6407 74.2966 78.6368C73.7707 78.6312 73.185 78.3109 72.602 77.7106C65.574 70.4748 58.8814 63.075 52.7091 55.7183C51.9061 54.7635 51.5897 53.7185 51.8719 52.967C52.0595 52.4691 52.4734 52.1298 53.0681 51.9859C53.2495 51.9422 53.5564 51.8436 53.5816 51.6527C53.5816 51.4611 53.2837 50.9874 52.1682 50.4291C49.7053 49.1976 47.1998 47.9242 44.7185 46.6412C44.9509 49.9939 45.2365 53.4071 45.5691 56.7912C45.6677 57.7908 45.8816 58.0876 45.9544 58.161C46.0166 58.119 46.1762 57.9711 46.3828 57.5192Z" fill="#E3E3E3"/>
<path opacity="0.2" d="M23.0236 115.533C22.182 116.154 21.8818 116.025 21.5738 116.073C20.7943 115.438 19.247 112.864 19.247 112.864C19.247 112.864 19.1731 112.453 20.367 112.13C22.8428 111.463 24.3312 107.998 24.3312 107.998L25.4496 109.749C25.4496 109.75 24.534 114.417 23.0236 115.533Z" fill="black"/>
<path opacity="0.2" d="M9.64095 153.515C8.84351 153.82 3.71335 150.133 3.71335 150.133C3.71335 150.133 3.08391 149.489 3.55207 148.863C6.17063 147.832 10.402 146.314 14.9654 144.945L12.6224 152.387C12.6224 152.387 10.3958 153.225 9.64095 153.515Z" fill="black"/>
<path opacity="0.2" d="M190.965 41.5733C190.94 40.9578 191.858 40.0114 193.142 39.373C193.142 39.373 192.718 42.7168 192.65 43.316C192.07 43.2404 190.935 42.4077 190.965 41.5733Z" fill="black"/>
<path opacity="0.2" d="M114.821 41.8819C114.795 41.2664 116.346 40.32 117.631 39.6816C117.631 39.6816 116.573 43.0254 116.505 43.6246C115.925 43.5484 114.79 42.7163 114.821 41.8819Z" fill="black"/>
<path opacity="0.2" d="M100.881 134.26H99.8242L100.081 131.168H100.805L103.934 129.982L103.746 133.097L100.881 134.26Z" fill="black"/>
<path opacity="0.2" d="M176.404 202.362C175.68 202.284 175.227 199.657 175.227 199.657L179.94 199.115C179.124 201.511 177.129 202.44 176.404 202.362Z" fill="black"/>
<path opacity="0.2" d="M158.634 203.213C158.273 203.058 156.73 201.061 156.73 201.061L159.767 200.881C159.949 202.375 158.997 203.367 158.634 203.213Z" fill="black"/>
<path opacity="0.2" d="M132.802 204.14C131.079 203.29 133.436 202.367 133.436 202.367L133.815 201.693L136.534 201.641L136.881 202.427C136.881 202.427 134.524 204.991 132.802 204.14Z" fill="black"/>
<path opacity="0.2" d="M104.245 199.581L103.564 202.05L101.345 201.551L101.39 198.885L100.801 197.57L102.659 198.086L104.245 199.581Z" fill="black"/>
<path opacity="0.2" d="M82.6252 192.12L82.2175 195.599L79.543 194.654L80.3443 191.115L81.9459 190.922L83.7133 191.579L82.6252 192.12Z" fill="black"/>
<path opacity="0.2" d="M23.9951 187.847L20.3086 188.449V183.27L20.807 182.135L24.6066 181.695L23.5264 182.826L23.9951 187.847Z" fill="black"/>
<path opacity="0.2" d="M84.1991 156.301L82.0912 157.441L76.9258 155.649L78.4193 154.693L78.7441 149.197L82.4978 150.544L84.1991 156.301Z" fill="black"/>
<path opacity="0.2" d="M104.153 82.3925H103.398L104.063 75.8993H104.788L110.447 74.791L109.638 78.0637L104.153 82.3925Z" fill="black"/>
<path opacity="0.2" d="M96.5104 51.6259L95.1205 51.9871L93.8516 49.9258L94.8786 49.8227C94.8786 49.8227 96.2086 48.1735 96.8728 48.3287C97.5375 48.4821 96.5104 51.6259 96.5104 51.6259Z" fill="black"/>
<path opacity="0.2" d="M79.5463 223.699L76.9177 219.138L75.5586 218.481L77.9604 214.422H79.3201L82.4023 218.481L79.5463 223.699Z" fill="black"/>
<path opacity="0.2" d="M71.1288 126.556L69.5597 129.211L68.7113 128.463L67.8657 127.741L67.0117 127.995L69.2086 125.121L70.4479 124.434L71.0684 125.061L71.1288 126.556Z" fill="black"/>
<path opacity="0.2" d="M80.8582 88.239L80.4958 94.9669C80.4958 94.9669 75.4194 87.515 76.5674 85.5482C77.716 83.581 79.2263 87.4623 80.8582 88.239Z" fill="black"/>
<path opacity="0.2" d="M53.9385 51.6513C53.9385 52.1525 53.8366 52.5148 52.7485 53.1521L52.6953 52.479C52.6953 52.479 50.6759 52.1923 50.6149 51.471C50.5544 50.7497 52.2087 50.1376 52.669 50.337C53.1231 50.5335 53.9385 51.1423 53.9385 51.6513Z" fill="black"/>
</g>
</g>
<defs>
<linearGradient id="paint0_linear_20023_52496" x1="-4.39908" y1="125.763" x2="241.814" y2="122.502" gradientUnits="userSpaceOnUse">
<stop stop-color="#00407F"/>
<stop offset="0.2952" stop-color="#09FFA9"/>
<stop offset="0.4639" stop-color="#87F3CD"/>
<stop offset="0.4699" stop-color="#008859"/>
<stop offset="0.6807" stop-color="#30FFB6"/>
<stop offset="0.741" stop-color="#00724A"/>
<stop offset="0.8735" stop-color="#30FFB6"/>
<stop offset="0.8838" stop-color="#22D797"/>
<stop offset="0.8949" stop-color="#16B37C"/>
<stop offset="0.9061" stop-color="#0C9666"/>
<stop offset="0.9172" stop-color="#058256"/>
<stop offset="0.9283" stop-color="#01764D"/>
<stop offset="0.9394" stop-color="#00724A"/>
<stop offset="0.9646" stop-color="#09FFA9"/>
<stop offset="1" stop-color="#B6EBD7"/>
</linearGradient>
<linearGradient id="paint1_linear_20023_52496" x1="7.78779" y1="198.584" x2="224.985" y2="195.321" gradientUnits="userSpaceOnUse">
<stop stop-color="#003E72"/>
<stop offset="0.0843" stop-color="#00AAE3"/>
<stop offset="0.0964" stop-color="#003E72"/>
<stop offset="0.253" stop-color="#002A4C"/>
<stop offset="0.6084" stop-color="#007DE3"/>
<stop offset="0.6145" stop-color="#002A4C"/>
<stop offset="0.8795" stop-color="#007DE3"/>
<stop offset="0.9495" stop-color="#BFEFFF"/>
<stop offset="1" stop-color="#00AAE3"/>
</linearGradient>
<linearGradient id="paint2_linear_20023_52496" x1="65.6665" y1="249.35" x2="117.373" y2="19.3705" gradientUnits="userSpaceOnUse">
<stop stop-color="#539700"/>
<stop offset="0.0843" stop-color="#90FF09"/>
<stop offset="0.1835" stop-color="#2A4C00"/>
<stop offset="0.3838" stop-color="#90FF09"/>
<stop offset="0.6566" stop-color="#A2FF30"/>
<stop offset="0.6627" stop-color="#C3F387"/>
<stop offset="0.7222" stop-color="#539700"/>
<stop offset="0.7831" stop-color="#7DE300"/>
<stop offset="0.8434" stop-color="#539700"/>
<stop offset="0.904" stop-color="#90FF09"/>
<stop offset="1" stop-color="#D3EBB6"/>
</linearGradient>
<linearGradient id="paint3_linear_20023_52496" x1="202.386" y1="194.663" x2="-9.19487" y2="87.0839" gradientUnits="userSpaceOnUse">
<stop stop-color="#D7C99C"/>
<stop offset="0.0106" stop-color="#D8C998"/>
<stop offset="0.0209" stop-color="#DBC98D"/>
<stop offset="0.0311" stop-color="#E1C879"/>
<stop offset="0.0411" stop-color="#E9C85E"/>
<stop offset="0.0505" stop-color="#F2C73D"/>
<stop offset="0.1325" stop-color="#792C00"/>
<stop offset="0.2519" stop-color="#F2C73D"/>
<stop offset="0.2867" stop-color="#441900"/>
<stop offset="0.5723" stop-color="#F27F3D"/>
<stop offset="0.5783" stop-color="#443400"/>
<stop offset="1" stop-color="#FBC413"/>
</linearGradient>
<linearGradient id="paint4_linear_20023_52496" x1="89.763" y1="119.623" x2="11.996" y2="188.346" gradientUnits="userSpaceOnUse">
<stop stop-color="#FF09F3"/>
<stop offset="0.3133" stop-color="#FF09F3"/>
<stop offset="1" stop-color="#72006C"/>
</linearGradient>
<linearGradient id="paint5_linear_20023_52496" x1="22.7827" y1="191.245" x2="-2.32081" y2="213.429" gradientUnits="userSpaceOnUse">
<stop stop-color="#FF09F3"/>
<stop offset="0.3133" stop-color="#FF09F3"/>
<stop offset="1" stop-color="#72006C"/>
</linearGradient>
<linearGradient id="paint6_linear_20023_52496" x1="233.184" y1="26.2685" x2="93.6695" y2="143.134" gradientUnits="userSpaceOnUse">
<stop stop-color="#F387EE"/>
<stop offset="0.0808" stop-color="#970090"/>
<stop offset="0.1566" stop-color="#E300D8"/>
<stop offset="0.3102" stop-color="#970090"/>
<stop offset="0.3713" stop-color="#FF09F3"/>
<stop offset="0.7289" stop-color="#F387EE"/>
<stop offset="0.7349" stop-color="#FF09F3"/>
<stop offset="0.8636" stop-color="#FF09F3"/>
<stop offset="1" stop-color="#72006C"/>
</linearGradient>
<linearGradient id="paint7_linear_20023_52496" x1="200.846" y1="16.149" x2="196.424" y2="20.0572" gradientUnits="userSpaceOnUse">
<stop stop-color="#FF09F3"/>
<stop offset="0.3133" stop-color="#FF09F3"/>
<stop offset="1" stop-color="#72006C"/>
</linearGradient>
<linearGradient id="paint8_linear_20023_52496" x1="200.324" y1="23.6693" x2="192.699" y2="30.4073" gradientUnits="userSpaceOnUse">
<stop stop-color="#FF09F3"/>
<stop offset="0.3133" stop-color="#FF09F3"/>
<stop offset="1" stop-color="#72006C"/>
</linearGradient>
<linearGradient id="paint9_linear_20023_52496" x1="193.728" y1="43.402" x2="193.728" y2="13.1309" gradientUnits="userSpaceOnUse">
<stop stop-color="#E300D8"/>
<stop offset="0.512" stop-color="#FB5AF3"/>
<stop offset="1" stop-color="#FB5AF3"/>
</linearGradient>
<linearGradient id="paint10_linear_20023_52496" x1="114.766" y1="253.559" x2="89.6039" y2="40.2609" gradientUnits="userSpaceOnUse">
<stop stop-color="#620097"/>
<stop offset="0.1566" stop-color="#C25AFB"/>
<stop offset="0.1747" stop-color="#9400E3"/>
<stop offset="0.494" stop-color="#7A00BD"/>
<stop offset="0.7041" stop-color="#9400E3"/>
<stop offset="0.7071" stop-color="#CD87F3"/>
<stop offset="0.8169" stop-color="#B630FF"/>
<stop offset="0.9141" stop-color="#9400E3"/>
<stop offset="1" stop-color="#D8B6EB"/>
</linearGradient>
<clipPath id="clip0_20023_52496">
<rect width="268" height="220" rx="32" fill="white"/>
</clipPath>
<clipPath id="clip1_20023_52496">
<rect width="252" height="252" fill="white" transform="translate(0 2)"/>
</clipPath>
</defs>
</svg>
