<svg width="268" height="220" viewBox="0 0 268 220" fill="none" xmlns="http://www.w3.org/2000/svg">
<g clip-path="url(#clip0_20023_52826)">
<rect width="268" height="220" rx="32" fill="#AE5123"/>
<g clip-path="url(#clip1_20023_52826)">
<path d="M135.426 54.8753L135.455 60.5634L140.479 60.5927L140.484 54.875L135.426 54.8753Z" fill="#DEE4E9"/>
<path d="M145.826 37.8379L140.517 37.8442L140.508 43.4717L145.81 43.448L145.826 37.8379Z" fill="#DEE4E9"/>
<path d="M113.001 37.8516L107.444 37.8585L107.434 43.5727L113.004 43.5683L113.001 37.8516Z" fill="#DEE4E9"/>
<path d="M185.061 126.273L190.87 126.264L190.871 120.618L185.055 120.613L185.061 126.273Z" fill="#DEE4E9"/>
<path d="M124.621 147.844L118.571 147.86L118.57 153.442L124.635 153.452C124.618 153.356 124.627 147.941 124.621 147.844Z" fill="#DEE4E9"/>
<path d="M70.1138 97.173L70.1239 93.3496L63.9865 93.354L63.9609 98.8626L70.1477 98.8566C70.0259 98.3595 70.1128 97.6923 70.1138 97.173Z" fill="#DEE4E9"/>
<path d="M118.559 176.154L118.551 181.742L124.61 181.758L124.624 176.118C123.352 176.159 119.766 176.049 118.559 176.154Z" fill="#DEE4E9"/>
<path d="M107.367 49.1237L107.376 43.6211L97.7578 43.6248L97.7695 49.1508L107.367 49.1237Z" fill="#DEE4E9"/>
<path d="M107.366 159.235L97.8253 159.227L97.8242 164.89L107.36 164.898L107.366 159.235Z" fill="#DEE4E9"/>
<path d="M140.483 66.2402L130.348 66.2482L130.352 71.8861L140.488 71.8221L140.483 66.2402Z" fill="#DEE4E9"/>
<path d="M124.62 174.258C124.62 174.861 124.561 175.52 124.635 176.118L145.694 176.125L145.702 170.547L124.611 170.56L124.62 174.258Z" fill="#DEE4E9"/>
<path d="M140.479 49.1365L140.488 43.509L135.458 43.5112L135.432 37.8398L118.567 37.8562L118.535 49.1096L130.291 49.1204L130.298 54.8704L135.434 54.8742L135.438 49.096L140.479 49.1365Z" fill="#DEE4E9"/>
<path d="M83.4398 109.347C85.9681 109.354 95.0543 109.336 97.7378 109.331L97.7373 87.9925L102.218 87.9972L102.219 82.7988L92.331 82.8011L92.3039 104.055L87.1264 104.059L87.1204 94.5213C86.9908 92.305 87.8767 88.8492 85.0241 88.035C81.8243 87.7253 73.4991 88.0337 70.1653 87.9304L70.1602 93.2775L81.5455 93.2927L81.5521 109.329C82.1617 109.401 82.8224 109.347 83.4398 109.347Z" fill="#DEE4E9"/>
<path d="M112.929 136.871L112.921 142.389L107.431 142.403L107.433 147.83L101.936 147.838L101.934 153.491L107.421 153.518L107.422 159.245L112.93 159.244L112.933 164.915L107.424 164.927L107.403 176.067C106.52 176.016 103.049 176.194 102.253 176.02L102.226 170.475L97.8663 170.477L97.8477 181.754L112.981 181.751L113.005 176.122L118.545 176.118L118.58 170.599L124.538 170.571C124.713 169.738 124.545 165.855 124.609 164.922L130.544 164.914L130.567 153.464L124.627 153.451L124.63 159.324L118.583 159.32C118.42 158.358 118.599 154.507 118.538 153.455L112.82 153.447L112.809 147.834L118.523 147.828L118.513 136.822C118.413 136.843 113.027 136.864 112.929 136.871Z" fill="#DEE4E9"/>
<path d="M112.792 55.0849L102.308 55.1022L102.301 60.5653L107.367 60.5872L107.364 66.17L113.077 66.1638L113.09 60.5038L118.601 60.5083L118.57 66.3126L113.087 66.314L113.065 71.9121L107.36 71.9079L107.385 87.9265C111.34 87.8315 126.734 88.1137 130.338 87.8468C130.374 87.5179 130.344 72.2716 130.356 71.9446L124.671 71.947L124.65 77.1371L118.596 77.1591L118.586 82.6087C117.651 82.5504 113.933 82.7244 113.097 82.5661L113.092 76.9679L118.442 76.9655L118.453 71.6093L124.658 71.6206L124.685 66.2387L130.324 66.2372L130.312 60.6612L124.623 60.6273L124.653 55.0043L118.488 54.9791L118.482 49.1855L112.79 49.2175L112.792 55.0849Z" fill="#DEE4E9"/>
<path d="M107.206 71.8756L107.204 66.3363L92.3573 66.329L92.3433 54.87L97.6991 54.8673L97.7095 49.2842L92.3562 49.2971L92.3519 43.5836L97.6988 43.5832L97.6964 37.8763L92.2855 37.8613L92.2867 43.5857C91.2982 43.6494 87.787 43.4749 86.8889 43.6462C86.8815 50.2473 86.8576 71.0372 86.8538 77.283L52.7486 77.3227L52.7429 82.575L47.0053 82.5755L46.9922 88.0721L52.7274 88.0635L52.7336 82.7076L58.2504 82.7305L58.2696 93.2594L63.9389 93.2874C63.9788 91.0414 63.8598 84.9087 63.9646 82.7645C70.5312 82.8133 85.9837 82.6479 92.335 82.8023L92.342 71.8951L107.206 71.8756Z" fill="#DEE4E9"/>
<path d="M132.788 93.2082C130.073 93.0759 123.239 93.2782 120.419 93.2024H110.104C108.538 93.4222 103.51 92.4885 102.602 94.4064C101.561 96.6471 102.318 99.4033 102.141 101.819C102.275 107.923 101.954 118.252 102.217 124.25C103.1 127.438 107.328 125.999 109.777 126.263C114.539 126.24 124.297 126.279 129.014 126.267C131.796 126.341 135.474 126.866 135.571 123.011C135.597 116.406 135.579 106.676 135.579 100.057C135.573 97.5458 136.276 93.5506 132.788 93.2082ZM130.146 120.607L129.713 120.634L107.585 120.621C107.675 116.872 107.408 102.041 107.698 98.6098L108.153 98.5864L130.253 98.5942L130.29 104.332C130.185 107.699 130.419 117.452 130.146 120.607Z" fill="#DEE4E9"/>
<path d="M124.709 104.062L113.023 104.084L113.02 115.188L124.704 115.204L124.709 104.062Z" fill="#DEE4E9"/>
<path d="M190.839 65.1647L190.833 62.7937L190.822 57.3065C190.822 56.3865 190.824 54.3168 190.825 51.9827C190.829 48.2033 190.833 43.7393 190.841 42.3777C191.244 38.3688 188.976 37.4469 185.385 37.8261C181.619 37.8319 163.1 37.8086 158.951 37.8066C158.14 37.9078 157.544 38.2035 157.023 38.8415C155.864 40.9655 156.691 43.8209 156.502 46.1784L156.5 57.6643C156.675 74.8144 153.901 71.6224 170.952 71.8909H182.436C183.996 71.6672 189.427 72.6067 190.353 70.7219C191.341 69.0842 190.734 66.9853 190.839 65.1647ZM185.144 66.1626C185.109 66.2365 183.376 66.2715 180.874 66.2832C180.225 66.2851 179.524 66.287 178.789 66.287C172.01 66.2909 162.223 66.1957 162.102 66.254L162.104 43.5098L185.163 43.5195L185.157 51.3486L185.146 63.5853L185.144 66.1626Z" fill="#DEE4E9"/>
<path d="M179.724 49.113L167.9 49.0742L167.887 60.6672L179.725 60.6737L179.724 49.113Z" fill="#DEE4E9"/>
<path d="M81.5876 159.817L81.5935 153.923C81.5001 151.99 82.2178 148.965 79.9071 148.033C72.3367 147.345 61.4148 148.037 53.753 147.804C50.3685 147.681 46.5736 147.276 46.984 151.945C46.9645 157.873 46.9879 167.706 46.9762 173.678C47.0463 177.515 45.7975 182.384 51.5045 181.746C55.3208 181.752 61.5646 181.754 67.2268 181.758C70.7164 181.759 73.9861 181.761 76.328 181.765C78.4346 181.971 81.6032 181.806 81.5799 179.003C81.5994 177.163 81.5994 174.129 81.5935 170.927C81.5876 166.747 81.574 162.285 81.5876 159.817ZM75.9371 176.088C75.9001 176.107 75.4469 176.123 74.6884 176.132C69.8839 176.198 52.8758 176.103 52.6346 176.146L52.621 153.534L52.8214 153.419L75.9644 153.458L75.9391 175.191L75.9371 176.088Z" fill="#DEE4E9"/>
<path d="M70.364 159.18L58.1546 159.174L58.1523 170.686L70.3829 170.686L70.364 159.18Z" fill="#DEE4E9"/>
<path d="M81.6041 63.7629C81.5749 59.009 81.6489 48.5774 81.6138 43.911C81.7072 41.6936 82.1157 38.2177 79.1261 37.8676C72.5846 37.7353 62.4292 37.8908 55.8177 37.8306L49.6206 37.8618C48.7064 38.0641 47.9614 38.4531 47.4304 39.2525C46.3762 41.5205 47.1387 44.2904 46.9655 46.7334C46.9675 46.7334 46.9733 58.7387 46.9733 58.7387C46.9753 60.359 46.9733 66.8285 46.9753 68.332C46.5512 72.6522 50.8461 71.9188 53.7755 71.8936C61.0346 71.8779 71.6803 71.9014 78.9316 71.8741C81.5303 71.6951 81.8007 69.3221 81.608 67.2077L81.6041 63.7629ZM52.616 66.2643L52.6491 43.4987L75.9496 43.5298L75.9535 66.2623L52.616 66.2643Z" fill="#DEE4E9"/>
<path d="M58.2227 49.0527L58.2332 60.68L70.3856 60.6646L70.3852 49.0598L58.2227 49.0527Z" fill="#DEE4E9"/>
<path d="M190.902 176.297L190.894 170.635L185.183 170.619C185.037 169.775 185.207 165.844 185.152 164.903L190.894 164.866L190.892 159.139L185.15 159.114V153.448L180.997 153.454L179.638 153.456L179.636 154.496L179.632 157.299L179.603 176.147L173.682 176.145L173.686 170.641L168.019 170.629L168.027 159.448L173.608 159.46C173.761 158.244 173.602 154.73 173.662 153.446L168.012 153.419L168.016 147.887L162.065 147.9L162.06 153.411L167.971 153.421L167.969 159.429L162.021 159.417L162.025 153.45L145.771 153.454C145.728 157.083 145.867 167.081 145.699 170.549C147.506 170.693 149.368 170.454 151.171 170.687V176.153L145.814 176.182L145.818 181.767L162.038 181.745L162.046 176.241L156.777 176.192L156.759 170.582L167.951 170.598L167.936 181.747L182.81 181.765L185.105 181.767C185.17 180.623 185.031 177.379 185.185 176.301L190.902 176.297ZM151.171 164.978L151.169 159.188L156.648 159.225L156.652 164.98L151.171 164.978Z" fill="#DEE4E9"/>
<path d="M112.856 131.415L107.441 131.391L107.39 136.832H97.7326L97.7521 126.208L92.3758 126.194L92.3855 120.75L97.7112 120.719L97.7132 114.967L81.5552 114.963L81.5104 126.194L63.9071 126.198L63.8974 120.619L58.3441 120.584L58.3383 114.961C59.3614 114.889 62.9833 115.099 63.9072 114.891C63.9986 114.097 63.7904 109.785 63.983 109.365L75.9533 109.345L75.963 114.926L70.219 114.957L70.2093 120.715L75.9669 120.713L75.9747 114.955L81.5552 114.963L81.561 109.326L75.9688 109.336V98.9002L70.1588 98.8516L70.151 104.037H63.9537L63.9711 98.8574L58.3206 98.8943L58.2564 104.041L52.7245 104.047L52.7011 98.9197L47.0253 98.9235L47.0233 114.969L52.7322 114.963V109.39L58.2427 109.396L58.2719 114.92C56.9298 114.955 54.0277 114.879 52.7322 114.963L52.7206 120.629L47.0175 120.652L47.0039 126.21H52.7148L52.7265 120.68L58.2545 120.678L58.2467 126.221L52.7283 126.233L52.7167 142.41L86.8398 142.391C86.8768 146.917 86.8301 158.308 86.8476 166.966C86.8535 170.852 86.8729 174.186 86.9176 176.104L92.4029 176.1L92.4204 162.762L92.4263 159.09L97.289 159.094H97.752V158.744L97.7403 153.494L92.4107 153.49L92.4029 142.422L107.382 142.411L107.4 136.824L112.862 136.822L112.856 131.415ZM59.4682 136.844L58.0891 136.842V131.512C58.7232 131.512 70.0808 131.492 70.3316 131.5L70.3473 136.83L59.4682 136.844ZM81.5122 136.828L76.0464 136.82L76.0581 131.572L76.2798 131.496L81.5141 131.504L81.5122 136.828ZM92.3329 131.512L92.3407 136.855L87.048 136.845L87.0402 131.52L92.3329 131.512Z" fill="#DEE4E9"/>
<path d="M188.121 147.837L185.122 147.83L185.138 142.444L187.725 142.422L190.881 142.397L190.889 136.902L187.225 136.896L179.641 136.886L179.625 142.335L168.021 142.333L168.03 136.882C170.648 136.931 177.127 136.723 179.641 136.886L179.629 115.484L173.249 115.496L173.253 109.581L178.061 109.559L179.613 109.552L179.619 114.002L179.621 115.426H180.168L185.101 115.424L185.112 109.542L179.644 109.548L179.643 103.971C178.958 103.917 177.696 103.915 176.429 103.922C175.196 103.928 173.963 103.94 173.265 103.913L173.263 101.849L173.261 98.8554C173.084 98.7329 168.705 98.7893 168.024 98.7777L167.997 105.811L167.982 109.6L162.936 109.622L156.708 109.647L156.692 114.321L156.69 114.967C159.396 115.023 165.375 114.862 167.99 115.021L167.999 120.666L162.014 120.664L162.012 126.243H168.021L168.028 120.783L173.922 120.828L173.924 131.421L156.63 131.424C156.581 128.085 156.721 118.126 156.601 114.957H155.848L151.229 114.953L151.23 103.981L156.578 103.979L156.587 87.9473L145.757 87.9317L145.728 82.7577L168.176 82.7402L168.188 88.0115L173.84 87.9998L173.835 82.7441H174.311L179.579 82.746C179.664 84.9051 179.643 91.6022 179.631 97.0582C179.625 100.061 179.621 102.687 179.643 103.971L185.077 103.977L185.083 109.484L190.821 109.47L190.817 98.9256L185.132 98.877V88.0602L190.817 88.0388L190.819 86.8989L190.823 82.5729L185.128 82.5477L185.099 77.2978L182.397 77.294L175.046 77.2842L151.207 77.2531L151.193 49.0684L140.48 49.1403L140.491 54.8765L145.663 54.892L145.642 60.5951H140.488L140.505 66.1873L145.695 66.1815L145.722 82.7617L135.611 82.7656L135.6 87.9629L140.326 87.9901C140.507 91.4077 140.349 105.697 140.414 109.384L145.823 109.414L145.825 114.977L151.118 114.982L151.1 118.534L151.089 120.608L148.342 120.612L145.809 120.614L145.794 114.967L140.421 114.973L140.408 126.589L140.402 131.345L135.613 131.376L135.601 136.832L145.771 136.877L145.823 126.251C146.945 126.299 150.04 126.149 151.102 126.282L151.077 142.335C149.34 142.356 130.855 142.475 130.591 142.321L130.587 133.99V131.415L118.523 131.44L118.52 136.824L124.631 136.863L124.633 138.479L124.643 147.812L140.394 147.833L140.408 153.433L135.59 153.451L135.582 164.904L140.493 164.906L140.468 153.439L145.769 153.455C145.833 152.457 145.677 148.75 145.827 147.847L162.018 147.863L162.04 142.331L167.962 142.321L167.958 147.839L185.107 147.814C185.13 148.339 185.112 149.275 185.097 150.255C185.077 151.502 185.064 152.819 185.147 153.449L189.841 153.431L190.886 153.427L190.887 147.845L188.581 147.839L188.121 147.837ZM151.081 98.7796L145.774 98.7757V93.3624L151.088 93.3721L151.081 98.7796Z" fill="#DEE4E9"/>
<path d="M161.999 93.252L161.98 98.726L168.017 98.7751L168.022 93.2544L161.999 93.252Z" fill="#DEE4E9"/>
<path d="M176.841 102.046C177.382 103.015 177.589 104.09 177.073 105.248C176.555 106.411 175.36 107.097 174.233 107.689C173.169 108.248 172.068 108.803 170.873 108.933C169.396 109.095 167.786 108.458 167.315 106.948C166.907 105.64 167.464 104.053 167.828 102.777C168.236 101.346 169.725 100.107 170.937 99.3032C171.653 98.8285 172.555 98.5633 173.383 98.7928C173.955 98.9513 174.441 99.3273 174.878 99.729C175.614 100.406 176.36 101.184 176.841 102.046Z" fill="#F3D4C5"/>
<path d="M37.3398 254.962H98.8368C101.278 249.598 103.898 244.315 106.69 239.125C109.356 234.171 112.006 228.942 115.265 224.347C118.645 219.581 124.386 219.065 129.028 216.267C133.689 213.457 138.379 208.668 142.065 204.656C145.1 201.355 147.009 197.399 149.442 193.568C150.111 192.514 151.125 191.438 152.132 190.332C153.099 189.27 154.059 188.18 154.7 187.055C155.148 186.269 155.44 185.467 155.47 184.645C155.471 184.612 155.472 184.581 155.473 184.549C155.516 183.371 155.549 182.191 155.573 181.009C155.913 164.125 154.39 146.852 152.052 130.18C155.082 127.877 158.002 125.428 160.799 122.845C161.911 121.818 163.004 120.771 164.076 119.701C164.418 119.361 164.758 119.019 165.094 118.674C166.564 117.175 167.994 115.637 169.381 114.063C171.054 112.165 173.151 110.697 174.253 108.331C174.376 108.065 174.484 107.789 174.573 107.507C175.123 105.77 175.002 103.778 173.833 102.41C172.685 101.066 170.785 100.629 169.009 100.88C168.648 100.93 168.291 101.01 167.948 101.115C166.878 101.444 165.959 101.97 165.094 102.58C164.748 102.824 164.411 103.082 164.076 103.346C163.474 103.822 162.881 104.318 162.261 104.793C161.778 105.162 161.291 105.525 160.799 105.885C159.115 107.117 157.39 108.307 155.723 109.559C139.276 121.917 122.628 134.506 106.134 146.916C105.041 147.739 103.948 148.561 102.857 149.382C102.587 149.585 102.316 149.788 102.046 149.991C101.277 150.569 100.508 151.148 99.7392 151.725C98.2923 146.982 99.1984 141.848 100.561 137.08C100.935 135.767 101.345 134.46 101.75 133.152C101.849 132.831 101.948 132.51 102.046 132.189C102.328 131.266 102.604 130.341 102.857 129.413C102.895 129.276 102.931 129.139 102.968 129.002C103.523 126.92 103.961 124.817 104.13 122.669C104.134 122.612 104.138 122.556 104.142 122.499C104.142 122.497 104.142 122.494 104.143 122.491C104.253 120.916 104.193 119.319 103.931 117.758C103.931 117.755 103.931 117.752 103.93 117.749C103.812 117.047 103.653 116.352 103.451 115.669C103.298 115.154 103.122 114.554 102.92 113.927C102.899 113.863 102.878 113.799 102.857 113.734C102.637 113.063 102.386 112.369 102.1 111.72C102.082 111.68 102.064 111.639 102.046 111.599C101.903 111.282 101.751 110.976 101.59 110.692C101.588 110.687 101.586 110.684 101.583 110.68C101.369 110.302 101.139 109.961 100.891 109.677C100.556 109.293 100.11 108.984 99.6293 108.803C98.9641 108.551 98.2316 108.542 97.633 108.914C96.8727 109.386 96.5378 110.302 96.2543 111.151C95.0876 114.648 93.9214 118.144 92.7542 121.64C92.6558 121.935 92.557 122.231 92.4587 122.526C91.1046 126.583 88.2233 130.088 86.6399 134.061C85.0433 138.067 85.3677 142.195 84.2786 146.317C83.391 149.676 81.8239 152.613 80.5955 155.82C79.4533 158.802 79.1873 161.569 79.5047 164.743C79.8996 168.699 80.2945 172.654 80.6894 176.609C81.2788 182.513 81.3531 188.598 80.5032 194.469C78.7334 206.7 70.3868 216.666 62.6038 225.73C54.2161 235.498 45.7532 245.206 37.3398 254.962Z" fill="#E2946D"/>
<path d="M93.9179 121.715C93.5684 122.149 92.7942 121.886 92.559 121.38C92.3239 120.874 92.4548 120.282 92.5945 119.742C93.8057 115.058 95.3728 110.466 97.2779 106.019C98.1697 105.714 99.2422 106.483 99.5235 107.382C99.8048 108.282 99.5812 109.254 99.3267 110.162C98.2282 114.078 96.4664 118.544 93.9179 121.715Z" fill="#F3D4C5"/>
<path d="M107.001 219.313C104.012 219.04 101.075 218.319 98.2995 217.176C95.5157 216.031 92.9085 214.487 90.5722 212.587C89.2549 211.517 88.032 210.333 86.9182 209.052C86.6886 208.787 87.0733 208.4 87.3044 208.665C89.2421 210.894 91.5115 212.821 94.0202 214.379C96.5156 215.929 99.2322 217.114 102.068 217.88C103.684 218.316 105.334 218.615 107.001 218.767C107.348 218.799 107.352 219.345 107.001 219.313Z" fill="#B76C4B"/>
<path d="M85.9529 212.009C89.4803 216.527 94.0443 220.201 99.2045 222.695C100.67 223.404 102.181 224.012 103.728 224.52C104.06 224.629 103.918 225.157 103.582 225.047C98.0731 223.236 93.0043 220.145 88.8623 216.086C87.6831 214.93 86.5826 213.697 85.5667 212.395C85.3528 212.121 85.7367 211.732 85.9529 212.009Z" fill="#B76C4B"/>
<path d="M156.013 59.9238H110.55C105.694 59.9238 101.758 63.8604 101.758 68.7164V179.991C101.758 184.847 105.694 188.783 110.55 188.783H156.013C160.869 188.783 164.806 184.847 164.806 179.991V68.7164C164.806 63.8604 160.869 59.9238 156.013 59.9238Z" fill="#101010"/>
<path d="M155.196 59.9238H111.562C106.706 59.9238 102.77 63.8604 102.77 68.7164V179.991C102.77 184.847 106.706 188.783 111.562 188.783H155.196C160.052 188.783 163.989 184.847 163.989 179.991V68.7164C163.989 63.8604 160.052 59.9238 155.196 59.9238Z" fill="#404040"/>
<path d="M155.2 63.2031H111.566C108.525 63.2031 106.051 65.6773 106.051 68.7184V179.993C106.051 183.034 108.525 185.508 111.566 185.508H155.2C158.241 185.508 160.716 183.034 160.716 179.993V68.7184C160.716 65.6773 158.241 63.2031 155.2 63.2031Z" fill="#F5F5F5"/>
<path d="M119.82 63.2031L120.264 65.1318C120.589 66.5436 121.846 67.544 123.294 67.544H143.461C144.91 67.544 146.167 66.5436 146.492 65.1318L146.936 63.2031H119.82Z" fill="#404040"/>
<path d="M148.797 65.9097V64.5078H148.467L147.461 65.9478V66.1492H148.509V66.7637H148.797V66.1492H149.113V65.9097H148.797ZM148.509 65.1568V65.9097H147.769V65.9025L148.322 65.1356C148.384 65.0316 148.44 64.9342 148.509 64.803H148.519C148.513 64.9209 148.509 65.0388 148.509 65.1568Z" fill="#595959"/>
<path d="M150.381 65.5616V65.5513C150.659 65.4195 150.753 65.2145 150.753 65.0234C150.753 64.7427 150.534 64.4688 150.097 64.4688C149.701 64.4688 149.4 64.7119 149.4 65.0687C149.4 65.2635 149.507 65.4576 149.756 65.5755L149.761 65.5858C149.482 65.7037 149.312 65.9051 149.312 66.1894C149.312 66.5196 149.597 66.8009 150.069 66.8009C150.499 66.8009 150.836 66.5372 150.836 66.1446C150.836 65.8707 150.662 65.6729 150.381 65.5616ZM149.687 65.0481C149.687 64.8534 149.826 64.6871 150.079 64.6871C150.353 64.6871 150.461 64.8746 150.461 65.0554C150.461 65.2598 150.312 65.3989 150.117 65.4642C149.857 65.3947 149.687 65.2737 149.687 65.0481ZM150.076 66.5783C149.788 66.5783 149.614 66.3769 149.625 66.1483C149.625 65.933 149.767 65.76 150.031 65.6832C150.336 65.7703 150.528 65.9015 150.528 66.1761C150.528 66.4089 150.35 66.5783 150.076 66.5783Z" fill="#595959"/>
<path d="M151.615 64.4688C151.316 64.4688 151.07 64.7222 151.07 65.1733C151.073 65.6275 151.316 65.8531 151.598 65.8531C151.889 65.8531 152.139 65.6173 152.139 65.1419C152.139 64.7119 151.931 64.4688 151.615 64.4688ZM151.605 65.6693C151.414 65.6693 151.306 65.4503 151.313 65.1625C151.313 64.8782 151.414 64.6526 151.605 64.6526C151.816 64.6526 151.896 64.8812 151.896 65.1558C151.896 65.454 151.806 65.6693 151.605 65.6693ZM152.903 64.4688L151.577 66.8009H151.771L153.097 64.4688H152.903ZM153.087 65.402C152.788 65.402 152.542 65.6554 152.542 66.1102C152.545 66.5608 152.788 66.7863 153.069 66.7863C153.357 66.7863 153.607 66.5505 153.607 66.0757C153.607 65.6451 153.402 65.402 153.087 65.402ZM153.076 66.6025C152.888 66.6025 152.778 66.3842 152.781 66.0963C152.781 65.8114 152.885 65.5858 153.076 65.5858C153.288 65.5858 153.367 65.815 153.367 66.089C153.367 66.3878 153.277 66.6025 153.076 66.6025Z" fill="#595959"/>
<path d="M154.215 66.6054C154.154 66.6054 154.105 66.5565 154.105 66.4962V64.7713C154.105 64.711 154.154 64.6621 154.215 64.6621H157.813C157.836 64.6621 157.859 64.6699 157.878 64.684C157.956 64.7422 158.342 65.0602 158.354 65.608C158.367 66.1986 157.928 66.5458 157.878 66.5835C157.859 66.5977 157.836 66.6055 157.813 66.6055L154.215 66.6054Z" fill="#595959"/>
<path d="M157.817 66.4963H154.219V64.7715H157.817C157.863 64.8065 158.238 65.0984 158.249 65.6105C158.261 66.151 157.857 66.4659 157.817 66.4963Z" fill="white"/>
<path d="M156.318 64.8535H154.324V66.4155H156.318V64.8535Z" fill="#595959"/>
<path d="M110.805 64.541L110.324 64.7987L110.382 65.0255L110.765 64.8186H110.771V66.7425H111.059V64.541H110.805Z" fill="#595959"/>
<path d="M112.592 64.5078C112.141 64.5078 111.84 64.8731 111.84 65.2898C111.84 65.6654 112.094 65.9642 112.49 65.9642C112.71 65.9642 112.886 65.8759 113.008 65.7271H113.019C112.978 65.9872 112.873 66.1807 112.727 66.3131C112.602 66.4317 112.439 66.5024 112.267 66.526C112.165 66.5363 112.09 66.543 112.026 66.5363V66.78C112.097 66.7837 112.192 66.78 112.301 66.7631C112.538 66.7365 112.771 66.6349 112.941 66.4686C113.158 66.2587 113.32 65.9194 113.32 65.4356C113.32 64.8731 113.042 64.5078 112.592 64.5078ZM112.991 65.5069C112.913 65.6388 112.758 65.7374 112.558 65.7374C112.301 65.7374 112.134 65.5438 112.134 65.2699C112.134 64.9578 112.314 64.7346 112.568 64.7346C112.879 64.7346 113.019 65.0225 113.019 65.3987C113.019 65.4453 113.008 65.4791 112.991 65.5069Z" fill="#595959"/>
<path d="M113.816 66.3535C113.698 66.3535 113.613 66.4418 113.613 66.567C113.613 66.6886 113.694 66.7805 113.812 66.7805C113.938 66.7805 114.015 66.6886 114.015 66.567C114.015 66.4418 113.935 66.3535 113.816 66.3535Z" fill="#595959"/>
<path d="M114.713 66.4994V66.4922L114.889 66.3301C115.353 65.8825 115.648 65.5541 115.648 65.1477C115.648 64.8326 115.448 64.5078 114.974 64.5078C114.72 64.5078 114.503 64.6022 114.351 64.731L114.445 64.9409C114.547 64.8562 114.713 64.7546 114.913 64.7546C115.242 64.7546 115.35 64.9614 115.35 65.1852C115.346 65.5172 115.092 65.8009 114.53 66.3361L114.297 66.5635V66.7462H115.702V66.4994H114.713Z" fill="#595959"/>
<path d="M117.077 65.4627C116.942 65.3811 116.772 65.3442 116.603 65.3442C116.521 65.3442 116.474 65.3508 116.423 65.3575L116.508 64.792H117.347V64.541H116.294L116.152 65.5982C116.233 65.5879 116.332 65.574 116.457 65.574C116.897 65.574 117.087 65.7772 117.09 66.0621C117.09 66.3566 116.85 66.5393 116.569 66.5393C116.369 66.5393 116.19 66.4715 116.098 66.4171L116.023 66.6445C116.129 66.7122 116.332 66.78 116.572 66.78C117.05 66.78 117.392 66.4582 117.392 66.0282C117.392 65.7506 117.25 65.5601 117.077 65.4627Z" fill="#595959"/>
<path d="M121.23 181.303C121.23 180.364 120.286 179.604 119.123 179.604C117.959 179.604 117.016 180.364 117.016 181.303C117.016 182.224 117.801 182.998 118.929 182.998C118.951 182.998 118.973 182.998 118.995 182.996C119.19 182.992 119.383 182.949 119.557 182.945L121.216 183.279L120.825 182.305C121.079 182.025 121.23 181.678 121.23 181.303ZM120.483 181.996L120.29 182.21L120.397 182.477L120.47 182.658L119.648 182.493L119.596 182.483L119.544 182.485C119.438 182.487 119.336 182.5 119.236 182.512C119.146 182.523 119.061 182.534 118.982 182.536C118.965 182.537 118.947 182.537 118.929 182.537C118.101 182.537 117.476 182.006 117.476 181.303C117.476 180.621 118.215 180.064 119.123 180.064C120.031 180.064 120.769 180.621 120.769 181.303C120.769 181.614 120.614 181.852 120.483 181.996Z" fill="#595959"/>
<path d="M124.754 179.707V183.177L127.828 181.442L124.754 179.707Z" fill="#595959"/>
<path d="M113.132 179.443C113.065 179.437 113.001 179.434 112.942 179.434C112.465 179.434 112.236 179.64 111.974 179.952C111.712 179.64 111.483 179.434 111.006 179.434C110.947 179.434 110.883 179.437 110.815 179.443C110.402 179.484 109.925 179.862 109.867 180.586V180.828C109.921 181.521 110.445 182.375 111.974 183.448C113.503 182.375 114.027 181.521 114.081 180.828V180.586C114.023 179.862 113.545 179.484 113.132 179.443Z" fill="#BD6065"/>
<path d="M121.637 90.6758H108.572H107.289V91.959V105.023H108.572V91.959H121.637V90.6758Z" fill="#FE385F"/>
<path d="M144.965 90.6758H158.029H159.312V91.959V105.023H158.029V91.959H144.965V90.6758Z" fill="#FE385F"/>
<path d="M144.965 141.709H158.029H159.312V140.426V127.361H158.029V140.426H144.965V141.709Z" fill="#FE385F"/>
<path d="M121.637 141.709H108.572H107.289V140.426V127.361H108.572V140.426H121.637V141.709Z" fill="#FE385F"/>
<path d="M155.152 94.3418H111.449V138.045H155.152V94.3418Z" fill="#77A0D1"/>
<path d="M152.136 97.3574H114.469V135.025H152.136V97.3574Z" fill="white"/>
<path d="M137.223 103.162L137.229 104.512L138.422 104.519L138.423 103.162L137.223 103.162Z" fill="#1C1C1C"/>
<path d="M139.692 99.1172L138.432 99.1187L138.43 100.454L139.688 100.449L139.692 99.1172Z" fill="#1C1C1C"/>
<path d="M131.899 99.1172L130.581 99.1188L130.578 100.475L131.9 100.474L131.899 99.1172Z" fill="#1C1C1C"/>
<path d="M149.009 120.105L150.388 120.103L150.388 118.763L149.008 118.762L149.009 120.105Z" fill="#1C1C1C"/>
<path d="M134.659 125.225L133.223 125.229L133.223 126.553L134.662 126.556C134.658 126.533 134.66 125.248 134.659 125.225Z" fill="#1C1C1C"/>
<path d="M121.726 113.2L121.728 112.293L120.272 112.294L120.266 113.601L121.734 113.6C121.705 113.482 121.726 113.324 121.726 113.2Z" fill="#1C1C1C"/>
<path d="M133.225 131.945L133.223 133.271L134.661 133.275L134.664 131.936C134.362 131.946 133.511 131.92 133.225 131.945Z" fill="#1C1C1C"/>
<path d="M130.57 101.792L130.572 100.486L128.289 100.487L128.292 101.799L130.57 101.792Z" fill="#1C1C1C"/>
<path d="M130.565 127.93L128.301 127.928L128.301 129.272L130.564 129.274L130.565 127.93Z" fill="#1C1C1C"/>
<path d="M138.425 105.854L136.02 105.855L136.021 107.194L138.426 107.178L138.425 105.854Z" fill="#1C1C1C"/>
<path d="M134.658 131.496C134.658 131.639 134.644 131.796 134.661 131.937L139.659 131.939L139.661 130.615L134.655 130.618L134.658 131.496Z" fill="#1C1C1C"/>
<path d="M138.427 101.798L138.429 100.463L137.235 100.463L137.229 99.1172L133.226 99.1211L133.219 101.792L136.009 101.795L136.011 103.159L137.229 103.16L137.231 101.789L138.427 101.798Z" fill="#1C1C1C"/>
<path d="M124.886 116.09C125.486 116.092 127.643 116.087 128.28 116.086L128.279 111.022L129.343 111.023L129.343 109.789L126.996 109.79L126.99 114.834L125.761 114.835L125.76 112.571C125.729 112.045 125.939 111.225 125.262 111.032C124.503 110.958 122.527 111.032 121.736 111.007L121.734 112.276L124.437 112.28L124.438 116.086C124.583 116.103 124.74 116.09 124.886 116.09Z" fill="#1C1C1C"/>
<path d="M131.892 122.619L131.89 123.929L130.587 123.932L130.587 125.22L129.283 125.222L129.282 126.564L130.585 126.57L130.585 127.929L131.892 127.929L131.893 129.275L130.585 129.278L130.58 131.922C130.371 131.91 129.547 131.952 129.358 131.911L129.352 130.595L128.317 130.595L128.312 133.272L131.904 133.271L131.91 131.935L133.225 131.934L133.233 130.624L134.647 130.618C134.689 130.42 134.649 129.498 134.664 129.277L136.073 129.275L136.078 126.557L134.668 126.554L134.669 127.948L133.234 127.947C133.195 127.719 133.238 126.805 133.223 126.555L131.866 126.553L131.863 125.221L133.22 125.22L133.217 122.607C133.193 122.612 131.915 122.617 131.892 122.619Z" fill="#1C1C1C"/>
<path d="M131.853 103.205L129.365 103.209L129.363 104.506L130.566 104.511L130.565 105.836L131.921 105.834L131.924 104.491L133.232 104.492L133.225 105.87L131.923 105.87L131.918 107.199L130.564 107.198L130.57 111C131.509 110.977 135.162 111.044 136.018 110.981C136.026 110.903 136.019 107.284 136.022 107.206L134.673 107.207L134.668 108.439L133.231 108.444L133.228 109.737C133.007 109.724 132.124 109.765 131.926 109.727L131.924 108.399L133.194 108.398L133.197 107.127L134.67 107.129L134.676 105.852L136.014 105.852L136.011 104.528L134.661 104.52L134.668 103.186L133.205 103.18L133.204 101.805L131.853 101.812L131.853 103.205Z" fill="#1C1C1C"/>
<path d="M130.53 107.194L130.529 105.879L127.005 105.878L127.002 103.158L128.273 103.157L128.276 101.832L127.005 101.835L127.004 100.479L128.273 100.479L128.272 99.1246L126.988 99.1211L126.988 100.48C126.754 100.495 125.921 100.453 125.707 100.494C125.706 102.061 125.7 106.995 125.699 108.477L117.604 108.487L117.603 109.733L116.241 109.734L116.238 111.038L117.6 111.036L117.601 109.765L118.91 109.77L118.915 112.269L120.26 112.276C120.27 111.743 120.242 110.287 120.267 109.778C121.825 109.79 125.493 109.751 127 109.787L127.002 107.199L130.53 107.194Z" fill="#1C1C1C"/>
<path d="M136.599 112.257C135.954 112.226 134.332 112.274 133.663 112.256H131.215C130.843 112.308 129.65 112.086 129.434 112.541C129.187 113.073 129.367 113.727 129.325 114.301C129.357 115.749 129.281 118.201 129.343 119.625C129.552 120.381 130.556 120.04 131.137 120.102C132.267 120.097 134.584 120.106 135.703 120.103C136.363 120.121 137.236 120.245 137.259 119.33C137.265 117.763 137.261 115.453 137.261 113.882C137.26 113.287 137.426 112.338 136.599 112.257ZM135.972 118.76L135.869 118.766L130.617 118.763C130.638 117.874 130.575 114.353 130.644 113.539L130.752 113.534L135.997 113.535L136.006 114.897C135.981 115.696 136.036 118.011 135.972 118.76Z" fill="#1C1C1C"/>
<path d="M134.685 114.83L131.911 114.835L131.91 117.471L134.683 117.474L134.685 114.83Z" fill="#1C1C1C"/>
<path d="M150.379 105.601L150.378 105.038L150.375 103.736C150.375 103.517 150.375 103.026 150.376 102.472C150.377 101.575 150.378 100.516 150.38 100.193C150.475 99.2411 149.937 99.0223 149.085 99.1123C148.191 99.1137 143.795 99.1081 142.811 99.1077C142.618 99.1317 142.477 99.2018 142.353 99.3533C142.078 99.8574 142.274 100.535 142.23 101.095L142.229 103.821C142.271 107.891 141.612 107.134 145.659 107.197H148.385C148.755 107.144 150.044 107.367 150.264 106.92C150.498 106.531 150.354 106.033 150.379 105.601ZM149.027 105.838C149.019 105.855 148.608 105.864 148.014 105.866C147.86 105.867 147.694 105.867 147.519 105.867C145.91 105.868 143.587 105.846 143.559 105.859L143.559 100.461L149.032 100.464L149.031 102.322L149.028 105.226L149.027 105.838Z" fill="#1C1C1C"/>
<path d="M147.735 101.794L144.929 101.785L144.926 104.537L147.736 104.538L147.735 101.794Z" fill="#1C1C1C"/>
<path d="M124.446 128.067L124.448 126.668C124.425 126.209 124.596 125.491 124.047 125.27C122.251 125.107 119.658 125.271 117.84 125.215C117.037 125.186 116.136 125.09 116.233 126.198C116.229 127.605 116.234 129.939 116.231 131.356C116.248 132.267 115.952 133.423 117.306 133.271C118.212 133.273 119.694 133.273 121.038 133.274C121.866 133.275 122.642 133.275 123.198 133.276C123.698 133.325 124.45 133.286 124.444 132.62C124.449 132.184 124.449 131.463 124.448 130.704C124.446 129.712 124.443 128.653 124.446 128.067ZM123.105 131.928C123.096 131.933 122.989 131.937 122.809 131.939C121.668 131.955 117.632 131.932 117.574 131.942L117.571 126.576L117.619 126.548L123.112 126.558L123.106 131.716L123.105 131.928Z" fill="#1C1C1C"/>
<path d="M121.785 127.912L118.887 127.91L118.887 130.642L121.79 130.643L121.785 127.912Z" fill="#1C1C1C"/>
<path d="M124.453 105.268C124.446 104.14 124.464 101.664 124.456 100.557C124.478 100.03 124.575 99.2055 123.865 99.1224C122.313 99.0911 119.902 99.1279 118.333 99.1137L116.862 99.1211C116.645 99.1691 116.469 99.2614 116.343 99.4512C116.092 99.9894 116.273 100.647 116.232 101.227C116.233 101.227 116.234 104.076 116.234 104.076C116.235 104.461 116.234 105.996 116.235 106.353C116.134 107.378 117.153 107.204 117.849 107.198C119.571 107.194 122.098 107.2 123.819 107.194C124.436 107.151 124.5 106.588 124.454 106.086L124.453 105.268ZM117.573 105.862L117.581 100.459L123.111 100.466L123.112 105.862L117.573 105.862Z" fill="#1C1C1C"/>
<path d="M118.902 101.775L118.905 104.535L121.789 104.531L121.789 101.777L118.902 101.775Z" fill="#1C1C1C"/>
<path d="M150.396 131.977L150.395 130.633L149.039 130.63C149.005 130.429 149.045 129.496 149.032 129.273L150.395 129.264L150.394 127.905L149.031 127.899V126.554L148.046 126.556L147.723 126.556L147.723 126.803L147.722 127.468L147.715 131.942L146.309 131.941L146.31 130.635L144.966 130.632L144.967 127.978L146.292 127.981C146.328 127.693 146.29 126.859 146.305 126.554L144.964 126.547L144.965 125.234L143.552 125.238L143.551 126.546L144.954 126.548L144.954 127.974L143.542 127.971L143.543 126.555L139.685 126.556C139.675 127.417 139.708 129.79 139.668 130.613C140.097 130.647 140.539 130.59 140.967 130.646V131.943L139.695 131.95L139.696 133.275L143.546 133.27L143.548 131.964L142.297 131.952L142.293 130.621L144.949 130.625L144.946 133.271L148.476 133.275L149.021 133.275C149.036 133.004 149.003 132.234 149.04 131.978L150.396 131.977ZM140.967 129.291L140.966 127.916L142.267 127.925L142.268 129.291L140.967 129.291Z" fill="#1C1C1C"/>
<path d="M131.868 121.326L130.583 121.321L130.571 122.612H128.278L128.283 120.09L127.007 120.087L127.009 118.795L128.273 118.788L128.274 117.422L124.439 117.422L124.428 120.087L120.25 120.088L120.248 118.764L118.93 118.756L118.928 117.421C119.171 117.404 120.031 117.454 120.25 117.404C120.272 117.216 120.222 116.193 120.268 116.093L123.109 116.088L123.111 117.413L121.748 117.42L121.746 118.787L123.112 118.786L123.114 117.42L124.439 117.422L124.44 116.084L123.113 116.086V113.609L121.734 113.598L121.732 114.828H120.261L120.265 113.599L118.924 113.608L118.909 114.829L117.596 114.831L117.591 113.614L116.243 113.615L116.243 117.423L117.598 117.422V116.099L118.906 116.1L118.913 117.411C118.594 117.42 117.905 117.402 117.598 117.422L117.595 118.766L116.241 118.772L116.238 120.091H117.594L117.596 118.778L118.908 118.778L118.907 120.094L117.597 120.096L117.594 123.936L125.693 123.931C125.702 125.006 125.691 127.709 125.695 129.764C125.696 130.686 125.701 131.478 125.711 131.933L127.013 131.932L127.017 128.766L127.019 127.895L128.173 127.896H128.283V127.813L128.28 126.567L127.015 126.566L127.013 123.939L130.568 123.936L130.573 122.61L131.869 122.61L131.868 121.326ZM119.197 122.615L118.869 122.614V121.349C119.02 121.349 121.716 121.345 121.775 121.346L121.779 122.611L119.197 122.615ZM124.429 122.611L123.131 122.609L123.134 121.364L123.187 121.346L124.429 121.347L124.429 122.611ZM126.997 121.349L126.999 122.617L125.743 122.615L125.741 121.351L126.997 121.349Z" fill="#1C1C1C"/>
<path d="M149.73 125.221L149.018 125.219L149.022 123.941L149.636 123.936L150.385 123.93L150.387 122.626L149.517 122.624L147.717 122.622L147.714 123.915L144.96 123.914L144.962 122.621C145.583 122.632 147.121 122.583 147.717 122.622L147.715 117.542L146.2 117.545L146.201 116.141L147.343 116.136L147.711 116.134L147.712 117.191L147.713 117.528H147.843L149.013 117.528L149.016 116.132L147.718 116.133L147.718 114.81C147.555 114.797 147.256 114.796 146.955 114.798C146.663 114.8 146.37 114.802 146.204 114.796L146.204 114.306L146.203 113.596C146.161 113.567 145.122 113.58 144.96 113.577L144.954 115.247L144.95 116.146L143.753 116.151L142.275 116.157L142.271 117.266L142.27 117.42C142.913 117.433 144.332 117.395 144.952 117.432L144.955 118.772L143.534 118.772L143.534 120.096H144.96L144.961 118.8L146.36 118.811L146.361 121.325L142.256 121.326C142.245 120.533 142.278 118.169 142.249 117.417H142.071L140.974 117.416L140.975 114.812L142.244 114.812L142.246 111.007L139.675 111.003L139.669 109.775L144.996 109.771L144.999 111.022L146.341 111.019L146.339 109.772H146.453L147.703 109.772C147.723 110.285 147.718 111.874 147.715 113.169C147.714 113.882 147.713 114.505 147.718 114.81L149.008 114.811L149.009 116.118L150.371 116.115L150.37 113.612L149.021 113.601V111.034L150.37 111.029L150.371 110.758L150.372 109.731L149.02 109.725L149.013 108.479L148.372 108.478L146.627 108.476L140.969 108.469L140.966 101.779L138.423 101.796L138.426 103.158L139.653 103.161L139.648 104.515H138.425L138.429 105.842L139.661 105.841L139.667 109.776L137.268 109.777L137.265 111.01L138.387 111.017C138.43 111.828 138.392 115.219 138.407 116.095L139.691 116.102L139.692 117.422L140.948 117.423L140.944 118.266L140.941 118.758L140.289 118.759L139.688 118.76L139.684 117.42L138.409 117.421L138.406 120.178L138.405 121.307L137.268 121.314L137.265 122.609L139.679 122.62L139.691 120.098C139.957 120.109 140.692 120.074 140.944 120.105L140.938 123.915C140.526 123.92 136.139 123.948 136.076 123.912L136.075 121.935V121.323L133.212 121.329L133.211 122.607L134.661 122.617L134.662 123L134.664 125.215L138.403 125.22L138.406 126.549L137.262 126.554L137.261 129.272L138.426 129.272L138.42 126.551L139.678 126.555C139.694 126.318 139.657 125.438 139.692 125.224L143.535 125.227L143.54 123.914L144.946 123.912L144.945 125.222L149.015 125.216C149.02 125.34 149.016 125.562 149.012 125.795C149.008 126.091 149.005 126.404 149.024 126.553L150.138 126.549L150.386 126.548L150.387 125.223L149.839 125.222L149.73 125.221ZM140.939 113.578L139.68 113.577V112.292L140.941 112.294L140.939 113.578Z" fill="#1C1C1C"/>
<path d="M143.54 112.27L143.535 113.569L144.968 113.58L144.969 112.27L143.54 112.27Z" fill="#1C1C1C"/>
<path d="M162.22 141.07C163.772 142.351 165.495 143.699 167.508 143.722C168.03 143.728 168.547 143.645 169.045 143.49C170.354 143.083 171.455 142.218 172.536 141.408C173.536 140.658 174.319 139.63 175.2 138.728C177.065 136.818 179.002 134.746 179.64 132.072C179.901 130.976 179.698 129.802 179.22 128.781C178.743 127.761 178.006 126.881 177.19 126.103C173.966 123.032 169.348 121.515 164.924 122.031C164.924 124.336 164.924 126.642 164.924 128.948C164.924 129.264 164.98 129.524 164.98 129.84C163.502 131.377 162.124 133.139 161.35 135.125C160.575 137.112 160.576 139.712 162.22 141.07Z" fill="#E2946D"/>
<path d="M158.962 164.882C159.296 166.93 160.692 168.544 162.643 169.188C164.658 169.853 167.124 168.693 168.78 167.553C169.983 166.724 171.043 165.709 172.047 164.653C172.942 163.711 173.96 162.983 174.825 162.016C176.557 160.08 177.96 157.609 177.871 154.936C177.816 153.299 177.622 151.654 177.104 150.101C176.585 148.548 175.725 147.085 174.486 146.014C172.623 144.404 170.11 143.819 167.706 143.288C166.769 143.081 165.879 143.017 164.93 142.873C164.913 146.666 164.922 150.477 164.905 154.27C163.352 155.661 161.628 157.221 160.481 158.963C159.335 160.704 158.627 162.824 158.962 164.882Z" fill="#E2946D"/>
<path d="M161.741 176.066C162.023 175.066 162.559 174.084 162.962 173.128C163.422 172.039 164.218 171 164.922 170.057C166.353 168.141 168.045 166.419 169.941 164.96C170.464 164.558 171.012 164.17 171.633 163.947C173.315 163.341 175.365 164.139 176.387 165.549C177.05 166.463 177.346 167.602 177.416 168.729C177.486 169.856 177.342 170.984 177.199 172.104C176.935 174.176 175.211 175.819 173.635 177.19C172.06 178.561 170.274 179.666 168.496 180.763C167.622 181.303 166.707 181.857 165.684 181.949C164.301 182.073 162.921 181.271 162.196 180.087C161.471 178.903 161.363 177.402 161.741 176.066Z" fill="#E2946D"/>
<path d="M164.664 172.742C165.36 172.411 166.066 172.077 166.825 171.944C167.583 171.81 168.414 171.899 169.035 172.354C169.736 172.867 170.068 173.782 170.032 174.65C169.997 175.518 169.638 176.344 169.18 177.082C168.296 178.509 166.712 179.431 165.515 180.609C164.801 181.312 163.999 182.056 163 182.137C162.222 182.2 161.459 181.831 160.879 181.308C160.299 180.785 159.874 180.118 159.455 179.458C158.946 178.656 158.415 177.704 158.724 176.805C158.928 176.213 159.453 175.799 159.965 175.439C161.446 174.399 163.029 173.518 164.664 172.742Z" fill="#F3D4C5"/>
<path d="M165.558 134.936C166.613 134.14 167.9 133.581 169.22 133.634C170.541 133.688 171.874 134.448 172.369 135.673C172.93 137.058 172.349 138.629 171.645 139.947C170.765 141.591 169.682 143.127 168.428 144.507C167.75 145.254 166.986 145.978 166.027 146.288C165.233 146.545 164.357 146.493 163.57 146.218C162.447 145.827 161.694 145.036 161.075 144.06C160.452 143.077 160.201 142.701 160.548 141.513C160.847 140.487 161.385 139.531 162.047 138.695C163.092 137.374 164.207 135.956 165.558 134.936Z" fill="#F3D4C5"/>
<path d="M173.006 164.099C171.183 166.019 169.128 167.711 166.895 169.134C166.598 169.323 166.323 168.851 166.619 168.662C168.815 167.263 170.828 165.601 172.62 163.713C172.862 163.457 173.248 163.844 173.006 164.099Z" fill="#B76C4B"/>
<path d="M165.277 159.238C166.749 158.795 168.534 159.158 169.445 160.396C170.201 161.425 170.229 162.85 169.832 164.064C169.434 165.277 168.666 166.329 167.91 167.358C167.257 168.247 166.604 169.136 165.951 170.025C165.143 171.125 164.183 172.318 162.829 172.486C162.025 172.586 161.212 172.29 160.543 171.832C159.875 171.374 159.328 170.763 158.789 170.159C158.003 169.279 157.161 168.209 157.395 167.053C157.541 166.333 158.08 165.767 158.595 165.244C159.719 164.103 160.923 163.007 161.913 161.748C162.805 160.616 163.895 159.698 165.277 159.238Z" fill="#F3D4C5"/>
<path d="M100.751 124.331C100.85 125.902 100.937 127.474 101.049 129.044C101.094 129.676 101.237 130.299 101.283 130.943C101.306 131.258 101.27 131.611 101.383 132.083C101.483 132.5 101.639 132.826 101.761 133.043C102.052 132.359 102.378 131.529 102.694 130.572C103.113 129.31 103.354 128.318 103.435 127.973C103.856 126.178 104.022 124.336 104.165 122.501C104.257 121.321 104.273 119.642 103.966 117.582C103.719 115.93 103.141 113.395 101.62 110.514C101.562 110.45 101.257 110.123 100.855 110.157C100.389 110.195 100.073 110.682 100.006 111.01C99.9148 111.454 100.068 111.887 100.037 112.328C100.001 112.853 100.058 113.38 100.092 113.906C100.165 115.065 100.238 116.223 100.311 117.381C100.458 119.698 100.605 122.015 100.751 124.331Z" fill="#E2946D"/>
<path d="M241.252 217.989C236.976 214.175 233.043 209.396 232.071 203.588C231.012 197.267 229.867 190.934 229.075 184.547C227.843 174.62 224.451 164.73 223.916 154.741C223.817 152.893 223.708 151.001 222.987 149.296C222.266 147.591 220.799 146.081 218.963 145.839C216.961 145.574 214.669 146.763 213.03 147.944C212.216 143.666 211.397 139.369 209.969 135.255C209.399 133.614 208.657 131.909 207.214 130.942C205.986 130.12 204.407 129.961 202.948 130.197C201.489 130.433 200.105 130.904 198.75 131.494C198.284 129.942 197.809 128.37 196.961 126.989C196.597 126.396 196.155 125.837 195.643 125.363C194.963 124.73 194.162 124.245 193.266 124.02C193.184 124 193.103 123.982 193.022 123.966C191.438 123.655 189.785 124.147 188.283 124.771C185.187 126.057 182.32 127.84 179.601 129.845C179.071 130.234 178.548 130.632 178.029 131.036C176.73 132.049 175.461 133.102 174.216 134.162C171.807 130.263 169.642 126.13 167.6 121.963C166.959 120.655 166.33 119.344 165.71 118.036C165.404 117.391 165.099 116.747 164.797 116.104C164.688 115.872 164.579 115.641 164.471 115.41C164.31 115.066 164.148 114.722 163.987 114.378C162.894 112.052 161.801 109.725 160.709 107.4C160.539 107.038 160.37 106.677 160.2 106.316C160.185 106.285 160.171 106.254 160.157 106.224C160.132 106.17 160.106 106.116 160.08 106.062C159.62 105.084 159.143 104.103 158.451 103.275C158.295 103.087 158.127 102.907 157.946 102.74C157.3 102.139 156.51 101.691 155.643 101.581C155.623 101.578 155.604 101.576 155.585 101.574C154.998 101.51 154.416 101.609 153.874 101.827C153.392 102.022 152.941 102.311 152.546 102.666C152.36 102.832 152.186 103.013 152.027 103.206L152.026 103.206C151.898 103.361 151.78 103.522 151.673 103.69C151.524 103.921 151.393 104.162 151.278 104.41C151.031 104.941 150.855 105.506 150.732 106.086C150.614 106.644 150.543 107.215 150.503 107.784C150.494 107.911 150.486 108.038 150.48 108.164C150.399 109.84 150.556 111.525 150.893 113.186C150.972 113.582 151.063 113.977 151.162 114.369C151.311 114.958 151.48 115.542 151.669 116.122C151.819 116.586 151.981 117.047 152.154 117.503C152.209 117.651 152.266 117.799 152.324 117.946C152.777 119.095 153.292 120.217 153.846 121.298C153.849 121.306 153.853 121.312 153.857 121.319C154.063 121.722 154.275 122.12 154.491 122.51C154.469 123.212 154.478 123.917 154.518 124.622C154.55 125.195 154.602 125.768 154.674 126.34C154.74 126.87 154.822 127.398 154.921 127.924C154.927 127.958 154.933 127.991 154.94 128.024C155.051 128.607 155.182 129.187 155.332 129.763C155.923 132.036 156.809 134.239 157.946 136.277C158.384 137.062 158.859 137.822 159.369 138.552C158.826 141.746 159.588 144.96 160.709 148.041C160.938 148.668 161.181 149.29 161.431 149.905C161.543 150.18 161.656 150.454 161.771 150.727C161.905 151.048 162.037 151.37 162.168 151.69C162.68 152.951 163.159 154.208 163.59 155.471C163.728 155.87 163.86 156.27 163.987 156.671C164.277 157.587 164.54 158.506 164.772 159.431C164.78 159.465 164.789 159.499 164.797 159.533C165.395 161.943 165.776 164.393 165.853 166.929C165.873 167.572 165.873 168.221 165.852 168.877C165.85 168.935 165.848 168.993 165.846 169.051C165.846 169.059 165.845 169.067 165.845 169.075C165.841 169.169 165.838 169.265 165.833 169.36C165.778 169.292 165.722 169.226 165.664 169.159C165.656 169.15 165.649 169.141 165.641 169.132C165.637 169.128 165.633 169.123 165.629 169.119C165.365 168.811 165.088 168.517 164.797 168.234C164.537 167.982 164.266 167.74 163.987 167.509C163.742 167.307 163.491 167.114 163.234 166.929C162.445 166.361 161.597 165.873 160.709 165.473C160.155 165.224 159.584 165.01 159.004 164.831C158.986 164.825 158.969 164.82 158.952 164.815C157.777 164.458 156.559 164.25 155.334 164.205C154.671 164.18 154.005 164.204 153.344 164.278C152.767 164.342 152.182 164.447 151.649 164.668C151.459 164.746 151.276 164.84 151.102 164.951C150.439 165.375 149.929 166.109 149.958 166.896C149.959 166.907 149.959 166.918 149.96 166.929C149.993 167.533 150.324 168.077 150.645 168.592C151.608 170.134 152.138 172.189 153.421 173.477C153.558 173.615 153.681 173.762 153.79 173.918C154.038 174.267 154.22 174.658 154.351 175.071C154.576 175.77 154.657 176.534 154.667 177.269C154.684 178.634 154.506 180.017 154.784 181.354C154.94 182.105 155.195 182.825 155.503 183.528C155.776 184.151 156.09 184.762 156.413 185.372C156.935 186.355 157.481 187.335 157.915 188.356C157.944 188.423 157.972 188.49 158 188.558C158.177 188.993 158.333 189.436 158.457 189.891C159.425 193.435 159.782 197.198 160.353 200.833C160.718 203.152 162.345 204.133 163.615 206.109C172.694 220.235 185.965 230.127 200.004 238.917C207.697 243.735 215.079 249.256 222.361 254.961H259.914V232.259C253.112 228.62 247.408 223.48 241.252 217.989ZM183.389 156.003C182.899 156.252 182.282 156.12 181.835 155.801C181.388 155.482 181.082 155.004 180.819 154.522C180.706 154.317 179.686 151.729 179.452 151.152C179.422 151.079 179.405 151.038 179.404 151.038C179.499 150.982 179.589 150.923 179.676 150.86H179.676C180.457 150.301 180.882 149.52 181.416 148.725C181.958 147.922 182.6 147.189 183.032 146.321V146.32C183.09 146.204 183.144 146.086 183.193 145.964C183.204 145.939 183.214 145.914 183.224 145.888C183.231 145.913 183.237 145.939 183.243 145.964C183.274 146.09 183.304 146.216 183.334 146.342C183.994 149.18 184.18 152.129 183.88 155.027V155.027C183.871 155.118 183.861 155.209 183.851 155.3C183.921 155.396 183.962 155.472 183.979 155.535C184.037 155.759 183.772 155.808 183.389 156.003Z" fill="#E2946D"/>
<path d="M202.136 154.869C201.487 151.858 200.997 148.814 200.676 145.751C200.364 142.778 200.246 139.788 199.921 136.816C199.739 135.153 199.502 133.495 199.16 131.857C199.084 131.495 198.529 131.648 198.605 132.01C199.222 134.968 199.49 137.981 199.712 140.99C199.933 143.988 200.185 146.973 200.643 149.946C200.905 151.647 201.218 153.34 201.581 155.022C201.659 155.384 202.214 155.231 202.136 154.869Z" fill="#A05A42"/>
<path d="M213.036 148.626C213.065 148.626 213.095 148.626 213.124 148.626C213.031 148.556 212.939 148.485 212.846 148.415C213.223 151.214 213.93 153.954 214.83 156.628C214.948 156.977 215.504 156.827 215.385 156.475C214.485 153.801 213.778 151.061 213.401 148.262C213.385 148.139 213.238 148.051 213.124 148.051C213.095 148.051 213.065 148.051 213.036 148.051C212.665 148.051 212.665 148.626 213.036 148.626Z" fill="#A05A42"/>
<path d="M174.027 134.558C175.201 138.853 176.486 143.117 177.883 147.346C178.282 148.553 178.69 149.758 179.107 150.96C179.228 151.308 179.784 151.159 179.662 150.807C178.203 146.6 176.853 142.356 175.615 138.079C175.262 136.857 174.917 135.632 174.582 134.405C174.485 134.048 173.929 134.199 174.027 134.558Z" fill="#A05A42"/>
<path d="M181.865 133.176C181.773 137.339 182.165 141.505 183.025 145.579C183.102 145.942 183.657 145.788 183.58 145.426C182.73 141.401 182.35 137.289 182.44 133.176C182.448 132.806 181.873 132.806 181.865 133.176Z" fill="#A05A42"/>
<path d="M177.114 140.88C177.745 141.789 178.539 142.568 179.467 143.173C179.924 143.471 180.409 143.72 180.913 143.925C181.418 144.13 181.934 144.236 182.454 144.384C182.81 144.486 182.962 143.931 182.606 143.829C182.145 143.697 181.683 143.607 181.232 143.435C180.743 143.248 180.274 143.006 179.832 142.724C178.959 142.168 178.2 141.44 177.611 140.589C177.401 140.287 176.902 140.574 177.114 140.88Z" fill="#A05A42"/>
<path d="M157.266 182.663C158.376 180.808 160.019 179.328 161.972 178.404C162.306 178.246 162.015 177.75 161.681 177.907C159.644 178.871 157.926 180.439 156.769 182.373C156.579 182.691 157.076 182.981 157.266 182.663Z" fill="#A05A42"/>
<path d="M156.687 180.667C157.398 178.953 158.466 177.404 159.799 176.116C160.066 175.858 159.659 175.452 159.392 175.709C157.983 177.071 156.883 178.705 156.132 180.514C155.99 180.855 156.547 181.004 156.687 180.667Z" fill="#A05A42"/>
<path d="M171.099 133.449C169.192 134.662 166.987 135.335 164.727 135.385C164.357 135.393 164.356 135.968 164.727 135.96C167.085 135.909 169.399 135.212 171.389 133.946C171.701 133.747 171.412 133.249 171.099 133.449Z" fill="#A05A42"/>
<path d="M161.399 114.319C160.147 114.931 158.794 115.321 157.408 115.464C157.043 115.502 157.039 116.078 157.408 116.04C158.901 115.885 160.34 115.475 161.689 114.816C162.022 114.654 161.731 114.157 161.399 114.319Z" fill="#A05A42"/>
<path d="M165.618 169.417C166.599 171.955 166.951 174.658 167.468 177.314C167.735 178.684 168.095 180.031 168.428 181.385C168.771 182.782 169.101 184.181 169.417 185.584C169.774 187.171 170.113 188.762 170.436 190.356C170.509 190.719 171.064 190.566 170.991 190.203C170.421 187.385 169.797 184.578 169.118 181.784C168.786 180.418 168.412 179.062 168.128 177.685C167.855 176.36 167.642 175.024 167.383 173.697C167.088 172.191 166.727 170.697 166.173 169.264C166.041 168.922 165.484 169.071 165.618 169.417Z" fill="#A05A42"/>
<path d="M157.668 99.8705C157.03 99.0156 156.159 98.2971 155.128 98.0533C154.097 97.8096 152.9 98.1184 152.247 98.9749C151.509 99.943 151.61 101.305 151.864 102.494C152.18 103.978 152.677 105.421 153.341 106.778C153.699 107.512 154.129 108.247 154.801 108.699C155.357 109.072 156.045 109.221 156.714 109.176C157.667 109.111 158.422 108.652 159.115 108.018C159.814 107.38 160.091 107.139 160.085 106.129C160.08 105.257 159.875 104.388 159.549 103.588C159.034 102.322 158.486 100.965 157.668 99.8705Z" fill="#F3D4C5"/>
<path d="M147.913 164.327C147.9 164.12 147.932 163.95 148.031 163.84C148.523 163.291 150.03 163.549 150.569 163.836C151.766 164.475 152.293 165.529 153.105 166.512C154.032 167.636 154.662 168.833 155.307 170.124C155.749 171.01 156.357 172.532 155.747 173.487C155.405 174.024 154.589 174.214 154.014 174.013C153.353 173.783 152.872 173.219 152.443 172.665C151.033 170.844 149.755 168.886 148.82 166.775C148.628 166.343 147.961 165.091 147.913 164.327Z" fill="#F3D4C5"/>
<path d="M184.146 155.303C184.501 152.131 184.281 148.911 183.509 145.814C183.434 145.514 183.052 145.57 182.954 145.814C182.549 146.827 181.809 147.651 181.203 148.543C180.638 149.374 180.151 150.257 179.266 150.793C179.142 150.868 179.071 151.058 179.163 151.186C179.189 151.223 179.133 151.111 179.167 151.195C179.194 151.261 179.22 151.327 179.247 151.394C179.332 151.606 179.417 151.819 179.502 152.032C179.721 152.581 179.939 153.13 180.161 153.678C180.627 154.83 181.237 156.255 182.647 156.412C183.114 156.464 183.55 156.284 183.951 156.06C184.334 155.846 184.342 155.497 184.107 155.157C183.897 154.855 183.398 155.142 183.61 155.448C183.621 155.464 183.699 155.616 183.71 155.618C183.702 155.616 183.745 155.544 183.71 155.535C183.698 155.532 183.646 155.572 183.633 155.577C183.47 155.634 183.325 155.738 183.162 155.795C182.778 155.928 182.347 155.802 182.024 155.58C181.562 155.263 181.221 154.727 181.001 154.218C180.664 153.438 180.327 152.556 180 151.735C179.898 151.482 179.821 151.121 179.66 150.896C179.625 151.027 179.591 151.158 179.557 151.289C180.502 150.717 181.047 149.806 181.647 148.911C182.298 147.941 183.071 147.065 183.509 145.967C183.324 145.967 183.139 145.967 182.954 145.967C183.714 149.017 183.92 152.18 183.571 155.303C183.53 155.67 184.105 155.667 184.146 155.303Z" fill="#A05A42"/>
</g>
</g>
<defs>
<clipPath id="clip0_20023_52826">
<rect width="268" height="220" rx="32" fill="white"/>
</clipPath>
<clipPath id="clip1_20023_52826">
<rect width="241.92" height="241.92" fill="white" transform="translate(18 13.0391)"/>
</clipPath>
</defs>
</svg>
