<svg width="47" height="28" viewBox="0 0 47 28" fill="none" xmlns="http://www.w3.org/2000/svg">
<rect width="46.4691" height="28" rx="14" fill="black"/>
<path d="M12 14.0115C12 10.6948 14.5902 8 17.756 8C20.9439 8 23.512 10.6948 23.512 14.0115C23.512 15.5317 24.6853 16.7524 26.1243 16.7524C27.5633 16.7524 28.7145 15.5317 28.7145 14.0115C28.7145 12.5144 27.5633 11.2706 26.1243 11.2706C25.438 11.2706 24.8181 11.5931 24.3753 12.0077C24.0654 10.9251 23.512 9.88868 22.7814 9.10557C23.7333 8.39156 24.8624 8 26.1243 8C29.2901 8 31.9245 10.6948 31.9245 14.0115C31.9245 17.3282 29.2901 20 26.1243 20C22.9142 20 20.3462 17.3282 20.3462 14.0115C20.3462 12.5144 19.195 11.2937 17.756 11.2937C16.2948 11.2937 15.1658 12.5144 15.1658 14.0115C15.1658 15.5317 16.2948 16.7524 17.756 16.7524C18.4423 16.7524 19.0621 16.453 19.527 16.0154C19.8148 17.1209 20.3462 18.0883 21.0767 18.9175C20.1469 19.6084 19.0179 20 17.756 20C14.5902 20 12 17.3282 12 14.0115Z" fill="white"/>
<circle cx="34.6955" cy="17.2248" r="2.77358" fill="#FF5B04"/>
</svg>
