<svg width="268" height="220" viewBox="0 0 268 220" fill="none" xmlns="http://www.w3.org/2000/svg">
<g clip-path="url(#clip0_20023_52631)">
<rect width="268" height="220" rx="32" fill="#1D595D"/>
<circle opacity="0.6" cx="134" cy="110" r="125.7" stroke="url(#paint0_linear_20023_52631)" stroke-width="0.6"/>
<circle opacity="0.6" cx="134" cy="110" r="88.7" stroke="url(#paint1_linear_20023_52631)" stroke-width="0.6"/>
<circle opacity="0.6" cx="134" cy="110" r="54.7" stroke="url(#paint2_linear_20023_52631)" stroke-width="0.6"/>
<g opacity="0.68">
<path opacity="0.47" d="M267.624 124.901C266.264 111.387 259.724 97.8511 248.397 88.1771C230.746 73.1036 204.047 69.3046 180.647 72.7891C170.845 74.2486 161.126 76.8341 151.09 76.0206C136.453 74.8341 123.559 66.6976 110.233 60.7336C92.0922 52.6151 71.2972 48.2456 52.0117 51.7786C30.1452 55.7841 12.2167 70.9136 10.0777 90.9881C9.10819 100.084 18.9582 116.109 15.8497 124.729C12.6967 133.472 -10.3228 160.253 -9.75531 180.623C-9.18981 200.917 -3.88831 207.229 3.60369 217.543H9.59219H235.268H248.256C252.921 207.093 256.576 198.734 251.114 185.01C246.75 174.045 258.607 165.015 263.194 154.808C267.275 145.723 268.619 134.799 267.624 124.901Z" fill="#9FBFFF"/>
</g>
<path opacity="0.41" d="M-35.7579 126.94C-40.4219 117.806 -36.7974 106.62 -27.6629 101.956C-18.5284 97.2925 -0.996395 97.6765 3.66761 106.811C8.33161 115.945 -5.72839 123.744 -11.4734 132.24C-19.4859 144.089 -31.0944 136.074 -35.7579 126.94Z" fill="#9FBFFF"/>
<path opacity="0.41" d="M284.953 162.296C289.421 167.138 289.784 174.069 285.765 177.777C281.746 181.486 272.074 183.143 267.606 178.301C263.139 173.459 269.195 167.389 270.556 161.803C272.454 154.012 280.486 157.454 284.953 162.296Z" fill="#9FBFFF"/>
<path opacity="0.41" d="M247.341 53.3387C252.524 50.6027 258.943 52.5867 261.679 57.7697C264.415 62.9527 264.332 72.9732 259.149 75.7092C253.966 78.4452 249.401 70.4722 244.501 67.2557C237.668 62.7697 242.158 56.0742 247.341 53.3387Z" fill="#9FBFFF"/>
<g opacity="0.43">
<path d="M240.637 205.588C243.021 193.735 239.2 183.625 238.246 172.003C237.344 161 241.252 151.747 243.42 141.267C245.349 131.941 244.706 121.377 242.284 112.21C238.977 99.6954 231.361 88.1074 220.389 81.0429C203.291 70.0349 180.49 71.3314 161.604 78.9029C153.693 82.0744 146.032 86.2944 137.56 87.3619C125.204 88.9184 113.178 83.5929 101.141 80.3979C84.7565 76.0484 66.7705 75.7259 51.3115 82.5904C33.784 90.3734 21.321 107.943 22.777 127.295C23.437 136.063 26.812 144.716 25.617 153.427C24.405 162.262 19.157 169.653 16.3785 177.973C12.5865 189.33 12.241 206.021 18.338 217.544H236.532C238.415 213.776 239.802 209.741 240.637 205.588Z" fill="#9FBFFF"/>
</g>
<g opacity="0.47">
<path d="M200.062 168.454C199.365 161.294 196.015 154.121 190.211 148.995C181.169 141.008 167.49 138.994 155.502 140.841C150.48 141.614 145.501 142.985 140.359 142.553C132.86 141.924 126.255 137.613 119.427 134.452C110.133 130.15 99.4795 127.835 89.599 129.707C78.3965 131.83 69.2115 139.847 68.1155 150.484C67.619 155.304 72.665 163.795 71.0725 168.363C69.457 172.996 57.6635 187.186 57.9545 197.98C58.244 208.734 60.9605 212.078 64.7985 217.544H67.8665H183.485H190.139C192.529 212.007 194.401 207.577 191.603 200.305C189.367 194.495 195.441 189.71 197.791 184.301C199.883 179.488 200.572 173.699 200.062 168.454Z" fill="#9FBFFF"/>
</g>
<path d="M301.947 219.108H-23.1197C-23.5562 219.108 -23.9102 218.754 -23.9102 218.318C-23.9102 217.881 -23.5562 217.527 -23.1197 217.527H301.947C302.383 217.527 302.737 217.881 302.737 218.318C302.737 218.754 302.383 219.108 301.947 219.108Z" fill="#9FBFFF"/>
<path d="M2.04688 68.543C3.28952 68.543 4.29688 67.5356 4.29688 66.293C4.29688 65.0503 3.28952 64.043 2.04688 64.043C0.804234 64.043 -0.203125 65.0503 -0.203125 66.293C-0.203125 67.5356 0.804234 68.543 2.04688 68.543Z" fill="#4E69FF"/>
<path d="M179.301 48.2632C178.608 51.5077 175.416 53.5762 172.172 52.8832C168.927 52.1902 166.859 48.9982 167.552 45.7537C168.245 42.5092 171.437 40.4407 174.681 41.1337C177.926 41.8272 179.994 45.0192 179.301 48.2632Z" fill="#4E69FF"/>
<path d="M39.1165 45.6568C38.906 46.6423 37.937 47.2703 36.9515 47.0598C35.966 46.8493 35.338 45.8798 35.5485 44.8948C35.759 43.9093 36.728 43.2813 37.7135 43.4918C38.699 43.7023 39.327 44.6713 39.1165 45.6568Z" fill="#FFB54A"/>
<path d="M157.756 53.9813C157.591 54.7538 156.831 55.2468 156.058 55.0818C155.286 54.9168 154.793 54.1568 154.958 53.3838C155.123 52.6113 155.883 52.1188 156.656 52.2838C157.428 52.4488 157.921 53.2088 157.756 53.9813Z" fill="#17014C"/>
<path d="M55.7552 70.1582H11.8552C7.34019 70.1582 3.67969 73.8182 3.67969 78.3337C3.67969 82.8487 7.33969 86.5087 11.8552 86.5087H48.0342L53.0117 91.0442V86.5087H55.7557C60.2707 86.5087 63.9312 82.8487 63.9312 78.3337C63.9302 73.8182 60.2702 70.1582 55.7552 70.1582Z" fill="#4E69FF"/>
<path d="M15.8126 77.2051C16.3851 76.7296 16.7496 76.0131 16.7496 75.2106C16.7496 73.7791 15.5891 72.6191 14.1581 72.6191C12.7266 72.6191 11.5666 73.7796 11.5666 75.2106C11.5666 76.0126 11.9311 76.7296 12.5036 77.2051C10.6656 77.8801 9.35156 79.6406 9.35156 81.7131C9.35156 84.3676 18.9641 84.3676 18.9641 81.7131C18.9646 79.6406 17.6506 77.8801 15.8126 77.2051Z" fill="#FFB54A"/>
<path d="M56.3047 74.5527H24.8477C24.7097 74.5527 24.5977 74.4407 24.5977 74.3027C24.5977 74.1647 24.7097 74.0527 24.8477 74.0527H56.3047C56.4427 74.0527 56.5547 74.1647 56.5547 74.3027C56.5547 74.4407 56.4427 74.5527 56.3047 74.5527Z" fill="white"/>
<path d="M51.4242 81.9336H24.8477C24.7097 81.9336 24.5977 81.8216 24.5977 81.6836C24.5977 81.5456 24.7097 81.4336 24.8477 81.4336H51.4242C51.5622 81.4336 51.6742 81.5456 51.6742 81.6836C51.6742 81.8221 51.5622 81.9336 51.4242 81.9336Z" fill="white"/>
<path d="M44.1867 78.4766H24.8477C24.7097 78.4766 24.5977 78.3646 24.5977 78.2266C24.5977 78.0886 24.7097 77.9766 24.8477 77.9766H44.1867C44.3247 77.9766 44.4367 78.0886 44.4367 78.2266C44.4367 78.3646 44.3247 78.4766 44.1867 78.4766Z" fill="white"/>
<path d="M56.3037 78.4766H46.5977C46.4597 78.4766 46.3477 78.3646 46.3477 78.2266C46.3477 78.0886 46.4597 77.9766 46.5977 77.9766H56.3037C56.4417 77.9766 56.5537 78.0886 56.5537 78.2266C56.5537 78.3646 56.4417 78.4766 56.3037 78.4766Z" fill="white"/>
<path d="M17.2666 80.9675C17.0746 80.9675 16.8831 80.8945 16.7366 80.748L14.8526 78.864C14.5596 78.571 14.5596 78.096 14.8526 77.8035C15.1456 77.5105 15.6201 77.5105 15.9131 77.8035L17.2666 79.1575L20.9041 75.5205C21.1971 75.2275 21.6716 75.2275 21.9646 75.5205C22.2576 75.813 22.2576 76.2885 21.9646 76.581L17.7971 80.7485C17.6506 80.894 17.4586 80.9675 17.2666 80.9675Z" fill="white"/>
<path d="M251.551 112.732H296.592C301.224 112.732 304.979 116.488 304.979 121.12C304.979 125.752 301.224 129.507 296.592 129.507H259.473L254.367 134.161V129.507H251.552C246.919 129.507 243.164 125.752 243.164 121.12C243.163 116.488 246.919 112.732 251.551 112.732Z" fill="#FFB54A"/>
<path d="M285.187 117.734H253.73C253.592 117.734 253.48 117.622 253.48 117.484C253.48 117.346 253.592 117.234 253.73 117.234H285.187C285.325 117.234 285.437 117.346 285.437 117.484C285.437 117.622 285.325 117.734 285.187 117.734Z" fill="white"/>
<path d="M280.306 125.115H253.73C253.592 125.115 253.48 125.003 253.48 124.865C253.48 124.727 253.592 124.615 253.73 124.615H280.306C280.444 124.615 280.556 124.727 280.556 124.865C280.556 125.003 280.445 125.115 280.306 125.115Z" fill="white"/>
<path d="M273.069 121.658H253.73C253.592 121.658 253.48 121.546 253.48 121.408C253.48 121.27 253.592 121.158 253.73 121.158H273.069C273.207 121.158 273.319 121.27 273.319 121.408C273.319 121.546 273.207 121.658 273.069 121.658Z" fill="white"/>
<path d="M194.934 64.3789H225.961C229.152 64.3789 231.739 66.9659 231.739 70.1569C231.739 73.3479 229.152 75.9349 225.961 75.9349H196.873H194.934C191.743 75.9349 189.156 73.3479 189.156 70.1569C189.156 66.9659 191.743 64.3789 194.934 64.3789Z" fill="#4E69FF"/>
<path d="M222.458 68.2578H198.402C198.264 68.2578 198.152 68.1458 198.152 68.0078C198.152 67.8698 198.264 67.7578 198.402 67.7578H222.458C222.596 67.7578 222.708 67.8698 222.708 68.0078C222.708 68.1458 222.596 68.2578 222.458 68.2578Z" fill="white"/>
<path d="M218.726 72.6289H198.402C198.264 72.6289 198.152 72.5169 198.152 72.3789C198.152 72.2409 198.264 72.1289 198.402 72.1289H218.726C218.864 72.1289 218.976 72.2409 218.976 72.3789C218.976 72.5169 218.865 72.6289 218.726 72.6289Z" fill="white"/>
<path d="M213.192 70.5801H198.402C198.264 70.5801 198.152 70.4681 198.152 70.3301C198.152 70.1921 198.264 70.0801 198.402 70.0801H213.192C213.33 70.0801 213.442 70.1921 213.442 70.3301C213.442 70.4686 213.33 70.5801 213.192 70.5801Z" fill="white"/>
<path d="M222.458 70.5801H215.035C214.897 70.5801 214.785 70.4681 214.785 70.3301C214.785 70.1921 214.897 70.0801 215.035 70.0801H222.458C222.596 70.0801 222.708 70.1921 222.708 70.3301C222.708 70.4686 222.596 70.5801 222.458 70.5801Z" fill="white"/>
<path d="M-15.3547 146.295H12.2338C15.0713 146.295 17.3713 148.595 17.3713 151.432C17.3713 154.27 15.0713 156.57 12.2338 156.57H-13.6302H-15.3547C-18.1922 156.57 -20.4922 154.27 -20.4922 151.432C-20.4922 148.595 -18.1922 146.295 -15.3547 146.295Z" fill="#FFB54A"/>
<path d="M9.12047 149.77H-12.2695C-12.4075 149.77 -12.5195 149.658 -12.5195 149.52C-12.5195 149.382 -12.4075 149.27 -12.2695 149.27H9.12047C9.25847 149.27 9.37047 149.382 9.37047 149.52C9.37047 149.658 9.25847 149.77 9.12047 149.77Z" fill="white"/>
<path d="M5.80197 153.656H-12.2695C-12.4075 153.656 -12.5195 153.544 -12.5195 153.406C-12.5195 153.268 -12.4075 153.156 -12.2695 153.156H5.80197C5.93997 153.156 6.05197 153.268 6.05197 153.406C6.05197 153.545 5.93997 153.656 5.80197 153.656Z" fill="white"/>
<path d="M0.88047 151.836H-12.2695C-12.4075 151.836 -12.5195 151.724 -12.5195 151.586C-12.5195 151.448 -12.4075 151.336 -12.2695 151.336H0.88047C1.01847 151.336 1.13047 151.448 1.13047 151.586C1.13047 151.724 1.01847 151.836 0.88047 151.836Z" fill="white"/>
<path d="M9.11953 151.836H2.51953C2.38153 151.836 2.26953 151.724 2.26953 151.586C2.26953 151.448 2.38153 151.336 2.51953 151.336H9.11953C9.25753 151.336 9.36953 151.448 9.36953 151.586C9.36953 151.724 9.25753 151.836 9.11953 151.836Z" fill="white"/>
<path d="M188.553 174.076H139.535C139.397 174.076 139.285 173.964 139.285 173.826C139.285 173.688 139.397 173.576 139.535 173.576H188.553C188.691 173.576 188.803 173.688 188.803 173.826C188.803 173.964 188.691 174.076 188.553 174.076Z" fill="white"/>
<path d="M188.554 185.578H147.141C147.003 185.578 146.891 185.466 146.891 185.328C146.891 185.19 147.003 185.078 147.141 185.078H188.554C188.692 185.078 188.804 185.19 188.804 185.328C188.804 185.466 188.692 185.578 188.554 185.578Z" fill="white"/>
<path d="M188.553 180.191H158.418C158.28 180.191 158.168 180.079 158.168 179.941C158.168 179.803 158.28 179.691 158.418 179.691H188.553C188.691 179.691 188.803 179.803 188.803 179.941C188.803 180.079 188.691 180.191 188.553 180.191Z" fill="white"/>
<path d="M154.659 180.191H139.535C139.397 180.191 139.285 180.079 139.285 179.941C139.285 179.803 139.397 179.691 139.535 179.691H154.659C154.797 179.691 154.909 179.803 154.909 179.941C154.909 180.079 154.798 180.191 154.659 180.191Z" fill="white"/>
<path d="M133.115 192.32H84.0977C83.9597 192.32 83.8477 192.208 83.8477 192.07C83.8477 191.932 83.9597 191.82 84.0977 191.82H133.115C133.253 191.82 133.365 191.932 133.365 192.07C133.365 192.208 133.253 192.32 133.115 192.32Z" fill="white"/>
<path d="M125.511 203.822H84.0977C83.9597 203.822 83.8477 203.71 83.8477 203.572C83.8477 203.434 83.9597 203.322 84.0977 203.322H125.511C125.649 203.322 125.761 203.434 125.761 203.572C125.761 203.71 125.649 203.822 125.511 203.822Z" fill="white"/>
<path d="M114.233 198.436H84.0977C83.9597 198.436 83.8477 198.324 83.8477 198.186C83.8477 198.048 83.9597 197.936 84.0977 197.936H114.233C114.371 197.936 114.483 198.048 114.483 198.186C114.483 198.324 114.371 198.436 114.233 198.436Z" fill="white"/>
<path d="M133.113 198.436H117.988C117.85 198.436 117.738 198.324 117.738 198.186C117.738 198.048 117.85 197.936 117.988 197.936H133.113C133.251 197.936 133.363 198.048 133.363 198.186C133.363 198.324 133.251 198.436 133.113 198.436Z" fill="white"/>
<path d="M170.07 145.865L170.087 145.808L177.326 120.625L177.295 120.601C177.62 119.964 178.464 118.597 180.191 117.392C183.175 115.311 183.531 111.863 183.531 111.863C185.125 110.32 186.921 109.004 188.548 107.498C188.718 107.341 188.895 107.168 188.945 106.942C189 106.69 188.883 106.433 188.739 106.219C187.899 104.974 186.356 104.794 185.072 105.369C184.32 105.706 183.647 106.185 183.017 106.711C182.718 106.961 181.698 107.647 181.389 108.104L187.147 95.809C187.659 94.7175 187.324 93.4715 186.404 93.0405C185.944 92.825 185.421 92.8525 184.949 93.0705C184.65 93.2085 184.377 93.4305 184.148 93.708C184.166 93.618 184.176 93.5645 184.176 93.5645C177.432 87.8935 169.111 107.196 169.111 107.196L166.749 112.769L146.718 149.908C143.886 155.296 146.069 161.959 151.541 164.627C151.62 164.665 151.7 164.699 151.779 164.736C153.385 165.663 155.247 166.196 157.234 166.196H196.654L205.149 146.007L170.07 145.865Z" fill="#FEC29E"/>
<path opacity="0.17" d="M163.32 166.185C162.039 166.146 162.815 166.17 163.32 166.185V166.185Z" fill="#FF887C"/>
<path opacity="0.17" d="M163.328 166.186C163.508 166.191 163.651 166.196 163.651 166.196C163.529 166.192 163.426 166.189 163.328 166.186Z" fill="#FF887C"/>
<path opacity="0.17" d="M170.09 145.809L168.943 149.799C168.645 150.906 168.301 152.096 167.934 153.309L166.548 158.131C166.357 158.749 166.114 159.336 165.83 159.89C164.637 163.459 163.652 166.196 163.652 166.196L177.829 145.897C174.303 145.897 173.494 145.813 170.09 145.809Z" fill="#FF887C"/>
<path d="M175.797 109.361C175.745 109.361 175.694 109.345 175.649 109.312C175.538 109.23 175.514 109.073 175.596 108.962C178.112 105.55 181.495 107.394 181.528 107.412C181.648 107.48 181.69 107.632 181.623 107.752C181.556 107.872 181.403 107.915 181.283 107.849C181.16 107.78 178.248 106.208 175.998 109.259C175.95 109.326 175.874 109.361 175.797 109.361Z" fill="#FB8E77"/>
<path d="M184.29 93.6597C183.251 94.9692 182.284 96.3467 181.427 97.7787C181 98.4957 180.614 99.2352 180.29 99.9947C179.971 100.748 179.713 101.558 179.754 102.322L179.755 102.338C179.763 102.476 179.657 102.593 179.519 102.601C179.381 102.608 179.264 102.502 179.256 102.365C179.256 102.363 179.256 102.36 179.256 102.359C179.229 101.429 179.535 100.598 179.877 99.8182C180.228 99.0377 180.638 98.2917 181.086 97.5727C181.986 96.1357 182.983 94.7742 184.061 93.4702C184.114 93.4067 184.208 93.3977 184.271 93.4502C184.334 93.5022 184.343 93.5942 184.293 93.6577L184.29 93.6597Z" fill="#FB8E77"/>
<path d="M182.553 92.9459C181.893 93.3999 181.301 94.0014 180.771 94.6259C180.24 95.2574 179.775 95.9419 179.355 96.6524C178.944 97.3689 178.582 98.1129 178.274 98.8794C178.111 99.2589 177.989 99.6549 177.844 100.041L177.486 101.228L177.481 101.243C177.441 101.375 177.302 101.45 177.17 101.41C177.038 101.37 176.963 101.23 177.003 101.098C177.003 101.097 177.004 101.095 177.004 101.094L177.394 99.8869C177.549 99.4934 177.682 99.0914 177.856 98.7054C178.187 97.9264 178.572 97.1709 179.007 96.4449C179.451 95.7239 179.942 95.0309 180.5 94.3924C181.063 93.7564 181.663 93.1614 182.392 92.6799C182.463 92.6329 182.559 92.6524 182.607 92.7239C182.653 92.7944 182.635 92.8894 182.565 92.9369L182.553 92.9459Z" fill="#FB8E77"/>
<path d="M179.826 93.1382C178.869 94.1402 177.978 95.2227 177.208 96.3732C176.828 96.9512 176.463 97.5412 176.176 98.1637C175.887 98.7832 175.649 99.4272 175.545 100.084L175.544 100.09C175.522 100.227 175.394 100.32 175.258 100.298C175.121 100.277 175.028 100.149 175.05 100.012C175.05 100.011 175.05 100.008 175.051 100.006C175.184 99.2797 175.456 98.6067 175.773 97.9672C176.089 97.3252 176.478 96.7302 176.881 96.1497C177.699 94.9937 178.62 93.9287 179.621 92.9312C179.678 92.8742 179.77 92.8747 179.827 92.9317C179.883 92.9877 179.884 93.0782 179.83 93.1352L179.826 93.1382Z" fill="#FB8E77"/>
<path d="M261.053 182.534L251.383 156.176C250.232 150.392 244.73 146.007 238.11 146.007L211.099 145.793L180.668 145.909V166.196H190.112L185.237 219.109L252.248 219.488L251.872 183.658L261.053 182.534Z" fill="#4E69FF"/>
<path opacity="0.05" d="M211.046 146.019L211.099 145.793L180.668 145.909V166.196H190.112L190.161 165.661C190.161 154.954 199.469 146.253 211.046 146.019Z" fill="#1B1B25"/>
<path opacity="0.18" d="M172.586 116.66C172.586 116.66 174.294 131.168 174.394 130.818C174.495 130.469 177.325 120.624 177.325 120.624L172.586 116.66Z" fill="#FF887C"/>
<path d="M212.477 190.107L209.92 177.218L207.947 167.274C207.715 166.104 206.568 165.337 205.398 165.569L195.52 167.529C194.35 167.761 193.583 168.908 193.815 170.078L195.801 180.087L197.376 188.025L198.345 192.911C198.577 194.081 199.724 194.848 200.894 194.616L206.728 193.459L210.772 192.656C211.942 192.424 212.709 191.277 212.477 190.107Z" fill="#1B1B25"/>
<path d="M265.056 201.984L260.601 182.588L240.349 185.066L241.461 190L241.358 189.974L219.343 184.524L219.324 184.551C218.716 184.247 217.575 183.521 216.571 182.021C214.725 179.262 211.624 179.186 211.624 179.186C211.027 178.56 210.47 177.892 209.92 177.217L210.436 179.816L210.307 179.885C208.907 180.626 207.328 180.955 205.749 180.832C202.827 180.604 198.053 180.231 196.069 180.076C195.463 180.029 194.881 180.351 194.62 180.9C191.787 186.856 203.953 192.305 206.729 193.457H206.728C206.765 193.472 206.793 193.483 206.826 193.497C206.866 193.514 206.905 193.53 206.94 193.544C206.98 193.56 207.012 193.573 207.046 193.587C207.077 193.599 207.109 193.612 207.134 193.622C207.17 193.636 207.194 193.646 207.217 193.655C207.228 193.659 207.241 193.664 207.249 193.667C207.276 193.678 207.291 193.683 207.291 193.683L212.052 195.468L249.744 214.021C250.094 214.189 250.448 214.335 250.806 214.462C252.633 215.299 254.737 215.571 256.848 215.087C262.732 213.735 266.407 207.869 265.056 201.984Z" fill="#FEC29E"/>
<path opacity="0.17" d="M263.618 195.732L240.348 185.066C241.125 188.45 240.672 186.957 241.357 189.974L242.941 190.366C249.642 190.819 263.618 195.732 263.618 195.732Z" fill="#FF887C"/>
<path opacity="0.35" d="M238.469 185.317C238.353 185.317 238.249 185.235 238.225 185.118L235.318 171.034C235.289 170.899 235.377 170.767 235.512 170.739C235.644 170.708 235.779 170.797 235.807 170.933L238.669 184.79L248.461 183.544C248.597 183.525 248.723 183.623 248.741 183.761C248.759 183.898 248.662 184.023 248.525 184.041L238.502 185.316C238.491 185.317 238.48 185.317 238.469 185.317Z" fill="#1B1B25"/>
<path opacity="0.17" d="M263.777 196.535C263.796 196.631 263.811 196.707 263.817 196.735C263.813 196.715 263.8 196.651 263.777 196.535Z" fill="#FF887C"/>
<path opacity="0.17" d="M263.816 196.734C263.819 196.746 263.819 196.748 263.816 196.734V196.734Z" fill="#FF887C"/>
<path opacity="0.17" d="M263.617 195.732C263.617 195.732 263.671 196.004 263.723 196.266C263.695 196.124 263.661 195.956 263.617 195.732Z" fill="#FF887C"/>
<path opacity="0.17" d="M263.723 196.268C263.744 196.376 263.762 196.467 263.776 196.535C263.76 196.456 263.742 196.363 263.723 196.268Z" fill="#FF887C"/>
<path d="M236.175 93.788C235.559 89.542 231.685 86.5205 227.391 87.006C226.252 87.135 225.198 87.502 224.268 88.0455C222.886 85.7845 220.285 84.3995 217.479 84.717C215.875 84.8985 214.464 85.611 213.387 86.6525C211.838 85.876 210.056 85.5195 208.205 85.729C203.121 86.304 199.465 90.892 200.04 95.9765C200.309 98.3545 201.458 100.417 203.123 101.883L201.24 111.942C200.699 114.829 202.602 117.608 205.489 118.149L227.801 122.326C230.689 122.867 233.468 120.964 234.009 118.076L237.664 98.55C238.001 96.7475 237.387 94.988 236.175 93.788Z" fill="#1B1B25"/>
<path d="M203.653 99.2874C203.571 99.2874 203.49 99.2459 203.442 99.1709C199.456 92.8639 204.946 88.8194 205.002 88.7794C205.114 88.6984 205.269 88.7249 205.35 88.8369C205.43 88.9489 205.405 89.1049 205.293 89.1854C205.081 89.3384 200.134 93.0004 203.865 98.9034C203.939 99.0199 203.904 99.1749 203.787 99.2484C203.745 99.2749 203.699 99.2874 203.653 99.2874Z" fill="#FCF0E3"/>
<path d="M232.567 113.508L232.079 113.416L227.154 102.83C225.942 102.655 224.806 102.208 223.821 101.541C222.876 102.564 221.577 103.269 220.084 103.438C218.288 103.641 216.592 103.027 215.354 101.897C213.981 103.103 212.242 103.921 210.288 104.142C208.054 104.394 205.916 103.829 204.171 102.685L200.74 121.012C200.266 123.544 200.786 126.026 202.011 128.076C203.23 131.091 205.853 133.46 209.226 134.237V146.339C209.226 150.543 212.666 153.983 216.87 153.983H219.281C223.485 153.983 226.925 150.544 226.925 146.339V132.598C228.165 131.235 229.062 129.531 229.426 127.587L230.052 124.241L230.54 124.332C233.436 124.874 236.249 122.948 236.791 120.052L236.846 119.759C237.389 116.863 235.463 114.05 232.567 113.508Z" fill="#FEC29E"/>
<path opacity="0.32" d="M228.918 123.816L228.471 126.204C227.44 131.711 222.14 135.34 216.632 134.309L208.846 132.852C205.87 132.295 203.452 130.486 202.012 128.077C203.281 131.217 206.067 133.668 209.643 134.338L209.954 134.396C211.191 136.959 213.812 138.743 216.836 138.743H219.278C222.885 138.743 225.922 136.208 226.714 132.833C228.067 131.436 229.041 129.642 229.426 127.587L230.053 124.241L228.918 123.816Z" fill="#FF887C"/>
<path d="M232.992 120.686C232.939 120.686 232.884 120.669 232.839 120.634L230.893 119.124C230.836 119.079 230.801 119.011 230.797 118.938C230.793 118.866 230.822 118.795 230.875 118.744L233.274 116.48C233.374 116.386 233.534 116.39 233.627 116.49C233.722 116.591 233.718 116.749 233.617 116.844L231.43 118.908L233.145 120.239C233.254 120.323 233.274 120.48 233.189 120.59C233.141 120.653 233.067 120.686 232.992 120.686Z" fill="#FB8E77"/>
<path d="M220.621 111.382C220.245 111.371 219.859 111.143 219.472 110.945C219.087 110.737 218.696 110.537 218.35 110.376C218.003 110.214 217.598 110.042 217.191 109.881C216.791 109.713 216.366 109.562 216.121 109.283C215.882 109.019 215.929 108.601 216.488 108.322C217.02 108.045 218.105 107.979 219.254 108.512C220.4 109.049 221.032 109.916 221.149 110.496C221.281 111.097 220.981 111.396 220.621 111.382Z" fill="#1B1B25"/>
<path d="M204.714 110.011C205.038 110.189 205.485 110.214 205.917 110.259C206.353 110.297 206.789 110.344 207.168 110.398C207.547 110.451 207.98 110.525 208.41 110.608C208.838 110.683 209.277 110.783 209.632 110.699C209.974 110.623 210.154 110.292 209.827 109.808C209.522 109.339 208.638 108.751 207.384 108.573C206.13 108.4 205.138 108.725 204.734 109.095C204.305 109.473 204.401 109.843 204.714 110.011Z" fill="#1B1B25"/>
<path d="M216.942 115.656L216.976 115.662C217.311 115.725 217.636 115.502 217.698 115.168L217.847 114.376C217.909 114.041 217.687 113.716 217.352 113.654L217.318 113.647C216.984 113.585 216.659 113.807 216.596 114.141L216.448 114.933C216.386 115.269 216.608 115.593 216.942 115.656Z" fill="#1B1B25"/>
<path d="M206.165 113.905L206.199 113.912C206.534 113.974 206.859 113.752 206.921 113.418L207.07 112.626C207.132 112.291 206.91 111.966 206.575 111.904L206.541 111.897C206.207 111.835 205.882 112.057 205.819 112.391L205.671 113.183C205.608 113.518 205.831 113.843 206.165 113.905Z" fill="#1B1B25"/>
<path opacity="0.17" d="M217.387 118.521L219.6 118.77C220.019 118.817 220.4 118.513 220.447 118.094L220.452 118.052C220.499 117.633 220.195 117.252 219.776 117.205L217.564 116.956C217.145 116.909 216.764 117.213 216.717 117.631L216.712 117.674C216.664 118.093 216.968 118.474 217.387 118.521Z" fill="#FF887C"/>
<path opacity="0.17" d="M202.797 116.224L205.01 116.473C205.429 116.52 205.81 116.216 205.857 115.798L205.862 115.755C205.909 115.336 205.605 114.955 205.186 114.908L202.974 114.659C202.556 114.612 202.174 114.916 202.127 115.335L202.122 115.377C202.075 115.796 202.379 116.177 202.797 116.224Z" fill="#FF887C"/>
<path d="M209.246 127.542C209.169 127.542 209.093 127.507 209.044 127.44C208.963 127.328 208.987 127.172 209.098 127.09C210.146 126.325 211.32 126.754 211.794 127.088C211.907 127.167 211.934 127.322 211.855 127.435C211.776 127.548 211.62 127.575 211.508 127.497C211.463 127.466 210.409 126.752 209.393 127.494C209.349 127.526 209.297 127.542 209.246 127.542Z" fill="#FB8E77"/>
<path d="M210.934 120.435L216.781 119.6L216.14 121.631C215.73 122.931 214.524 123.815 213.161 123.815C212.1 123.815 211.21 123.016 211.097 121.961L210.934 120.435Z" fill="white"/>
<path d="M212.446 118.362C212.425 118.362 212.404 118.36 212.383 118.354L210.57 117.882C209.801 117.682 209.181 117.148 208.868 116.418C208.555 115.688 208.597 114.87 208.982 114.176L211.743 109.207C211.811 109.085 211.963 109.043 212.084 109.11C212.204 109.177 212.248 109.329 212.181 109.45L209.42 114.419C209.109 114.978 209.076 115.635 209.327 116.222C209.579 116.809 210.077 117.238 210.695 117.399L212.508 117.871C212.642 117.906 212.722 118.043 212.687 118.176C212.658 118.288 212.557 118.362 212.446 118.362Z" fill="#FB8E77"/>
<path d="M127.537 154.311L107.507 117.173L105.145 111.6C105.145 111.6 96.8234 92.2978 90.0794 97.9688C90.0794 97.9688 90.0899 98.0223 90.1074 98.1118C89.8784 97.8343 89.6054 97.6123 89.3064 97.4743C88.8344 97.2563 88.3119 97.2293 87.8519 97.4448C86.9319 97.8758 86.5974 99.1218 87.1084 100.213L92.8669 112.508C92.5569 112.051 91.5369 111.365 91.2384 111.115C90.6084 110.589 89.9359 110.11 89.1839 109.773C87.8999 109.198 86.3569 109.378 85.5169 110.623C85.3724 110.837 85.2554 111.094 85.3109 111.346C85.3604 111.572 85.5374 111.745 85.7074 111.902C87.3344 113.409 89.1304 114.724 90.7239 116.267C90.7239 116.267 91.0804 119.715 94.0644 121.797C95.7909 123.001 96.6349 124.368 96.9604 125.005L96.9294 125.029L104.185 150.269L93.5894 150.411V170.599H117.022C119.012 170.599 120.876 170.065 122.483 169.136C122.56 169.1 122.638 169.068 122.715 169.031C128.186 166.363 130.37 159.7 127.537 154.311Z" fill="#FEC29E"/>
<path opacity="0.17" d="M110.605 170.599C110.605 170.599 105.16 155.949 104.225 150.211C100.617 150.211 100.068 150.372 96.4609 150.372L110.605 170.599Z" fill="#FF887C"/>
<path d="M98.4595 113.765C98.383 113.765 98.307 113.73 98.258 113.663C96.0085 110.612 93.096 112.184 92.9735 112.253C92.853 112.32 92.701 112.277 92.6335 112.157C92.566 112.037 92.609 111.885 92.729 111.817C92.763 111.798 96.145 109.955 98.6605 113.366C98.7425 113.477 98.719 113.634 98.608 113.716C98.563 113.749 98.511 113.765 98.4595 113.765Z" fill="#FB8E77"/>
<path d="M90.1834 97.8617C90.7904 98.4677 91.3419 99.1112 91.8674 99.7812C92.3894 100.453 92.8784 101.152 93.3164 101.886C93.7474 102.624 94.1314 103.392 94.4369 104.198C94.7259 105.01 94.9309 105.857 94.9994 106.731C95.0104 106.868 94.9074 106.989 94.7699 106.999C94.6324 107.01 94.5119 106.907 94.5009 106.77C94.5009 106.769 94.5009 106.767 94.5009 106.766L94.5004 106.756C94.4519 105.942 94.2759 105.134 94.0139 104.349C93.7359 103.569 93.3784 102.815 92.9719 102.087C92.5584 101.361 92.0919 100.665 91.5914 99.9932C91.0889 99.3247 90.5514 98.6732 89.9749 98.0737L89.9714 98.0702C89.9144 98.0107 89.9159 97.9167 89.9754 97.8597C90.0334 97.8037 90.1259 97.8047 90.1834 97.8617Z" fill="#FB8E77"/>
<path d="M91.874 96.9C92.6895 97.3215 93.287 97.949 93.846 98.609C94.395 99.2755 94.873 99.9965 95.2835 100.751C95.7075 101.5 96.058 102.284 96.3915 103.074L96.846 104.276L97.25 105.495C97.2935 105.626 97.2225 105.767 97.0915 105.811C96.9605 105.854 96.819 105.783 96.7755 105.652C96.775 105.651 96.775 105.65 96.7745 105.649L96.771 105.638L96.3955 104.431L95.9705 103.241C95.658 102.46 95.3285 101.684 94.9275 100.946C94.54 100.201 94.0875 99.49 93.5685 98.8355C93.053 98.193 92.447 97.5615 91.753 97.1865L91.7295 97.174C91.6545 97.1335 91.6265 97.0395 91.667 96.9645C91.707 96.8895 91.799 96.8615 91.874 96.9Z" fill="#FB8E77"/>
<path d="M94.6204 97.323C95.1819 97.776 95.6779 98.2775 96.1474 98.8115C96.6154 99.3445 97.0469 99.911 97.4319 100.508C97.8199 101.103 98.1704 101.726 98.4609 102.377C98.7679 103.021 98.9929 103.701 99.1984 104.385C99.2379 104.517 99.1634 104.657 99.0309 104.697C98.8989 104.736 98.7594 104.662 98.7194 104.529C98.7189 104.528 98.7184 104.526 98.7179 104.525L98.7144 104.512C98.5324 103.85 98.3329 103.189 98.0509 102.558C97.7854 101.922 97.4604 101.309 97.0974 100.721C96.7374 100.13 96.3304 99.567 95.8859 99.0355C95.4434 98.505 94.9604 97.9945 94.4409 97.5535L94.4344 97.548C94.3729 97.496 94.3654 97.404 94.4174 97.3425C94.4694 97.282 94.5594 97.274 94.6204 97.323Z" fill="#FB8E77"/>
<path opacity="0.18" d="M96.0273 123.602L103.768 122.646L98.9813 132.167C98.9813 132.167 97.5568 125.087 96.0273 123.602Z" fill="#FF887C"/>
<path d="M64.9208 150.41L64.9222 150.419C64.8027 150.416 64.6842 150.41 64.5642 150.41H40.1058C34.7958 150.41 30.2662 153.744 28.4912 158.432L28.4888 158.432L28.4512 158.533C28.4452 158.549 28.4392 158.566 28.4333 158.582L18.0312 186.937L27.6882 188.119V219.608H80.2442L84.1743 170.598H93.3168V150.311L64.9208 150.41Z" fill="white"/>
<path opacity="0.05" d="M93.5895 150.312L65.668 150.429L65.6685 150.432C76.1365 150.868 84.49 159.489 84.49 170.064L84.447 170.6H93.5895V150.312Z" fill="#1B1B25"/>
<path d="M83.8348 171.931L73.9568 169.971C72.7868 169.739 71.6398 170.506 71.4078 171.676L69.4348 181.621L66.8773 194.51C66.6453 195.68 67.4123 196.827 68.5823 197.059L72.6258 197.861L78.4598 199.019C79.6298 199.251 80.7768 198.484 81.0088 197.314L81.9783 192.428L83.5533 184.489L85.5393 174.48C85.7718 173.31 85.0048 172.163 83.8348 171.931Z" fill="#1B1B25"/>
<path d="M84.871 185.203C84.748 184.945 84.5521 184.739 84.3181 184.596C84.2761 184.534 84.2421 184.472 84.1965 184.41C84.1965 184.41 84.1076 184.421 83.9601 184.439C83.7886 184.389 83.6076 184.366 83.423 184.38C81.439 184.535 76.6651 184.907 73.743 185.135C72.1641 185.258 70.5851 184.93 69.1856 184.188L68.952 184.064L69.4366 181.621C68.9141 182.262 68.3835 182.894 67.8205 183.492C67.535 183.508 65.9051 183.653 64.3806 184.789C63.8151 185.188 63.2586 185.717 62.7846 186.425C62.1896 187.314 61.5471 187.928 60.9946 188.347C60.6716 188.579 60.3845 188.745 60.1675 188.854L60.1486 188.827L38.1316 194.278L38.0306 194.303L39.1481 189.346L18.8906 186.892L14.4361 206.288C13.0846 212.172 16.7596 218.038 22.6441 219.39C24.7551 219.875 26.8586 219.602 28.6861 218.765C29.0436 218.638 29.3976 218.492 29.7476 218.324L67.0141 199.981L72.0656 198.087C72.0656 198.087 72.2701 198.009 72.6276 197.861L72.5536 197.846C74.8581 196.908 87.7815 191.322 84.871 185.203Z" fill="#FEC29E"/>
<path opacity="0.17" d="M15.5825 200.92C15.5615 201.026 15.5485 201.09 15.543 201.12C15.55 201.084 15.564 201.012 15.5825 200.92Z" fill="#FF887C"/>
<path opacity="0.17" d="M37.9978 194.379C38.4538 192.28 38.3218 192.461 39.0143 189.447L15.7383 200.136C15.7383 200.136 18.0448 199.442 21.2273 198.597C21.5233 198.489 21.8243 198.39 22.1348 198.306L37.9978 194.379Z" fill="#FF887C"/>
<path opacity="0.17" d="M15.6385 200.635C15.6185 200.736 15.599 200.835 15.582 200.921C15.596 200.848 15.615 200.752 15.6385 200.635Z" fill="#FF887C"/>
<path opacity="0.17" d="M15.5436 201.121C15.5376 201.151 15.5376 201.152 15.5436 201.121V201.121Z" fill="#FF887C"/>
<path opacity="0.17" d="M15.7391 200.137C15.6986 200.342 15.6676 200.499 15.6406 200.635C15.6901 200.384 15.7391 200.137 15.7391 200.137Z" fill="#FF887C"/>
<path opacity="0.35" d="M40.8882 189.698C40.8777 189.698 40.8677 189.697 40.8572 189.696L36.4382 189.15C36.3012 189.134 36.2037 189.009 36.2207 188.871C36.2377 188.735 36.3647 188.636 36.4992 188.654L40.6782 189.169L43.0047 174.322C43.0262 174.186 43.1537 174.094 43.2907 174.114C43.4272 174.135 43.5202 174.263 43.4992 174.399L41.1347 189.486C41.1157 189.609 41.0092 189.698 40.8882 189.698Z" fill="#1B1B25"/>
<path opacity="0.08" d="M46.0508 192.302L56.0283 192.052C57.8898 192.296 60.8528 190.617 60.5088 188.771L46.0508 192.302Z" fill="#FF887C"/>
<path d="M77.5294 144.023L74.1364 120.929C73.7649 118.399 73.0294 116.013 71.9984 113.811L73.8409 113.515C73.8409 113.515 72.5474 94.7697 51.5239 99.2452C49.4529 99.0312 47.3229 99.0672 45.1684 99.3837C34.9549 100.884 27.8919 110.38 29.3924 120.594L31.3704 134.056C32.8709 144.27 42.3669 151.333 52.5804 149.832L75.7399 146.429C76.8989 146.259 77.6999 145.182 77.5294 144.023Z" fill="#1B1B25"/>
<path d="M63.5818 112.779C63.4588 112.779 63.3518 112.688 63.3343 112.563C63.3158 112.426 63.4113 112.3 63.5483 112.281L70.3088 111.357C70.3628 111.35 70.4123 111.32 70.4443 111.276C70.4623 111.251 70.4903 111.2 70.4783 111.133C69.3853 105.039 63.7713 102.227 63.7148 102.2C63.5908 102.139 63.5393 101.989 63.5998 101.865C63.6608 101.741 63.8113 101.689 63.9343 101.75C63.9933 101.779 69.8313 104.695 70.9703 111.044C71.0033 111.229 70.9603 111.415 70.8483 111.569C70.7363 111.723 70.5643 111.826 70.3758 111.852L63.6153 112.775C63.6043 112.778 63.5928 112.779 63.5818 112.779Z" fill="#FCF0E3"/>
<path d="M70.0943 114.115L51.5883 117.088L47.0968 110.445C47.9793 117.857 42.5138 122.645 42.5138 122.645C42.5138 122.645 42.4578 122.568 42.3608 122.428L42.2073 122.456C39.3113 122.998 37.3853 125.811 37.9273 128.707C38.4693 131.603 41.2823 133.529 44.1783 132.987L44.5318 132.921C45.1643 135.698 46.5913 138.104 48.5368 139.931V151.791C48.5368 155.995 51.9768 159.435 56.1808 159.435C60.3848 159.435 63.8248 155.995 63.8248 151.791V142.425C66.8698 141.023 69.2538 138.576 70.6148 135.616C70.6178 135.612 70.6208 135.607 70.6233 135.603C72.2773 132.832 72.9688 129.471 72.3288 126.05L70.0943 114.115Z" fill="#FEC29E"/>
<path opacity="0.32" d="M61.3635 142.066C54.507 143.349 47.8875 139.293 45.7895 132.831C45.7205 132.619 44.513 132.897 44.5435 133.027C45.1915 135.779 46.631 138.157 48.572 139.967C48.931 143.844 52.2135 146.906 56.18 146.906C59.1135 146.906 61.671 145.229 62.951 142.788C66.418 141.473 69.135 138.845 70.622 135.604C68.6745 138.867 65.392 141.311 61.3635 142.066Z" fill="#FF887C"/>
<path d="M41.6485 129.475C41.574 129.475 41.5 129.442 41.451 129.378C41.366 129.269 41.386 129.112 41.495 129.027L43.1575 127.737L41.0355 125.735C40.935 125.64 40.9305 125.482 41.025 125.381C41.12 125.281 41.278 125.277 41.3785 125.371L43.713 127.574C43.766 127.624 43.7945 127.695 43.791 127.768C43.7875 127.841 43.752 127.909 43.6945 127.953L41.8015 129.422C41.756 129.458 41.702 129.475 41.6485 129.475Z" fill="#FB8E77"/>
<path d="M54.9611 120.359C55.1841 120.353 55.4136 120.218 55.6431 120.1C55.8716 119.976 56.1041 119.858 56.3096 119.762C56.5156 119.666 56.7561 119.564 56.9976 119.468C57.2351 119.368 57.4876 119.279 57.6331 119.113C57.7751 118.956 57.7471 118.709 57.4151 118.543C57.0991 118.378 56.4551 118.339 55.7726 118.655C55.0926 118.974 54.7171 119.489 54.6476 119.833C54.5696 120.19 54.7476 120.368 54.9611 120.359Z" fill="#1B1B25"/>
<path d="M68.2239 118.052C68.0079 118.107 67.7499 118.041 67.4969 117.991C67.2434 117.936 66.9869 117.886 66.7629 117.851C66.5384 117.816 66.2794 117.784 66.0209 117.759C65.7649 117.729 65.4974 117.713 65.3119 117.594C65.1324 117.482 65.0904 117.236 65.3639 116.985C65.6219 116.74 66.2299 116.524 66.9734 116.639C67.7149 116.758 68.2184 117.148 68.3804 117.46C68.5539 117.781 68.4319 118.001 68.2239 118.052Z" fill="#1B1B25"/>
<path d="M60.7331 130.704C58.6816 130.704 57.3136 129.095 57.2961 129.074C57.2076 128.968 57.2226 128.81 57.3281 128.722C57.4341 128.634 57.5916 128.648 57.6801 128.753C57.7596 128.848 59.6571 131.064 62.3076 129.841C62.4331 129.783 62.5816 129.838 62.6396 129.963C62.6976 130.089 62.6426 130.237 62.5171 130.295C61.8826 130.589 61.2831 130.704 60.7331 130.704Z" fill="#FB8E77"/>
<path d="M62.2263 127.215C62.1093 127.215 62.0048 127.132 61.9813 127.013C61.9548 126.878 62.0428 126.746 62.1783 126.72L63.9368 126.374C65.0298 126.159 65.7433 125.095 65.5283 124.002C65.4508 123.607 65.0663 123.351 64.6718 123.427C63.7468 123.608 62.8488 123.005 62.6668 122.082L62.2423 119.925C62.2158 119.79 62.3038 119.658 62.4393 119.632C62.5748 119.605 62.7063 119.694 62.7328 119.829L63.1573 121.986C63.2858 122.639 63.9228 123.066 64.5748 122.937C64.8983 122.874 65.2248 122.94 65.4973 123.123C65.7698 123.306 65.9548 123.584 66.0183 123.906C66.2868 125.269 65.3958 126.597 64.0328 126.865L62.2743 127.211C62.2588 127.213 62.2423 127.215 62.2263 127.215Z" fill="#FB8E77"/>
<path d="M57.2455 124.578C56.911 124.64 56.586 124.418 56.5235 124.083L56.3855 123.346C56.323 123.011 56.5455 122.686 56.88 122.624C57.2145 122.561 57.5395 122.784 57.602 123.118L57.74 123.855C57.8025 124.19 57.58 124.515 57.2455 124.578Z" fill="#1B1B25"/>
<path d="M67.7299 122.874C67.3954 122.937 67.0704 122.714 67.0079 122.38L66.8699 121.643C66.8074 121.308 67.0299 120.983 67.3639 120.921C67.6984 120.858 68.0234 121.081 68.0859 121.415L68.2239 122.153C68.2869 122.487 68.0644 122.811 67.7299 122.874Z" fill="#1B1B25"/>
<path opacity="0.17" d="M56.807 127.365L54.6955 127.603C54.277 127.65 53.8955 127.346 53.8485 126.927C53.8015 126.508 54.1055 126.127 54.5245 126.08L56.6355 125.843C57.054 125.796 57.4355 126.1 57.4825 126.518C57.53 126.937 57.2255 127.318 56.807 127.365Z" fill="#FF887C"/>
<path opacity="0.17" d="M71.0063 125.129L68.8948 125.366C68.4763 125.413 68.0948 125.109 68.0478 124.691C68.0008 124.272 68.3048 123.891 68.7238 123.844L70.8353 123.606C71.2538 123.559 71.6353 123.863 71.6823 124.282C71.7288 124.701 71.4248 125.082 71.0063 125.129Z" fill="#FF887C"/>
<path d="M64.7528 136.145C64.7018 136.145 64.6498 136.13 64.6058 136.097C63.6218 135.378 62.6003 136.07 62.5573 136.1C62.4438 136.179 62.2888 136.151 62.2093 136.038C62.1303 135.925 62.1573 135.769 62.2703 135.69C62.7333 135.365 63.8788 134.946 64.9008 135.693C65.0123 135.775 65.0363 135.931 64.9553 136.043C64.9058 136.11 64.8298 136.145 64.7528 136.145Z" fill="#FB8E77"/>
<rect x="28.4" y="-109.6" width="212" height="160" rx="18.8" stroke="url(#paint3_linear_20023_52631)" stroke-opacity="0.5" stroke-width="0.8"/>
<rect x="28.4" y="-139.6" width="212" height="160" rx="18.8" stroke="url(#paint4_linear_20023_52631)" stroke-opacity="0.5" stroke-width="0.8"/>
</g>
<defs>
<linearGradient id="paint0_linear_20023_52631" x1="134" y1="-16" x2="134" y2="236" gradientUnits="userSpaceOnUse">
<stop stop-color="#999999"/>
<stop offset="1" stop-color="white"/>
</linearGradient>
<linearGradient id="paint1_linear_20023_52631" x1="134" y1="21" x2="134" y2="199" gradientUnits="userSpaceOnUse">
<stop stop-color="#999999"/>
<stop offset="1" stop-color="white"/>
</linearGradient>
<linearGradient id="paint2_linear_20023_52631" x1="134" y1="55" x2="134" y2="165" gradientUnits="userSpaceOnUse">
<stop stop-color="#999999"/>
<stop offset="1" stop-color="white"/>
</linearGradient>
<linearGradient id="paint3_linear_20023_52631" x1="134.4" y1="-110" x2="134.4" y2="50.8" gradientUnits="userSpaceOnUse">
<stop offset="0.7" stop-color="white" stop-opacity="0"/>
<stop offset="1" stop-color="white"/>
</linearGradient>
<linearGradient id="paint4_linear_20023_52631" x1="134.4" y1="-140" x2="134.4" y2="20.8" gradientUnits="userSpaceOnUse">
<stop offset="0.7" stop-color="white" stop-opacity="0"/>
<stop offset="1" stop-color="white"/>
</linearGradient>
<clipPath id="clip0_20023_52631">
<rect width="268" height="220" rx="32" fill="white"/>
</clipPath>
</defs>
</svg>
