<svg width="268" height="220" viewBox="0 0 268 220" fill="none" xmlns="http://www.w3.org/2000/svg">
<g clip-path="url(#clip0_20023_49066)">
<rect width="268" height="220" rx="32" fill="#F0E99C"/>
<circle cx="151" cy="140" r="148.5" stroke="url(#paint0_linear_20023_49066)"/>
<line x1="11.5" y1="55" x2="11.5" y2="225" stroke="white"/>
<line x1="51.5" y1="29" x2="51.5" y2="251" stroke="white"/>
<line x1="91.5" y1="2.18558e-08" x2="91.5" y2="280" stroke="white"/>
<line x1="131.5" y1="2.18558e-08" x2="131.5" y2="280" stroke="white"/>
<line x1="171.5" y1="2.18558e-08" x2="171.5" y2="280" stroke="white"/>
<line x1="211.5" y1="2.18558e-08" x2="211.5" y2="280" stroke="white"/>
<line x1="251.5" y1="29" x2="251.5" y2="251" stroke="white"/>
<line x1="301" y1="60.5" x2="1" y2="60.5" stroke="white"/>
<line x1="301" y1="100.5" x2="1" y2="100.5" stroke="white"/>
<line x1="301" y1="140.5" x2="1" y2="140.5" stroke="white"/>
<line x1="301" y1="180.5" x2="1" y2="180.5" stroke="white"/>
<rect x="94.5" y="63" width="34" height="35" rx="9.6" fill="#F6F1C1"/>
<rect x="94.5" y="20" width="34" height="35" rx="9.6" fill="#F6F1C1"/>
<rect x="135" y="20" width="34" height="35" rx="9.6" fill="#F6F1C1"/>
<rect x="175.5" y="20" width="34" height="35" rx="9.6" fill="#F6F1C1"/>
<rect x="216" y="20" width="34" height="35" rx="9.6" fill="#F6F1C1"/>
<rect x="54" y="20" width="34" height="35" rx="9.6" fill="#F6F1C1"/>
<g filter="url(#filter0_d_20023_49066)">
<rect x="135" y="63" width="34" height="35" rx="9.6" fill="#F6F1C1"/>
</g>
<mask id="mask0_20023_49066" style="mask-type:luminance" maskUnits="userSpaceOnUse" x="26" y="22" width="275" height="275">
<path d="M300.701 22.3008H26.3008V296.701H300.701V22.3008Z" fill="white"/>
</mask>
<g mask="url(#mask0_20023_49066)">
<path d="M220.284 172.8C222.507 166.301 225.334 161.894 227.561 155.346C228.281 153.922 210.26 146.252 209.223 145.611C193.75 142.739 173.287 141.869 167.282 147.832C156.719 158.321 177.002 190.011 181.619 188.095C194.5 182.748 174.424 158.718 177.665 159.653C191.895 164.673 206.051 167.764 220.284 172.8Z" fill="#9E3F3C"/>
<path d="M206.436 164.866C208.659 158.367 211.485 153.96 213.713 147.412C214.433 145.988 196.412 138.318 195.375 137.677C179.902 134.805 159.518 134.016 153.434 139.897C139.073 153.781 160.457 187.605 165.074 185.688C177.956 180.342 165.194 150.843 168.434 151.778C182.664 156.799 192.203 159.83 206.436 164.866Z" fill="#9E3F3C"/>
<path d="M200.069 159.992C202.292 153.493 226.037 148.25 221.094 143.346C213.535 135.846 202.226 118.525 180.069 121.792C150.703 126.123 146.846 130.806 144.822 136.583C139.88 150.685 155.505 184.03 160.123 182.113C173.004 176.766 163.294 143.468 166.534 144.403C180.764 149.424 185.836 154.956 200.069 159.992Z" fill="#9E3F3C"/>
<path d="M182.979 157.996C180.092 156.173 177.064 154.56 173.938 153.184C172.626 152.638 169.748 151.379 168.388 151.697C167.927 151.803 167.685 152.185 167.579 152.618C167.462 153.068 167.439 153.529 167.426 153.979C167.42 156.56 167.858 159.116 168.359 161.636C168.461 162.113 168.613 162.833 168.737 163.302C168.526 160.333 168.119 156.964 168.225 154.009C168.24 153.735 168.263 153.464 168.305 153.207C168.338 153.003 168.397 152.727 168.496 152.577C168.523 152.54 168.541 152.541 168.6 152.524C168.934 152.462 169.311 152.535 169.67 152.607C169.932 152.662 170.197 152.734 170.462 152.811C171.529 153.124 172.581 153.533 173.619 153.947C176.771 155.222 179.848 156.649 182.979 157.996Z" fill="#843030"/>
<path d="M127.913 153.795C127.196 156.372 129.326 159.308 132.26 160.666C132.911 161.37 138.329 163.142 144.657 157.218C145.155 156.752 145.768 156.179 146.408 155.578C148.39 153.719 150.633 151.597 150.526 151.564C159.039 144.191 167.073 135.998 167.073 135.998C167.073 135.998 173.537 135.858 178.208 139.424C181.581 141.998 183.669 144.231 184.706 146.199C185.738 146.417 186.777 146.604 187.821 146.76C190.901 147.219 194.027 147.405 197.192 147.288C204.131 147.033 211.223 145.424 217.207 141.777C220.051 140.042 222.684 137.745 224.09 134.695C219.329 131.221 214.195 127.393 208.668 123.175C201.998 118.087 186.206 116.497 170.453 114.683C158.296 113.283 155.557 123.201 142.813 135.936C130.296 148.446 128.983 149.953 127.913 153.795Z" fill="#B46B5A"/>
<path d="M163.285 165.093L123.566 95.9141L79.2957 121.332L119.014 190.511L163.285 165.093Z" fill="#FBB040"/>
<path d="M140.974 162.381L125.411 135.273C124 132.815 124.994 129.596 127.631 128.082C130.268 126.568 133.549 127.333 134.96 129.791L150.523 156.899C151.934 159.357 150.94 162.577 148.303 164.09C145.666 165.604 142.385 164.839 140.974 162.381Z" fill="#D2ECF8"/>
<path d="M122.817 179.608L122.048 178.269C121.366 177.081 121.847 175.525 123.121 174.794C124.395 174.062 125.981 174.432 126.663 175.62L127.432 176.958C128.114 178.146 127.633 179.702 126.359 180.434C125.085 181.165 123.499 180.796 122.817 179.608Z" fill="#F77819"/>
<path d="M97.3587 132.598L92.9559 124.929C92.6148 124.336 92.855 123.558 93.4922 123.192C94.1295 122.826 94.9223 123.011 95.2634 123.605L99.666 131.274C100.007 131.868 99.7669 132.646 99.1298 133.011L99.1297 133.012C98.4926 133.377 97.6995 133.192 97.3587 132.598Z" fill="#D2ECF8"/>
<path d="M103.499 143.292L99.0965 135.623C98.7555 135.029 98.9956 134.251 99.6328 133.885C100.27 133.519 101.063 133.704 101.404 134.298L105.807 141.967C106.148 142.561 105.908 143.339 105.27 143.705C104.633 144.071 103.84 143.886 103.499 143.292Z" fill="#D2ECF8"/>
<path d="M109.64 153.985L105.237 146.316C104.896 145.722 105.136 144.944 105.773 144.578C106.411 144.213 107.204 144.398 107.545 144.991L111.947 152.66C112.288 153.254 112.048 154.032 111.411 154.398C110.774 154.764 109.981 154.579 109.64 153.985Z" fill="#D2ECF8"/>
<path d="M115.781 164.679L111.378 157.01C111.037 156.416 111.277 155.638 111.914 155.272C112.551 154.906 113.344 155.091 113.685 155.685L118.088 163.354C118.429 163.948 118.189 164.726 117.552 165.092C116.914 165.457 116.122 165.272 115.781 164.679Z" fill="#D2ECF8"/>
<path d="M148.357 170.199C148.978 170.443 149.584 170.699 150.178 170.967C168.029 178.983 174.446 196.685 195.48 197.859C205.878 198.439 212.788 199.062 217.878 199.729C219.963 200.001 222.123 200.636 224.288 201.461C235.417 205.697 246.657 214.927 248.273 205.583C249.14 200.569 266.538 162.267 266.538 162.267C266.538 162.267 260.649 160.112 246.535 150.684C242.592 148.049 238.006 144.846 232.728 140.965C225.517 135.662 215.964 128.208 204.989 121.209C203.753 120.421 192.488 136.746 184.722 143.062C184.33 143.38 183.933 143.689 183.532 143.994C185.617 147.392 184.878 150.13 182.302 152.523C180.439 154.255 177.614 155.806 174.201 157.296C171.936 158.285 166.456 158.292 162.461 155.624C157.449 152.275 152.576 151.378 152.619 151.338C149.414 150.457 146.719 149.793 143.418 149.725C139.876 149.652 135.268 149.951 132.764 152.979C127.429 159.427 134.316 164.668 148.357 170.199Z" fill="#B46B5A"/>
<path d="M146.328 169.346C147.154 169.694 147.924 166.568 148.203 165.602C148.356 165.072 149.613 160.826 149.278 160.464C147.72 158.78 144.111 158.155 135.319 153.928C134.728 153.644 132.017 158.408 131.833 158.69C130.235 161.131 136.288 165.112 146.328 169.346Z" fill="#E8A691"/>
<path d="M184.607 152.769C187.749 149.242 190.189 145.144 191.511 140.797C190.785 149.428 183.593 158.3 174.296 160.674C173.861 160.773 173.352 160.856 172.914 160.909C177.588 159.299 181.447 156.287 184.607 152.769Z" fill="#9A5549"/>
<path d="M343.337 259.604L229.594 209.991C233.701 177.741 241.143 155.106 254.766 150.295L368.509 199.908L343.337 259.604Z" fill="#00AEEF"/>
</g>
<mask id="mask1_20023_49066" style="mask-type:luminance" maskUnits="userSpaceOnUse" x="26" y="22" width="275" height="275">
<path d="M300.701 22.3008H26.3008V296.701H300.701V22.3008Z" fill="white"/>
</mask>
<g mask="url(#mask1_20023_49066)">
<path d="M73.6623 153.675C73.6053 153.732 73.5402 153.782 73.4671 153.824L47.7824 168.604C47.3342 168.862 46.7618 168.708 46.5039 168.26C46.246 167.812 46.3999 167.239 46.8484 166.981L72.5331 152.201C72.9812 151.943 73.5536 152.097 73.8116 152.546C74.0275 152.921 73.9546 153.383 73.6623 153.675Z" fill="#FFCC00"/>
<path d="M70.9265 116.447C70.6708 116.702 70.2786 116.797 69.9209 116.656L42.3511 105.79C41.87 105.6 41.6337 105.057 41.8232 104.576C42.0129 104.095 42.5566 103.858 43.0377 104.048L70.6075 114.914C71.0886 115.103 71.325 115.647 71.1353 116.128C71.0868 116.251 71.0147 116.359 70.9265 116.447Z" fill="#FFCC00"/>
<path d="M98.3312 91.0895C98.2266 91.1939 98.0958 91.275 97.9447 91.3214C97.4503 91.4731 96.9266 91.1953 96.7749 90.701L88.0805 62.3714C87.9288 61.877 88.2066 61.3532 88.7009 61.2016C89.1953 61.0499 89.719 61.3276 89.8707 61.822L98.5651 90.1516C98.6704 90.4948 98.5687 90.8522 98.3312 91.0895Z" fill="#FFCC00"/>
<path d="M135.246 96.6993C134.934 97.0112 134.434 97.0671 134.056 96.8088C133.629 96.5169 133.52 95.9343 133.812 95.5075L150.54 71.0467C150.832 70.6193 151.415 70.5104 151.842 70.8023C152.268 71.0942 152.378 71.6768 152.086 72.1037L135.358 96.5644C135.324 96.6137 135.286 96.6586 135.246 96.6993Z" fill="#FFCC00"/>
</g>
<path d="M121.915 101.562L88.1484 120.045L119.783 185.091L130.446 180.826L123.692 161.987C126.181 159.736 131.28 155.259 132.702 152.7C134.123 150.141 146.778 149.663 152.702 149.9L121.915 101.562Z" fill="#FBB040"/>
<path d="M126.183 179.385C124.787 180.191 123.023 179.755 122.254 178.423C121.479 177.081 121.989 175.345 123.385 174.539C124.025 174.17 124.254 173.379 123.904 172.774C123.554 172.168 122.761 171.98 122.121 172.35C121.491 172.713 121.247 173.5 121.597 174.106C121.763 174.395 122.05 174.577 122.332 174.663C121.952 175.056 121.65 175.541 121.498 176.039C120.966 175.812 120.527 175.432 120.22 174.901C119.451 173.568 119.945 171.805 121.341 170.999C122.737 170.193 124.502 170.652 125.271 171.985C126.051 173.336 125.55 175.066 124.154 175.872C123.524 176.236 123.29 177.017 123.64 177.623C123.995 178.238 124.783 178.416 125.413 178.052C126.053 177.683 126.293 176.911 125.938 176.296C125.771 176.007 125.494 175.819 125.197 175.73C125.592 175.34 125.87 174.881 126.042 174.372C126.559 174.596 126.998 174.976 127.304 175.507C128.074 176.839 127.579 178.579 126.183 179.385Z" fill="white"/>
<circle cx="122.021" cy="169.049" r="1.34802" transform="rotate(-120 122.021 169.049)" fill="#FF5B04"/>
<path d="M115.706 164.422L116.467 163.983L116.642 164.286C116.984 164.879 117.515 165.066 118.161 164.693L119.778 163.76L120.252 164.582L116.931 166.499L116.484 165.724L116.942 165.397C116.53 165.446 116.125 165.258 115.869 164.813C115.803 164.699 115.75 164.577 115.706 164.422ZM117.232 163.209C116.195 163.808 115.05 163.472 114.455 162.442C113.86 161.411 114.142 160.252 115.179 159.653C116.216 159.054 117.362 159.389 117.957 160.42C118.552 161.45 118.27 162.61 117.232 163.209ZM116.758 162.387C117.364 162.037 117.549 161.409 117.223 160.844C116.896 160.278 116.26 160.124 115.654 160.474C115.047 160.824 114.862 161.452 115.189 162.018C115.515 162.584 116.152 162.737 116.758 162.387ZM114.916 159.197C113.879 159.796 112.733 159.46 112.138 158.43C111.543 157.399 111.826 156.239 112.863 155.641C113.9 155.042 115.046 155.377 115.641 156.408C116.235 157.438 115.953 158.598 114.916 159.197ZM114.442 158.375C115.048 158.025 115.233 157.397 114.906 156.831C114.58 156.266 113.943 156.112 113.337 156.462C112.731 156.812 112.546 157.44 112.872 158.006C113.199 158.572 113.835 158.725 114.442 158.375ZM113.523 152.926L113.997 153.748L111.357 155.272L111.726 155.912L111.039 156.309L110.67 155.669L109.633 156.268L109.158 155.446L110.196 154.847L109.822 154.201L110.509 153.804L110.883 154.451L113.523 152.926ZM111.992 152.608L111.541 151.827C111.827 151.653 111.884 151.332 111.666 150.955C111.445 150.571 111.169 150.452 110.927 150.592C110.758 150.689 110.688 150.847 110.791 151.182L110.996 151.863C111.207 152.54 111.092 152.993 110.56 153.3C109.906 153.677 109.197 153.351 108.754 152.583C108.322 151.835 108.461 151.081 109.104 150.701L109.555 151.483C109.276 151.653 109.203 151.946 109.386 152.263C109.573 152.586 109.83 152.689 110.079 152.545C110.267 152.436 110.303 152.218 110.207 151.896L110.002 151.215C109.808 150.582 109.9 150.152 110.412 149.856C111.086 149.467 111.834 149.799 112.308 150.62C112.787 151.449 112.645 152.231 111.992 152.608ZM109.497 149.811C108.466 150.406 107.346 150.146 106.779 149.162C106.254 148.253 106.401 147.342 107.152 146.791L107.626 147.613C107.304 147.925 107.268 148.314 107.493 148.705C107.797 149.23 108.396 149.351 109.023 148.989C109.649 148.628 109.853 148.079 109.55 147.553C109.312 147.142 108.943 146.97 108.529 147.092L108.051 146.264C108.883 145.917 109.789 146.257 110.29 147.126C110.874 148.136 110.554 149.2 109.497 149.811ZM108.433 143.907C108.841 144.615 108.679 145.283 108.052 145.645C107.44 145.998 106.799 145.776 106.283 145.023L105.634 144.068L105.56 144.111C105.108 144.372 105.082 144.746 105.323 145.164C105.603 145.649 105.961 145.801 106.311 145.599L106.715 146.3C105.995 146.716 105.181 146.395 104.66 145.493C104.143 144.597 104.309 143.765 105.232 143.232L107.252 142.065L107.668 142.786L107.212 143.131C107.637 143.074 108.133 143.389 108.433 143.907ZM107.657 143.996C107.366 143.491 106.876 143.342 106.364 143.638L106.189 143.739L106.643 144.402C106.986 144.886 107.267 144.984 107.537 144.829C107.84 144.654 107.871 144.366 107.657 143.996ZM102.24 141.099L103.001 140.66L103.176 140.963C103.518 141.555 104.049 141.743 104.695 141.37L106.312 140.436L106.786 141.258L103.466 143.175L103.019 142.401L103.476 142.074C103.065 142.123 102.66 141.934 102.403 141.49C102.337 141.375 102.284 141.253 102.24 141.099ZM104.622 137.308C105.178 138.271 104.817 139.279 103.787 139.874C102.75 140.473 101.659 140.294 101.079 139.291C100.811 138.826 100.769 138.302 100.979 137.903L98.8705 139.12L98.4 138.305L103.411 135.412L103.847 136.167L103.359 136.52C103.86 136.5 104.331 136.803 104.622 137.308ZM103.763 137.562C103.433 136.989 102.808 136.856 102.208 137.202C101.609 137.548 101.405 138.16 101.736 138.732C102.066 139.305 102.693 139.41 103.285 139.068C103.878 138.726 104.094 138.134 103.763 137.562Z" fill="white"/>
</g>
<defs>
<filter id="filter0_d_20023_49066" x="115" y="51" width="66" height="67" filterUnits="userSpaceOnUse" color-interpolation-filters="sRGB">
<feFlood flood-opacity="0" result="BackgroundImageFix"/>
<feColorMatrix in="SourceAlpha" type="matrix" values="0 0 0 0 0 0 0 0 0 0 0 0 0 0 0 0 0 0 127 0" result="hardAlpha"/>
<feOffset dx="-4" dy="4"/>
<feGaussianBlur stdDeviation="8"/>
<feComposite in2="hardAlpha" operator="out"/>
<feColorMatrix type="matrix" values="0 0 0 0 0 0 0 0 0 0 0 0 0 0 0 0 0 0 0.18 0"/>
<feBlend mode="normal" in2="BackgroundImageFix" result="effect1_dropShadow_20023_49066"/>
<feBlend mode="normal" in="SourceGraphic" in2="effect1_dropShadow_20023_49066" result="shape"/>
</filter>
<linearGradient id="paint0_linear_20023_49066" x1="151" y1="-9" x2="151" y2="289" gradientUnits="userSpaceOnUse">
<stop stop-color="white"/>
<stop offset="1" stop-color="white" stop-opacity="0"/>
</linearGradient>
<clipPath id="clip0_20023_49066">
<rect width="268" height="220" rx="32" fill="white"/>
</clipPath>
</defs>
</svg>
