<svg width="302" height="280" viewBox="0 0 302 280" fill="none" xmlns="http://www.w3.org/2000/svg">
<g clip-path="url(#clip0_18942_5799)">
<rect width="302" height="280" rx="32" fill="#F0E99C"/>
<circle cx="151" cy="140" r="148.5" stroke="url(#paint0_linear_18942_5799)"/>
<line x1="11.5" y1="55" x2="11.5" y2="225" stroke="white"/>
<line x1="51.5" y1="29" x2="51.5" y2="251" stroke="white"/>
<line x1="91.5" y1="2.18558e-08" x2="91.5" y2="280" stroke="white"/>
<line x1="131.5" y1="2.18558e-08" x2="131.5" y2="280" stroke="white"/>
<line x1="171.5" y1="2.18558e-08" x2="171.5" y2="280" stroke="white"/>
<line x1="211.5" y1="2.18558e-08" x2="211.5" y2="280" stroke="white"/>
<line x1="251.5" y1="29" x2="251.5" y2="251" stroke="white"/>
<line x1="291.5" y1="55" x2="291.5" y2="225" stroke="white"/>
<line x1="301" y1="60.5" x2="1" y2="60.5" stroke="white"/>
<line x1="301" y1="100.5" x2="1" y2="100.5" stroke="white"/>
<line x1="301" y1="140.5" x2="1" y2="140.5" stroke="white"/>
<line x1="301" y1="180.5" x2="1" y2="180.5" stroke="white"/>
<line x1="301" y1="220.5" x2="1" y2="220.5" stroke="white"/>
<rect x="94.5" y="63" width="34" height="35" rx="9.6" fill="#F6F1C1"/>
<rect x="94.5" y="20" width="34" height="35" rx="9.6" fill="#F6F1C1"/>
<rect x="135" y="20" width="34" height="35" rx="9.6" fill="#F6F1C1"/>
<rect x="175.5" y="20" width="34" height="35" rx="9.6" fill="#F6F1C1"/>
<rect x="216" y="20" width="34" height="35" rx="9.6" fill="#F6F1C1"/>
<rect x="54" y="20" width="34" height="35" rx="9.6" fill="#F6F1C1"/>
<g filter="url(#filter0_d_18942_5799)">
<rect x="135" y="63" width="34" height="35" rx="9.6" fill="#F6F1C1"/>
</g>
<mask id="mask0_18942_5799" style="mask-type:luminance" maskUnits="userSpaceOnUse" x="-22" y="-23" width="386" height="386">
<path d="M364 -23H-22V363H364V-23Z" fill="white"/>
</mask>
<g mask="url(#mask0_18942_5799)">
<path d="M250.88 188.709C254.007 179.566 257.983 173.368 261.117 164.157C262.13 162.154 236.78 151.363 235.32 150.463C213.555 146.422 184.769 145.198 176.323 153.586C161.463 168.342 189.995 212.921 196.49 210.224C214.61 202.703 186.369 168.899 190.927 170.215C210.945 177.277 230.858 181.625 250.88 188.709Z" fill="#9E3F3C"/>
<path d="M231.399 177.549C234.526 168.406 238.502 162.207 241.636 152.996C242.649 150.994 217.299 140.203 215.839 139.302C194.074 135.262 165.399 134.152 156.841 142.425C136.639 161.956 166.72 209.536 173.216 206.84C191.336 199.318 173.384 157.823 177.941 159.139C197.959 166.201 211.377 170.464 231.399 177.549Z" fill="#9E3F3C"/>
<path d="M222.446 170.701C225.573 161.558 258.975 154.184 252.021 147.284C241.389 136.735 225.48 112.369 194.312 116.965C153.003 123.056 147.578 129.645 144.73 137.772C137.778 157.608 159.758 204.515 166.253 201.819C184.374 194.297 170.715 147.456 175.272 148.772C195.29 155.834 202.424 163.617 222.446 170.701Z" fill="#9E3F3C"/>
<path d="M198.402 167.89C194.34 165.325 190.081 163.055 185.684 161.12C183.838 160.351 179.79 158.58 177.877 159.029C177.229 159.177 176.889 159.715 176.738 160.323C176.575 160.957 176.542 161.605 176.524 162.239C176.515 165.87 177.132 169.464 177.836 173.01C177.98 173.68 178.194 174.693 178.368 175.353C178.071 171.176 177.498 166.437 177.648 162.281C177.669 161.896 177.701 161.514 177.761 161.152C177.807 160.865 177.89 160.477 178.029 160.266C178.067 160.214 178.092 160.216 178.175 160.191C178.645 160.104 179.175 160.208 179.68 160.308C180.05 160.386 180.422 160.486 180.794 160.595C182.296 161.036 183.776 161.61 185.236 162.193C189.669 163.986 193.998 165.995 198.402 167.89Z" fill="#843030"/>
<path d="M120.939 161.978C119.93 165.603 122.927 169.734 127.053 171.644C127.97 172.634 135.591 175.127 144.492 166.794C145.192 166.139 146.055 165.332 146.956 164.487C149.744 161.872 152.899 158.886 152.749 158.84C164.724 148.469 176.025 136.944 176.025 136.944C176.025 136.944 185.119 136.746 191.688 141.762C196.433 145.384 199.371 148.525 200.829 151.294C202.281 151.6 203.743 151.863 205.212 152.082C209.544 152.728 213.942 152.99 218.393 152.826C228.155 152.466 238.131 150.203 246.548 145.072C250.549 142.632 254.254 139.401 256.232 135.11C249.534 130.224 242.312 124.839 234.537 118.905C225.155 111.747 202.94 109.511 180.78 106.959C163.678 104.99 159.825 118.942 141.899 136.856C124.29 154.455 122.443 156.575 120.939 161.978Z" fill="#B46B5A"/>
<path d="M170.705 177.877L114.832 80.5625L52.5562 116.318L108.429 213.632L170.705 177.877Z" fill="#FBB040"/>
<path d="M139.318 174.061L117.426 135.928C115.441 132.471 116.839 127.941 120.548 125.812C124.258 123.682 128.874 124.759 130.859 128.217L152.751 166.349C154.736 169.807 153.338 174.336 149.629 176.465C145.919 178.595 141.303 177.518 139.318 174.061Z" fill="#D2ECF8"/>
<path d="M113.775 198.296L112.694 196.413C111.735 194.743 112.41 192.554 114.203 191.525C115.996 190.495 118.226 191.016 119.186 192.686L120.267 194.57C121.226 196.241 120.551 198.43 118.758 199.459C116.965 200.488 114.734 199.968 113.775 198.296Z" fill="#F77819"/>
<path d="M77.9624 132.165L71.7689 121.377C71.2892 120.541 71.6271 119.447 72.5234 118.932C73.4199 118.418 74.5352 118.678 75.0149 119.513L81.2082 130.301C81.6879 131.137 81.3501 132.231 80.4538 132.746L80.4537 132.746C79.5574 133.26 78.4418 133 77.9624 132.165Z" fill="#D2ECF8"/>
<path d="M86.5989 147.208L80.4056 136.42C79.9259 135.584 80.2638 134.49 81.1601 133.975C82.0564 133.461 83.1719 133.721 83.6514 134.556L89.8448 145.344C90.3245 146.179 89.9868 147.274 89.0904 147.789C88.1942 148.303 87.0786 148.043 86.5989 147.208Z" fill="#D2ECF8"/>
<path d="M95.2318 162.251L89.0384 151.463C88.5589 150.627 88.8965 149.533 89.7928 149.018C90.6892 148.503 91.8046 148.764 92.2843 149.599L98.4778 160.387C98.9575 161.223 98.6198 162.317 97.7233 162.832C96.8269 163.346 95.7115 163.086 95.2318 162.251Z" fill="#D2ECF8"/>
<path d="M103.873 177.294L97.6791 166.506C97.1994 165.67 97.5372 164.576 98.4335 164.061C99.3299 163.546 100.445 163.807 100.925 164.642L107.118 175.43C107.598 176.266 107.26 177.36 106.364 177.875C105.468 178.389 104.352 178.129 103.873 177.294Z" fill="#D2ECF8"/>
<path d="M149.702 185.055C150.575 185.398 151.428 185.758 152.263 186.135C177.374 197.412 186.401 222.312 215.989 223.964C230.616 224.78 240.337 225.656 247.497 226.594C250.43 226.977 253.469 227.871 256.514 229.031C272.17 234.99 287.981 247.974 290.253 234.83C291.473 227.776 315.948 173.896 315.948 173.896C315.948 173.896 307.664 170.865 287.809 157.602C282.263 153.896 275.812 149.391 268.387 143.93C258.243 136.472 244.805 125.985 229.367 116.14C227.628 115.032 211.781 137.995 200.856 146.881C200.306 147.328 199.746 147.763 199.182 148.192C202.115 152.971 201.076 156.823 197.452 160.189C194.832 162.625 190.858 164.807 186.056 166.903C182.871 168.295 175.162 168.305 169.542 164.551C162.491 159.841 155.637 158.579 155.696 158.522C151.188 157.284 147.398 156.349 142.755 156.253C137.771 156.15 131.289 156.572 127.767 160.831C120.262 169.902 129.95 177.274 149.702 185.055Z" fill="#B46B5A"/>
<path d="M146.843 183.854C148.004 184.343 149.088 179.946 149.48 178.587C149.695 177.841 151.464 171.869 150.992 171.359C148.8 168.991 143.724 168.112 131.356 162.166C130.525 161.766 126.712 168.467 126.452 168.863C124.204 172.298 132.719 177.898 146.843 183.854Z" fill="#E8A691"/>
<path d="M200.69 160.537C205.111 155.576 208.542 149.811 210.403 143.695C209.382 155.837 199.264 168.317 186.187 171.657C185.574 171.796 184.858 171.913 184.242 171.987C190.816 169.722 196.245 165.485 200.69 160.537Z" fill="#9A5549"/>
<path d="M423.98 310.821L263.977 241.029C269.754 195.663 280.222 163.822 299.387 157.055L459.39 226.846L423.98 310.821Z" fill="#00AEEF"/>
</g>
<mask id="mask1_18942_5799" style="mask-type:luminance" maskUnits="userSpaceOnUse" x="-22" y="-23" width="386" height="386">
<path d="M364 -23H-22V363H364V-23Z" fill="white"/>
</mask>
<g mask="url(#mask1_18942_5799)">
<path d="M44.6258 161.811C44.5457 161.891 44.454 161.962 44.3511 162.021L8.22038 182.813C7.58995 183.176 6.78475 182.959 6.42191 182.328C6.05917 181.698 6.27562 180.892 6.90653 180.53L43.0373 159.738C43.6677 159.375 44.4729 159.592 44.8358 160.223C45.1395 160.751 45.037 161.401 44.6258 161.811Z" fill="#FFCC00"/>
<path d="M40.7778 109.432C40.4181 109.792 39.8664 109.924 39.3633 109.726L0.580608 94.4412C-0.0961465 94.1745 -0.428493 93.4097 -0.161863 92.7329C0.104959 92.0562 0.869722 91.7238 1.54648 91.9905L40.3292 107.275C41.0059 107.542 41.3383 108.307 41.0715 108.984C41.0033 109.157 40.902 109.308 40.7778 109.432Z" fill="#FFCC00"/>
<path d="M79.3296 73.7658C79.1824 73.9127 78.9984 74.0268 78.7858 74.092C78.0904 74.3054 77.3537 73.9147 77.1403 73.2193L64.9099 33.3679C64.6964 32.6725 65.0873 31.9356 65.7826 31.7224C66.478 31.509 67.2147 31.8996 67.4281 32.5951L79.6586 72.4465C79.8068 72.9293 79.6637 73.4321 79.3296 73.7658Z" fill="#FFCC00"/>
<path d="M131.251 81.6635C130.812 82.1023 130.109 82.1809 129.578 81.8176C128.977 81.407 128.823 80.5874 129.234 79.987L152.766 45.5779C153.177 44.9767 153.996 44.8235 154.596 45.2341C155.197 45.6447 155.35 46.4643 154.94 47.0647L131.408 81.4738C131.361 81.5431 131.308 81.6063 131.251 81.6635Z" fill="#FFCC00"/>
</g>
<path d="M112.5 88.5L65 114.5L109.5 206L124.5 200L115 173.5C118.5 170.333 126 163.1 128 159.5C130 155.9 147.167 155.667 155.5 156L112.5 88.5Z" fill="#FBB040"/>
<path d="M116.596 200.295C114.851 201.303 112.647 200.758 111.685 199.093C110.717 197.415 111.355 195.246 113.1 194.238C113.899 193.776 114.185 192.788 113.748 192.031C113.311 191.274 112.319 191.039 111.519 191.501C110.732 191.956 110.427 192.939 110.864 193.696C111.072 194.057 111.43 194.286 111.783 194.393C111.308 194.885 110.93 195.491 110.74 196.113C110.075 195.829 109.526 195.354 109.143 194.69C108.182 193.024 108.799 190.82 110.544 189.812C112.289 188.805 114.495 189.379 115.457 191.045C116.432 192.734 115.806 194.896 114.061 195.904C113.274 196.359 112.981 197.335 113.418 198.092C113.862 198.861 114.847 199.084 115.635 198.629C116.435 198.168 116.734 197.203 116.29 196.434C116.082 196.073 115.736 195.838 115.364 195.726C115.859 195.239 116.206 194.665 116.42 194.029C117.066 194.309 117.615 194.784 117.999 195.448C118.96 197.113 118.341 199.288 116.596 200.295Z" fill="white"/>
<circle cx="111.394" cy="187.378" r="1.68502" transform="rotate(-120 111.394 187.378)" fill="#FF5B04"/>
<path d="M103.28 181.716L104.232 181.167L104.45 181.546C104.878 182.286 105.541 182.521 106.349 182.054L108.37 180.888L108.963 181.915L104.812 184.311L104.253 183.343L104.826 182.934C104.311 182.996 103.805 182.76 103.484 182.205C103.401 182.061 103.335 181.909 103.28 181.716ZM105.189 180.199C103.892 180.948 102.46 180.528 101.716 179.24C100.973 177.952 101.326 176.502 102.622 175.754C103.919 175.005 105.351 175.425 106.094 176.713C106.838 178.001 106.485 179.451 105.189 180.199ZM104.595 179.172C105.353 178.735 105.585 177.95 105.177 177.243C104.768 176.535 103.973 176.344 103.215 176.781C102.457 177.219 102.226 178.003 102.634 178.711C103.042 179.418 103.838 179.61 104.595 179.172ZM102.293 175.184C100.996 175.932 99.5645 175.513 98.8208 174.225C98.0771 172.937 98.43 171.487 99.7265 170.739C101.023 169.99 102.455 170.409 103.199 171.698C103.942 172.986 103.589 174.435 102.293 175.184ZM101.7 174.157C102.458 173.719 102.689 172.935 102.281 172.227C101.873 171.52 101.077 171.328 100.319 171.766C99.5618 172.203 99.3301 172.988 99.7384 173.695C100.147 174.402 100.942 174.594 101.7 174.157ZM100.551 167.346L101.144 168.373L97.8442 170.278L98.306 171.078L97.4473 171.574L96.9855 170.774L95.689 171.523L95.096 170.496L96.3925 169.747L95.9259 168.939L96.7846 168.443L97.2512 169.251L100.551 167.346ZM98.6381 166.948L98.0742 165.971C98.4314 165.754 98.5031 165.353 98.2309 164.882C97.9539 164.402 97.6096 164.253 97.3065 164.428C97.096 164.549 97.0076 164.746 97.1373 165.165L97.3931 166.017C97.6574 166.863 97.5128 167.429 96.8477 167.813C96.031 168.285 95.1441 167.876 94.59 166.917C94.0505 165.982 94.2247 165.04 95.0281 164.565L95.5919 165.541C95.2432 165.754 95.152 166.121 95.3804 166.516C95.6138 166.921 95.9351 167.049 96.2466 166.869C96.4823 166.733 96.5269 166.461 96.407 166.058L96.1512 165.207C95.9077 164.416 96.0235 163.878 96.6633 163.508C97.5052 163.022 98.4403 163.436 99.0334 164.464C99.6312 165.499 99.4547 166.477 98.6381 166.948ZM95.5193 163.452C94.2311 164.195 92.831 163.87 92.1213 162.641C91.4651 161.504 91.6493 160.365 92.588 159.677L93.181 160.704C92.7776 161.094 92.7327 161.58 93.0147 162.069C93.3938 162.725 94.1433 162.876 94.9263 162.424C95.7092 161.972 95.9642 161.286 95.5851 160.63C95.2886 160.116 94.827 159.9 94.3092 160.053L93.7113 159.017C94.7524 158.585 95.8841 159.009 96.5112 160.095C97.2403 161.358 96.841 162.688 95.5193 163.452ZM94.1887 156.072C94.6991 156.956 94.4966 157.792 93.7136 158.244C92.9475 158.686 92.1468 158.407 91.5023 157.466L90.6903 156.274L90.5977 156.327C90.0336 156.653 90.0008 157.121 90.3021 157.643C90.6521 158.249 91.0991 158.44 91.5369 158.187L92.0424 159.063C91.1416 159.583 90.1245 159.182 89.4731 158.054C88.8267 156.934 89.0343 155.894 90.1877 155.228L92.7134 153.77L93.2335 154.671L92.6626 155.101C93.1941 155.03 93.8144 155.424 94.1887 156.072ZM93.2197 156.183C92.8552 155.551 92.243 155.366 91.6031 155.735L91.3842 155.862L91.9522 156.69C92.3806 157.296 92.732 157.418 93.0688 157.224C93.4476 157.005 93.487 156.646 93.2197 156.183ZM86.4481 152.562L87.3995 152.012L87.6182 152.391C88.046 153.132 88.709 153.367 89.5172 152.9L91.5378 151.734L92.1308 152.761L87.9802 155.157L87.4212 154.189L87.9934 153.78C87.4788 153.841 86.9725 153.606 86.6517 153.05C86.5691 152.907 86.5033 152.754 86.4481 152.562ZM89.426 147.823C90.1211 149.027 89.6697 150.287 88.3816 151.03C87.0851 151.779 85.7215 151.556 84.9972 150.301C84.6619 149.721 84.6095 149.066 84.8714 148.567L82.2362 150.088L81.648 149.07L87.9118 145.453L88.4562 146.396L87.8468 146.838C88.4725 146.813 89.0615 147.192 89.426 147.823ZM88.3518 148.14C87.9387 147.425 87.1578 147.258 86.4085 147.691C85.6592 148.123 85.4045 148.888 85.8177 149.603C86.2309 150.319 87.014 150.45 87.7549 150.023C88.4958 149.595 88.765 148.856 88.3518 148.14Z" fill="white"/>
</g>
<defs>
<filter id="filter0_d_18942_5799" x="115" y="51" width="66" height="67" filterUnits="userSpaceOnUse" color-interpolation-filters="sRGB">
<feFlood flood-opacity="0" result="BackgroundImageFix"/>
<feColorMatrix in="SourceAlpha" type="matrix" values="0 0 0 0 0 0 0 0 0 0 0 0 0 0 0 0 0 0 127 0" result="hardAlpha"/>
<feOffset dx="-4" dy="4"/>
<feGaussianBlur stdDeviation="8"/>
<feComposite in2="hardAlpha" operator="out"/>
<feColorMatrix type="matrix" values="0 0 0 0 0 0 0 0 0 0 0 0 0 0 0 0 0 0 0.18 0"/>
<feBlend mode="normal" in2="BackgroundImageFix" result="effect1_dropShadow_18942_5799"/>
<feBlend mode="normal" in="SourceGraphic" in2="effect1_dropShadow_18942_5799" result="shape"/>
</filter>
<linearGradient id="paint0_linear_18942_5799" x1="151" y1="-9" x2="151" y2="289" gradientUnits="userSpaceOnUse">
<stop stop-color="white"/>
<stop offset="1" stop-color="white" stop-opacity="0"/>
</linearGradient>
<clipPath id="clip0_18942_5799">
<rect width="302" height="280" rx="32" fill="white"/>
</clipPath>
</defs>
</svg>
