<svg width="33" height="32" viewBox="0 0 33 32" fill="none" xmlns="http://www.w3.org/2000/svg">
<path d="M7.39539 20.227C7.39539 22.0762 5.88478 23.5868 4.03559 23.5868C2.18639 23.5868 0.675781 22.0762 0.675781 20.227C0.675781 18.3778 2.18639 16.8672 4.03559 16.8672H7.39539V20.227Z" fill="#E01E5A"/>
<path d="M9.09375 20.227C9.09375 18.3778 10.6044 16.8672 12.4536 16.8672C14.3028 16.8672 15.8134 18.3778 15.8134 20.227V28.6395C15.8134 30.4887 14.3028 31.9993 12.4536 31.9993C10.6044 31.9993 9.09375 30.4887 9.09375 28.6395V20.227Z" fill="#E01E5A"/>
<path d="M12.4536 6.71961C10.6044 6.71961 9.09375 5.209 9.09375 3.3598C9.09375 1.51061 10.6044 0 12.4536 0C14.3028 0 15.8134 1.51061 15.8134 3.3598V6.71961H12.4536Z" fill="#36C5F0"/>
<path d="M12.4481 8.41797C14.2973 8.41797 15.8079 9.92858 15.8079 11.7778C15.8079 13.627 14.2973 15.1376 12.4481 15.1376H4.03559C2.18639 15.1376 0.675781 13.627 0.675781 11.7778C0.675781 9.92858 2.18639 8.41797 4.03559 8.41797H12.4481Z" fill="#36C5F0"/>
<path d="M25.9297 11.7778C25.9297 9.92858 27.4403 8.41797 29.2895 8.41797C31.1387 8.41797 32.6493 9.92858 32.6493 11.7778C32.6493 13.627 31.1387 15.1376 29.2895 15.1376H25.9297V11.7778Z" fill="#2EB67D"/>
<path d="M24.2626 11.7723C24.2626 13.6215 22.752 15.1321 20.9028 15.1321C19.0536 15.1321 17.543 13.6215 17.543 11.7723V3.35981C17.543 1.51061 19.0536 0 20.9028 0C22.752 0 24.2626 1.51061 24.2626 3.35981V11.7723Z" fill="#2EB67D"/>
<path d="M20.9028 25.2578C22.752 25.2578 24.2626 26.7684 24.2626 28.6176C24.2626 30.4668 22.752 31.9774 20.9028 31.9774C19.0536 31.9774 17.543 30.4668 17.543 28.6176V25.2578H20.9028Z" fill="#ECB22E"/>
<path d="M20.9028 23.5868C19.0536 23.5868 17.543 22.0762 17.543 20.227C17.543 18.3778 19.0536 16.8672 20.9028 16.8672H29.3153C31.1645 16.8672 32.6751 18.3778 32.6751 20.227C32.6751 22.0762 31.1645 23.5868 29.3153 23.5868H20.9028Z" fill="#ECB22E"/>
</svg>
