<svg width="32" height="32" viewBox="0 0 32 32" fill="none" xmlns="http://www.w3.org/2000/svg">
<path d="M28.3134 3.68494C28.1594 3.53095 27.9767 3.4088 27.7755 3.32546C27.5744 3.24211 27.3588 3.19922 27.1411 3.19922C26.9233 3.19922 26.7077 3.24211 26.5066 3.32546C26.3054 3.4088 26.1227 3.53095 25.9687 3.68494L17.5527 12.1009C18.0443 12.3624 18.4948 12.6947 18.8897 13.0872L18.9124 13.1099C19.3041 13.5057 19.635 13.9574 19.8945 14.4501L28.3134 6.03086C28.4676 5.8769 28.5899 5.69406 28.6733 5.4928C28.7568 5.29153 28.7997 5.07578 28.7997 4.8579C28.7997 4.64001 28.7568 4.42427 28.6733 4.223C28.5899 4.02173 28.4676 3.83889 28.3134 3.68494Z" fill="white"/>
<path d="M19.4301 19.2404C19.871 18.308 20.0143 17.2625 19.8404 16.2459C19.6665 15.2292 19.184 14.2908 18.4583 13.5579L18.4493 13.5489C18.4465 13.5458 18.4435 13.5428 18.4404 13.5399C17.7075 12.8143 16.769 12.3317 15.7524 12.1578C14.7357 11.984 13.6902 12.1272 12.7578 12.5681L19.4301 19.2404Z" fill="white"/>
<path d="M12.1759 12.8945C12.0809 12.9564 11.9873 13.0219 11.8949 13.091C9.4517 14.9249 6.59122 16.1777 3.19922 16.6913C3.95567 17.9078 4.77946 19.081 5.66674 20.2056L8.75122 19.2891L7.43762 22.2878C7.79708 22.6803 8.16466 23.0643 8.54034 23.4398L8.55826 23.4577C8.5877 23.4869 8.61714 23.5163 8.64722 23.5454L10.1877 22.8094L10.6104 25.3576C10.8997 25.6059 11.193 25.8501 11.4904 26.0901L13.6952 25.1349C13.6952 25.1349 13.6584 26.4977 13.6226 27.6881C14.1723 28.0721 14.7348 28.4429 15.3099 28.8005C15.8219 25.4085 17.0763 22.548 18.9103 20.1048C18.9794 20.0126 19.0449 19.919 19.1067 19.8238L12.1759 12.8945Z" fill="white"/>
<path d="M8.6023 7.14062L9.44774 8.68654L10.9933 9.53199L9.44774 10.3774L8.6023 11.923L7.75686 10.3774L6.21094 9.53199L7.75686 8.68654L8.6023 7.14062Z" fill="white"/>
<path d="M15.7371 4.75L16.5825 6.2956L18.1281 7.14104L16.5825 7.98648L15.7371 9.5324L14.8916 7.98648L13.3457 7.14104L14.8916 6.2956L15.7371 4.75Z" fill="white"/>
<path d="M24.8757 13.7422L25.7212 15.2881L27.2671 16.1335L25.7212 16.979L24.8757 18.5246L24.0303 16.979L22.4844 16.1335L24.0303 15.2881L24.8757 13.7422Z" fill="white"/>
<path d="M21.6196 20.6016L22.465 22.1472L24.0109 22.9926L22.465 23.838L21.6196 25.384L20.7741 23.838L19.2285 22.9926L20.7741 22.1472L21.6196 20.6016Z" fill="white"/>
</svg>
