<svg width="1120" height="348" viewBox="0 0 1120 348" fill="none" xmlns="http://www.w3.org/2000/svg">
<g clip-path="url(#clip0_19890_2301)">
<rect width="1120" height="348" rx="24" fill="url(#paint0_linear_19890_2301)"/>
<path opacity="0.5" d="M941.813 184.642C947.669 178.786 947.669 169.291 941.813 163.435C947.669 169.292 957.164 169.292 963.02 163.435C957.164 169.292 957.164 178.786 963.02 184.642C957.164 178.786 947.669 178.786 941.813 184.642ZM939.296 207.855C933.508 202.068 933.508 192.684 939.296 186.896C933.508 192.684 924.125 192.684 918.337 186.896C924.125 192.684 924.125 202.068 918.337 207.855C924.125 202.067 933.508 202.067 939.296 207.855ZM939.743 161.021C933.918 155.196 933.918 145.751 939.743 139.927C933.918 145.751 924.473 145.751 918.648 139.927C924.473 145.751 924.473 155.196 918.648 161.021C924.473 155.196 933.917 155.196 939.743 161.021ZM985.523 207.392C980.025 201.894 980.025 192.98 985.523 187.482C980.025 192.98 971.11 192.98 965.613 187.482C971.11 192.98 971.11 201.894 965.613 207.392C971.11 201.894 980.025 201.894 985.523 207.392ZM961.847 137.201C956.389 131.742 956.389 122.893 961.847 117.434C956.389 122.893 947.539 122.893 942.081 117.434C947.539 122.893 947.539 131.742 942.081 137.201C947.539 131.742 956.389 131.742 961.847 137.201ZM962.13 230.365C956.682 224.917 956.682 216.084 962.13 210.636C956.682 216.084 947.849 216.084 942.4 210.636C947.849 216.084 947.849 224.917 942.4 230.365C947.849 224.917 956.682 224.917 962.13 230.365ZM915.308 230.201C909.966 224.858 909.966 216.196 915.308 210.854C909.966 216.196 901.304 216.196 895.961 210.854C901.304 216.196 901.304 224.858 895.961 230.201C901.304 224.858 909.966 224.858 915.308 230.201ZM915.549 136.997C910.178 131.626 910.178 122.919 915.549 117.55C910.178 122.92 901.471 122.92 896.102 117.55C901.472 122.92 901.472 131.627 896.102 136.997C901.471 131.626 910.178 131.626 915.549 136.997ZM892.153 207.028C886.745 201.62 886.745 192.852 892.153 187.443C886.745 192.851 877.977 192.851 872.568 187.443C877.976 192.851 877.976 201.619 872.568 207.028C877.977 201.62 886.745 201.62 892.153 207.028ZM891.73 160.146C886.379 154.794 886.379 146.116 891.73 140.765C886.378 146.117 877.701 146.117 872.349 140.765C877.701 146.117 877.701 154.795 872.349 160.146C877.701 154.794 886.379 154.794 891.73 160.146ZM1008.23 183.628C1002.92 178.313 1002.92 169.698 1008.23 164.383C1002.92 169.698 994.302 169.698 988.987 164.383C994.302 169.698 994.302 178.313 988.987 183.628C994.302 178.313 1002.92 178.313 1008.23 183.628ZM938.7 253.515C933.416 248.231 933.416 239.665 938.7 234.381C933.416 239.665 924.85 239.665 919.566 234.381C924.85 239.665 924.85 248.232 919.566 253.515C924.85 248.231 933.416 248.231 938.7 253.515ZM938.682 113.652C933.39 108.36 933.39 99.7793 938.682 94.4873C933.39 99.7793 924.81 99.7793 919.518 94.4873C924.81 99.7793 924.81 108.36 919.518 113.652C924.81 108.36 933.39 108.36 938.682 113.652ZM1007.89 229.792C1002.84 224.741 1002.84 216.552 1007.89 211.501C1002.84 216.552 994.654 216.552 989.603 211.501C994.654 216.552 994.654 224.741 989.603 229.792C994.654 224.74 1002.84 224.74 1007.89 229.792ZM1007.89 136.553C1002.85 131.508 1002.85 123.329 1007.89 118.285C1002.85 123.33 994.669 123.33 989.625 118.285C994.67 123.33 994.67 131.509 989.625 136.553C994.67 131.508 1002.85 131.508 1007.89 136.553ZM868.045 182.958C862.929 177.842 862.929 169.549 868.045 164.433C862.929 169.549 854.635 169.549 849.52 164.433C854.635 169.549 854.635 177.842 849.52 182.958C854.635 177.842 862.929 177.842 868.045 182.958ZM984.619 253.23C979.506 248.117 979.506 239.828 984.619 234.715C979.506 239.828 971.217 239.828 966.104 234.715C971.217 239.828 971.217 248.117 966.104 253.23C971.217 248.117 979.506 248.117 984.619 253.23ZM984.749 113.454C979.632 108.337 979.632 100.039 984.749 94.9222C979.632 100.039 971.335 100.039 966.218 94.9222C971.335 100.039 971.335 108.337 966.218 113.454C971.335 108.337 979.632 108.337 984.749 113.454ZM1031.23 206.155C1026.26 201.182 1026.26 193.119 1031.23 188.146C1026.26 193.119 1018.19 193.119 1013.22 188.146C1018.19 193.119 1018.19 201.182 1013.22 206.155C1018.19 201.181 1026.26 201.181 1031.23 206.155ZM1031.23 159.903C1026.28 154.952 1026.28 146.926 1031.23 141.976C1026.28 146.926 1018.26 146.926 1013.31 141.976C1018.26 146.926 1018.26 154.952 1013.31 159.903C1018.26 154.952 1026.28 154.952 1031.23 159.903ZM891.252 112.603C886.322 107.673 886.322 99.6785 891.252 94.7472C886.322 99.6778 878.328 99.6778 873.396 94.7472C878.327 99.6778 878.327 107.672 873.396 112.603C878.328 107.673 886.322 107.673 891.252 112.603ZM890.916 252.869C886.029 247.982 886.029 240.058 890.916 235.171C886.029 240.058 878.105 240.058 873.218 235.171C878.105 240.058 878.105 247.982 873.218 252.869C878.106 247.982 886.029 247.982 890.916 252.869ZM961.091 89.3285C956.206 84.4433 956.206 76.5233 961.091 71.6381C956.206 76.5233 948.286 76.5233 943.401 71.6381C948.286 76.5233 948.286 84.4433 943.401 89.3285C948.286 84.4433 956.206 84.4433 961.091 89.3285ZM961.216 276.362C956.348 271.494 956.348 263.602 961.216 258.735C956.348 263.603 948.456 263.603 943.589 258.735C948.457 263.603 948.457 271.495 943.589 276.362C948.456 271.495 956.348 271.495 961.216 276.362ZM914.207 276.12C909.411 271.324 909.411 263.547 914.207 258.751C909.411 263.547 901.634 263.547 896.838 258.751C901.634 263.547 901.634 271.324 896.838 276.12C901.634 271.324 909.41 271.324 914.207 276.12ZM914.219 89.2018C909.424 84.4066 909.424 76.632 914.219 71.8368C909.424 76.632 901.649 76.632 896.854 71.8368C901.649 76.632 901.649 84.4066 896.854 89.2018C901.649 84.4066 909.424 84.4066 914.219 89.2018ZM844.288 205.862C839.539 201.113 839.539 193.414 844.288 188.665C839.539 193.414 831.84 193.414 827.091 188.665C831.84 193.414 831.84 201.113 827.091 205.862C831.839 201.113 839.539 201.113 844.288 205.862ZM844.157 159.417C839.422 154.681 839.422 147.004 844.157 142.269C839.422 147.004 831.744 147.004 827.01 142.269C831.745 147.004 831.745 154.681 827.01 159.416C831.744 154.682 839.422 154.682 844.157 159.417ZM1053.95 182.607C1049.27 177.932 1049.27 170.351 1053.95 165.675C1049.27 170.351 1041.69 170.351 1037.02 165.675C1041.69 170.351 1041.69 177.932 1037.02 182.607C1041.69 177.932 1049.27 177.932 1053.95 182.607ZM1030.79 112.215C1026.15 107.583 1026.15 100.072 1030.79 95.4399C1026.15 100.072 1018.64 100.072 1014.01 95.4399C1018.64 100.072 1018.64 107.583 1014.01 112.215C1018.64 107.583 1026.16 107.583 1030.79 112.215ZM1030.43 252.241C1025.8 247.615 1025.8 240.115 1030.43 235.489C1025.8 240.115 1018.3 240.115 1013.68 235.489C1018.3 240.115 1018.3 247.615 1013.68 252.241C1018.3 247.616 1025.8 247.616 1030.43 252.241ZM1006.92 88.9505C1002.33 84.354 1002.33 76.9013 1006.92 72.3041C1002.33 76.9006 994.876 76.9006 990.278 72.3041C994.875 76.9006 994.875 84.3533 990.278 88.9505C994.876 84.354 1002.33 84.354 1006.92 88.9505ZM1009.99 84.3252C1009.97 84.3087 1009.97 84.2828 1009.99 84.2662C1009.97 84.2828 1009.95 84.2828 1009.93 84.2662C1009.95 84.2828 1009.95 84.3087 1009.93 84.3252C1009.95 84.3087 1009.97 84.3087 1009.99 84.3252ZM1007.21 275.474C1002.64 270.907 1002.64 263.502 1007.21 258.935C1002.64 263.502 995.236 263.502 990.669 258.935C995.236 263.502 995.236 270.907 990.669 275.474C995.236 270.907 1002.64 270.907 1007.21 275.474ZM936.933 298.877C932.425 294.368 932.425 287.058 936.933 282.548C932.424 287.058 925.114 287.058 920.605 282.548C925.114 287.058 925.114 294.368 920.605 298.877C925.114 294.369 932.425 294.369 936.933 298.877ZM936.878 65.5433C932.385 61.0505 932.385 53.767 936.878 49.2742C932.385 53.767 925.102 53.767 920.609 49.2742C925.102 53.767 925.102 61.0505 920.609 65.5433C925.102 61.0505 932.385 61.0505 936.878 65.5433ZM1053.64 228.603C1049.11 224.073 1049.11 216.727 1053.64 212.197C1049.11 216.727 1041.77 216.727 1037.24 212.197C1041.77 216.727 1041.77 224.073 1037.24 228.603C1041.77 224.073 1049.11 224.073 1053.64 228.603ZM1053.87 135.599C1049.33 131.066 1049.33 123.716 1053.87 119.183C1049.33 123.716 1041.99 123.716 1037.45 119.183C1041.99 123.716 1041.99 131.066 1037.45 135.599C1041.99 131.066 1049.33 131.066 1053.87 135.599ZM866.813 88.5776C862.385 84.1503 862.385 76.9719 866.813 72.5446C862.385 76.9719 855.207 76.9719 850.78 72.5446C855.207 76.9719 855.207 84.1503 850.78 88.5776C855.207 84.1503 862.385 84.1503 866.813 88.5776ZM866.826 275.505C862.393 271.072 862.393 263.884 866.826 259.451C862.393 263.884 855.206 263.884 850.773 259.451C855.206 263.884 855.206 271.072 850.773 275.505C855.206 271.072 862.393 271.072 866.826 275.505ZM983.488 65.462C979.045 61.0189 979.045 53.816 983.488 49.3728C979.045 53.816 971.842 53.816 967.399 49.3728C971.842 53.816 971.842 61.0189 967.399 65.462C971.842 61.0196 979.045 61.0196 983.488 65.462ZM843.359 252.051C838.916 247.608 838.916 240.404 843.359 235.962C838.916 240.405 831.712 240.405 827.27 235.962C831.713 240.405 831.713 247.608 827.27 252.051C831.712 247.608 838.916 247.608 843.359 252.051ZM983.551 298.81C979.099 294.359 979.099 287.141 983.551 282.69C979.099 287.141 971.882 287.141 967.43 282.69C971.882 287.141 971.882 294.359 967.43 298.81C971.881 294.359 979.099 294.359 983.551 298.81ZM843.645 111.8C839.209 107.364 839.209 100.171 843.645 95.7351C839.209 100.172 832.016 100.172 827.58 95.7351C832.017 100.172 832.017 107.365 827.58 111.8C832.017 107.364 839.209 107.364 843.645 111.8ZM820.453 182.112C815.968 177.627 815.968 170.357 820.453 165.872C815.968 170.357 808.698 170.357 804.213 165.872C808.698 170.357 808.698 177.627 804.213 182.112C808.698 177.627 815.968 177.627 820.453 182.112ZM890.385 298.65C885.985 294.249 885.985 287.113 890.385 282.713C885.985 287.113 878.849 287.113 874.448 282.713C878.849 287.113 878.849 294.249 874.448 298.65C878.85 294.248 885.985 294.248 890.385 298.65ZM890.328 65.282C885.95 60.9044 885.95 53.8073 890.328 49.4297C885.95 53.8073 878.853 53.8073 874.476 49.4297C878.853 53.8073 878.853 60.9044 874.476 65.282C878.853 60.9044 885.95 60.9044 890.328 65.282ZM819.831 135.126C815.521 130.816 815.521 123.827 819.831 119.516C815.521 123.827 808.532 123.827 804.221 119.516C808.532 123.827 808.532 130.816 804.221 135.126C808.532 130.816 815.521 130.816 819.831 135.126ZM820.16 228.221C815.878 223.938 815.878 216.995 820.16 212.713C815.878 216.996 808.935 216.996 804.653 212.713C808.935 216.996 808.935 223.939 804.653 228.221C808.935 223.938 815.878 223.938 820.16 228.221ZM1076.86 204.997C1072.53 200.675 1072.53 193.669 1076.86 189.347C1072.53 193.669 1065.53 193.669 1061.21 189.347C1065.53 193.669 1065.53 200.675 1061.21 204.997C1065.53 200.675 1072.53 200.675 1076.86 204.997ZM1076.77 158.667C1072.47 154.375 1072.47 147.416 1076.77 143.123C1072.47 147.416 1065.52 147.416 1061.22 143.123C1065.52 147.416 1065.52 154.375 1061.22 158.667C1065.52 154.375 1072.48 154.375 1076.77 158.667ZM959.763 41.6127C955.62 37.4705 955.62 30.7551 959.763 26.6129C955.62 30.7551 948.905 30.7551 944.763 26.6129C948.905 30.7551 948.905 37.4705 944.763 41.6127C948.904 37.4705 955.62 37.4705 959.763 41.6127ZM959.747 321.38C955.62 317.253 955.62 310.562 959.747 306.434C955.62 310.562 948.929 310.562 944.802 306.434C948.929 310.562 948.929 317.253 944.802 321.38C948.929 317.253 955.62 317.253 959.747 321.38ZM1029.76 297.812C1025.61 293.654 1025.61 286.912 1029.76 282.754C1025.61 286.912 1018.86 286.912 1014.71 282.754C1018.86 286.912 1018.86 293.654 1014.71 297.812C1018.87 293.654 1025.61 293.654 1029.76 297.812ZM913.096 41.2383C908.928 37.0702 908.928 30.3123 913.096 26.1435C908.928 30.3116 902.17 30.3116 898.002 26.1435C902.17 30.3116 902.17 37.0695 898.002 41.2383C902.17 37.0695 908.928 37.0695 913.096 41.2383ZM1053.02 274.621C1048.86 270.458 1048.86 263.71 1053.02 259.547C1048.86 263.71 1042.11 263.71 1037.95 259.547C1042.11 263.71 1042.11 270.458 1037.95 274.621C1042.11 270.459 1048.86 270.459 1053.02 274.621ZM1053.33 88.2003C1049.14 84.007 1049.14 77.2088 1053.33 73.0162C1049.14 77.2095 1042.34 77.2095 1038.15 73.0162C1042.34 77.2095 1042.34 84.0077 1038.15 88.2003C1042.34 84.007 1049.14 84.007 1053.33 88.2003ZM912.726 321.429C908.581 317.285 908.581 310.565 912.726 306.421C908.581 310.565 901.862 310.565 897.717 306.421C901.862 310.565 901.862 317.285 897.717 321.429C901.862 317.285 908.581 317.285 912.726 321.429ZM1029.54 64.8363C1025.46 60.7539 1025.46 54.1356 1029.54 50.054C1025.46 54.1364 1018.84 54.1364 1014.76 50.054C1018.84 54.1364 1018.84 60.7546 1014.76 64.8363C1018.84 60.7539 1025.46 60.7539 1029.54 64.8363ZM1076.46 251.352C1072.36 247.253 1072.36 240.605 1076.46 236.505C1072.36 240.605 1065.71 240.605 1061.61 236.505C1065.71 240.605 1065.71 247.253 1061.61 251.352C1065.71 247.252 1072.36 247.252 1076.46 251.352ZM1076.14 111.029C1072.17 107.057 1072.17 100.617 1076.14 96.6452C1072.17 100.617 1065.73 100.617 1061.76 96.6452C1065.73 100.617 1065.73 107.056 1061.76 111.029C1065.73 107.057 1072.17 107.057 1076.14 111.029ZM796.046 157.644C792.074 153.671 792.074 147.231 796.046 143.259C792.074 147.231 785.633 147.231 781.661 143.259C785.633 147.231 785.633 153.671 781.661 157.644C785.633 153.671 792.074 153.671 796.046 157.644ZM1006.15 321.032C1002.22 317.098 1002.22 310.721 1006.15 306.788C1002.22 310.721 995.842 310.721 991.908 306.788C995.842 310.721 995.842 317.098 991.908 321.032C995.841 317.098 1002.22 317.098 1006.15 321.032ZM1006.08 41.3492C1002.14 37.4086 1002.14 31.0201 1006.08 27.0802C1002.14 31.0208 995.749 31.0208 991.809 27.0802C995.75 31.0208 995.75 37.4093 991.809 41.3492C995.749 37.4086 1002.14 37.4086 1006.08 41.3492ZM842.641 64.1768C838.724 60.26 838.724 53.9096 842.641 49.9928C838.724 53.9096 832.374 53.9096 828.457 49.9928C832.374 53.9096 832.374 60.26 828.457 64.1768C832.374 60.26 838.724 60.26 842.641 64.1768ZM842.75 297.47C838.841 293.562 838.841 287.223 842.75 283.315C838.841 287.223 832.503 287.223 828.594 283.315C832.503 287.223 832.503 293.562 828.594 297.47C832.503 293.561 838.84 293.561 842.75 297.47ZM819.144 87.7258C815.219 83.8011 815.219 77.4377 819.144 73.513C815.219 77.4377 808.856 77.4377 804.931 73.513C808.856 77.4377 808.856 83.8011 804.931 87.7258C808.856 83.8011 815.219 83.8011 819.144 87.7258ZM1099.53 181.165C1095.6 177.24 1095.6 170.876 1099.53 166.951C1095.6 170.876 1089.24 170.876 1085.31 166.951C1089.24 170.876 1089.24 177.241 1085.31 181.165C1089.24 177.24 1095.6 177.24 1099.53 181.165ZM819.507 274.323C815.565 270.38 815.565 263.99 819.507 260.048C815.565 263.99 809.174 263.99 805.233 260.048C809.175 263.99 809.175 270.381 805.233 274.323C809.174 270.381 815.565 270.381 819.507 274.323ZM865.707 320.87C861.842 317.005 861.842 310.738 865.707 306.873C861.842 310.738 855.575 310.738 851.71 306.873C855.575 310.738 855.575 317.005 851.71 320.87C855.575 317.004 861.842 317.004 865.707 320.87ZM866.06 40.7854C862.204 36.9291 862.204 30.6773 866.06 26.821C862.204 30.6773 855.952 30.6773 852.096 26.821C855.952 30.6773 855.952 36.9291 852.096 40.7854C855.952 36.9291 862.204 36.9291 866.06 40.7854ZM1099.5 134.323C1095.63 130.447 1095.63 124.161 1099.5 120.285C1095.63 124.161 1089.34 124.161 1085.46 120.285C1089.34 124.161 1089.34 130.447 1085.46 134.323C1089.34 130.447 1095.62 130.447 1099.5 134.323ZM1099.15 227.348C1095.28 223.483 1095.28 217.219 1099.15 213.354C1095.28 217.219 1089.02 217.219 1085.16 213.354C1089.02 217.219 1089.02 223.483 1085.16 227.348C1089.02 223.483 1095.28 223.483 1099.15 227.348ZM795.648 250.596C791.877 246.825 791.877 240.712 795.648 236.942C791.877 240.712 785.764 240.712 781.994 236.942C785.764 240.712 785.764 246.825 781.994 250.596C785.764 246.826 791.877 246.826 795.648 250.596ZM795.602 110.668C791.833 106.899 791.833 100.79 795.602 97.0217C791.833 100.79 785.724 100.79 781.956 97.0217C785.724 100.79 785.724 106.899 781.956 110.668C785.724 106.899 791.833 106.899 795.602 110.668ZM935.517 344.105C931.714 340.302 931.714 334.136 935.517 330.333C931.714 334.136 925.547 334.136 921.744 330.333C925.547 334.136 925.547 340.302 921.744 344.105C925.547 340.302 931.714 340.302 935.517 344.105ZM935.797 17.6C932.008 13.8113 932.008 7.66972 935.797 3.88107C932.008 7.66972 925.866 7.66972 922.078 3.88107C925.866 7.66972 925.866 13.8113 922.078 17.6C925.866 13.8113 932.008 13.8113 935.797 17.6ZM982.206 343.853C978.502 340.149 978.502 334.145 982.206 330.441C978.502 334.145 972.498 334.145 968.794 330.441C972.498 334.145 972.498 340.149 968.794 343.853C972.498 340.149 978.503 340.149 982.206 343.853ZM982.388 17.358C978.689 13.6594 978.689 7.66324 982.388 3.9646C978.689 7.66324 972.693 7.66324 968.994 3.9646C972.693 7.66324 972.693 13.6594 968.994 17.358C972.693 13.6594 978.689 13.6594 982.388 17.358ZM772.391 180.415C768.659 176.683 768.659 170.633 772.391 166.901C768.659 170.633 762.609 170.633 758.877 166.901C762.609 170.633 762.609 176.683 758.877 180.415C762.609 176.684 768.659 176.684 772.391 180.415ZM888.67 343.712C884.993 340.035 884.993 334.075 888.67 330.398C884.993 334.075 879.033 334.075 875.356 330.398C879.033 334.075 879.033 340.035 875.356 343.712C879.033 340.035 884.993 340.035 888.67 343.712ZM888.532 17.1996C884.894 13.5615 884.894 7.66252 888.532 4.02364C884.894 7.6618 878.995 7.6618 875.356 4.02364C878.994 7.6618 878.994 13.5608 875.356 17.1996C878.995 13.5608 884.894 13.5608 888.532 17.1996ZM772.11 227.268C768.533 223.691 768.533 217.891 772.11 214.314C768.533 217.891 762.734 217.891 759.157 214.314C762.734 217.891 762.734 223.691 759.157 227.268C762.735 223.691 768.533 223.691 772.11 227.268ZM772.214 133.776C768.634 130.196 768.634 124.392 772.214 120.812C768.634 124.392 762.83 124.392 759.25 120.812C762.83 124.392 762.83 130.196 759.25 133.776C762.83 130.196 768.634 130.196 772.214 133.776ZM1122.15 156.967C1118.56 153.376 1118.56 147.554 1122.15 143.964C1118.56 147.555 1112.74 147.555 1109.14 143.964C1112.74 147.554 1112.74 153.377 1109.14 156.967C1112.74 153.376 1118.56 153.376 1122.15 156.967ZM1121.95 203.884C1118.37 200.3 1118.37 194.49 1121.95 190.906C1118.37 194.49 1112.56 194.49 1108.97 190.906C1112.56 194.49 1112.56 200.301 1108.97 203.884C1112.56 200.301 1118.37 200.301 1121.95 203.884ZM1075.21 63.8261C1071.68 60.3039 1071.68 54.5943 1075.21 51.072C1071.68 54.5943 1065.97 54.5943 1062.45 51.072C1065.97 54.5943 1065.97 60.3039 1062.45 63.8261C1065.97 60.3046 1071.68 60.3046 1075.21 63.8261ZM1075.12 297.062C1071.61 293.546 1071.61 287.847 1075.12 284.332C1071.61 287.847 1065.91 287.847 1062.39 284.332C1065.91 287.847 1065.91 293.546 1062.39 297.062C1065.91 293.546 1071.61 293.546 1075.12 297.062ZM1051.66 40.2843C1048.17 36.7966 1048.17 31.1424 1051.66 27.6548C1048.17 31.1424 1042.51 31.1424 1039.03 27.6548C1042.51 31.1424 1042.51 36.7966 1039.03 40.2843C1042.51 36.7973 1048.17 36.7973 1051.66 40.2843ZM1098.5 273.489C1095.02 270.008 1095.02 264.365 1098.5 260.884C1095.02 264.365 1089.38 264.365 1085.9 260.884C1089.38 264.365 1089.38 270.008 1085.9 273.489C1089.38 270.008 1095.02 270.008 1098.5 273.489ZM1098.41 87.2024C1094.92 83.7183 1094.92 78.0699 1098.41 74.5858C1094.92 78.0699 1089.28 78.0699 1085.79 74.5858C1089.28 78.0699 1089.28 83.7183 1085.79 87.2024C1089.28 83.7183 1094.92 83.7183 1098.41 87.2024ZM958.158 366.842C954.733 363.416 954.733 357.862 958.158 354.436C954.733 357.862 949.179 357.862 945.753 354.436C949.179 357.862 949.179 363.416 945.753 366.842C949.179 363.416 954.733 363.416 958.158 366.842ZM943.331 360.646V360.645H943.33V360.646H943.331ZM911.682 366.671C908.294 363.284 908.294 357.791 911.682 354.404C908.294 357.791 902.802 357.791 899.414 354.404C902.802 357.791 902.802 363.284 899.414 366.671C902.802 363.284 908.294 363.284 911.682 366.671ZM911.674 -6.65179C908.338 -9.98755 908.338 -15.3955 911.674 -18.7312C908.338 -15.3955 902.93 -15.3955 899.594 -18.7312C902.93 -15.3955 902.93 -9.98755 899.594 -6.65179C902.93 -9.98755 908.338 -9.98755 911.674 -6.65179ZM794.916 63.1565C791.519 59.7596 791.519 54.2523 794.916 50.8553C791.519 54.2523 786.011 54.2523 782.614 50.8553C786.011 54.2523 786.011 59.7596 782.614 63.1565C786.011 59.7596 791.519 59.7596 794.916 63.1565ZM841.722 343.628C838.354 340.259 838.354 334.798 841.722 331.43C838.354 334.798 832.893 334.798 829.525 331.43C832.893 334.798 832.893 340.259 829.525 343.628C832.893 340.259 838.354 340.259 841.722 343.628ZM1121.38 250.092C1118.02 246.739 1118.02 241.303 1121.38 237.95C1118.02 241.303 1112.59 241.303 1109.24 237.95C1112.59 241.303 1112.59 246.739 1109.24 250.092C1112.59 246.739 1118.02 246.739 1121.38 250.092ZM771.274 86.4903C768.017 83.2337 768.017 77.954 771.274 74.6974C768.017 77.954 762.737 77.954 759.482 74.6974C762.738 77.954 762.738 83.2337 759.482 86.4896C762.737 83.2337 768.017 83.2337 771.274 86.4903ZM771.442 272.785C768.235 269.578 768.235 264.379 771.442 261.173C768.235 264.38 763.036 264.38 759.83 261.173C763.037 264.38 763.037 269.579 759.83 272.785C763.036 269.578 768.235 269.578 771.442 272.785ZM748.09 203.222C744.814 199.945 744.814 194.632 748.09 191.355C744.814 194.632 739.501 194.632 736.224 191.355C739.501 194.632 739.501 199.945 736.224 203.222C739.502 199.945 744.814 199.945 748.09 203.222ZM1004.82 366.351C1001.58 363.118 1001.58 357.877 1004.82 354.644C1001.58 357.877 996.344 357.877 993.111 354.644C996.344 357.877 996.344 363.118 993.111 366.351C996.344 363.118 1001.59 363.118 1004.82 366.351ZM1004.91 -6.58051C1001.64 -9.84427 1001.64 -15.1363 1004.91 -18.4008C1001.64 -15.137 996.352 -15.137 993.087 -18.4008C996.351 -15.137 996.351 -9.84499 993.087 -6.58051C996.351 -9.84427 1001.64 -9.84427 1004.91 -6.58051ZM864.481 -7.18675C861.359 -10.308 861.359 -15.3688 864.481 -18.49C861.359 -15.3688 856.299 -15.3688 853.177 -18.49C856.299 -15.3688 856.299 -10.308 853.177 -7.18675C856.299 -10.3087 861.359 -10.3087 864.481 -7.18675ZM864.525 366.007C861.385 362.867 861.385 357.776 864.525 354.636C861.385 357.776 856.293 357.776 853.153 354.636C856.293 357.776 856.293 362.867 853.153 366.007C856.293 362.867 861.385 362.867 864.525 366.007ZM1144.25 179.547C1141.14 176.441 1141.14 171.405 1144.25 168.298C1141.14 171.404 1136.1 171.404 1133 168.298C1136.1 171.404 1136.1 176.441 1133 179.547C1136.1 176.441 1141.14 176.441 1144.25 179.547ZM747.63 109.568C744.585 106.523 744.585 101.586 747.63 98.5409C744.585 101.586 739.648 101.586 736.603 98.5409C739.648 101.586 739.648 106.523 736.603 109.568C739.648 106.523 744.585 106.523 747.63 109.568ZM747.633 249.458C744.58 246.405 744.58 241.457 747.633 238.404C744.58 241.457 739.632 241.457 736.579 238.404C739.632 241.457 739.632 246.405 736.579 249.458C739.632 246.406 744.58 246.406 747.633 249.458ZM1097.58 39.4649C1094.52 36.4042 1094.52 31.4412 1097.58 28.3805C1094.52 31.4412 1089.56 31.4412 1086.5 28.3805C1089.56 31.4412 1089.56 36.4042 1086.5 39.4649C1089.56 36.4035 1094.52 36.4035 1097.58 39.4649ZM1097.7 319.816C1094.64 316.753 1094.64 311.786 1097.7 308.723C1094.63 311.785 1089.67 311.785 1086.6 308.723C1089.67 311.785 1089.67 316.752 1086.6 319.816C1089.67 316.752 1094.63 316.752 1097.7 319.816ZM934.193 389.206C931.199 386.211 931.199 381.356 934.193 378.36C931.199 381.355 926.343 381.355 923.348 378.36C926.342 381.355 926.342 386.211 923.348 389.206C926.343 386.211 931.199 386.211 934.193 389.206ZM934.462 -30.6364C931.481 -33.618 931.481 -38.4513 934.462 -41.4321C931.48 -38.4506 926.647 -38.4506 923.666 -41.4321C926.648 -38.4506 926.648 -33.6172 923.666 -30.6364C926.647 -33.6172 931.481 -33.6172 934.462 -30.6364ZM1074.23 16.3551C1071.26 13.3808 1071.26 8.5575 1074.23 5.58316C1071.26 8.5575 1066.44 8.5575 1063.46 5.58316C1066.44 8.5575 1066.44 13.3808 1063.46 16.3551C1066.44 13.3808 1071.26 13.3808 1074.23 16.3551ZM1073.99 342.889C1070.98 339.882 1070.98 335.007 1073.99 332C1070.98 335.007 1066.11 335.007 1063.1 332C1066.11 335.007 1066.11 339.882 1063.1 342.889C1066.11 339.882 1070.98 339.882 1073.99 342.889ZM1144.32 225.927C1141.29 222.896 1141.29 217.982 1144.32 214.951C1141.29 217.982 1136.37 217.982 1133.34 214.951C1136.37 217.982 1136.37 222.896 1133.34 225.927C1136.37 222.896 1141.29 222.896 1144.32 225.927ZM1120.85 295.894C1117.96 293.009 1117.96 288.332 1120.85 285.447C1117.96 288.332 1113.29 288.332 1110.4 285.447C1113.29 288.332 1113.29 293.009 1110.4 295.894C1113.29 293.009 1117.96 293.009 1120.85 295.894ZM1120.82 62.5381C1117.94 59.6544 1117.94 54.9788 1120.82 52.0952C1117.94 54.9788 1113.26 54.9788 1110.38 52.0952C1113.26 54.9788 1113.26 59.6544 1110.38 62.5381C1113.26 59.6544 1117.94 59.6544 1120.82 62.5381ZM1051.01 -7.29475C1048.13 -10.1755 1048.13 -14.8461 1051.01 -17.7268C1048.13 -14.8461 1043.46 -14.8461 1040.58 -17.7268C1043.46 -14.8461 1043.46 -10.1755 1040.58 -7.29475C1043.46 -10.1762 1048.13 -10.1762 1051.01 -7.29475ZM887.219 389.076C884.304 386.161 884.304 381.433 887.219 378.518C884.304 381.433 879.576 381.433 876.661 378.518C879.576 381.433 879.576 386.161 876.661 389.076C879.576 386.161 884.303 386.161 887.219 389.076ZM1051.04 365.948C1048.12 363.037 1048.12 358.316 1051.04 355.405C1048.12 358.316 1043.4 358.316 1040.49 355.405C1043.4 358.316 1043.4 363.037 1040.49 365.948C1043.4 363.037 1048.13 363.037 1051.04 365.948ZM887.512 -30.9957C884.622 -33.8858 884.622 -38.5708 887.512 -41.4609C884.622 -38.5708 879.937 -38.5708 877.047 -41.4609C879.937 -38.5708 879.937 -33.8858 877.047 -30.9957C879.937 -33.8858 884.622 -33.8858 887.512 -30.9957ZM980.811 -30.7999C977.949 -33.6619 977.949 -38.3023 980.811 -41.1643C977.949 -38.3023 973.309 -38.3023 970.447 -41.1643C973.309 -38.3023 973.309 -33.6619 970.447 -30.7999C973.309 -33.6619 977.949 -33.6619 980.811 -30.7999ZM724.034 179.056C721.226 176.248 721.226 171.696 724.034 168.889C721.226 171.697 716.673 171.697 713.866 168.889C716.674 171.697 716.674 176.248 713.866 179.056C716.673 176.249 721.226 176.249 724.034 179.056ZM793.867 15.7071C791.041 12.8811 791.041 8.29973 793.867 5.47372C791.041 8.29973 786.46 8.29973 783.634 5.47372C786.46 8.29973 786.46 12.8811 783.634 15.7071C786.46 12.8818 791.041 12.8818 793.867 15.7071ZM770.84 39.1143C767.953 36.2278 767.953 31.5485 770.84 28.6628C767.953 31.5492 763.274 31.5492 760.388 28.6628C763.275 31.5492 763.275 36.2285 760.388 39.1143C763.275 36.2285 767.954 36.2285 770.84 39.1143ZM793.977 342.578C791.121 339.722 791.121 335.092 793.977 332.236C791.121 335.092 786.491 335.092 783.635 332.236C786.491 335.092 786.491 339.722 783.635 342.578C786.491 339.722 791.121 339.722 793.977 342.578ZM770.5 318.79C767.774 316.063 767.774 311.643 770.5 308.916C767.774 311.643 763.354 311.643 760.627 308.916C763.354 311.643 763.354 316.063 760.627 318.79C763.354 316.063 767.774 316.063 770.5 318.79ZM1143.92 85.5708C1141.14 82.7873 1141.14 78.2744 1143.92 75.4908C1141.14 78.2744 1136.63 78.2744 1133.84 75.4908C1136.63 78.2744 1136.63 82.7873 1133.84 85.5708C1136.63 82.7873 1141.14 82.7873 1143.92 85.5708ZM1143.88 272.458C1141.13 269.708 1141.13 265.25 1143.88 262.499C1141.13 265.25 1136.67 265.25 1133.92 262.499C1136.67 265.25 1136.67 269.708 1133.92 272.458C1136.67 269.708 1141.13 269.708 1143.88 272.458ZM723.826 132.24C721.083 129.497 721.083 125.051 723.826 122.31C721.083 125.052 716.637 125.052 713.895 122.31C716.638 125.052 716.638 129.498 713.895 132.24C716.637 129.497 721.083 129.497 723.826 132.24ZM723.829 225.394C721.137 222.702 721.137 218.337 723.829 215.645C721.137 218.337 716.772 218.337 714.08 215.645C716.772 218.337 716.772 222.702 714.08 225.394C716.771 222.702 721.137 222.702 723.829 225.394ZM817.333 -7.54028C814.58 -10.2928 814.58 -14.7561 817.333 -17.5087C814.58 -14.7561 810.117 -14.7561 807.364 -17.5087C810.117 -14.7561 810.117 -10.2928 807.364 -7.54028C810.117 -10.2928 814.58 -10.2928 817.333 -7.54028ZM817.386 365.744C814.573 362.931 814.573 358.371 817.386 355.558C814.573 358.371 810.013 358.371 807.2 355.558C810.013 358.371 810.013 362.931 807.2 365.744C810.013 362.931 814.574 362.931 817.386 365.744ZM746.928 295.205C744.313 292.59 744.313 288.35 746.928 285.735C744.313 288.35 740.073 288.35 737.458 285.735C740.073 288.35 740.073 292.59 737.458 295.205C740.074 292.59 744.313 292.59 746.928 295.205ZM746.933 62.0513C744.277 59.3945 744.277 55.0882 746.933 52.4314C744.277 55.0882 739.97 55.0882 737.313 52.4314C739.97 55.0882 739.97 59.3945 737.313 62.0513C739.97 59.3945 744.277 59.3945 746.933 62.0513ZM1027.04 -30.977C1024.36 -33.6612 1024.36 -38.0128 1027.04 -40.697C1024.36 -38.0128 1020 -38.0128 1017.32 -40.697C1020 -38.0128 1020 -33.6612 1017.32 -30.977C1020 -33.6612 1024.36 -33.6612 1027.04 -30.977ZM1027.13 388.697C1024.43 386 1024.43 381.626 1027.13 378.928C1024.43 381.626 1020.06 381.626 1017.36 378.928C1020.06 381.626 1020.06 386 1017.36 388.697C1020.05 386 1024.43 386 1027.13 388.697ZM1166.75 202.254C1164.12 199.63 1164.12 195.374 1166.75 192.749C1164.12 195.374 1159.87 195.374 1157.24 192.749C1159.86 195.374 1159.86 199.629 1157.24 202.254C1159.87 199.629 1164.12 199.629 1166.75 202.254ZM1166.75 155.405C1164.1 152.758 1164.1 148.464 1166.75 145.817C1164.1 148.464 1159.81 148.464 1157.16 145.817C1159.81 148.464 1159.81 152.758 1157.16 155.405C1159.81 152.758 1164.1 152.758 1166.75 155.405ZM840.379 388.68C837.734 386.036 837.734 381.748 840.379 379.103C837.734 381.748 833.446 381.748 830.802 379.103C833.446 381.748 833.446 386.036 830.802 388.68C833.446 386.036 837.734 386.036 840.379 388.68ZM840.351 -31.0044C837.732 -33.6237 837.732 -37.8717 840.351 -40.4911C837.732 -37.8717 833.484 -37.8717 830.865 -40.4911C833.484 -37.8717 833.484 -33.6237 830.865 -31.0044C833.484 -33.6237 837.731 -33.6237 840.351 -31.0044ZM956.785 -54.8572C954.217 -57.4248 954.217 -61.5871 956.785 -64.1546C954.217 -61.5871 950.055 -61.5871 947.487 -64.1546C950.055 -61.5871 950.055 -57.4248 947.487 -54.8572C950.055 -57.4248 954.217 -57.4248 956.785 -54.8572ZM956.612 412.004C954.008 409.401 954.008 405.18 956.612 402.577C954.008 405.18 949.788 405.18 947.184 402.577C949.788 405.18 949.788 409.401 947.184 412.004C949.788 409.402 954.008 409.402 956.612 412.004ZM1166.66 108.724C1164.1 106.172 1164.1 102.033 1166.66 99.4805C1164.1 102.033 1159.96 102.033 1157.41 99.4805C1159.96 102.033 1159.96 106.172 1157.41 108.724C1159.96 106.171 1164.1 106.171 1166.66 108.724ZM1166.64 248.646C1164.09 246.096 1164.09 241.961 1166.64 239.411C1164.09 241.961 1159.96 241.961 1157.41 239.411C1159.96 241.961 1159.96 246.096 1157.41 248.646C1159.96 246.096 1164.09 246.096 1166.64 248.646ZM910.198 411.522C907.662 408.986 907.662 404.874 910.198 402.338C907.662 404.874 903.55 404.874 901.013 402.338C903.549 404.874 903.549 408.986 901.013 411.522C903.55 408.986 907.662 408.986 910.198 411.522ZM910.495 -54.6988C907.953 -57.2404 907.953 -61.3617 910.495 -63.9033C907.953 -61.3617 903.832 -61.3617 901.291 -63.9033C903.832 -61.3617 903.832 -57.2404 901.291 -54.6988C903.832 -57.2404 907.953 -57.2404 910.495 -54.6988ZM723.158 271.483C720.753 269.079 720.753 265.179 723.158 262.774C720.753 265.178 716.854 265.178 714.448 262.774C716.853 265.178 716.853 269.078 714.448 271.483C716.854 269.079 720.753 269.079 723.158 271.483ZM1002.99 -54.9336C1000.59 -57.3319 1000.59 -61.2192 1002.99 -63.6175C1000.59 -61.2192 996.702 -61.2192 994.304 -63.6175C996.702 -61.2192 996.702 -57.3319 994.304 -54.9336C996.702 -57.3312 1000.59 -57.3312 1002.99 -54.9336ZM1096.21 365.022C1093.81 362.617 1093.81 358.719 1096.21 356.315C1093.81 358.719 1089.91 358.719 1087.51 356.315C1089.91 358.719 1089.91 362.617 1087.51 365.022C1089.91 362.617 1093.81 362.617 1096.21 365.022ZM1003.04 411.729C1000.64 409.325 1000.64 405.427 1003.04 403.023C1000.64 405.427 996.742 405.427 994.338 403.023C996.742 405.427 996.742 409.325 994.338 411.729C996.743 409.325 1000.64 409.325 1003.04 411.729ZM699.738 154.787C697.356 152.405 697.356 148.543 699.738 146.16C697.356 148.542 693.494 148.542 691.112 146.16C693.494 148.542 693.494 152.404 691.112 154.787C693.494 152.405 697.356 152.405 699.738 154.787ZM1096.64 -8.29485C1094.27 -10.6658 1094.27 -14.5092 1096.64 -16.8801C1094.27 -14.5092 1090.42 -14.5092 1088.05 -16.8801C1090.42 -14.5092 1090.42 -10.6658 1088.05 -8.29485C1090.42 -10.6658 1094.27 -10.6658 1096.64 -8.29485ZM1119.97 14.9763C1117.59 12.5945 1117.59 8.73315 1119.97 6.35139C1117.59 8.73315 1113.72 8.73315 1111.34 6.35139C1113.72 8.73315 1113.72 12.5945 1111.34 14.9763C1113.72 12.5945 1117.59 12.5945 1119.97 14.9763ZM1119.71 341.484C1117.31 339.087 1117.31 335.201 1119.71 332.803C1117.31 335.2 1113.43 335.2 1111.03 332.803C1113.43 335.2 1113.43 339.086 1111.03 341.484C1113.43 339.087 1117.31 339.087 1119.71 341.484ZM699.765 201.361C697.454 199.049 697.454 195.302 699.765 192.991C697.454 195.302 693.707 195.302 691.395 192.991C693.707 195.302 693.707 199.049 691.395 201.361C693.707 199.049 697.454 199.049 699.765 201.361ZM1142.95 38.3612C1140.64 36.0564 1140.64 32.3204 1142.95 30.0156C1140.64 32.3204 1136.91 32.3204 1134.6 30.0156C1136.91 32.3204 1136.91 36.0564 1134.6 38.3612C1136.91 36.0564 1140.64 36.0564 1142.95 38.3612ZM1143.02 318.134C1140.69 315.809 1140.69 312.04 1143.02 309.716C1140.69 312.04 1136.92 312.04 1134.6 309.716C1136.92 312.04 1136.92 315.809 1134.6 318.134C1136.92 315.809 1140.69 315.809 1143.02 318.134ZM863.285 -55.151C860.981 -57.4543 860.981 -61.1889 863.285 -63.4922C860.981 -61.1889 857.247 -61.1889 854.943 -63.4922C857.247 -61.1889 857.247 -57.4543 854.943 -55.151C857.247 -57.4543 860.981 -57.4543 863.285 -55.151ZM1073.23 388.237C1070.88 385.882 1070.88 382.063 1073.23 379.708C1070.88 382.063 1067.06 382.063 1064.7 379.708C1067.06 382.063 1067.06 385.882 1064.7 388.237C1067.06 385.882 1070.88 385.882 1073.23 388.237ZM862.998 411.3C860.664 408.966 860.664 405.182 862.998 402.848C860.664 405.182 856.88 405.182 854.545 402.848C856.88 405.182 856.88 408.966 854.545 411.3C856.88 408.966 860.664 408.966 862.998 411.3ZM1072.95 -31.9836C1070.72 -34.2134 1070.72 -37.8285 1072.95 -40.0591C1070.72 -37.8292 1067.11 -37.8292 1064.88 -40.0591C1067.11 -37.8292 1067.11 -34.2141 1064.88 -31.9836C1067.11 -34.2134 1070.72 -34.2134 1072.95 -31.9836ZM699.449 247.751C697.32 245.622 697.32 242.169 699.449 240.04C697.32 242.169 693.867 242.169 691.738 240.04C693.867 242.169 693.867 245.622 691.738 247.751C693.867 245.622 697.32 245.622 699.449 247.751ZM1189.42 177.971C1187.22 175.778 1187.22 172.222 1189.42 170.029C1187.22 172.222 1183.67 172.222 1181.48 170.029C1183.67 172.222 1183.67 175.778 1181.48 177.971C1183.67 175.777 1187.22 175.777 1189.42 177.971ZM769.335 364.582C767.134 362.381 767.134 358.812 769.335 356.611C767.134 358.812 763.566 358.812 761.366 356.611C763.567 358.812 763.567 362.381 761.366 364.582C763.566 362.381 767.134 362.381 769.335 364.582ZM1166 294.686C1163.81 292.496 1163.81 288.945 1166 286.755C1163.81 288.945 1160.26 288.945 1158.07 286.755C1160.26 288.945 1160.26 292.496 1158.07 294.686C1160.26 292.496 1163.81 292.496 1166 294.686ZM746.005 14.599C743.845 12.439 743.845 8.93765 746.005 6.77837C743.845 8.93837 740.343 8.93837 738.184 6.77837C740.344 8.93837 740.344 12.4397 738.184 14.599C740.344 12.439 743.845 12.439 746.005 14.599ZM745.982 340.976C743.898 338.893 743.898 335.515 745.982 333.431C743.898 335.515 740.52 335.515 738.436 333.431C740.52 335.515 740.52 338.893 738.436 340.976C740.52 338.893 743.898 338.893 745.982 340.976ZM1165.96 61.3688C1163.77 59.1821 1163.77 55.6368 1165.96 53.4502C1163.77 55.6368 1160.22 55.6368 1158.04 53.4502C1160.22 55.6368 1160.22 59.1821 1158.04 61.3688C1160.22 59.1821 1163.77 59.1821 1165.96 61.3688ZM1189.63 224.722C1187.46 222.552 1187.46 219.034 1189.63 216.864C1187.46 219.034 1183.94 219.034 1181.77 216.864C1183.94 219.034 1183.94 222.552 1181.77 224.722C1183.94 222.552 1187.46 222.552 1189.63 224.722ZM769.613 -8.93707C767.413 -11.1374 767.413 -14.7043 769.613 -16.9046C767.413 -14.7043 763.846 -14.7043 761.646 -16.9046C763.846 -14.7043 763.846 -11.1374 761.646 -8.93707C763.846 -11.1374 767.413 -11.1374 769.613 -8.93707ZM1189.66 131.288C1187.48 129.107 1187.48 125.572 1189.66 123.391C1187.48 125.572 1183.94 125.572 1181.76 123.391C1183.94 125.572 1183.94 129.107 1181.76 131.288C1183.94 129.108 1187.48 129.108 1189.66 131.288ZM1049.21 410.893C1047.12 408.796 1047.12 405.397 1049.21 403.3C1047.12 405.397 1043.72 405.397 1041.62 403.3C1043.72 405.397 1043.72 408.796 1041.62 410.893C1043.72 408.796 1047.12 408.796 1049.21 410.893ZM1049.4 -55.5168C1047.32 -57.6019 1047.32 -60.983 1049.4 -63.0688C1047.32 -60.9837 1043.94 -60.9837 1041.85 -63.0688C1043.93 -60.9837 1043.93 -57.6026 1041.85 -55.5168C1043.93 -57.6026 1047.32 -57.6026 1049.4 -55.5168ZM792.664 387.666C790.581 385.583 790.581 382.207 792.664 380.124C790.581 382.207 787.205 382.207 785.122 380.124C787.205 382.207 787.205 385.583 785.122 387.666C787.204 385.583 790.581 385.583 792.664 387.666ZM792.805 -32.2903C790.73 -34.3653 790.73 -37.7292 792.805 -39.8042C790.73 -37.7292 787.366 -37.7292 785.291 -39.8042C787.366 -37.7292 787.366 -34.3653 785.291 -32.2903C787.366 -34.3653 790.73 -34.3653 792.805 -32.2903ZM932.767 -78.7195C930.668 -80.8183 930.668 -84.2217 932.767 -86.3212C930.668 -84.2224 927.265 -84.2224 925.165 -86.3212C927.264 -84.2224 927.264 -80.819 925.165 -78.7195C927.265 -80.819 930.668 -80.819 932.767 -78.7195ZM722.71 37.9493C720.602 35.8412 720.602 32.4226 722.71 30.3137C720.602 32.4219 717.183 32.4219 715.074 30.3137C717.182 32.4219 717.182 35.8405 715.074 37.9493C717.182 35.8412 720.601 35.8412 722.71 37.9493ZM722.447 317.438C720.472 315.463 720.472 312.261 722.447 310.286C720.472 312.261 717.269 312.261 715.294 310.286C717.269 312.261 717.269 315.463 715.294 317.438C717.269 315.463 720.472 315.463 722.447 317.438ZM979.308 -78.6259C977.211 -80.7232 977.211 -84.1231 979.308 -86.2204C977.211 -84.1231 973.811 -84.1231 971.714 -86.2204C973.811 -84.1231 973.811 -80.7232 971.714 -78.6259C973.811 -80.7225 977.211 -80.7225 979.308 -78.6259ZM979.365 434.355C977.259 432.249 977.259 428.834 979.365 426.728C977.259 428.834 973.844 428.834 971.738 426.728C973.844 428.834 973.844 432.249 971.738 434.355C973.844 432.249 977.259 432.249 979.365 434.355ZM886.009 -78.7231C883.972 -80.7607 883.972 -84.0648 886.009 -86.1031C883.972 -84.0655 880.668 -84.0655 878.629 -86.1031C880.667 -84.0655 880.667 -80.7614 878.629 -78.7231C880.667 -80.7614 883.971 -80.7614 886.009 -78.7231ZM815.611 410.454C813.684 408.527 813.684 405.403 815.611 403.475C813.684 405.402 810.56 405.402 808.632 403.475C810.559 405.402 810.559 408.526 808.632 410.454C810.56 408.526 813.684 408.526 815.611 410.454ZM815.863 -55.7968C813.926 -57.7336 813.926 -60.8743 815.863 -62.8118C813.926 -60.875 810.785 -60.875 808.848 -62.8118C810.784 -60.875 810.784 -57.7344 808.848 -55.7968C810.784 -57.7344 813.925 -57.7344 815.863 -55.7968ZM675.634 177.274C673.705 175.345 673.705 172.218 675.634 170.289C673.705 172.218 670.577 172.218 668.649 170.289C670.577 172.218 670.577 175.345 668.649 177.274C670.577 175.345 673.705 175.345 675.634 177.274ZM698.768 293.757C696.949 291.938 696.949 288.989 698.768 287.169C696.949 288.988 694 288.988 692.18 287.169C693.999 288.988 693.999 291.937 692.18 293.757C693.999 291.938 696.948 291.938 698.768 293.757ZM1188.9 84.2648C1187.03 82.3942 1187.03 79.3623 1188.9 77.4917C1187.03 79.3623 1184 79.3623 1182.13 77.4917C1184 79.3623 1184 82.3942 1182.13 84.2648C1184 82.3942 1187.03 82.3942 1188.9 84.2648ZM1188.96 270.638C1187.09 268.765 1187.09 265.728 1188.96 263.854C1187.09 265.728 1184.05 265.728 1182.18 263.854C1184.05 265.728 1184.05 268.765 1182.18 270.638C1184.05 268.765 1187.09 268.765 1188.96 270.638ZM699.045 60.4752C697.174 58.604 697.174 55.5699 699.045 53.6993C697.174 55.5706 694.14 55.5706 692.27 53.6993C694.141 55.5706 694.141 58.6047 692.27 60.4752C694.141 58.604 697.174 58.604 699.045 60.4752ZM1025.73 434.043C1023.81 432.123 1023.81 429.009 1025.73 427.089C1023.81 429.009 1020.69 429.009 1018.77 427.089C1020.69 429.009 1020.69 432.123 1018.77 434.043C1020.69 432.123 1023.81 432.123 1025.73 434.043ZM1025.58 -79.1068C1023.71 -80.9788 1023.71 -84.0136 1025.58 -85.8856C1023.71 -84.0136 1020.67 -84.0136 1018.8 -85.8856C1020.67 -84.0136 1020.67 -80.9788 1018.8 -79.1068C1020.67 -80.9788 1023.71 -80.9788 1025.58 -79.1068ZM675.627 130.36C673.749 128.482 673.749 125.437 675.627 123.559C673.749 125.437 670.704 125.437 668.826 123.559C670.703 125.437 670.703 128.481 668.826 130.36C670.704 128.482 673.749 128.482 675.627 130.36ZM675.417 223.695C673.662 221.94 673.662 219.096 675.417 217.341C673.662 219.096 670.817 219.096 669.063 217.341C670.817 219.096 670.817 221.94 669.063 223.695C670.816 221.94 673.662 221.94 675.417 223.695ZM1211.88 200.439C1210.14 198.694 1210.14 195.866 1211.88 194.122C1210.14 195.866 1207.31 195.866 1205.56 194.122C1207.31 195.866 1207.31 198.694 1205.56 200.439C1207.31 198.695 1210.14 198.695 1211.88 200.439ZM1211.87 153.982C1210.09 152.196 1210.09 149.3 1211.87 147.515C1210.09 149.301 1207.19 149.301 1205.41 147.515C1207.19 149.301 1207.19 152.197 1205.41 153.982C1207.19 152.196 1210.09 152.196 1211.87 153.982ZM1118.52 386.979C1116.77 385.228 1116.77 382.39 1118.52 380.64C1116.77 382.391 1113.93 382.391 1112.18 380.64C1113.93 382.391 1113.93 385.229 1112.18 386.979C1113.93 385.229 1116.77 385.229 1118.52 386.979ZM1118.64 -32.988C1116.91 -34.7116 1116.91 -37.5052 1118.64 -39.2289C1116.91 -37.5052 1114.12 -37.5052 1112.4 -39.2289C1114.12 -37.5052 1114.12 -34.7116 1112.4 -32.988C1114.12 -34.7109 1116.91 -34.7109 1118.64 -32.988ZM1141.94 -9.81404C1140.2 -11.5536 1140.2 -14.3738 1141.94 -16.1133C1140.2 -14.3738 1137.38 -14.3738 1135.65 -16.1133C1137.39 -14.3738 1137.39 -11.5536 1135.65 -9.81404C1137.38 -11.5536 1140.2 -11.5536 1141.94 -9.81404ZM838.422 433.71C836.673 431.961 836.673 429.125 838.422 427.376C836.673 429.125 833.837 429.125 832.089 427.376C833.837 429.125 833.837 431.961 832.089 433.71C833.837 431.961 836.673 431.961 838.422 433.71ZM1141.68 363.795C1139.93 362.046 1139.93 359.21 1141.68 357.461C1139.93 359.211 1137.09 359.211 1135.35 357.461C1137.09 359.211 1137.09 362.047 1135.35 363.795C1137.09 362.046 1139.93 362.046 1141.68 363.795ZM838.623 -79.7743C836.903 -81.4936 836.903 -84.2815 838.623 -86.0008C836.903 -84.2815 834.115 -84.2815 832.396 -86.0008C834.115 -84.2815 834.115 -81.4936 832.396 -79.7743C834.115 -81.4936 836.903 -81.4936 838.623 -79.7743ZM1165.17 340.567C1163.49 338.881 1163.49 336.147 1165.17 334.462C1163.49 336.147 1160.75 336.147 1159.07 334.462C1160.75 336.147 1160.75 338.881 1159.07 340.567C1160.75 338.881 1163.49 338.881 1165.17 340.567ZM1165.04 13.7177C1163.35 12.0308 1163.35 9.2955 1165.04 7.60782C1163.35 9.29477 1160.62 9.29477 1158.93 7.60782C1160.62 9.29477 1160.62 12.03 1158.93 13.7177C1160.62 12.0308 1163.35 12.0308 1165.04 13.7177ZM954.866 456.722C953.254 455.11 953.254 452.496 954.866 450.883C953.254 452.495 950.639 452.495 949.027 450.883C950.639 452.495 950.639 455.109 949.027 456.722C950.639 455.11 953.253 455.11 954.866 456.722ZM1211.71 107.091C1210.1 105.485 1210.1 102.883 1211.71 101.277C1210.1 102.883 1207.5 102.883 1205.89 101.277C1207.5 102.883 1207.5 105.485 1205.89 107.091C1207.5 105.485 1210.1 105.485 1211.71 107.091ZM1095.33 -56.3145C1093.71 -57.9259 1093.71 -60.5373 1095.33 -62.1487C1093.71 -60.5373 1091.1 -60.5373 1089.49 -62.1487C1091.1 -60.5373 1091.1 -57.9259 1089.49 -56.3145C1091.1 -57.9259 1093.71 -57.9259 1095.33 -56.3145ZM674.98 269.973C673.473 268.465 673.473 266.02 674.98 264.513C673.473 266.02 671.027 266.02 669.52 264.513C671.027 266.02 671.027 268.465 669.52 269.973C671.027 268.465 673.473 268.465 674.98 269.973ZM675.03 83.4656C673.47 81.906 673.47 79.3781 675.03 77.8186C673.47 79.3781 670.942 79.3781 669.383 77.8186C670.942 79.3781 670.942 81.906 669.383 83.4656C670.942 81.9068 673.47 81.9068 675.03 83.4656ZM1211.71 246.88C1210.1 245.273 1210.1 242.667 1211.71 241.06C1210.1 242.667 1207.49 242.667 1205.89 241.06C1207.49 242.667 1207.49 245.273 1205.89 246.88C1207.49 245.273 1210.1 245.273 1211.71 246.88ZM1095.07 409.908C1093.47 408.307 1093.47 405.712 1095.07 404.111C1093.47 405.712 1090.88 405.712 1089.28 404.111C1090.88 405.712 1090.88 408.307 1089.28 409.908C1090.88 408.307 1093.47 408.307 1095.07 409.908ZM955.016 -103.187C953.431 -104.772 953.431 -107.341 955.016 -108.926C953.431 -107.341 950.861 -107.341 949.277 -108.926C950.862 -107.341 950.862 -104.772 949.277 -103.187C950.861 -104.772 953.431 -104.772 955.016 -103.187ZM908.616 -103.068C907.036 -104.647 907.036 -107.208 908.616 -108.788C907.036 -107.208 904.475 -107.208 902.895 -108.788C904.475 -107.208 904.475 -104.647 902.895 -103.068C904.474 -104.647 907.036 -104.647 908.616 -103.068ZM1188.36 37.0378C1186.82 35.4963 1186.82 32.9964 1188.36 31.4549C1186.82 32.9964 1184.32 32.9964 1182.78 31.4549C1184.32 32.9964 1184.32 35.4963 1182.78 37.0378C1184.32 35.4956 1186.82 35.4956 1188.36 37.0378ZM1188.28 316.546C1186.79 315.061 1186.79 312.652 1188.28 311.167C1186.79 312.652 1184.38 312.652 1182.9 311.167C1184.38 312.652 1184.38 315.061 1182.9 316.546C1184.38 315.061 1186.79 315.061 1188.28 316.546ZM1001.24 -103.361C999.82 -104.783 999.82 -107.09 1001.24 -108.512C999.82 -107.09 997.514 -107.09 996.092 -108.512C997.514 -107.09 997.514 -104.784 996.092 -103.361C997.514 -104.783 999.82 -104.783 1001.24 -103.361ZM651.301 153.172C649.854 151.725 649.854 149.379 651.301 147.932C649.854 149.379 647.509 149.379 646.061 147.932C647.508 149.379 647.508 151.724 646.061 153.172C647.508 151.725 649.854 151.725 651.301 153.172ZM651.566 199.789C650.147 198.37 650.147 196.069 651.566 194.649C650.147 196.068 647.846 196.068 646.426 194.649C647.845 196.068 647.845 198.369 646.426 199.789C647.846 198.37 650.147 198.37 651.566 199.789ZM721.454 -9.98325C720.011 -11.4261 720.011 -13.7661 721.454 -15.2097C720.011 -13.7668 717.671 -13.7668 716.228 -15.2097C717.67 -13.7668 717.67 -11.4268 716.228 -9.98325C717.671 -11.4261 720.01 -11.4261 721.454 -9.98325ZM1001.27 456.7C999.832 455.263 999.832 452.933 1001.27 451.496C999.832 452.933 997.502 452.933 996.065 451.496C997.502 452.933 997.502 455.263 996.065 456.7C997.502 455.263 999.832 455.263 1001.27 456.7ZM1071.25 433.245C1069.84 431.828 1069.84 429.531 1071.25 428.115C1069.84 429.531 1067.54 429.531 1066.13 428.115C1067.54 429.531 1067.54 431.828 1066.13 433.245C1067.54 431.828 1069.84 431.828 1071.25 433.245ZM721.45 362.891C720.087 361.527 720.087 359.316 721.45 357.951C720.087 359.315 717.875 359.315 716.511 357.951C717.874 359.315 717.874 361.527 716.511 362.891C717.875 361.527 720.086 361.527 721.45 362.891ZM744.741 386.478C743.307 385.045 743.307 382.721 744.741 381.287C743.307 382.721 740.983 382.721 739.55 381.287C740.983 382.721 740.983 385.045 739.55 386.478C740.983 385.045 743.307 385.045 744.741 386.478ZM745.016 -33.4279C743.567 -34.8765 743.567 -37.2259 745.016 -38.6745C743.567 -37.2259 741.218 -37.2259 739.769 -38.6745C741.218 -37.2259 741.218 -34.8765 739.769 -33.4279C741.218 -34.8772 743.567 -34.8772 745.016 -33.4279ZM1071.46 -80.2149C1070.04 -81.629 1070.04 -83.9208 1071.46 -85.3348C1070.04 -83.9208 1067.75 -83.9208 1066.34 -85.3348C1067.75 -83.9208 1067.75 -81.629 1066.34 -80.2149C1067.75 -81.6283 1070.04 -81.6283 1071.46 -80.2149ZM861.627 -103.487C860.239 -104.875 860.239 -107.124 861.627 -108.512C860.239 -107.124 857.99 -107.124 856.602 -108.512C857.99 -107.124 857.99 -104.875 856.602 -103.487C857.99 -104.875 860.239 -104.875 861.627 -103.487ZM767.955 409.919C766.564 408.529 766.564 406.275 767.955 404.886C766.564 406.276 764.311 406.276 762.921 404.886C764.311 406.276 764.311 408.53 762.921 409.919C764.311 408.529 766.565 408.529 767.955 409.919ZM768.099 -57.262C766.74 -58.6207 766.74 -60.8239 768.099 -62.1825C766.74 -60.8239 764.537 -60.8239 763.178 -62.1825C764.537 -60.8239 764.537 -58.6207 763.178 -57.262C764.537 -58.6207 766.739 -58.6207 768.099 -57.262ZM861.352 456.233C859.96 454.84 859.96 452.582 861.352 451.19C859.96 452.582 857.701 452.582 856.309 451.19C857.701 452.582 857.701 454.841 856.309 456.233C857.701 454.841 859.96 454.841 861.352 456.233ZM697.856 13.1273C696.471 11.7421 696.471 9.49565 697.856 8.11038C696.471 9.49565 694.224 9.49565 692.839 8.11038C694.224 9.49565 694.224 11.7421 692.839 13.1273C694.224 11.7421 696.471 11.7421 697.856 13.1273ZM697.921 339.374C696.648 338.102 696.648 336.037 697.921 334.764C696.648 336.037 694.583 336.037 693.31 334.764C694.583 336.037 694.583 338.102 693.31 339.374C694.583 338.102 696.648 338.102 697.921 339.374ZM1234.79 176.418C1233.48 175.11 1233.48 172.99 1234.79 171.682C1233.48 172.99 1231.36 172.99 1230.05 171.682C1231.36 172.99 1231.36 175.11 1230.05 176.418C1231.36 175.11 1233.48 175.11 1234.79 176.418ZM651.211 106.332C649.987 105.108 649.987 103.123 651.211 101.899C649.987 103.123 648.002 103.123 646.778 101.899C648.002 103.123 648.002 105.108 646.778 106.332C648.002 105.108 649.987 105.108 651.211 106.332ZM1211.06 293.017C1209.84 291.793 1209.84 289.809 1211.06 288.585C1209.84 289.809 1207.86 289.809 1206.63 288.585C1207.86 289.809 1207.86 291.793 1206.63 293.017C1207.86 291.793 1209.84 291.793 1211.06 293.017ZM790.741 432.719C789.526 431.504 789.526 429.536 790.741 428.321C789.526 429.536 787.558 429.536 786.343 428.321C787.558 429.536 787.558 431.504 786.343 432.719C787.558 431.505 789.526 431.505 790.741 432.719ZM674.272 35.9772C673.061 34.7662 673.061 32.8035 674.272 31.5924C673.061 32.8035 671.099 32.8035 669.888 31.5924C671.099 32.8035 671.099 34.7662 669.888 35.9765C671.099 34.7669 673.061 34.7669 674.272 35.9772ZM1210.91 59.5681C1209.69 58.3505 1209.69 56.377 1210.91 55.1595C1209.69 56.377 1207.72 56.377 1206.5 55.1595C1207.72 56.377 1207.72 58.3505 1206.5 59.5681C1207.71 58.3505 1209.69 58.3505 1210.91 59.5681ZM651.039 245.794C649.93 244.685 649.93 242.888 651.039 241.779C649.93 242.888 648.133 242.888 647.024 241.779C648.133 242.888 648.133 244.685 647.024 245.794C648.133 244.685 649.931 244.685 651.039 245.794ZM674.254 315.695C673.15 314.591 673.15 312.801 674.254 311.696C673.15 312.801 671.36 312.801 670.256 311.696C671.36 312.801 671.36 314.591 670.256 315.695C671.36 314.591 673.151 314.591 674.254 315.695ZM930.823 479.306C929.728 478.211 929.728 476.435 930.823 475.341C929.728 476.436 927.952 476.436 926.858 475.341C927.953 476.436 927.953 478.211 926.858 479.306C927.953 478.211 929.728 478.211 930.823 479.306ZM1047.48 456.131C1046.38 455.025 1046.38 453.233 1047.48 452.127C1046.38 453.233 1044.59 453.233 1043.48 452.127C1044.59 453.233 1044.59 455.025 1043.48 456.131C1044.59 455.026 1046.38 455.026 1047.48 456.131ZM930.684 -127.341C929.599 -128.426 929.599 -130.186 930.684 -131.271C929.599 -130.186 927.839 -130.186 926.754 -131.271C927.839 -130.186 927.839 -128.426 926.754 -127.341C927.839 -128.426 929.599 -128.426 930.684 -127.341ZM1047.35 -104.094C1046.27 -105.18 1046.27 -106.942 1047.35 -108.029C1046.27 -106.942 1044.5 -106.942 1043.42 -108.029C1044.5 -106.942 1044.5 -105.18 1043.42 -104.094C1044.5 -105.18 1046.27 -105.18 1047.35 -104.094ZM883.921 478.858C883.013 477.949 883.013 476.475 883.921 475.567C883.013 476.475 881.539 476.475 880.63 475.567C881.539 476.475 881.539 477.949 880.63 478.858C881.539 477.949 883.012 477.949 883.921 478.858ZM1163.9 -34.4841C1162.99 -35.3928 1162.99 -36.8666 1163.9 -37.7752C1162.99 -36.8666 1161.52 -36.8666 1160.61 -37.7752C1161.52 -36.8666 1161.52 -35.3928 1160.61 -34.4841C1161.52 -35.3928 1162.99 -35.3928 1163.9 -34.4841ZM977.254 478.759C976.346 477.851 976.346 476.379 977.254 475.471C976.346 476.379 974.874 476.379 973.966 475.471C974.874 476.379 974.874 477.851 973.966 478.759C974.874 477.851 976.346 477.851 977.254 478.759ZM1163.84 385.617C1162.93 384.708 1162.93 383.234 1163.84 382.325C1162.93 383.235 1161.46 383.235 1160.55 382.325C1161.46 383.235 1161.46 384.708 1160.55 385.617C1161.46 384.709 1162.93 384.709 1163.84 385.617ZM977.212 -127.433C976.202 -128.443 976.202 -130.081 977.212 -131.091C976.202 -130.081 974.565 -130.081 973.555 -131.091C974.565 -130.081 974.565 -128.443 973.555 -127.433C974.564 -128.443 976.202 -128.443 977.212 -127.433ZM884.037 -127.813C883.046 -128.804 883.046 -130.412 884.037 -131.403C883.046 -130.412 881.438 -130.412 880.447 -131.403C881.438 -130.412 881.438 -128.804 880.447 -127.813C881.438 -128.804 883.046 -128.804 884.037 -127.813ZM1140.44 409C1139.54 408.096 1139.54 406.629 1140.44 405.724C1139.54 406.628 1138.07 406.628 1137.17 405.724C1138.07 406.628 1138.07 408.095 1137.17 409C1138.07 408.095 1139.54 408.095 1140.44 409ZM814.215 -104.218C813.217 -105.215 813.217 -106.833 814.215 -107.83C813.217 -106.833 811.599 -106.833 810.602 -107.83C811.599 -106.833 811.599 -105.215 810.602 -104.218C811.6 -105.215 813.217 -105.215 814.215 -104.218ZM1117.23 -80.8629C1116.36 -81.7327 1116.36 -83.1439 1117.23 -84.0136C1116.36 -83.1439 1114.94 -83.1439 1114.07 -84.0136C1114.94 -83.1439 1114.94 -81.7327 1114.07 -80.8629C1114.94 -81.7327 1116.35 -81.7327 1117.23 -80.8629ZM1140.36 -57.7624C1139.49 -58.63 1139.49 -60.0369 1140.36 -60.9045C1139.49 -60.0369 1138.09 -60.0369 1137.22 -60.9045C1138.09 -60.0369 1138.09 -58.63 1137.22 -57.7624C1138.09 -58.6308 1139.49 -58.6308 1140.36 -57.7624ZM650.566 58.8949C649.695 58.0237 649.695 56.6103 650.566 55.7391C649.695 56.6103 648.282 56.6103 647.411 55.7391C648.282 56.6103 648.282 58.0237 647.411 58.8949C648.282 58.0237 649.695 58.0237 650.566 58.8949ZM627.058 175.281C626.223 174.446 626.223 173.093 627.058 172.258C626.223 173.093 624.87 173.093 624.035 172.258C624.87 173.093 624.87 174.446 624.035 175.281C624.87 174.446 626.223 174.446 627.058 175.281ZM1233.62 268.796C1232.79 267.962 1232.79 266.609 1233.62 265.774C1232.79 266.608 1231.44 266.608 1230.6 265.774C1231.43 266.608 1231.43 267.961 1230.6 268.796C1231.44 267.962 1232.79 267.962 1233.62 268.796ZM650.448 291.886C649.661 291.099 649.661 289.823 650.448 289.035C649.661 289.822 648.384 289.822 647.596 289.035C648.383 289.822 648.383 291.098 647.596 291.886C648.384 291.099 649.66 291.099 650.448 291.886ZM1233.83 82.2128C1233.02 81.3985 1233.02 80.078 1233.83 79.2636C1233.02 80.078 1231.7 80.078 1230.89 79.2636C1231.7 80.078 1231.7 81.3985 1230.89 82.2128C1231.7 81.3985 1233.02 81.3985 1233.83 82.2128ZM1187.05 362.133C1186.22 361.299 1186.22 359.948 1187.05 359.115C1186.22 359.948 1184.87 359.948 1184.03 359.115C1184.87 359.948 1184.87 361.299 1184.03 362.133C1184.87 361.3 1186.22 361.3 1187.05 362.133ZM1117.13 432.154C1116.28 431.307 1116.28 429.933 1117.13 429.086C1116.28 429.933 1114.91 429.933 1114.06 429.086C1114.91 429.933 1114.91 431.307 1114.06 432.154C1114.91 431.307 1116.28 431.307 1117.13 432.154ZM1186.99 -11.0603C1186.16 -11.8963 1186.16 -13.252 1186.99 -14.088C1186.16 -13.252 1184.8 -13.252 1183.97 -14.088C1184.8 -13.252 1184.8 -11.8963 1183.97 -11.0603C1184.8 -11.8963 1186.16 -11.8963 1186.99 -11.0603ZM626.834 128.648C626.107 127.921 626.107 126.742 626.834 126.015C626.107 126.742 624.928 126.742 624.201 126.015C624.928 126.742 624.928 127.921 624.201 128.648C624.927 127.921 626.107 127.921 626.834 128.648ZM1023.64 -128.003C1022.95 -128.693 1022.95 -129.811 1023.64 -130.501C1022.95 -129.811 1021.83 -129.811 1021.14 -130.501C1021.83 -129.811 1021.83 -128.693 1021.14 -128.003C1021.83 -128.693 1022.95 -128.693 1023.64 -128.003ZM1093.36 -104.719C1092.64 -105.437 1092.64 -106.601 1093.36 -107.319C1092.64 -106.601 1091.48 -106.601 1090.76 -107.319C1091.48 -106.601 1091.48 -105.437 1090.76 -104.719C1091.48 -105.437 1092.64 -105.437 1093.36 -104.719ZM626.946 221.642C626.263 220.958 626.263 219.849 626.946 219.166C626.263 219.849 625.154 219.849 624.471 219.166C625.154 219.849 625.154 220.958 624.471 221.642C625.154 220.958 626.262 220.958 626.946 221.642ZM1023.4 478.501C1022.74 477.846 1022.74 476.784 1023.4 476.129C1022.74 476.784 1021.68 476.784 1021.03 476.129C1021.68 476.784 1021.68 477.846 1021.03 478.501C1021.68 477.846 1022.74 477.846 1023.4 478.501ZM1093.38 455.056C1092.72 454.398 1092.72 453.332 1093.38 452.674C1092.72 453.332 1091.65 453.332 1091 452.674C1091.65 453.332 1091.65 454.398 1091 455.056C1091.65 454.398 1092.72 454.398 1093.38 455.056ZM836.74 -128.307C836.085 -128.962 836.085 -130.024 836.74 -130.679C836.085 -130.024 835.023 -130.024 834.367 -130.679C835.023 -130.024 835.023 -128.962 834.367 -128.307C835.023 -128.962 836.085 -128.962 836.74 -128.307ZM1210.18 338.803C1209.46 338.078 1209.46 336.902 1210.18 336.178C1209.46 336.903 1208.28 336.903 1207.56 336.178C1208.28 336.903 1208.28 338.078 1207.56 338.803C1208.28 338.078 1209.46 338.078 1210.18 338.803ZM1256.8 152.118C1256.07 151.392 1256.07 150.216 1256.8 149.49C1256.07 150.216 1254.89 150.216 1254.17 149.49C1254.89 150.216 1254.89 151.392 1254.17 152.118C1254.89 151.393 1256.07 151.393 1256.8 152.118ZM743.531 -81.652C742.879 -82.3044 742.879 -83.3613 743.531 -84.0136C742.879 -83.3613 741.822 -83.3613 741.17 -84.0136C741.822 -83.3613 741.822 -82.3044 741.17 -81.652C741.822 -82.3044 742.879 -82.3044 743.531 -81.652ZM696.819 -34.9392C696.166 -35.5915 696.166 -36.6484 696.819 -37.3008C696.166 -36.6484 695.109 -36.6484 694.457 -37.3008C695.109 -36.6484 695.109 -35.5915 694.457 -34.9392C695.109 -35.5915 696.167 -35.5915 696.819 -34.9392ZM720.124 -58.3276C719.49 -58.962 719.49 -59.9901 720.124 -60.6244C719.49 -59.9901 718.462 -59.9901 717.827 -60.6244C718.462 -59.9901 718.462 -58.962 717.827 -58.3276C718.461 -58.962 719.49 -58.962 720.124 -58.3276ZM720.185 408.351C719.539 407.705 719.539 406.659 720.185 406.013C719.539 406.659 718.492 406.659 717.847 406.013C718.493 406.659 718.493 407.706 717.847 408.351C718.493 407.705 719.54 407.705 720.185 408.351ZM696.753 384.929C696.122 384.298 696.122 383.276 696.753 382.645C696.122 383.276 695.1 383.276 694.469 382.645C695.1 383.276 695.1 384.298 694.469 384.929C695.1 384.298 696.122 384.298 696.753 384.929ZM1256.72 198.47C1256.05 197.806 1256.05 196.729 1256.72 196.064C1256.05 196.729 1254.98 196.729 1254.31 196.064C1254.98 196.729 1254.98 197.806 1254.31 198.47C1254.98 197.807 1256.05 197.807 1256.72 198.47ZM836.676 478.393C836.031 477.748 836.031 476.703 836.676 476.058C836.031 476.703 834.986 476.703 834.341 476.058C834.985 476.703 834.985 477.748 834.341 478.393C834.986 477.748 836.031 477.748 836.676 478.393ZM743.415 431.581C742.77 430.935 742.77 429.889 743.415 429.243C742.77 429.889 741.723 429.889 741.078 429.243C741.723 429.889 741.723 430.935 741.078 431.581C741.723 430.936 742.77 430.936 743.415 431.581ZM1210.02 11.9465C1209.39 11.3122 1209.39 10.2841 1210.02 9.64973C1209.39 10.2841 1208.36 10.2841 1207.72 9.64973C1208.36 10.2841 1208.36 11.3122 1207.72 11.9465C1208.36 11.3122 1209.39 11.3122 1210.02 11.9465ZM906.34 501.263C905.887 500.81 905.887 500.076 906.34 499.623C905.887 500.076 905.153 500.076 904.7 499.623C905.153 500.076 905.153 500.81 904.7 501.263C905.153 500.81 905.887 500.81 906.34 501.263ZM1256.3 244.751C1255.85 244.298 1255.85 243.564 1256.3 243.111C1255.85 243.564 1255.11 243.564 1254.66 243.111C1255.11 243.564 1255.11 244.298 1254.66 244.751C1255.11 244.298 1255.85 244.298 1256.3 244.751ZM906.519 -152.008C906.066 -152.461 906.066 -153.196 906.519 -153.648C906.066 -153.196 905.331 -153.196 904.878 -153.648C905.331 -153.196 905.331 -152.461 904.878 -152.008C905.331 -152.461 906.066 -152.461 906.519 -152.008ZM953.082 -151.805C952.625 -152.262 952.625 -153.004 953.082 -153.461C952.625 -153.004 951.884 -153.004 951.426 -153.461C951.884 -153.004 951.884 -152.262 951.426 -151.805C951.884 -152.262 952.625 -152.262 953.082 -151.805ZM673.061 361.219C672.616 360.774 672.616 360.053 673.061 359.608C672.616 360.053 671.896 360.053 671.451 359.608C671.896 360.053 671.896 360.774 671.451 361.219C671.895 360.774 672.616 360.774 673.061 361.219ZM626.456 267.938C626.005 267.488 626.005 266.757 626.456 266.307C626.005 266.757 625.275 266.757 624.824 266.307C625.275 266.757 625.275 267.488 624.824 267.938C625.275 267.488 626.005 267.488 626.456 267.938ZM1232.94 314.862C1232.49 314.408 1232.49 313.67 1232.94 313.216C1232.49 313.67 1231.75 313.67 1231.3 313.216C1231.75 313.67 1231.75 314.408 1231.3 314.862C1231.75 314.408 1232.49 314.408 1232.94 314.862ZM1015.32 94.3628V94.3599H1015.32V94.3628H1015.32ZM980.693 389.119C977.806 386.231 977.806 381.551 980.693 378.663C977.806 381.551 973.125 381.551 970.238 378.663C973.125 381.551 973.125 386.231 970.238 389.119C973.125 386.231 977.806 386.231 980.693 389.119ZM818.2 40.0618C814.767 36.6281 814.767 31.0618 818.2 27.6281C814.767 31.0618 809.2 31.0618 805.767 27.6281C809.2 31.0618 809.2 36.6281 805.767 40.0618C809.2 36.6288 814.767 36.6288 818.2 40.0618ZM908.464 456.624C906.858 455.019 906.858 452.414 908.464 450.809C906.858 452.414 904.254 452.414 902.649 450.809C904.254 452.414 904.254 455.019 902.649 456.624C904.254 455.018 906.858 455.018 908.464 456.624ZM985.513 160.562C980.029 155.077 980.029 146.185 985.513 140.701C980.029 146.185 971.137 146.185 965.653 140.701C971.137 146.185 971.137 155.077 965.653 160.562C971.137 155.077 980.029 155.077 985.513 160.562ZM1051.9 320.29C1048.38 316.775 1048.38 311.076 1051.9 307.561C1048.38 311.076 1042.68 311.076 1039.17 307.561C1042.68 311.076 1042.68 316.774 1039.17 320.29C1042.68 316.775 1048.38 316.775 1051.9 320.29ZM915.76 184.028C910.139 178.407 910.139 169.294 915.76 163.673C910.139 169.294 901.026 169.294 895.405 163.673C901.026 169.294 901.026 178.407 895.405 184.028C901.026 178.407 910.139 178.407 915.76 184.028ZM932.665 434.237C930.617 432.189 930.617 428.87 932.665 426.823C930.617 428.87 927.298 428.87 925.251 426.823C927.298 428.87 927.298 432.19 925.251 434.237C927.298 432.19 930.617 432.19 932.665 434.237ZM794.892 296.458C791.589 293.156 791.589 287.801 794.892 284.498C791.589 287.801 786.235 287.801 782.932 284.498C786.235 287.801 786.235 293.156 782.932 296.458C786.235 293.156 791.589 293.156 794.892 296.458ZM796.135 204.29C792.201 200.356 792.201 193.978 796.135 190.045C792.201 193.978 785.823 193.978 781.89 190.045C785.823 193.978 785.823 200.356 781.89 204.29C785.823 200.356 792.201 200.356 796.135 204.29ZM958.255 -6.76195C954.945 -10.0725 954.945 -15.4394 958.255 -18.7492C954.944 -15.4387 949.577 -15.4387 946.268 -18.7492C949.578 -15.4387 949.578 -10.0718 946.268 -6.76195C949.578 -10.0725 954.945 -10.0725 958.255 -6.76195ZM1121.29 109.87C1118.08 106.664 1118.08 101.466 1121.29 98.2608C1118.08 101.467 1112.88 101.467 1109.68 98.2608C1112.88 101.467 1112.88 106.665 1109.68 109.87C1112.88 106.664 1118.08 106.664 1121.29 109.87ZM1144.29 132.739C1141.34 129.79 1141.34 125.007 1144.29 122.058C1141.34 125.007 1136.55 125.007 1133.6 122.058C1136.55 125.007 1136.55 129.79 1133.6 132.739C1136.55 129.79 1141.34 129.79 1144.29 132.739ZM885.725 434.011C883.807 432.093 883.807 428.984 885.725 427.065C883.807 428.984 880.698 428.984 878.78 427.065C880.698 428.984 880.698 432.093 878.78 434.011C880.697 432.093 883.807 432.093 885.725 434.011ZM841.431 16.3047C838.224 13.0978 838.224 7.89868 841.431 4.6918C838.224 7.89868 833.025 7.89868 829.818 4.6918C833.025 7.89868 833.025 13.0978 829.818 16.3047C833.025 13.0978 838.224 13.0978 841.431 16.3047ZM699.46 107.602C697.335 105.477 697.335 102.033 699.46 99.9082C697.335 102.033 693.891 102.033 691.766 99.9082C693.891 102.033 693.891 105.477 691.766 107.602C693.891 105.477 697.335 105.477 699.46 107.602ZM818.277 319.86C814.97 316.553 814.97 311.19 818.277 307.883C814.97 311.191 809.608 311.191 806.3 307.883C809.608 311.191 809.608 316.553 806.3 319.86C809.607 316.553 814.97 316.553 818.277 319.86ZM723.178 84.8595C720.773 82.454 720.773 78.5544 723.178 76.1489C720.773 78.5544 716.873 78.5544 714.468 76.1489C716.873 78.5544 716.873 82.454 714.468 84.8595C716.873 82.454 720.773 82.454 723.178 84.8595ZM867.708 136.039C862.878 131.21 862.878 123.379 867.708 118.55C862.878 123.379 855.048 123.379 850.218 118.55C855.048 123.379 855.048 131.21 850.218 136.039C855.047 131.21 862.878 131.21 867.708 136.039ZM867.562 229.34C862.742 224.519 862.742 216.704 867.562 211.884C862.742 216.704 854.927 216.704 850.107 211.884C854.927 216.704 854.927 224.519 850.107 229.34C854.927 224.519 862.742 224.519 867.562 229.34ZM748.016 156.163C744.868 153.015 744.868 147.913 748.016 144.766C744.868 147.913 739.767 147.913 736.619 144.766C739.767 147.913 739.767 153.015 736.619 156.163C739.767 153.015 744.869 153.015 748.016 156.163ZM1028.36 343.353C1024.99 339.981 1024.99 334.514 1028.36 331.143C1024.99 334.515 1019.52 334.515 1016.15 331.143C1019.52 334.515 1019.52 339.981 1016.15 343.353C1019.52 339.981 1024.99 339.981 1028.36 343.353ZM790.868 -80.7391C789.764 -81.8428 789.764 -83.6328 790.868 -84.7372C789.764 -83.6335 787.974 -83.6335 786.87 -84.7372C787.973 -83.6335 787.973 -81.8436 786.87 -80.7391C787.974 -81.8436 789.764 -81.8436 790.868 -80.7391ZM813.792 455.534C812.887 454.629 812.887 453.163 813.792 452.258C812.887 453.163 811.42 453.163 810.515 452.258C811.42 453.163 811.42 454.629 810.515 455.534C811.419 454.629 812.887 454.629 813.792 455.534ZM1028.39 16.8461C1025.01 13.4636 1025.01 7.98004 1028.39 4.59821C1025.01 7.98076 1019.53 7.98076 1016.14 4.59821C1019.53 7.98076 1019.53 13.4643 1016.14 16.8461C1019.53 13.4643 1025.01 13.4643 1028.39 16.8461ZM1234.24 222.75C1233.13 221.644 1233.13 219.852 1234.24 218.746C1233.13 219.852 1231.34 219.852 1230.23 218.746C1231.34 219.852 1231.34 221.644 1230.23 222.75C1231.34 221.645 1233.13 221.645 1234.24 222.75ZM1234.23 129.313C1233.12 128.208 1233.12 126.415 1234.23 125.31C1233.12 126.415 1231.33 126.415 1230.22 125.31C1231.33 126.415 1231.33 128.208 1230.22 129.313C1231.33 128.208 1233.12 128.208 1234.23 129.313ZM766.412 454.561C765.973 454.122 765.973 453.41 766.412 452.971C765.973 453.41 765.261 453.41 764.823 452.971C765.262 453.41 765.262 454.122 764.823 454.561C765.261 454.122 765.973 454.122 766.412 454.561ZM626.469 81.3185C626.031 80.88 626.031 80.1694 626.469 79.7317C626.031 80.1701 625.32 80.1701 624.883 79.7317C625.321 80.1701 625.321 80.8808 624.883 81.3185C625.32 80.8808 626.031 80.8808 626.469 81.3185ZM673.008 -12.0064C672.564 -12.4507 672.564 -13.1714 673.008 -13.6163C672.564 -13.1721 671.843 -13.1721 671.398 -13.6163C671.842 -13.1721 671.842 -12.4514 671.398 -12.0064C671.843 -12.4507 672.564 -12.4507 673.008 -12.0064ZM953.028 501.302C952.589 500.864 952.589 500.153 953.028 499.716C952.589 500.154 951.879 500.154 951.441 499.716C951.879 500.154 951.879 500.865 951.441 501.302C951.879 500.864 952.589 500.864 953.028 501.302ZM1256.34 104.714C1255.9 104.275 1255.9 103.564 1256.34 103.127C1255.9 103.565 1255.19 103.565 1254.75 103.127C1255.19 103.565 1255.19 104.276 1254.75 104.714C1255.19 104.275 1255.9 104.275 1256.34 104.714ZM1233.02 34.9548C1232.57 34.5106 1232.57 33.7899 1233.02 33.3449C1232.57 33.7892 1231.85 33.7892 1231.41 33.3449C1231.85 33.7892 1231.85 34.5099 1231.41 34.9548C1231.85 34.5099 1232.57 34.5099 1233.02 34.9548ZM766.422 -105.453C765.984 -105.892 765.984 -106.601 766.422 -107.04C765.984 -106.601 765.274 -106.601 764.835 -107.04C765.274 -106.601 765.274 -105.892 764.835 -105.453C765.274 -105.892 765.985 -105.892 766.422 -105.453Z" fill="white"/>
</g>
<defs>
<linearGradient id="paint0_linear_19890_2301" x1="560" y1="0" x2="560" y2="348" gradientUnits="userSpaceOnUse">
<stop stop-color="#3A98FD"/>
<stop offset="1" stop-color="#0453A9"/>
</linearGradient>
<clipPath id="clip0_19890_2301">
<rect width="1120" height="348" rx="24" fill="white"/>
</clipPath>
</defs>
</svg>
