<svg width="33" height="32" viewBox="0 0 33 32" fill="none" xmlns="http://www.w3.org/2000/svg">
<path fill-rule="evenodd" clip-rule="evenodd" d="M27.6663 4.5954C24.9345 1.89472 21.3171 0.273459 17.4832 0.0315442C13.6493 -0.210371 9.85792 0.945446 6.80922 3.28255C3.76053 5.61965 1.6611 8.98099 0.897154 12.7469C0.134626 16.5115 0.759928 20.426 2.65988 23.7661L0.40625 31.9983L8.82943 29.79C11.158 31.0604 13.7696 31.7253 16.4222 31.7253C19.5628 31.7196 22.6313 30.7845 25.2401 29.0373C27.8502 27.2902 29.8831 24.8102 31.0856 21.9086C32.2881 19.007 32.6036 15.8155 31.9939 12.7342C31.3841 9.65298 29.8761 6.82215 27.6606 4.59823H27.6663V4.5954ZM16.4264 29.0402C14.061 29.0402 11.7409 28.4049 9.70513 27.1996L9.22272 26.9054L4.21606 28.2154L5.55296 23.353L5.24031 22.855C3.68413 20.3751 2.99517 17.4494 3.28377 14.5351C3.57096 11.6223 4.82014 8.88621 6.83186 6.7599C8.84358 4.63218 11.5046 3.23445 14.3977 2.78457C17.2908 2.33469 20.2504 2.85955 22.8138 4.27567C25.3759 5.6918 27.3961 7.91855 28.5547 10.6079C29.7134 13.2959 29.9454 16.2936 29.2154 19.1287C28.4854 21.9638 26.833 24.4763 24.52 26.2702C22.2069 28.064 19.3619 29.0387 16.4349 29.0402H16.4264ZM23.657 19.1499C23.2623 18.949 21.3015 17.9899 20.945 17.8569C20.5885 17.7239 20.3183 17.6602 20.0608 18.0578C19.8047 18.4553 19.0366 19.348 18.8031 19.6125C18.5711 19.8771 18.3405 19.9068 17.943 19.713C16.7744 19.2504 15.6964 18.5883 14.7528 17.7578C13.8856 16.9543 13.1415 16.0277 12.5445 15.0077C12.3153 14.6101 12.5204 14.3951 12.7185 14.1984C12.9151 14.0018 13.116 13.7358 13.307 13.5038C13.4697 13.3029 13.6027 13.0794 13.7017 12.8417C13.7554 12.7328 13.7795 12.6111 13.7738 12.4895C13.7682 12.3678 13.7328 12.2504 13.6691 12.1457C13.5715 11.9448 12.785 9.99251 12.4468 9.20027C12.1087 8.40804 11.7961 8.53112 11.5641 8.5198C11.332 8.50848 11.0689 8.5198 10.8044 8.5198C10.6035 8.52546 10.4054 8.57214 10.2229 8.65844C10.0404 8.74474 9.87914 8.8664 9.74616 9.01778C9.29911 9.43795 8.94261 9.94583 8.70069 10.5103C8.45877 11.0748 8.33711 11.6831 8.34135 12.2957C8.34135 14.2508 9.76314 16.1239 9.9612 16.4011C10.1578 16.6784 12.7623 20.6778 16.7348 22.3981C17.4733 22.7178 18.2288 22.9965 18.9969 23.2342C19.8076 23.4803 20.6635 23.5327 21.4967 23.3898C22.2593 23.2752 23.8522 22.4292 24.1762 21.5026C24.5002 20.5745 24.5058 19.7795 24.4082 19.6154C24.3134 19.447 24.0673 19.348 23.657 19.1499Z" fill="#25D366"/>
</svg>
