<svg width="32" height="32" viewBox="0 0 32 32" fill="none" xmlns="http://www.w3.org/2000/svg">
<path d="M16.0671 0C7.28517 0 0.136911 7.11296 0.133186 15.8554C0.132254 18.65 0.866174 21.3778 2.26043 23.7822L0 32L8.44659 29.7949C10.7741 31.0583 13.394 31.7238 16.0605 31.7247H16.0671C24.848 31.7247 31.9963 24.6108 32 15.8684C32.0019 11.6316 30.3459 7.64778 27.3376 4.65114C24.3292 1.65357 20.329 0.00185378 16.0671 0ZM16.0671 29.0469H16.0615C13.6855 29.0469 11.3543 28.4102 9.32115 27.2098L8.83777 26.9243L3.82607 28.2331L5.16351 23.3697L4.84871 22.871C3.52337 20.7726 2.82298 18.3469 2.82391 15.8573C2.82671 8.59043 8.76791 2.67872 16.0726 2.67872C19.61 2.67964 22.935 4.05237 25.4348 6.54385C27.9355 9.03441 29.3111 12.3462 29.3102 15.8675C29.3074 23.1343 23.3662 29.0469 16.0671 29.0469ZM23.3308 19.1765C22.9331 18.9781 20.9754 18.0197 20.6103 17.8872C20.2452 17.7546 19.9797 17.6888 19.7143 18.0855C19.4489 18.4822 18.6861 19.3748 18.4542 19.639C18.2222 19.9041 17.9894 19.9365 17.5917 19.7382C17.194 19.5398 15.9106 19.1208 14.3906 17.7713C13.2068 16.7211 12.4077 15.4235 12.1758 15.0268C11.9439 14.6301 12.1506 14.4159 12.3509 14.2185C12.5297 14.0415 12.7486 13.756 12.9479 13.5243C13.1472 13.2926 13.2133 13.1276 13.3456 12.8625C13.4778 12.5983 13.4117 12.3666 13.3121 12.1682C13.2124 11.9699 12.4161 10.0197 12.0845 9.22628C11.7613 8.45418 11.4335 8.55799 11.1885 8.54594C10.9566 8.53389 10.6912 8.53204 10.4258 8.53204C10.1603 8.53204 9.72909 8.63121 9.36399 9.02792C8.99889 9.42463 7.97066 10.383 7.97066 12.3332C7.97066 14.2834 9.39752 16.1678 9.5959 16.4319C9.79521 16.6961 12.403 20.6984 16.3968 22.4141C17.3468 22.8219 18.0881 23.0657 18.6665 23.2483C19.6202 23.5495 20.4883 23.5069 21.1738 23.4049C21.9384 23.2909 23.5292 22.4465 23.8608 21.5206C24.1923 20.5955 24.1923 19.8021 24.0927 19.6362C23.993 19.4712 23.7276 19.372 23.3299 19.1737L23.3308 19.1765Z" fill="white"/>
</svg>
