<svg width="63" height="29" viewBox="0 0 63 29" fill="none" xmlns="http://www.w3.org/2000/svg">
<g clip-path="url(#clip0_17781_709)">
<path d="M0.273438 15.0372C0.273438 7.30384 6.62775 1.02051 14.3941 1.02051C22.2148 1.02051 28.5148 7.30384 28.5148 15.0372C28.5148 18.5816 31.3933 21.4279 34.9234 21.4279C38.4536 21.4279 41.2777 18.5816 41.2777 15.0372C41.2777 11.5464 38.4536 8.64643 34.9234 8.64643C33.2398 8.64643 31.7191 9.39829 30.6329 10.365C29.8726 7.84088 28.5148 5.42421 26.7226 3.59829C29.0579 1.93347 31.8277 1.02051 34.9234 1.02051C42.6898 1.02051 49.1527 7.30384 49.1527 15.0372C49.1527 22.7705 42.6898 29.0001 34.9234 29.0001C27.0484 29.0001 20.7484 22.7705 20.7484 15.0372C20.7484 11.5464 17.9243 8.70014 14.3941 8.70014C10.8096 8.70014 8.03982 11.5464 8.03982 15.0372C8.03982 18.5816 10.8096 21.4279 14.3941 21.4279C16.0777 21.4279 17.5984 20.7298 18.739 19.7094C19.445 22.2872 20.7484 24.5427 22.5407 26.4761C20.2596 28.0872 17.4898 29.0001 14.3941 29.0001C6.62775 29.0001 0.273438 22.7705 0.273438 15.0372Z" fill="black"/>
<path d="M50.7754 17.8639C52.131 16.5235 53.6951 15.9048 55.4678 15.9048C57.3448 15.9048 58.9089 16.5235 60.1602 17.8639C61.5158 19.1012 62.1415 20.6479 62.1415 22.4008C62.1415 24.2568 61.5158 25.8035 60.1602 27.1439C58.9089 28.3812 57.3448 28.9999 55.4678 28.9999C53.6951 28.9999 52.131 28.3812 50.7754 27.1439C49.5241 25.8035 48.8984 24.2568 48.8984 22.4008C48.8984 20.6479 49.5241 19.1012 50.7754 17.8639Z" fill="#FF5B04"/>
</g>
<defs>
<clipPath id="clip0_17781_709">
<rect width="63" height="29" fill="white"/>
</clipPath>
</defs>
</svg>
